<?xml version="1.0" encoding="UTF-8" standalone="no"?>
<svg
   version="1.0"
   width="168.40158pt"
   height="47.776718pt"
   viewBox="0 0 168.40158 47.776718"
   preserveAspectRatio="xMidYMid"
   id="svg12"
   xmlns="http://www.w3.org/2000/svg"
   xmlns:svg="http://www.w3.org/2000/svg">
  <defs
     id="defs16" />
  <path
     id="path236"
     style="fill:#000000;stroke:none;stroke-width:0.1"
     d="M 76.100306,4.3197369 C 72.282803,4.7606683 69.961778,4.3758097 63.301966,2.9339947 51.101978,0.33399732 22.601373,-0.9651246 16.20138,0.8348736 13.001383,1.7348727 11.201768,3.1352679 8.6017706,6.7352643 4.3017749,12.635258 -0.09832691,21.335169 0.00167299,23.635167 c 0,0.999999 2.40019811,6.499224 5.20019531,12.199219 4.7999947,9.59999 5.4997097,10.600879 8.6997067,11.400879 4.899995,1.299998 30.90001,0.09863 40.5,-1.901368 10.09999,-2.099998 12.300986,-2.098923 21.500977,0.101075 0.06707,0.01578 0.131096,0.02699 0.197754,0.04248 v -17.01123 c -3.094651,1.619316 -5.730356,3.036435 -6.89795,3.769043 -5.199994,3.299996 -9.100793,4.39922 -20.800781,6.199218 -9.299991,1.399999 -23.499023,2.000097 -23.499023,1.100098 0,-0.3 4.699322,-3.399418 10.299316,-6.899414 14.199986,-8.899991 31.099423,-17.200686 39.899414,-19.700684 0.287693,-0.07814 0.684307,-0.153671 0.999024,-0.231445 z M 24.11886,7.9540143 c 2.85781,-0.04375 6.608599,0.1062501 11.683594,0.28125 9.69999,0.3999996 18.899416,0.8993168 20.399414,1.2993164 2.699997,0.5999993 2.200284,1.0003953 -7.199707,5.9003913 -5.599994,2.999997 -15.300592,8.699418 -21.600586,12.899414 -6.399993,4.199995 -11.900293,7.599609 -12.300293,7.599609 -0.499999,0 -5.5000989,-8.19932 -7.1000973,-11.799316 0,-0.1 1.2007828,-2.800004 2.8007813,-6 C 15.001962,9.9596868 15.545431,8.0852641 24.11886,7.9540143 Z m 130.35791,1.8662109 c 2.76875,-0.067187 5.7253,-0.060351 8.9253,0.014648 l 4.99951,0.099609 -15,7.8002928 c -8.29999,4.299996 -16.9001,9.000392 -19.1001,10.400391 -6.59999,4.199996 -15.3003,7.49922 -24.30029,9.199219 -8.49999,1.599998 -24.299621,2.100877 -30.099615,0.900879 -3.099997,-0.6 -3.200389,-0.700978 -1.40039,-2.000977 0.999999,-0.699999 6.100884,-3.499221 11.400878,-6.199219 15.099987,-7.699992 32.999717,-15.000491 43.199707,-17.500488 6.45,-1.649998 13.06876,-2.512793 21.375,-2.7143548 z" />
</svg>
