<?xml version="1.0" encoding="UTF-8" standalone="no"?>
<!-- Created with Inkscape (http://www.inkscape.org/) -->

<svg
   width="2.1889861mm"
   height="2.4747369mm"
   viewBox="0 0 2.1889861 2.4747369"
   version="1.1"
   id="svg5"
   xmlns="http://www.w3.org/2000/svg"
   xmlns:svg="http://www.w3.org/2000/svg">
  <defs
     id="defs2">
    <rect
       x="132.85077"
       y="343.05768"
       width="433.86707"
       height="159.75725"
       id="rect113" />
  </defs>
  <g
     id="layer1"
     transform="translate(-50.738505,-91.710845)">
    <path
       d="m 51.51675,92.445659 -0.229441,1.080556 h 0.572058 q 0.04341,0 0.05891,0.01394 0.0155,0.01241 0.0155,0.03721 0,0.03256 -0.02635,0.05581 -0.02479,0.02326 -0.07597,0.02326 h -1.018542 q -0.04341,0 -0.05891,-0.01394 -0.0155,-0.01394 -0.0155,-0.03876 0,-0.03101 0.02479,-0.05426 0.02635,-0.02326 0.07752,-0.02326 h 0.314709 L 51.384968,92.44566 H 51.10281 q -0.04341,0 -0.05891,-0.01394 -0.0155,-0.01394 -0.0155,-0.03876 0,-0.03101 0.02479,-0.05426 0.02635,-0.02479 0.07751,-0.02479 h 0.282155 l 0.04186,-0.196887 q 0.03565,-0.165884 0.193786,-0.285256 0.159681,-0.120922 0.381373,-0.120922 0.172082,0 0.37052,0.03101 0.08526,0.01394 0.09767,0.02791 0.01394,0.01394 0.01394,0.0341 0,0.03256 -0.02479,0.05581 -0.02326,0.02326 -0.06046,0.02326 -0.01085,0 -0.03876,-0.0047 -0.226343,-0.03565 -0.384471,-0.03565 -0.175183,0 -0.285255,0.08526 -0.110069,0.08372 -0.131773,0.189137 l -0.04186,0.196887 h 0.609267 q 0.04341,0 0.05736,0.01241 0.01707,0.0155 0.01707,0.04031 0,0.031 -0.02635,0.05581 -0.02479,0.02326 -0.07597,0.02326 z"
       style="font-style:italic;font-family:'Courier New';-inkscape-font-specification:'Courier New Italic';white-space:pre;stroke-width:0.264583"
       id="path255" />
    <path
       d="m 52.313601,93.290569 -0.02791,0.13126 q 0.113689,-0.09405 0.19327,-0.128159 0.08062,-0.03411 0.173633,-0.03411 0.128159,0 0.200507,0.06821 0.07338,0.06821 0.07338,0.176734 0,0.02066 -0.0052,0.04754 l -0.11679,0.546738 h 0.07338 q 0.02894,0 0.03927,0.0093 0.01035,0.0083 0.01035,0.02479 0,0.0217 -0.01757,0.03721 -0.01654,0.0155 -0.05064,0.0155 h -0.233577 q -0.02894,0 -0.03928,-0.0093 -0.01034,-0.0093 -0.01034,-0.02585 0,-0.02066 0.01654,-0.03617 0.01757,-0.0155 0.05168,-0.0155 h 0.07338 l 0.112654,-0.532268 q 0.0052,-0.02376 0.0052,-0.04547 0,-0.07545 -0.05271,-0.124023 -0.05271,-0.04961 -0.150895,-0.04961 -0.08992,0 -0.161232,0.03617 -0.07028,0.03617 -0.212905,0.170532 l -0.115755,0.544669 h 0.09818 q 0.02894,0 0.03928,0.0093 0.01034,0.0083 0.01034,0.02479 0,0.0217 -0.01757,0.03721 -0.01654,0.01551 -0.05064,0.01551 h -0.283188 q -0.02894,0 -0.03927,-0.0093 -0.01034,-0.0093 -0.01034,-0.02585 0,-0.02066 0.01654,-0.03617 0.01757,-0.01551 0.05168,-0.01551 h 0.09819 l 0.152963,-0.72037 h -0.07338 q -0.02894,0 -0.03927,-0.0093 -0.01035,-0.0093 -0.01035,-0.02585 0,-0.02066 0.01654,-0.03617 0.01757,-0.01654 0.05167,-0.01654 z"
       style="font-size:8px;white-space:pre;stroke-width:0.264583"
       id="path257" />
  </g>
</svg>
