<?xml version="1.0" encoding="UTF-8" standalone="no"?>
<!-- Created with Inkscape (http://www.inkscape.org/) -->

<svg
   width="2.235513mm"
   height="2.474746mm"
   viewBox="0 0 2.235513 2.474746"
   version="1.1"
   id="svg415"
   xmlns="http://www.w3.org/2000/svg"
   xmlns:svg="http://www.w3.org/2000/svg">
  <defs
     id="defs412" />
  <g
     id="layer1"
     transform="translate(-8.95004,-11.347373)">
    <path
       d="m 9.728279,12.082187 -0.229444,1.080556 h 0.572058 q 0.04341,0 0.05891,0.01394 0.0155,0.01241 0.0155,0.03721 0,0.03256 -0.02635,0.05581 -0.02479,0.02326 -0.07596,0.02326 H 9.02445 q -0.04341,0 -0.05891,-0.01394 -0.0155,-0.01394 -0.0155,-0.03876 0,-0.03101 0.02479,-0.05426 0.02635,-0.02326 0.07751,-0.02326 H 9.367048 L 9.596492,12.082188 H 9.314344 q -0.04341,0 -0.05891,-0.01394 -0.0155,-0.01394 -0.0155,-0.03876 0,-0.03101 0.02479,-0.05426 0.02635,-0.02479 0.07751,-0.02479 h 0.282154 l 0.04186,-0.196887 q 0.03566,-0.165884 0.193789,-0.285256 0.159678,-0.120922 0.38137,-0.120922 0.172083,0 0.37052,0.03101 0.08527,0.01394 0.09767,0.02791 0.01394,0.01394 0.01394,0.0341 0,0.03256 -0.02479,0.05581 -0.02326,0.02326 -0.06046,0.02326 -0.01085,0 -0.03876,-0.0047 -0.226343,-0.03565 -0.384474,-0.03565 -0.175184,0 -0.285253,0.08526 -0.110072,0.08372 -0.131776,0.189137 l -0.04186,0.196887 h 0.609264 q 0.04341,0 0.05736,0.01241 0.01704,0.0155 0.01704,0.04031 0,0.031 -0.02635,0.05581 -0.02479,0.02326 -0.07596,0.02326 z"
       style="font-style:italic;font-family:'Courier New';-inkscape-font-specification:'Courier New Italic';white-space:pre;stroke-width:0.264583"
       id="path251" />
    <path
       d="m 11.185553,12.927097 -0.01654,0.07751 -0.805119,0.730705 h 0.587044 l 0.02585,-0.119888 q 0.0062,-0.03101 0.02066,-0.04444 0.0155,-0.01344 0.03514,-0.01344 0.0155,0 0.02479,0.0093 0.01035,0.0093 0.01035,0.0217 0,0.01035 -0.0041,0.02687 l -0.04444,0.206705 h -0.79375 l 0.01654,-0.07752 0.80305,-0.729673 h -0.540536 l -0.02479,0.117824 q -0.0072,0.03204 -0.02273,0.04547 -0.01447,0.01241 -0.03411,0.01241 -0.01447,0 -0.02479,-0.0093 -0.0093,-0.0093 -0.0093,-0.0217 0,-0.0093 0.0031,-0.02687 l 0.04444,-0.205674 z"
       style="font-size:8px;white-space:pre;stroke-width:0.264583"
       id="path253" />
  </g>
</svg>
