<?xml version="1.0" encoding="UTF-8" standalone="no"?>
<svg
   viewBox="0 0 606.32616 482.51175"
   height="482.51172"
   width="606.32617"
   xml:space="preserve"
   id="svg2"
   version="1.1"
   xmlns="http://www.w3.org/2000/svg"
   xmlns:svg="http://www.w3.org/2000/svg"
   xmlns:rdf="http://www.w3.org/1999/02/22-rdf-syntax-ns#"
   xmlns:cc="http://creativecommons.org/ns#"
   xmlns:dc="http://purl.org/dc/elements/1.1/"><metadata
     id="metadata8"><rdf:RDF><cc:Work
         rdf:about=""><dc:format>image/svg+xml</dc:format><dc:type
           rdf:resource="http://purl.org/dc/dcmitype/StillImage" /></cc:Work></rdf:RDF></metadata><defs
     id="defs6" /><path
     id="path22"
     style="fill:#100f0d;fill-opacity:1;fill-rule:nonzero;stroke:none;stroke-width:0.133333"
     d="M 606.32618,65.123045 H 577.4805 L 576.94727,60.394535 525.16017,0 492.03908,65.123045 h -31.0254 L 460.4805,60.394535 408.65235,0 375.56056,65.123045 H 344.53321 L 344.01368,60.394535 292.18752,0 259.06641,65.123045 h -31 l -0.5332,-4.72851 L 175.72071,0 142.59963,65.123045 H 111.5742 L 111.0391,60.394535 59.2403,0 26.1192,65.123045 h -3.293 C 10.2395,65.123045 0,76.485835 0,90.535155 V 392.0039 c 0,14.02138 10.2395,25.38476 22.8262,25.38476 h 37.9473 l 0.5332,4.72852 51.8261,60.39453 33.10745,-65.12305 h 31.01367 l 0.51954,4.72852 51.82617,60.39453 33.1211,-65.12305 h 31.02539 l 0.52148,4.72852 51.79881,60.39453 33.12111,-65.12305 h 31.02539 l 0.53321,4.72852 51.80077,60.39453 33.10548,-65.12305 h 31.041 l 0.51953,4.72852 51.82617,60.39453 27.28711,-53.69727 z m -16.32617,338.999995 -6.73242,13.26562 -9.42774,18.5254 -15.91992,-18.5254 -6.77344,-7.89258 -36.98632,-331.078115 6.77344,-13.29492 9.40039,-18.52539 15.91991,18.52539 6.78517,7.92188 z m -116.46678,0 -6.77346,13.26562 -9.42577,18.5254 -15.90821,-18.5254 -6.77343,-7.89258 -36.95898,-331.078115 6.75975,-13.29492 9.41407,-18.52539 15.87891,18.52539 6.80077,7.92188 z m -116.48048,0 -6.75975,13.26562 -9.42578,18.5254 -15.91993,-18.5254 -6.75977,-7.89258 -36.96094,-331.078115 6.75977,-13.29492 9.40039,-18.52539 15.89258,18.52539 6.7871,7.92188 z m -116.4668,0 -6.75977,13.26562 -9.42578,18.5254 -15.91991,-18.5254 -6.77344,-7.89258 -36.96094,-331.078115 6.77344,-13.29492 9.4004,-18.52539 15.89257,18.52539 6.78711,7.92188 z m -116.49215,0 -6.7461,13.26562 -9.4278,18.5254 L 92,417.38866 85.2403,409.49608 48.2539,78.417965 l 6.7598,-13.29492 9.4394,-18.52539 15.8809,18.52539 6.7988,7.92188 z" /></svg>
