<?xml version="1.0" encoding="UTF-8" standalone="no"?>
<!-- Created with Inkscape (http://www.inkscape.org/) -->

<svg
   width="2.2810299mm"
   height="1.90563mm"
   viewBox="0 0 2.2810299 1.90563"
   version="1.1"
   id="svg325"
   xmlns="http://www.w3.org/2000/svg"
   xmlns:svg="http://www.w3.org/2000/svg">
  <defs
     id="defs322" />
  <g
     id="layer1"
     transform="translate(-107.08831,-151.32246)">
    <path
       d="m 107.79368,152.66504 h -0.22015 l -0.2775,-1.21078 h -0.13332 q -0.0434,0 -0.0589,-0.0139 -0.0155,-0.0139 -0.0155,-0.0388 0,-0.031 0.0248,-0.0543 0.0264,-0.0248 0.0775,-0.0248 h 0.48834 q 0.0434,0 0.0574,0.0124 0.017,0.0155 0.017,0.0403 0,0.031 -0.0263,0.0558 -0.0248,0.0233 -0.076,0.0233 h -0.21549 l 0.24805,1.08055 h 0.0574 l 0.69763,-1.08055 h -0.21702 q -0.0434,0 -0.0589,-0.0139 -0.0155,-0.0139 -0.0155,-0.0388 0,-0.031 0.0248,-0.0543 0.0264,-0.0248 0.0775,-0.0248 h 0.48989 q 0.0434,0 0.0574,0.0124 0.017,0.0155 0.017,0.0403 0,0.031 -0.0263,0.0558 -0.0248,0.0233 -0.076,0.0233 h -0.13178 z"
       style="font-style:italic;font-family:'Courier New';-inkscape-font-specification:'Courier New Italic';white-space:pre;stroke-width:0.264583"
       id="path243" />
    <path
       d="m 109.27214,152.38702 q 0.0124,-0.0589 0.0238,-0.0703 0.0176,-0.0176 0.0393,-0.0176 0.0145,0 0.0238,0.0103 0.0103,0.009 0.0103,0.0217 0,0.009 -0.003,0.0269 l -0.0424,0.19637 q -0.007,0.032 -0.0227,0.0455 -0.0145,0.0134 -0.0331,0.0134 -0.0155,0 -0.0258,-0.009 -0.009,-0.009 -0.009,-0.0217 0,-0.006 0.002,-0.0207 0.001,-0.008 0.001,-0.0165 0,-0.0703 -0.0661,-0.12092 -0.0868,-0.0682 -0.23048,-0.0682 -0.12609,0 -0.23771,0.062 -0.11162,0.061 -0.18087,0.18293 -0.0693,0.12196 -0.0693,0.24081 0,0.13539 0.0858,0.21808 0.0858,0.0816 0.23772,0.0816 0.0992,0 0.21187,-0.0362 0.11265,-0.0372 0.21704,-0.12093 0.0258,-0.0207 0.0434,-0.0207 0.0145,0 0.0238,0.009 0.009,0.008 0.009,0.0227 0,0.0207 -0.0207,0.0424 -0.0734,0.0765 -0.22014,0.13333 -0.14573,0.0568 -0.29456,0.0568 -0.17466,0 -0.27905,-0.10025 -0.10439,-0.10129 -0.10439,-0.26252 0,-0.12299 0.0517,-0.23461 0.0527,-0.11162 0.1323,-0.18913 0.0806,-0.0775 0.18396,-0.12506 0.10439,-0.0486 0.23255,-0.0486 0.10025,0 0.17776,0.03 0.0775,0.0289 0.13229,0.0889 z"
       style="font-size:8px;white-space:pre;stroke-width:0.264583"
       id="path245" />
  </g>
</svg>
