<?xml version="1.0" encoding="UTF-8" standalone="no"?>
<!-- Created with Inkscape (http://www.inkscape.org/) -->

<svg
   width="2.42733mm"
   height="1.87143mm"
   viewBox="0 0 2.42733 1.87143"
   version="1.1"
   id="svg375"
   xmlns="http://www.w3.org/2000/svg"
   xmlns:svg="http://www.w3.org/2000/svg">
  <defs
     id="defs372" />
  <g
     id="layer1"
     transform="translate(289.40455,-112.32682)">
    <path
       d="m -288.69918,113.6694 h -0.22014 l -0.27751,-1.21078 h -0.13332 q -0.0434,0 -0.0589,-0.0139 -0.0155,-0.0139 -0.0155,-0.0388 0,-0.031 0.0248,-0.0543 0.0263,-0.0248 0.0775,-0.0248 h 0.48834 q 0.0434,0 0.0574,0.0124 0.0171,0.0155 0.0171,0.0403 0,0.031 -0.0264,0.0558 -0.0248,0.0233 -0.076,0.0233 h -0.21549 l 0.24805,1.08056 h 0.0574 l 0.69763,-1.08056 h -0.21705 q -0.0434,0 -0.0589,-0.0139 -0.0155,-0.0139 -0.0155,-0.0388 0,-0.031 0.0248,-0.0543 0.0263,-0.0248 0.0775,-0.0248 h 0.4899 q 0.0434,0 0.0574,0.0124 0.0171,0.0155 0.0171,0.0403 0,0.031 -0.0263,0.0558 -0.0248,0.0233 -0.076,0.0233 h -0.13178 z"
       style="font-style:italic;font-family:'Courier New';-inkscape-font-specification:'Courier New Italic';white-space:pre;stroke-width:0.264583"
       id="path247" />
    <path
       d="m -287.64033,113.39138 -0.15296,0.72037 h 0.38137 q 0.0289,0 0.0393,0.009 0.0104,0.008 0.0104,0.0248 0,0.0217 -0.0176,0.0372 -0.0165,0.0155 -0.0506,0.0155 h -0.67903 q -0.0289,0 -0.0393,-0.009 -0.0104,-0.009 -0.0104,-0.0259 0,-0.0207 0.0165,-0.0362 0.0176,-0.0155 0.0517,-0.0155 h 0.2098 l 0.15297,-0.72037 h -0.18811 q -0.0289,0 -0.0393,-0.009 -0.0104,-0.009 -0.0104,-0.0258 0,-0.0207 0.0165,-0.0362 0.0176,-0.0165 0.0517,-0.0165 h 0.18811 l 0.0279,-0.13126 q 0.0238,-0.11058 0.1292,-0.19017 0.10645,-0.0806 0.25424,-0.0806 0.11473,0 0.24702,0.0207 0.0568,0.009 0.0651,0.0186 0.009,0.009 0.009,0.0227 0,0.0217 -0.0165,0.0372 -0.0155,0.0155 -0.0403,0.0155 -0.007,0 -0.0258,-0.003 -0.1509,-0.0238 -0.25632,-0.0238 -0.11679,0 -0.19017,0.0568 -0.0734,0.0558 -0.0879,0.12609 l -0.0279,0.13126 h 0.40618 q 0.0289,0 0.0382,0.008 0.0114,0.0104 0.0114,0.0269 0,0.0207 -0.0176,0.0372 -0.0165,0.0155 -0.0506,0.0155 z"
       style="font-size:8px;white-space:pre;stroke-width:0.264583"
       id="path249" />
  </g>
</svg>
