M48
; DRILL file {KiCad 7.0.5} date Thu Jul 27 14:44:28 2023
; FORMAT={-:-/ absolute / inch / decimal}
; #@! TF.CreationDate,2023-07-27T14:44:28-03:00
; #@! TF.GenerationSoftware,Kicad,Pcbnew,7.0.5
; #@! TF.FileFunction,Plated,1,4,PTH
FMAT,2
INCH
; #@! TA.AperFunction,Plated,PTH,ViaDrill
T1C0.0098
; #@! TA.AperFunction,Plated,PTH,ViaDrill
T2C0.0118
; #@! TA.AperFunction,Plated,PTH,ViaDrill
T3C0.0157
; #@! TA.AperFunction,Plated,PTH,ViaDrill
T4C0.0197
; #@! TA.AperFunction,Plated,PTH,ComponentDrill
T5C0.0236
; #@! TA.AperFunction,Plated,PTH,ComponentDrill
T6C0.0295
; #@! TA.AperFunction,Plated,PTH,ComponentDrill
T7C0.0394
%
G90
G05
T1
X3.9587Y-3.5728
X3.9783Y-3.2894
X3.9803Y-3.622
X3.9823Y-3.3268
X3.9862Y-3.5807
X3.998Y-3.2697
X4.0138Y-3.3504
X4.0177Y-3.5217
X4.0177Y-3.5492
X4.0224Y-3.4035
X4.0256Y-3.2677
X4.0323Y-3.4273
X4.0354Y-3.502
X4.0386Y-3.3837
X4.0433Y-3.5571
X4.0461Y-3.5298
X4.0551Y-3.2677
X4.0728Y-3.6417
X4.0748Y-3.5315
X4.0925Y-3.3543
X4.1024Y-3.5335
X4.1083Y-3.2884
X4.1201Y-3.3543
X4.1299Y-3.5335
X4.1437Y-3.3701
X4.1575Y-3.5315
X4.1673Y-3.3583
X4.1831Y-3.5315
X4.1909Y-3.2717
X4.1909Y-3.374
X4.2087Y-3.5236
X4.215Y-3.5536
X4.2185Y-3.2717
T2
X3.937Y-3.5531
X4.0217Y-3.4528
X4.0413Y-3.6299
X4.061Y-3.7559
X4.065Y-3.6732
X4.0768Y-3.4193
X4.0768Y-3.4921
X4.1142Y-3.1949
X4.1161Y-3.4488
X4.1417Y-8.5394
X4.1555Y-3.4193
X4.1555Y-3.4921
X4.1614Y-8.0433
X4.1732Y-8.2244
X4.1851Y-8.0669
X4.189Y-8.5394
X4.2146Y-3.4921
X4.217Y-3.4491
X4.2244Y-3.748
X4.2982Y-3.1722
X4.3091Y-3.748
X4.312Y-3.5906
X4.3248Y-3.8228
X4.3642Y-3.439
X4.3839Y-3.8228
X4.3878Y-3.7559
X4.3917Y-3.5866
X4.3917Y-3.6654
X4.3937Y-3.5167
X4.399Y-8.189
X4.4252Y-3.3406
X4.4409Y-3.5866
X4.4409Y-3.6654
X4.4902Y-3.5866
X4.4902Y-3.6654
X4.495Y-3.2195
X4.5064Y-3.7721
X4.5453Y-3.5866
X4.5453Y-3.6654
X4.5531Y-3.7559
T3
X3.1535Y-6.1417
X3.1535Y-6.5354
X3.1535Y-6.9291
X3.1535Y-7.3228
X3.1535Y-7.7165
X3.1535Y-8.1102
X3.1535Y-8.5039
X3.3858Y-7.9409
X3.8516Y-3.2
X3.8583Y-7.9409
X3.9764Y-4.3976
X4.1793Y-4.689
X4.2677Y-3.6122
X4.2972Y-3.4341
X4.2976Y-3.252
X4.3307Y-7.9409
X4.5413Y-3.5
X4.8031Y-7.9409
X4.899Y-5.185
X4.999Y-5.7795
X5.0354Y-4.0591
X5.1327Y-7.9118
X5.2205Y-8.4449
X5.2402Y-4.5354
X5.2717Y-7.7953
T4
X4.0551Y-8.3268
X4.2913Y-8.3268
X4.4488Y-8.4055
T6
X4.8445Y-8.2279
X4.9232Y-8.2279
T7
X3.5167Y-5.0384
X3.6167Y-5.0384
X3.6831Y-3.1535
X3.6831Y-3.2323
X3.6831Y-3.311
X3.6831Y-3.3898
X3.6831Y-3.4685
X3.6831Y-3.5472
X3.6831Y-3.626
X3.6831Y-3.7047
X3.6831Y-3.7835
X3.6831Y-3.8622
X3.7167Y-5.0384
X3.7421Y-3.1535
X3.7421Y-3.2323
X3.7421Y-3.311
X3.7421Y-3.3898
X3.7421Y-3.4685
X3.7421Y-3.5472
X3.7421Y-3.626
X3.7421Y-3.7047
X3.7421Y-3.7835
X3.7421Y-3.8622
X3.8167Y-5.0384
X3.8209Y-3.0157
X3.8209Y-3.0748
X3.8209Y-3.9409
X3.8209Y-4.0
X3.8996Y-3.0157
X3.8996Y-3.0748
X3.8996Y-3.9409
X3.8996Y-4.0
X3.9167Y-5.0384
X3.9783Y-3.0157
X3.9783Y-3.0748
X3.9783Y-3.9409
X3.9783Y-4.0
X4.0167Y-5.0384
X4.0571Y-3.0157
X4.0571Y-3.0748
X4.0571Y-3.9409
X4.0571Y-4.0
X4.1167Y-5.0384
X4.1358Y-3.0157
X4.1358Y-3.0748
X4.1358Y-3.9409
X4.1358Y-4.0
X4.2146Y-3.0157
X4.2146Y-3.0748
X4.2146Y-3.9409
X4.2146Y-4.0
X4.2167Y-5.0384
X4.2933Y-3.0157
X4.2933Y-3.0748
X4.2933Y-3.9409
X4.2933Y-4.0
X4.3167Y-5.0384
X4.372Y-3.0157
X4.372Y-3.0748
X4.372Y-3.9409
X4.372Y-4.0
X4.4167Y-5.0384
X4.4508Y-3.0157
X4.4508Y-3.0748
X4.4508Y-3.9409
X4.4508Y-4.0
X4.5167Y-5.0384
X4.5295Y-3.0157
X4.5295Y-3.0748
X4.5295Y-3.9409
X4.5295Y-4.0
X4.6083Y-3.1535
X4.6083Y-3.2323
X4.6083Y-3.311
X4.6083Y-3.3898
X4.6083Y-3.4685
X4.6083Y-3.5472
X4.6083Y-3.626
X4.6083Y-3.7047
X4.6083Y-3.7835
X4.6083Y-3.8622
X4.6167Y-5.0384
X4.6673Y-3.1535
X4.6673Y-3.2323
X4.6673Y-3.311
X4.6673Y-3.3898
X4.6673Y-3.4685
X4.6673Y-3.5472
X4.6673Y-3.626
X4.6673Y-3.7047
X4.6673Y-3.7835
X4.6673Y-3.8622
X4.7167Y-5.0384
X4.8167Y-5.0384
T5
G00X4.0039Y-8.535
M15
G01X4.0039Y-8.4917
M16
G05
G00X4.0039Y-8.6898
M15
G01X4.0039Y-8.6661
M16
G05
G00X4.3441Y-8.535
M15
G01X4.3441Y-8.4917
M16
G05
G00X4.3441Y-8.6898
M15
G01X4.3441Y-8.6661
M16
G05
T0
M30
