%TF.GenerationSoftware,KiCad,Pcbnew,7.0.5*%
%TF.CreationDate,2023-07-27T14:44:28-03:00*%
%TF.ProjectId,Open_Machinist_Calculator,4f70656e-5f4d-4616-9368-696e6973745f,rev?*%
%TF.SameCoordinates,Original*%
%TF.FileFunction,Legend,Top*%
%TF.FilePolarity,Positive*%
%FSLAX46Y46*%
G04 Gerber Fmt 4.6, Leading zero omitted, Abs format (unit mm)*
G04 Created by KiCad (PCBNEW 7.0.5) date 2023-07-27 14:44:28*
%MOMM*%
%LPD*%
G01*
G04 APERTURE LIST*
G04 Aperture macros list*
%AMRoundRect*
0 Rectangle with rounded corners*
0 $1 Rounding radius*
0 $2 $3 $4 $5 $6 $7 $8 $9 X,Y pos of 4 corners*
0 Add a 4 corners polygon primitive as box body*
4,1,4,$2,$3,$4,$5,$6,$7,$8,$9,$2,$3,0*
0 Add four circle primitives for the rounded corners*
1,1,$1+$1,$2,$3*
1,1,$1+$1,$4,$5*
1,1,$1+$1,$6,$7*
1,1,$1+$1,$8,$9*
0 Add four rect primitives between the rounded corners*
20,1,$1+$1,$2,$3,$4,$5,0*
20,1,$1+$1,$4,$5,$6,$7,0*
20,1,$1+$1,$6,$7,$8,$9,0*
20,1,$1+$1,$8,$9,$2,$3,0*%
G04 Aperture macros list end*
%ADD10C,0.150000*%
%ADD11C,0.120000*%
%ADD12C,0.010000*%
%ADD13RoundRect,0.250000X-0.250000X0.600000X-0.250000X-0.600000X0.250000X-0.600000X0.250000X0.600000X0*%
%ADD14R,1.700000X1.700000*%
%ADD15O,1.700000X1.700000*%
%ADD16C,1.350000*%
%ADD17R,3.000000X1.500000*%
%ADD18O,1.350000X1.350000*%
%ADD19RoundRect,0.250000X-0.350000X-0.625000X0.350000X-0.625000X0.350000X0.625000X-0.350000X0.625000X0*%
%ADD20O,1.200000X1.750000*%
%ADD21R,1.500000X3.000000*%
%ADD22C,0.650000*%
%ADD23O,1.000000X1.600000*%
%ADD24O,1.000000X2.100000*%
G04 APERTURE END LIST*
D10*
%TO.C,S24*%
X97092800Y-183611905D02*
X97045180Y-183754762D01*
X97045180Y-183754762D02*
X97045180Y-183992857D01*
X97045180Y-183992857D02*
X97092800Y-184088095D01*
X97092800Y-184088095D02*
X97140419Y-184135714D01*
X97140419Y-184135714D02*
X97235657Y-184183333D01*
X97235657Y-184183333D02*
X97330895Y-184183333D01*
X97330895Y-184183333D02*
X97426133Y-184135714D01*
X97426133Y-184135714D02*
X97473752Y-184088095D01*
X97473752Y-184088095D02*
X97521371Y-183992857D01*
X97521371Y-183992857D02*
X97568990Y-183802381D01*
X97568990Y-183802381D02*
X97616609Y-183707143D01*
X97616609Y-183707143D02*
X97664228Y-183659524D01*
X97664228Y-183659524D02*
X97759466Y-183611905D01*
X97759466Y-183611905D02*
X97854704Y-183611905D01*
X97854704Y-183611905D02*
X97949942Y-183659524D01*
X97949942Y-183659524D02*
X97997561Y-183707143D01*
X97997561Y-183707143D02*
X98045180Y-183802381D01*
X98045180Y-183802381D02*
X98045180Y-184040476D01*
X98045180Y-184040476D02*
X97997561Y-184183333D01*
X97949942Y-184564286D02*
X97997561Y-184611905D01*
X97997561Y-184611905D02*
X98045180Y-184707143D01*
X98045180Y-184707143D02*
X98045180Y-184945238D01*
X98045180Y-184945238D02*
X97997561Y-185040476D01*
X97997561Y-185040476D02*
X97949942Y-185088095D01*
X97949942Y-185088095D02*
X97854704Y-185135714D01*
X97854704Y-185135714D02*
X97759466Y-185135714D01*
X97759466Y-185135714D02*
X97616609Y-185088095D01*
X97616609Y-185088095D02*
X97045180Y-184516667D01*
X97045180Y-184516667D02*
X97045180Y-185135714D01*
X97711847Y-185992857D02*
X97045180Y-185992857D01*
X98092800Y-185754762D02*
X97378514Y-185516667D01*
X97378514Y-185516667D02*
X97378514Y-186135714D01*
%TO.C,S16*%
X121092800Y-163611905D02*
X121045180Y-163754762D01*
X121045180Y-163754762D02*
X121045180Y-163992857D01*
X121045180Y-163992857D02*
X121092800Y-164088095D01*
X121092800Y-164088095D02*
X121140419Y-164135714D01*
X121140419Y-164135714D02*
X121235657Y-164183333D01*
X121235657Y-164183333D02*
X121330895Y-164183333D01*
X121330895Y-164183333D02*
X121426133Y-164135714D01*
X121426133Y-164135714D02*
X121473752Y-164088095D01*
X121473752Y-164088095D02*
X121521371Y-163992857D01*
X121521371Y-163992857D02*
X121568990Y-163802381D01*
X121568990Y-163802381D02*
X121616609Y-163707143D01*
X121616609Y-163707143D02*
X121664228Y-163659524D01*
X121664228Y-163659524D02*
X121759466Y-163611905D01*
X121759466Y-163611905D02*
X121854704Y-163611905D01*
X121854704Y-163611905D02*
X121949942Y-163659524D01*
X121949942Y-163659524D02*
X121997561Y-163707143D01*
X121997561Y-163707143D02*
X122045180Y-163802381D01*
X122045180Y-163802381D02*
X122045180Y-164040476D01*
X122045180Y-164040476D02*
X121997561Y-164183333D01*
X121045180Y-165135714D02*
X121045180Y-164564286D01*
X121045180Y-164850000D02*
X122045180Y-164850000D01*
X122045180Y-164850000D02*
X121902323Y-164754762D01*
X121902323Y-164754762D02*
X121807085Y-164659524D01*
X121807085Y-164659524D02*
X121759466Y-164564286D01*
X122045180Y-165992857D02*
X122045180Y-165802381D01*
X122045180Y-165802381D02*
X121997561Y-165707143D01*
X121997561Y-165707143D02*
X121949942Y-165659524D01*
X121949942Y-165659524D02*
X121807085Y-165564286D01*
X121807085Y-165564286D02*
X121616609Y-165516667D01*
X121616609Y-165516667D02*
X121235657Y-165516667D01*
X121235657Y-165516667D02*
X121140419Y-165564286D01*
X121140419Y-165564286D02*
X121092800Y-165611905D01*
X121092800Y-165611905D02*
X121045180Y-165707143D01*
X121045180Y-165707143D02*
X121045180Y-165897619D01*
X121045180Y-165897619D02*
X121092800Y-165992857D01*
X121092800Y-165992857D02*
X121140419Y-166040476D01*
X121140419Y-166040476D02*
X121235657Y-166088095D01*
X121235657Y-166088095D02*
X121473752Y-166088095D01*
X121473752Y-166088095D02*
X121568990Y-166040476D01*
X121568990Y-166040476D02*
X121616609Y-165992857D01*
X121616609Y-165992857D02*
X121664228Y-165897619D01*
X121664228Y-165897619D02*
X121664228Y-165707143D01*
X121664228Y-165707143D02*
X121616609Y-165611905D01*
X121616609Y-165611905D02*
X121568990Y-165564286D01*
X121568990Y-165564286D02*
X121473752Y-165516667D01*
%TO.C,S34*%
X97092800Y-203611905D02*
X97045180Y-203754762D01*
X97045180Y-203754762D02*
X97045180Y-203992857D01*
X97045180Y-203992857D02*
X97092800Y-204088095D01*
X97092800Y-204088095D02*
X97140419Y-204135714D01*
X97140419Y-204135714D02*
X97235657Y-204183333D01*
X97235657Y-204183333D02*
X97330895Y-204183333D01*
X97330895Y-204183333D02*
X97426133Y-204135714D01*
X97426133Y-204135714D02*
X97473752Y-204088095D01*
X97473752Y-204088095D02*
X97521371Y-203992857D01*
X97521371Y-203992857D02*
X97568990Y-203802381D01*
X97568990Y-203802381D02*
X97616609Y-203707143D01*
X97616609Y-203707143D02*
X97664228Y-203659524D01*
X97664228Y-203659524D02*
X97759466Y-203611905D01*
X97759466Y-203611905D02*
X97854704Y-203611905D01*
X97854704Y-203611905D02*
X97949942Y-203659524D01*
X97949942Y-203659524D02*
X97997561Y-203707143D01*
X97997561Y-203707143D02*
X98045180Y-203802381D01*
X98045180Y-203802381D02*
X98045180Y-204040476D01*
X98045180Y-204040476D02*
X97997561Y-204183333D01*
X98045180Y-204516667D02*
X98045180Y-205135714D01*
X98045180Y-205135714D02*
X97664228Y-204802381D01*
X97664228Y-204802381D02*
X97664228Y-204945238D01*
X97664228Y-204945238D02*
X97616609Y-205040476D01*
X97616609Y-205040476D02*
X97568990Y-205088095D01*
X97568990Y-205088095D02*
X97473752Y-205135714D01*
X97473752Y-205135714D02*
X97235657Y-205135714D01*
X97235657Y-205135714D02*
X97140419Y-205088095D01*
X97140419Y-205088095D02*
X97092800Y-205040476D01*
X97092800Y-205040476D02*
X97045180Y-204945238D01*
X97045180Y-204945238D02*
X97045180Y-204659524D01*
X97045180Y-204659524D02*
X97092800Y-204564286D01*
X97092800Y-204564286D02*
X97140419Y-204516667D01*
X97711847Y-205992857D02*
X97045180Y-205992857D01*
X98092800Y-205754762D02*
X97378514Y-205516667D01*
X97378514Y-205516667D02*
X97378514Y-206135714D01*
%TO.C,S42*%
X133092800Y-213611905D02*
X133045180Y-213754762D01*
X133045180Y-213754762D02*
X133045180Y-213992857D01*
X133045180Y-213992857D02*
X133092800Y-214088095D01*
X133092800Y-214088095D02*
X133140419Y-214135714D01*
X133140419Y-214135714D02*
X133235657Y-214183333D01*
X133235657Y-214183333D02*
X133330895Y-214183333D01*
X133330895Y-214183333D02*
X133426133Y-214135714D01*
X133426133Y-214135714D02*
X133473752Y-214088095D01*
X133473752Y-214088095D02*
X133521371Y-213992857D01*
X133521371Y-213992857D02*
X133568990Y-213802381D01*
X133568990Y-213802381D02*
X133616609Y-213707143D01*
X133616609Y-213707143D02*
X133664228Y-213659524D01*
X133664228Y-213659524D02*
X133759466Y-213611905D01*
X133759466Y-213611905D02*
X133854704Y-213611905D01*
X133854704Y-213611905D02*
X133949942Y-213659524D01*
X133949942Y-213659524D02*
X133997561Y-213707143D01*
X133997561Y-213707143D02*
X134045180Y-213802381D01*
X134045180Y-213802381D02*
X134045180Y-214040476D01*
X134045180Y-214040476D02*
X133997561Y-214183333D01*
X133711847Y-215040476D02*
X133045180Y-215040476D01*
X134092800Y-214802381D02*
X133378514Y-214564286D01*
X133378514Y-214564286D02*
X133378514Y-215183333D01*
X133949942Y-215516667D02*
X133997561Y-215564286D01*
X133997561Y-215564286D02*
X134045180Y-215659524D01*
X134045180Y-215659524D02*
X134045180Y-215897619D01*
X134045180Y-215897619D02*
X133997561Y-215992857D01*
X133997561Y-215992857D02*
X133949942Y-216040476D01*
X133949942Y-216040476D02*
X133854704Y-216088095D01*
X133854704Y-216088095D02*
X133759466Y-216088095D01*
X133759466Y-216088095D02*
X133616609Y-216040476D01*
X133616609Y-216040476D02*
X133045180Y-215469048D01*
X133045180Y-215469048D02*
X133045180Y-216088095D01*
%TO.C,*%
%TO.C,S4*%
X97092800Y-144088095D02*
X97045180Y-144230952D01*
X97045180Y-144230952D02*
X97045180Y-144469047D01*
X97045180Y-144469047D02*
X97092800Y-144564285D01*
X97092800Y-144564285D02*
X97140419Y-144611904D01*
X97140419Y-144611904D02*
X97235657Y-144659523D01*
X97235657Y-144659523D02*
X97330895Y-144659523D01*
X97330895Y-144659523D02*
X97426133Y-144611904D01*
X97426133Y-144611904D02*
X97473752Y-144564285D01*
X97473752Y-144564285D02*
X97521371Y-144469047D01*
X97521371Y-144469047D02*
X97568990Y-144278571D01*
X97568990Y-144278571D02*
X97616609Y-144183333D01*
X97616609Y-144183333D02*
X97664228Y-144135714D01*
X97664228Y-144135714D02*
X97759466Y-144088095D01*
X97759466Y-144088095D02*
X97854704Y-144088095D01*
X97854704Y-144088095D02*
X97949942Y-144135714D01*
X97949942Y-144135714D02*
X97997561Y-144183333D01*
X97997561Y-144183333D02*
X98045180Y-144278571D01*
X98045180Y-144278571D02*
X98045180Y-144516666D01*
X98045180Y-144516666D02*
X97997561Y-144659523D01*
X97711847Y-145516666D02*
X97045180Y-145516666D01*
X98092800Y-145278571D02*
X97378514Y-145040476D01*
X97378514Y-145040476D02*
X97378514Y-145659523D01*
%TO.C,S38*%
X85092800Y-213611905D02*
X85045180Y-213754762D01*
X85045180Y-213754762D02*
X85045180Y-213992857D01*
X85045180Y-213992857D02*
X85092800Y-214088095D01*
X85092800Y-214088095D02*
X85140419Y-214135714D01*
X85140419Y-214135714D02*
X85235657Y-214183333D01*
X85235657Y-214183333D02*
X85330895Y-214183333D01*
X85330895Y-214183333D02*
X85426133Y-214135714D01*
X85426133Y-214135714D02*
X85473752Y-214088095D01*
X85473752Y-214088095D02*
X85521371Y-213992857D01*
X85521371Y-213992857D02*
X85568990Y-213802381D01*
X85568990Y-213802381D02*
X85616609Y-213707143D01*
X85616609Y-213707143D02*
X85664228Y-213659524D01*
X85664228Y-213659524D02*
X85759466Y-213611905D01*
X85759466Y-213611905D02*
X85854704Y-213611905D01*
X85854704Y-213611905D02*
X85949942Y-213659524D01*
X85949942Y-213659524D02*
X85997561Y-213707143D01*
X85997561Y-213707143D02*
X86045180Y-213802381D01*
X86045180Y-213802381D02*
X86045180Y-214040476D01*
X86045180Y-214040476D02*
X85997561Y-214183333D01*
X86045180Y-214516667D02*
X86045180Y-215135714D01*
X86045180Y-215135714D02*
X85664228Y-214802381D01*
X85664228Y-214802381D02*
X85664228Y-214945238D01*
X85664228Y-214945238D02*
X85616609Y-215040476D01*
X85616609Y-215040476D02*
X85568990Y-215088095D01*
X85568990Y-215088095D02*
X85473752Y-215135714D01*
X85473752Y-215135714D02*
X85235657Y-215135714D01*
X85235657Y-215135714D02*
X85140419Y-215088095D01*
X85140419Y-215088095D02*
X85092800Y-215040476D01*
X85092800Y-215040476D02*
X85045180Y-214945238D01*
X85045180Y-214945238D02*
X85045180Y-214659524D01*
X85045180Y-214659524D02*
X85092800Y-214564286D01*
X85092800Y-214564286D02*
X85140419Y-214516667D01*
X85616609Y-215707143D02*
X85664228Y-215611905D01*
X85664228Y-215611905D02*
X85711847Y-215564286D01*
X85711847Y-215564286D02*
X85807085Y-215516667D01*
X85807085Y-215516667D02*
X85854704Y-215516667D01*
X85854704Y-215516667D02*
X85949942Y-215564286D01*
X85949942Y-215564286D02*
X85997561Y-215611905D01*
X85997561Y-215611905D02*
X86045180Y-215707143D01*
X86045180Y-215707143D02*
X86045180Y-215897619D01*
X86045180Y-215897619D02*
X85997561Y-215992857D01*
X85997561Y-215992857D02*
X85949942Y-216040476D01*
X85949942Y-216040476D02*
X85854704Y-216088095D01*
X85854704Y-216088095D02*
X85807085Y-216088095D01*
X85807085Y-216088095D02*
X85711847Y-216040476D01*
X85711847Y-216040476D02*
X85664228Y-215992857D01*
X85664228Y-215992857D02*
X85616609Y-215897619D01*
X85616609Y-215897619D02*
X85616609Y-215707143D01*
X85616609Y-215707143D02*
X85568990Y-215611905D01*
X85568990Y-215611905D02*
X85521371Y-215564286D01*
X85521371Y-215564286D02*
X85426133Y-215516667D01*
X85426133Y-215516667D02*
X85235657Y-215516667D01*
X85235657Y-215516667D02*
X85140419Y-215564286D01*
X85140419Y-215564286D02*
X85092800Y-215611905D01*
X85092800Y-215611905D02*
X85045180Y-215707143D01*
X85045180Y-215707143D02*
X85045180Y-215897619D01*
X85045180Y-215897619D02*
X85092800Y-215992857D01*
X85092800Y-215992857D02*
X85140419Y-216040476D01*
X85140419Y-216040476D02*
X85235657Y-216088095D01*
X85235657Y-216088095D02*
X85426133Y-216088095D01*
X85426133Y-216088095D02*
X85521371Y-216040476D01*
X85521371Y-216040476D02*
X85568990Y-215992857D01*
X85568990Y-215992857D02*
X85616609Y-215897619D01*
%TO.C,S32*%
X133092800Y-193611905D02*
X133045180Y-193754762D01*
X133045180Y-193754762D02*
X133045180Y-193992857D01*
X133045180Y-193992857D02*
X133092800Y-194088095D01*
X133092800Y-194088095D02*
X133140419Y-194135714D01*
X133140419Y-194135714D02*
X133235657Y-194183333D01*
X133235657Y-194183333D02*
X133330895Y-194183333D01*
X133330895Y-194183333D02*
X133426133Y-194135714D01*
X133426133Y-194135714D02*
X133473752Y-194088095D01*
X133473752Y-194088095D02*
X133521371Y-193992857D01*
X133521371Y-193992857D02*
X133568990Y-193802381D01*
X133568990Y-193802381D02*
X133616609Y-193707143D01*
X133616609Y-193707143D02*
X133664228Y-193659524D01*
X133664228Y-193659524D02*
X133759466Y-193611905D01*
X133759466Y-193611905D02*
X133854704Y-193611905D01*
X133854704Y-193611905D02*
X133949942Y-193659524D01*
X133949942Y-193659524D02*
X133997561Y-193707143D01*
X133997561Y-193707143D02*
X134045180Y-193802381D01*
X134045180Y-193802381D02*
X134045180Y-194040476D01*
X134045180Y-194040476D02*
X133997561Y-194183333D01*
X134045180Y-194516667D02*
X134045180Y-195135714D01*
X134045180Y-195135714D02*
X133664228Y-194802381D01*
X133664228Y-194802381D02*
X133664228Y-194945238D01*
X133664228Y-194945238D02*
X133616609Y-195040476D01*
X133616609Y-195040476D02*
X133568990Y-195088095D01*
X133568990Y-195088095D02*
X133473752Y-195135714D01*
X133473752Y-195135714D02*
X133235657Y-195135714D01*
X133235657Y-195135714D02*
X133140419Y-195088095D01*
X133140419Y-195088095D02*
X133092800Y-195040476D01*
X133092800Y-195040476D02*
X133045180Y-194945238D01*
X133045180Y-194945238D02*
X133045180Y-194659524D01*
X133045180Y-194659524D02*
X133092800Y-194564286D01*
X133092800Y-194564286D02*
X133140419Y-194516667D01*
X133949942Y-195516667D02*
X133997561Y-195564286D01*
X133997561Y-195564286D02*
X134045180Y-195659524D01*
X134045180Y-195659524D02*
X134045180Y-195897619D01*
X134045180Y-195897619D02*
X133997561Y-195992857D01*
X133997561Y-195992857D02*
X133949942Y-196040476D01*
X133949942Y-196040476D02*
X133854704Y-196088095D01*
X133854704Y-196088095D02*
X133759466Y-196088095D01*
X133759466Y-196088095D02*
X133616609Y-196040476D01*
X133616609Y-196040476D02*
X133045180Y-195469048D01*
X133045180Y-195469048D02*
X133045180Y-196088095D01*
%TO.C,S3*%
X85092800Y-144088095D02*
X85045180Y-144230952D01*
X85045180Y-144230952D02*
X85045180Y-144469047D01*
X85045180Y-144469047D02*
X85092800Y-144564285D01*
X85092800Y-144564285D02*
X85140419Y-144611904D01*
X85140419Y-144611904D02*
X85235657Y-144659523D01*
X85235657Y-144659523D02*
X85330895Y-144659523D01*
X85330895Y-144659523D02*
X85426133Y-144611904D01*
X85426133Y-144611904D02*
X85473752Y-144564285D01*
X85473752Y-144564285D02*
X85521371Y-144469047D01*
X85521371Y-144469047D02*
X85568990Y-144278571D01*
X85568990Y-144278571D02*
X85616609Y-144183333D01*
X85616609Y-144183333D02*
X85664228Y-144135714D01*
X85664228Y-144135714D02*
X85759466Y-144088095D01*
X85759466Y-144088095D02*
X85854704Y-144088095D01*
X85854704Y-144088095D02*
X85949942Y-144135714D01*
X85949942Y-144135714D02*
X85997561Y-144183333D01*
X85997561Y-144183333D02*
X86045180Y-144278571D01*
X86045180Y-144278571D02*
X86045180Y-144516666D01*
X86045180Y-144516666D02*
X85997561Y-144659523D01*
X86045180Y-144992857D02*
X86045180Y-145611904D01*
X86045180Y-145611904D02*
X85664228Y-145278571D01*
X85664228Y-145278571D02*
X85664228Y-145421428D01*
X85664228Y-145421428D02*
X85616609Y-145516666D01*
X85616609Y-145516666D02*
X85568990Y-145564285D01*
X85568990Y-145564285D02*
X85473752Y-145611904D01*
X85473752Y-145611904D02*
X85235657Y-145611904D01*
X85235657Y-145611904D02*
X85140419Y-145564285D01*
X85140419Y-145564285D02*
X85092800Y-145516666D01*
X85092800Y-145516666D02*
X85045180Y-145421428D01*
X85045180Y-145421428D02*
X85045180Y-145135714D01*
X85045180Y-145135714D02*
X85092800Y-145040476D01*
X85092800Y-145040476D02*
X85140419Y-144992857D01*
%TO.C,S25*%
X109092800Y-183611905D02*
X109045180Y-183754762D01*
X109045180Y-183754762D02*
X109045180Y-183992857D01*
X109045180Y-183992857D02*
X109092800Y-184088095D01*
X109092800Y-184088095D02*
X109140419Y-184135714D01*
X109140419Y-184135714D02*
X109235657Y-184183333D01*
X109235657Y-184183333D02*
X109330895Y-184183333D01*
X109330895Y-184183333D02*
X109426133Y-184135714D01*
X109426133Y-184135714D02*
X109473752Y-184088095D01*
X109473752Y-184088095D02*
X109521371Y-183992857D01*
X109521371Y-183992857D02*
X109568990Y-183802381D01*
X109568990Y-183802381D02*
X109616609Y-183707143D01*
X109616609Y-183707143D02*
X109664228Y-183659524D01*
X109664228Y-183659524D02*
X109759466Y-183611905D01*
X109759466Y-183611905D02*
X109854704Y-183611905D01*
X109854704Y-183611905D02*
X109949942Y-183659524D01*
X109949942Y-183659524D02*
X109997561Y-183707143D01*
X109997561Y-183707143D02*
X110045180Y-183802381D01*
X110045180Y-183802381D02*
X110045180Y-184040476D01*
X110045180Y-184040476D02*
X109997561Y-184183333D01*
X109949942Y-184564286D02*
X109997561Y-184611905D01*
X109997561Y-184611905D02*
X110045180Y-184707143D01*
X110045180Y-184707143D02*
X110045180Y-184945238D01*
X110045180Y-184945238D02*
X109997561Y-185040476D01*
X109997561Y-185040476D02*
X109949942Y-185088095D01*
X109949942Y-185088095D02*
X109854704Y-185135714D01*
X109854704Y-185135714D02*
X109759466Y-185135714D01*
X109759466Y-185135714D02*
X109616609Y-185088095D01*
X109616609Y-185088095D02*
X109045180Y-184516667D01*
X109045180Y-184516667D02*
X109045180Y-185135714D01*
X110045180Y-186040476D02*
X110045180Y-185564286D01*
X110045180Y-185564286D02*
X109568990Y-185516667D01*
X109568990Y-185516667D02*
X109616609Y-185564286D01*
X109616609Y-185564286D02*
X109664228Y-185659524D01*
X109664228Y-185659524D02*
X109664228Y-185897619D01*
X109664228Y-185897619D02*
X109616609Y-185992857D01*
X109616609Y-185992857D02*
X109568990Y-186040476D01*
X109568990Y-186040476D02*
X109473752Y-186088095D01*
X109473752Y-186088095D02*
X109235657Y-186088095D01*
X109235657Y-186088095D02*
X109140419Y-186040476D01*
X109140419Y-186040476D02*
X109092800Y-185992857D01*
X109092800Y-185992857D02*
X109045180Y-185897619D01*
X109045180Y-185897619D02*
X109045180Y-185659524D01*
X109045180Y-185659524D02*
X109092800Y-185564286D01*
X109092800Y-185564286D02*
X109140419Y-185516667D01*
%TO.C,S1*%
X121092800Y-134088095D02*
X121045180Y-134230952D01*
X121045180Y-134230952D02*
X121045180Y-134469047D01*
X121045180Y-134469047D02*
X121092800Y-134564285D01*
X121092800Y-134564285D02*
X121140419Y-134611904D01*
X121140419Y-134611904D02*
X121235657Y-134659523D01*
X121235657Y-134659523D02*
X121330895Y-134659523D01*
X121330895Y-134659523D02*
X121426133Y-134611904D01*
X121426133Y-134611904D02*
X121473752Y-134564285D01*
X121473752Y-134564285D02*
X121521371Y-134469047D01*
X121521371Y-134469047D02*
X121568990Y-134278571D01*
X121568990Y-134278571D02*
X121616609Y-134183333D01*
X121616609Y-134183333D02*
X121664228Y-134135714D01*
X121664228Y-134135714D02*
X121759466Y-134088095D01*
X121759466Y-134088095D02*
X121854704Y-134088095D01*
X121854704Y-134088095D02*
X121949942Y-134135714D01*
X121949942Y-134135714D02*
X121997561Y-134183333D01*
X121997561Y-134183333D02*
X122045180Y-134278571D01*
X122045180Y-134278571D02*
X122045180Y-134516666D01*
X122045180Y-134516666D02*
X121997561Y-134659523D01*
X121045180Y-135611904D02*
X121045180Y-135040476D01*
X121045180Y-135326190D02*
X122045180Y-135326190D01*
X122045180Y-135326190D02*
X121902323Y-135230952D01*
X121902323Y-135230952D02*
X121807085Y-135135714D01*
X121807085Y-135135714D02*
X121759466Y-135040476D01*
%TO.C,S23*%
X85092800Y-183611905D02*
X85045180Y-183754762D01*
X85045180Y-183754762D02*
X85045180Y-183992857D01*
X85045180Y-183992857D02*
X85092800Y-184088095D01*
X85092800Y-184088095D02*
X85140419Y-184135714D01*
X85140419Y-184135714D02*
X85235657Y-184183333D01*
X85235657Y-184183333D02*
X85330895Y-184183333D01*
X85330895Y-184183333D02*
X85426133Y-184135714D01*
X85426133Y-184135714D02*
X85473752Y-184088095D01*
X85473752Y-184088095D02*
X85521371Y-183992857D01*
X85521371Y-183992857D02*
X85568990Y-183802381D01*
X85568990Y-183802381D02*
X85616609Y-183707143D01*
X85616609Y-183707143D02*
X85664228Y-183659524D01*
X85664228Y-183659524D02*
X85759466Y-183611905D01*
X85759466Y-183611905D02*
X85854704Y-183611905D01*
X85854704Y-183611905D02*
X85949942Y-183659524D01*
X85949942Y-183659524D02*
X85997561Y-183707143D01*
X85997561Y-183707143D02*
X86045180Y-183802381D01*
X86045180Y-183802381D02*
X86045180Y-184040476D01*
X86045180Y-184040476D02*
X85997561Y-184183333D01*
X85949942Y-184564286D02*
X85997561Y-184611905D01*
X85997561Y-184611905D02*
X86045180Y-184707143D01*
X86045180Y-184707143D02*
X86045180Y-184945238D01*
X86045180Y-184945238D02*
X85997561Y-185040476D01*
X85997561Y-185040476D02*
X85949942Y-185088095D01*
X85949942Y-185088095D02*
X85854704Y-185135714D01*
X85854704Y-185135714D02*
X85759466Y-185135714D01*
X85759466Y-185135714D02*
X85616609Y-185088095D01*
X85616609Y-185088095D02*
X85045180Y-184516667D01*
X85045180Y-184516667D02*
X85045180Y-185135714D01*
X86045180Y-185469048D02*
X86045180Y-186088095D01*
X86045180Y-186088095D02*
X85664228Y-185754762D01*
X85664228Y-185754762D02*
X85664228Y-185897619D01*
X85664228Y-185897619D02*
X85616609Y-185992857D01*
X85616609Y-185992857D02*
X85568990Y-186040476D01*
X85568990Y-186040476D02*
X85473752Y-186088095D01*
X85473752Y-186088095D02*
X85235657Y-186088095D01*
X85235657Y-186088095D02*
X85140419Y-186040476D01*
X85140419Y-186040476D02*
X85092800Y-185992857D01*
X85092800Y-185992857D02*
X85045180Y-185897619D01*
X85045180Y-185897619D02*
X85045180Y-185611905D01*
X85045180Y-185611905D02*
X85092800Y-185516667D01*
X85092800Y-185516667D02*
X85140419Y-185469048D01*
%TO.C,J3*%
X86449819Y-128308333D02*
X87164104Y-128308333D01*
X87164104Y-128308333D02*
X87306961Y-128355952D01*
X87306961Y-128355952D02*
X87402200Y-128451190D01*
X87402200Y-128451190D02*
X87449819Y-128594047D01*
X87449819Y-128594047D02*
X87449819Y-128689285D01*
X86449819Y-127927380D02*
X86449819Y-127308333D01*
X86449819Y-127308333D02*
X86830771Y-127641666D01*
X86830771Y-127641666D02*
X86830771Y-127498809D01*
X86830771Y-127498809D02*
X86878390Y-127403571D01*
X86878390Y-127403571D02*
X86926009Y-127355952D01*
X86926009Y-127355952D02*
X87021247Y-127308333D01*
X87021247Y-127308333D02*
X87259342Y-127308333D01*
X87259342Y-127308333D02*
X87354580Y-127355952D01*
X87354580Y-127355952D02*
X87402200Y-127403571D01*
X87402200Y-127403571D02*
X87449819Y-127498809D01*
X87449819Y-127498809D02*
X87449819Y-127784523D01*
X87449819Y-127784523D02*
X87402200Y-127879761D01*
X87402200Y-127879761D02*
X87354580Y-127927380D01*
%TO.C,S28*%
X85092800Y-193611905D02*
X85045180Y-193754762D01*
X85045180Y-193754762D02*
X85045180Y-193992857D01*
X85045180Y-193992857D02*
X85092800Y-194088095D01*
X85092800Y-194088095D02*
X85140419Y-194135714D01*
X85140419Y-194135714D02*
X85235657Y-194183333D01*
X85235657Y-194183333D02*
X85330895Y-194183333D01*
X85330895Y-194183333D02*
X85426133Y-194135714D01*
X85426133Y-194135714D02*
X85473752Y-194088095D01*
X85473752Y-194088095D02*
X85521371Y-193992857D01*
X85521371Y-193992857D02*
X85568990Y-193802381D01*
X85568990Y-193802381D02*
X85616609Y-193707143D01*
X85616609Y-193707143D02*
X85664228Y-193659524D01*
X85664228Y-193659524D02*
X85759466Y-193611905D01*
X85759466Y-193611905D02*
X85854704Y-193611905D01*
X85854704Y-193611905D02*
X85949942Y-193659524D01*
X85949942Y-193659524D02*
X85997561Y-193707143D01*
X85997561Y-193707143D02*
X86045180Y-193802381D01*
X86045180Y-193802381D02*
X86045180Y-194040476D01*
X86045180Y-194040476D02*
X85997561Y-194183333D01*
X85949942Y-194564286D02*
X85997561Y-194611905D01*
X85997561Y-194611905D02*
X86045180Y-194707143D01*
X86045180Y-194707143D02*
X86045180Y-194945238D01*
X86045180Y-194945238D02*
X85997561Y-195040476D01*
X85997561Y-195040476D02*
X85949942Y-195088095D01*
X85949942Y-195088095D02*
X85854704Y-195135714D01*
X85854704Y-195135714D02*
X85759466Y-195135714D01*
X85759466Y-195135714D02*
X85616609Y-195088095D01*
X85616609Y-195088095D02*
X85045180Y-194516667D01*
X85045180Y-194516667D02*
X85045180Y-195135714D01*
X85616609Y-195707143D02*
X85664228Y-195611905D01*
X85664228Y-195611905D02*
X85711847Y-195564286D01*
X85711847Y-195564286D02*
X85807085Y-195516667D01*
X85807085Y-195516667D02*
X85854704Y-195516667D01*
X85854704Y-195516667D02*
X85949942Y-195564286D01*
X85949942Y-195564286D02*
X85997561Y-195611905D01*
X85997561Y-195611905D02*
X86045180Y-195707143D01*
X86045180Y-195707143D02*
X86045180Y-195897619D01*
X86045180Y-195897619D02*
X85997561Y-195992857D01*
X85997561Y-195992857D02*
X85949942Y-196040476D01*
X85949942Y-196040476D02*
X85854704Y-196088095D01*
X85854704Y-196088095D02*
X85807085Y-196088095D01*
X85807085Y-196088095D02*
X85711847Y-196040476D01*
X85711847Y-196040476D02*
X85664228Y-195992857D01*
X85664228Y-195992857D02*
X85616609Y-195897619D01*
X85616609Y-195897619D02*
X85616609Y-195707143D01*
X85616609Y-195707143D02*
X85568990Y-195611905D01*
X85568990Y-195611905D02*
X85521371Y-195564286D01*
X85521371Y-195564286D02*
X85426133Y-195516667D01*
X85426133Y-195516667D02*
X85235657Y-195516667D01*
X85235657Y-195516667D02*
X85140419Y-195564286D01*
X85140419Y-195564286D02*
X85092800Y-195611905D01*
X85092800Y-195611905D02*
X85045180Y-195707143D01*
X85045180Y-195707143D02*
X85045180Y-195897619D01*
X85045180Y-195897619D02*
X85092800Y-195992857D01*
X85092800Y-195992857D02*
X85140419Y-196040476D01*
X85140419Y-196040476D02*
X85235657Y-196088095D01*
X85235657Y-196088095D02*
X85426133Y-196088095D01*
X85426133Y-196088095D02*
X85521371Y-196040476D01*
X85521371Y-196040476D02*
X85568990Y-195992857D01*
X85568990Y-195992857D02*
X85616609Y-195897619D01*
%TO.C,S20*%
X109092800Y-173611905D02*
X109045180Y-173754762D01*
X109045180Y-173754762D02*
X109045180Y-173992857D01*
X109045180Y-173992857D02*
X109092800Y-174088095D01*
X109092800Y-174088095D02*
X109140419Y-174135714D01*
X109140419Y-174135714D02*
X109235657Y-174183333D01*
X109235657Y-174183333D02*
X109330895Y-174183333D01*
X109330895Y-174183333D02*
X109426133Y-174135714D01*
X109426133Y-174135714D02*
X109473752Y-174088095D01*
X109473752Y-174088095D02*
X109521371Y-173992857D01*
X109521371Y-173992857D02*
X109568990Y-173802381D01*
X109568990Y-173802381D02*
X109616609Y-173707143D01*
X109616609Y-173707143D02*
X109664228Y-173659524D01*
X109664228Y-173659524D02*
X109759466Y-173611905D01*
X109759466Y-173611905D02*
X109854704Y-173611905D01*
X109854704Y-173611905D02*
X109949942Y-173659524D01*
X109949942Y-173659524D02*
X109997561Y-173707143D01*
X109997561Y-173707143D02*
X110045180Y-173802381D01*
X110045180Y-173802381D02*
X110045180Y-174040476D01*
X110045180Y-174040476D02*
X109997561Y-174183333D01*
X109949942Y-174564286D02*
X109997561Y-174611905D01*
X109997561Y-174611905D02*
X110045180Y-174707143D01*
X110045180Y-174707143D02*
X110045180Y-174945238D01*
X110045180Y-174945238D02*
X109997561Y-175040476D01*
X109997561Y-175040476D02*
X109949942Y-175088095D01*
X109949942Y-175088095D02*
X109854704Y-175135714D01*
X109854704Y-175135714D02*
X109759466Y-175135714D01*
X109759466Y-175135714D02*
X109616609Y-175088095D01*
X109616609Y-175088095D02*
X109045180Y-174516667D01*
X109045180Y-174516667D02*
X109045180Y-175135714D01*
X110045180Y-175754762D02*
X110045180Y-175850000D01*
X110045180Y-175850000D02*
X109997561Y-175945238D01*
X109997561Y-175945238D02*
X109949942Y-175992857D01*
X109949942Y-175992857D02*
X109854704Y-176040476D01*
X109854704Y-176040476D02*
X109664228Y-176088095D01*
X109664228Y-176088095D02*
X109426133Y-176088095D01*
X109426133Y-176088095D02*
X109235657Y-176040476D01*
X109235657Y-176040476D02*
X109140419Y-175992857D01*
X109140419Y-175992857D02*
X109092800Y-175945238D01*
X109092800Y-175945238D02*
X109045180Y-175850000D01*
X109045180Y-175850000D02*
X109045180Y-175754762D01*
X109045180Y-175754762D02*
X109092800Y-175659524D01*
X109092800Y-175659524D02*
X109140419Y-175611905D01*
X109140419Y-175611905D02*
X109235657Y-175564286D01*
X109235657Y-175564286D02*
X109426133Y-175516667D01*
X109426133Y-175516667D02*
X109664228Y-175516667D01*
X109664228Y-175516667D02*
X109854704Y-175564286D01*
X109854704Y-175564286D02*
X109949942Y-175611905D01*
X109949942Y-175611905D02*
X109997561Y-175659524D01*
X109997561Y-175659524D02*
X110045180Y-175754762D01*
%TO.C,S30*%
X109092800Y-193611905D02*
X109045180Y-193754762D01*
X109045180Y-193754762D02*
X109045180Y-193992857D01*
X109045180Y-193992857D02*
X109092800Y-194088095D01*
X109092800Y-194088095D02*
X109140419Y-194135714D01*
X109140419Y-194135714D02*
X109235657Y-194183333D01*
X109235657Y-194183333D02*
X109330895Y-194183333D01*
X109330895Y-194183333D02*
X109426133Y-194135714D01*
X109426133Y-194135714D02*
X109473752Y-194088095D01*
X109473752Y-194088095D02*
X109521371Y-193992857D01*
X109521371Y-193992857D02*
X109568990Y-193802381D01*
X109568990Y-193802381D02*
X109616609Y-193707143D01*
X109616609Y-193707143D02*
X109664228Y-193659524D01*
X109664228Y-193659524D02*
X109759466Y-193611905D01*
X109759466Y-193611905D02*
X109854704Y-193611905D01*
X109854704Y-193611905D02*
X109949942Y-193659524D01*
X109949942Y-193659524D02*
X109997561Y-193707143D01*
X109997561Y-193707143D02*
X110045180Y-193802381D01*
X110045180Y-193802381D02*
X110045180Y-194040476D01*
X110045180Y-194040476D02*
X109997561Y-194183333D01*
X110045180Y-194516667D02*
X110045180Y-195135714D01*
X110045180Y-195135714D02*
X109664228Y-194802381D01*
X109664228Y-194802381D02*
X109664228Y-194945238D01*
X109664228Y-194945238D02*
X109616609Y-195040476D01*
X109616609Y-195040476D02*
X109568990Y-195088095D01*
X109568990Y-195088095D02*
X109473752Y-195135714D01*
X109473752Y-195135714D02*
X109235657Y-195135714D01*
X109235657Y-195135714D02*
X109140419Y-195088095D01*
X109140419Y-195088095D02*
X109092800Y-195040476D01*
X109092800Y-195040476D02*
X109045180Y-194945238D01*
X109045180Y-194945238D02*
X109045180Y-194659524D01*
X109045180Y-194659524D02*
X109092800Y-194564286D01*
X109092800Y-194564286D02*
X109140419Y-194516667D01*
X110045180Y-195754762D02*
X110045180Y-195850000D01*
X110045180Y-195850000D02*
X109997561Y-195945238D01*
X109997561Y-195945238D02*
X109949942Y-195992857D01*
X109949942Y-195992857D02*
X109854704Y-196040476D01*
X109854704Y-196040476D02*
X109664228Y-196088095D01*
X109664228Y-196088095D02*
X109426133Y-196088095D01*
X109426133Y-196088095D02*
X109235657Y-196040476D01*
X109235657Y-196040476D02*
X109140419Y-195992857D01*
X109140419Y-195992857D02*
X109092800Y-195945238D01*
X109092800Y-195945238D02*
X109045180Y-195850000D01*
X109045180Y-195850000D02*
X109045180Y-195754762D01*
X109045180Y-195754762D02*
X109092800Y-195659524D01*
X109092800Y-195659524D02*
X109140419Y-195611905D01*
X109140419Y-195611905D02*
X109235657Y-195564286D01*
X109235657Y-195564286D02*
X109426133Y-195516667D01*
X109426133Y-195516667D02*
X109664228Y-195516667D01*
X109664228Y-195516667D02*
X109854704Y-195564286D01*
X109854704Y-195564286D02*
X109949942Y-195611905D01*
X109949942Y-195611905D02*
X109997561Y-195659524D01*
X109997561Y-195659524D02*
X110045180Y-195754762D01*
%TO.C,S11*%
X121092800Y-153611905D02*
X121045180Y-153754762D01*
X121045180Y-153754762D02*
X121045180Y-153992857D01*
X121045180Y-153992857D02*
X121092800Y-154088095D01*
X121092800Y-154088095D02*
X121140419Y-154135714D01*
X121140419Y-154135714D02*
X121235657Y-154183333D01*
X121235657Y-154183333D02*
X121330895Y-154183333D01*
X121330895Y-154183333D02*
X121426133Y-154135714D01*
X121426133Y-154135714D02*
X121473752Y-154088095D01*
X121473752Y-154088095D02*
X121521371Y-153992857D01*
X121521371Y-153992857D02*
X121568990Y-153802381D01*
X121568990Y-153802381D02*
X121616609Y-153707143D01*
X121616609Y-153707143D02*
X121664228Y-153659524D01*
X121664228Y-153659524D02*
X121759466Y-153611905D01*
X121759466Y-153611905D02*
X121854704Y-153611905D01*
X121854704Y-153611905D02*
X121949942Y-153659524D01*
X121949942Y-153659524D02*
X121997561Y-153707143D01*
X121997561Y-153707143D02*
X122045180Y-153802381D01*
X122045180Y-153802381D02*
X122045180Y-154040476D01*
X122045180Y-154040476D02*
X121997561Y-154183333D01*
X121045180Y-155135714D02*
X121045180Y-154564286D01*
X121045180Y-154850000D02*
X122045180Y-154850000D01*
X122045180Y-154850000D02*
X121902323Y-154754762D01*
X121902323Y-154754762D02*
X121807085Y-154659524D01*
X121807085Y-154659524D02*
X121759466Y-154564286D01*
X121045180Y-156088095D02*
X121045180Y-155516667D01*
X121045180Y-155802381D02*
X122045180Y-155802381D01*
X122045180Y-155802381D02*
X121902323Y-155707143D01*
X121902323Y-155707143D02*
X121807085Y-155611905D01*
X121807085Y-155611905D02*
X121759466Y-155516667D01*
%TO.C,S2*%
X133092800Y-134088095D02*
X133045180Y-134230952D01*
X133045180Y-134230952D02*
X133045180Y-134469047D01*
X133045180Y-134469047D02*
X133092800Y-134564285D01*
X133092800Y-134564285D02*
X133140419Y-134611904D01*
X133140419Y-134611904D02*
X133235657Y-134659523D01*
X133235657Y-134659523D02*
X133330895Y-134659523D01*
X133330895Y-134659523D02*
X133426133Y-134611904D01*
X133426133Y-134611904D02*
X133473752Y-134564285D01*
X133473752Y-134564285D02*
X133521371Y-134469047D01*
X133521371Y-134469047D02*
X133568990Y-134278571D01*
X133568990Y-134278571D02*
X133616609Y-134183333D01*
X133616609Y-134183333D02*
X133664228Y-134135714D01*
X133664228Y-134135714D02*
X133759466Y-134088095D01*
X133759466Y-134088095D02*
X133854704Y-134088095D01*
X133854704Y-134088095D02*
X133949942Y-134135714D01*
X133949942Y-134135714D02*
X133997561Y-134183333D01*
X133997561Y-134183333D02*
X134045180Y-134278571D01*
X134045180Y-134278571D02*
X134045180Y-134516666D01*
X134045180Y-134516666D02*
X133997561Y-134659523D01*
X133949942Y-135040476D02*
X133997561Y-135088095D01*
X133997561Y-135088095D02*
X134045180Y-135183333D01*
X134045180Y-135183333D02*
X134045180Y-135421428D01*
X134045180Y-135421428D02*
X133997561Y-135516666D01*
X133997561Y-135516666D02*
X133949942Y-135564285D01*
X133949942Y-135564285D02*
X133854704Y-135611904D01*
X133854704Y-135611904D02*
X133759466Y-135611904D01*
X133759466Y-135611904D02*
X133616609Y-135564285D01*
X133616609Y-135564285D02*
X133045180Y-134992857D01*
X133045180Y-134992857D02*
X133045180Y-135611904D01*
%TO.C,S10*%
X109092800Y-153611905D02*
X109045180Y-153754762D01*
X109045180Y-153754762D02*
X109045180Y-153992857D01*
X109045180Y-153992857D02*
X109092800Y-154088095D01*
X109092800Y-154088095D02*
X109140419Y-154135714D01*
X109140419Y-154135714D02*
X109235657Y-154183333D01*
X109235657Y-154183333D02*
X109330895Y-154183333D01*
X109330895Y-154183333D02*
X109426133Y-154135714D01*
X109426133Y-154135714D02*
X109473752Y-154088095D01*
X109473752Y-154088095D02*
X109521371Y-153992857D01*
X109521371Y-153992857D02*
X109568990Y-153802381D01*
X109568990Y-153802381D02*
X109616609Y-153707143D01*
X109616609Y-153707143D02*
X109664228Y-153659524D01*
X109664228Y-153659524D02*
X109759466Y-153611905D01*
X109759466Y-153611905D02*
X109854704Y-153611905D01*
X109854704Y-153611905D02*
X109949942Y-153659524D01*
X109949942Y-153659524D02*
X109997561Y-153707143D01*
X109997561Y-153707143D02*
X110045180Y-153802381D01*
X110045180Y-153802381D02*
X110045180Y-154040476D01*
X110045180Y-154040476D02*
X109997561Y-154183333D01*
X109045180Y-155135714D02*
X109045180Y-154564286D01*
X109045180Y-154850000D02*
X110045180Y-154850000D01*
X110045180Y-154850000D02*
X109902323Y-154754762D01*
X109902323Y-154754762D02*
X109807085Y-154659524D01*
X109807085Y-154659524D02*
X109759466Y-154564286D01*
X110045180Y-155754762D02*
X110045180Y-155850000D01*
X110045180Y-155850000D02*
X109997561Y-155945238D01*
X109997561Y-155945238D02*
X109949942Y-155992857D01*
X109949942Y-155992857D02*
X109854704Y-156040476D01*
X109854704Y-156040476D02*
X109664228Y-156088095D01*
X109664228Y-156088095D02*
X109426133Y-156088095D01*
X109426133Y-156088095D02*
X109235657Y-156040476D01*
X109235657Y-156040476D02*
X109140419Y-155992857D01*
X109140419Y-155992857D02*
X109092800Y-155945238D01*
X109092800Y-155945238D02*
X109045180Y-155850000D01*
X109045180Y-155850000D02*
X109045180Y-155754762D01*
X109045180Y-155754762D02*
X109092800Y-155659524D01*
X109092800Y-155659524D02*
X109140419Y-155611905D01*
X109140419Y-155611905D02*
X109235657Y-155564286D01*
X109235657Y-155564286D02*
X109426133Y-155516667D01*
X109426133Y-155516667D02*
X109664228Y-155516667D01*
X109664228Y-155516667D02*
X109854704Y-155564286D01*
X109854704Y-155564286D02*
X109949942Y-155611905D01*
X109949942Y-155611905D02*
X109997561Y-155659524D01*
X109997561Y-155659524D02*
X110045180Y-155754762D01*
%TO.C,S7*%
X133092800Y-144088095D02*
X133045180Y-144230952D01*
X133045180Y-144230952D02*
X133045180Y-144469047D01*
X133045180Y-144469047D02*
X133092800Y-144564285D01*
X133092800Y-144564285D02*
X133140419Y-144611904D01*
X133140419Y-144611904D02*
X133235657Y-144659523D01*
X133235657Y-144659523D02*
X133330895Y-144659523D01*
X133330895Y-144659523D02*
X133426133Y-144611904D01*
X133426133Y-144611904D02*
X133473752Y-144564285D01*
X133473752Y-144564285D02*
X133521371Y-144469047D01*
X133521371Y-144469047D02*
X133568990Y-144278571D01*
X133568990Y-144278571D02*
X133616609Y-144183333D01*
X133616609Y-144183333D02*
X133664228Y-144135714D01*
X133664228Y-144135714D02*
X133759466Y-144088095D01*
X133759466Y-144088095D02*
X133854704Y-144088095D01*
X133854704Y-144088095D02*
X133949942Y-144135714D01*
X133949942Y-144135714D02*
X133997561Y-144183333D01*
X133997561Y-144183333D02*
X134045180Y-144278571D01*
X134045180Y-144278571D02*
X134045180Y-144516666D01*
X134045180Y-144516666D02*
X133997561Y-144659523D01*
X134045180Y-144992857D02*
X134045180Y-145659523D01*
X134045180Y-145659523D02*
X133045180Y-145230952D01*
%TO.C,S40*%
X109092800Y-213611905D02*
X109045180Y-213754762D01*
X109045180Y-213754762D02*
X109045180Y-213992857D01*
X109045180Y-213992857D02*
X109092800Y-214088095D01*
X109092800Y-214088095D02*
X109140419Y-214135714D01*
X109140419Y-214135714D02*
X109235657Y-214183333D01*
X109235657Y-214183333D02*
X109330895Y-214183333D01*
X109330895Y-214183333D02*
X109426133Y-214135714D01*
X109426133Y-214135714D02*
X109473752Y-214088095D01*
X109473752Y-214088095D02*
X109521371Y-213992857D01*
X109521371Y-213992857D02*
X109568990Y-213802381D01*
X109568990Y-213802381D02*
X109616609Y-213707143D01*
X109616609Y-213707143D02*
X109664228Y-213659524D01*
X109664228Y-213659524D02*
X109759466Y-213611905D01*
X109759466Y-213611905D02*
X109854704Y-213611905D01*
X109854704Y-213611905D02*
X109949942Y-213659524D01*
X109949942Y-213659524D02*
X109997561Y-213707143D01*
X109997561Y-213707143D02*
X110045180Y-213802381D01*
X110045180Y-213802381D02*
X110045180Y-214040476D01*
X110045180Y-214040476D02*
X109997561Y-214183333D01*
X109711847Y-215040476D02*
X109045180Y-215040476D01*
X110092800Y-214802381D02*
X109378514Y-214564286D01*
X109378514Y-214564286D02*
X109378514Y-215183333D01*
X110045180Y-215754762D02*
X110045180Y-215850000D01*
X110045180Y-215850000D02*
X109997561Y-215945238D01*
X109997561Y-215945238D02*
X109949942Y-215992857D01*
X109949942Y-215992857D02*
X109854704Y-216040476D01*
X109854704Y-216040476D02*
X109664228Y-216088095D01*
X109664228Y-216088095D02*
X109426133Y-216088095D01*
X109426133Y-216088095D02*
X109235657Y-216040476D01*
X109235657Y-216040476D02*
X109140419Y-215992857D01*
X109140419Y-215992857D02*
X109092800Y-215945238D01*
X109092800Y-215945238D02*
X109045180Y-215850000D01*
X109045180Y-215850000D02*
X109045180Y-215754762D01*
X109045180Y-215754762D02*
X109092800Y-215659524D01*
X109092800Y-215659524D02*
X109140419Y-215611905D01*
X109140419Y-215611905D02*
X109235657Y-215564286D01*
X109235657Y-215564286D02*
X109426133Y-215516667D01*
X109426133Y-215516667D02*
X109664228Y-215516667D01*
X109664228Y-215516667D02*
X109854704Y-215564286D01*
X109854704Y-215564286D02*
X109949942Y-215611905D01*
X109949942Y-215611905D02*
X109997561Y-215659524D01*
X109997561Y-215659524D02*
X110045180Y-215754762D01*
%TO.C,S35*%
X109092800Y-203611905D02*
X109045180Y-203754762D01*
X109045180Y-203754762D02*
X109045180Y-203992857D01*
X109045180Y-203992857D02*
X109092800Y-204088095D01*
X109092800Y-204088095D02*
X109140419Y-204135714D01*
X109140419Y-204135714D02*
X109235657Y-204183333D01*
X109235657Y-204183333D02*
X109330895Y-204183333D01*
X109330895Y-204183333D02*
X109426133Y-204135714D01*
X109426133Y-204135714D02*
X109473752Y-204088095D01*
X109473752Y-204088095D02*
X109521371Y-203992857D01*
X109521371Y-203992857D02*
X109568990Y-203802381D01*
X109568990Y-203802381D02*
X109616609Y-203707143D01*
X109616609Y-203707143D02*
X109664228Y-203659524D01*
X109664228Y-203659524D02*
X109759466Y-203611905D01*
X109759466Y-203611905D02*
X109854704Y-203611905D01*
X109854704Y-203611905D02*
X109949942Y-203659524D01*
X109949942Y-203659524D02*
X109997561Y-203707143D01*
X109997561Y-203707143D02*
X110045180Y-203802381D01*
X110045180Y-203802381D02*
X110045180Y-204040476D01*
X110045180Y-204040476D02*
X109997561Y-204183333D01*
X110045180Y-204516667D02*
X110045180Y-205135714D01*
X110045180Y-205135714D02*
X109664228Y-204802381D01*
X109664228Y-204802381D02*
X109664228Y-204945238D01*
X109664228Y-204945238D02*
X109616609Y-205040476D01*
X109616609Y-205040476D02*
X109568990Y-205088095D01*
X109568990Y-205088095D02*
X109473752Y-205135714D01*
X109473752Y-205135714D02*
X109235657Y-205135714D01*
X109235657Y-205135714D02*
X109140419Y-205088095D01*
X109140419Y-205088095D02*
X109092800Y-205040476D01*
X109092800Y-205040476D02*
X109045180Y-204945238D01*
X109045180Y-204945238D02*
X109045180Y-204659524D01*
X109045180Y-204659524D02*
X109092800Y-204564286D01*
X109092800Y-204564286D02*
X109140419Y-204516667D01*
X110045180Y-206040476D02*
X110045180Y-205564286D01*
X110045180Y-205564286D02*
X109568990Y-205516667D01*
X109568990Y-205516667D02*
X109616609Y-205564286D01*
X109616609Y-205564286D02*
X109664228Y-205659524D01*
X109664228Y-205659524D02*
X109664228Y-205897619D01*
X109664228Y-205897619D02*
X109616609Y-205992857D01*
X109616609Y-205992857D02*
X109568990Y-206040476D01*
X109568990Y-206040476D02*
X109473752Y-206088095D01*
X109473752Y-206088095D02*
X109235657Y-206088095D01*
X109235657Y-206088095D02*
X109140419Y-206040476D01*
X109140419Y-206040476D02*
X109092800Y-205992857D01*
X109092800Y-205992857D02*
X109045180Y-205897619D01*
X109045180Y-205897619D02*
X109045180Y-205659524D01*
X109045180Y-205659524D02*
X109092800Y-205564286D01*
X109092800Y-205564286D02*
X109140419Y-205516667D01*
%TO.C,S27*%
X133092800Y-183611905D02*
X133045180Y-183754762D01*
X133045180Y-183754762D02*
X133045180Y-183992857D01*
X133045180Y-183992857D02*
X133092800Y-184088095D01*
X133092800Y-184088095D02*
X133140419Y-184135714D01*
X133140419Y-184135714D02*
X133235657Y-184183333D01*
X133235657Y-184183333D02*
X133330895Y-184183333D01*
X133330895Y-184183333D02*
X133426133Y-184135714D01*
X133426133Y-184135714D02*
X133473752Y-184088095D01*
X133473752Y-184088095D02*
X133521371Y-183992857D01*
X133521371Y-183992857D02*
X133568990Y-183802381D01*
X133568990Y-183802381D02*
X133616609Y-183707143D01*
X133616609Y-183707143D02*
X133664228Y-183659524D01*
X133664228Y-183659524D02*
X133759466Y-183611905D01*
X133759466Y-183611905D02*
X133854704Y-183611905D01*
X133854704Y-183611905D02*
X133949942Y-183659524D01*
X133949942Y-183659524D02*
X133997561Y-183707143D01*
X133997561Y-183707143D02*
X134045180Y-183802381D01*
X134045180Y-183802381D02*
X134045180Y-184040476D01*
X134045180Y-184040476D02*
X133997561Y-184183333D01*
X133949942Y-184564286D02*
X133997561Y-184611905D01*
X133997561Y-184611905D02*
X134045180Y-184707143D01*
X134045180Y-184707143D02*
X134045180Y-184945238D01*
X134045180Y-184945238D02*
X133997561Y-185040476D01*
X133997561Y-185040476D02*
X133949942Y-185088095D01*
X133949942Y-185088095D02*
X133854704Y-185135714D01*
X133854704Y-185135714D02*
X133759466Y-185135714D01*
X133759466Y-185135714D02*
X133616609Y-185088095D01*
X133616609Y-185088095D02*
X133045180Y-184516667D01*
X133045180Y-184516667D02*
X133045180Y-185135714D01*
X134045180Y-185469048D02*
X134045180Y-186135714D01*
X134045180Y-186135714D02*
X133045180Y-185707143D01*
%TO.C,S13*%
X85092800Y-163611905D02*
X85045180Y-163754762D01*
X85045180Y-163754762D02*
X85045180Y-163992857D01*
X85045180Y-163992857D02*
X85092800Y-164088095D01*
X85092800Y-164088095D02*
X85140419Y-164135714D01*
X85140419Y-164135714D02*
X85235657Y-164183333D01*
X85235657Y-164183333D02*
X85330895Y-164183333D01*
X85330895Y-164183333D02*
X85426133Y-164135714D01*
X85426133Y-164135714D02*
X85473752Y-164088095D01*
X85473752Y-164088095D02*
X85521371Y-163992857D01*
X85521371Y-163992857D02*
X85568990Y-163802381D01*
X85568990Y-163802381D02*
X85616609Y-163707143D01*
X85616609Y-163707143D02*
X85664228Y-163659524D01*
X85664228Y-163659524D02*
X85759466Y-163611905D01*
X85759466Y-163611905D02*
X85854704Y-163611905D01*
X85854704Y-163611905D02*
X85949942Y-163659524D01*
X85949942Y-163659524D02*
X85997561Y-163707143D01*
X85997561Y-163707143D02*
X86045180Y-163802381D01*
X86045180Y-163802381D02*
X86045180Y-164040476D01*
X86045180Y-164040476D02*
X85997561Y-164183333D01*
X85045180Y-165135714D02*
X85045180Y-164564286D01*
X85045180Y-164850000D02*
X86045180Y-164850000D01*
X86045180Y-164850000D02*
X85902323Y-164754762D01*
X85902323Y-164754762D02*
X85807085Y-164659524D01*
X85807085Y-164659524D02*
X85759466Y-164564286D01*
X86045180Y-165469048D02*
X86045180Y-166088095D01*
X86045180Y-166088095D02*
X85664228Y-165754762D01*
X85664228Y-165754762D02*
X85664228Y-165897619D01*
X85664228Y-165897619D02*
X85616609Y-165992857D01*
X85616609Y-165992857D02*
X85568990Y-166040476D01*
X85568990Y-166040476D02*
X85473752Y-166088095D01*
X85473752Y-166088095D02*
X85235657Y-166088095D01*
X85235657Y-166088095D02*
X85140419Y-166040476D01*
X85140419Y-166040476D02*
X85092800Y-165992857D01*
X85092800Y-165992857D02*
X85045180Y-165897619D01*
X85045180Y-165897619D02*
X85045180Y-165611905D01*
X85045180Y-165611905D02*
X85092800Y-165516667D01*
X85092800Y-165516667D02*
X85140419Y-165469048D01*
%TO.C,S8*%
X85092800Y-154088095D02*
X85045180Y-154230952D01*
X85045180Y-154230952D02*
X85045180Y-154469047D01*
X85045180Y-154469047D02*
X85092800Y-154564285D01*
X85092800Y-154564285D02*
X85140419Y-154611904D01*
X85140419Y-154611904D02*
X85235657Y-154659523D01*
X85235657Y-154659523D02*
X85330895Y-154659523D01*
X85330895Y-154659523D02*
X85426133Y-154611904D01*
X85426133Y-154611904D02*
X85473752Y-154564285D01*
X85473752Y-154564285D02*
X85521371Y-154469047D01*
X85521371Y-154469047D02*
X85568990Y-154278571D01*
X85568990Y-154278571D02*
X85616609Y-154183333D01*
X85616609Y-154183333D02*
X85664228Y-154135714D01*
X85664228Y-154135714D02*
X85759466Y-154088095D01*
X85759466Y-154088095D02*
X85854704Y-154088095D01*
X85854704Y-154088095D02*
X85949942Y-154135714D01*
X85949942Y-154135714D02*
X85997561Y-154183333D01*
X85997561Y-154183333D02*
X86045180Y-154278571D01*
X86045180Y-154278571D02*
X86045180Y-154516666D01*
X86045180Y-154516666D02*
X85997561Y-154659523D01*
X85616609Y-155230952D02*
X85664228Y-155135714D01*
X85664228Y-155135714D02*
X85711847Y-155088095D01*
X85711847Y-155088095D02*
X85807085Y-155040476D01*
X85807085Y-155040476D02*
X85854704Y-155040476D01*
X85854704Y-155040476D02*
X85949942Y-155088095D01*
X85949942Y-155088095D02*
X85997561Y-155135714D01*
X85997561Y-155135714D02*
X86045180Y-155230952D01*
X86045180Y-155230952D02*
X86045180Y-155421428D01*
X86045180Y-155421428D02*
X85997561Y-155516666D01*
X85997561Y-155516666D02*
X85949942Y-155564285D01*
X85949942Y-155564285D02*
X85854704Y-155611904D01*
X85854704Y-155611904D02*
X85807085Y-155611904D01*
X85807085Y-155611904D02*
X85711847Y-155564285D01*
X85711847Y-155564285D02*
X85664228Y-155516666D01*
X85664228Y-155516666D02*
X85616609Y-155421428D01*
X85616609Y-155421428D02*
X85616609Y-155230952D01*
X85616609Y-155230952D02*
X85568990Y-155135714D01*
X85568990Y-155135714D02*
X85521371Y-155088095D01*
X85521371Y-155088095D02*
X85426133Y-155040476D01*
X85426133Y-155040476D02*
X85235657Y-155040476D01*
X85235657Y-155040476D02*
X85140419Y-155088095D01*
X85140419Y-155088095D02*
X85092800Y-155135714D01*
X85092800Y-155135714D02*
X85045180Y-155230952D01*
X85045180Y-155230952D02*
X85045180Y-155421428D01*
X85045180Y-155421428D02*
X85092800Y-155516666D01*
X85092800Y-155516666D02*
X85140419Y-155564285D01*
X85140419Y-155564285D02*
X85235657Y-155611904D01*
X85235657Y-155611904D02*
X85426133Y-155611904D01*
X85426133Y-155611904D02*
X85521371Y-155564285D01*
X85521371Y-155564285D02*
X85568990Y-155516666D01*
X85568990Y-155516666D02*
X85616609Y-155421428D01*
%TO.C,S41*%
X121092800Y-213611905D02*
X121045180Y-213754762D01*
X121045180Y-213754762D02*
X121045180Y-213992857D01*
X121045180Y-213992857D02*
X121092800Y-214088095D01*
X121092800Y-214088095D02*
X121140419Y-214135714D01*
X121140419Y-214135714D02*
X121235657Y-214183333D01*
X121235657Y-214183333D02*
X121330895Y-214183333D01*
X121330895Y-214183333D02*
X121426133Y-214135714D01*
X121426133Y-214135714D02*
X121473752Y-214088095D01*
X121473752Y-214088095D02*
X121521371Y-213992857D01*
X121521371Y-213992857D02*
X121568990Y-213802381D01*
X121568990Y-213802381D02*
X121616609Y-213707143D01*
X121616609Y-213707143D02*
X121664228Y-213659524D01*
X121664228Y-213659524D02*
X121759466Y-213611905D01*
X121759466Y-213611905D02*
X121854704Y-213611905D01*
X121854704Y-213611905D02*
X121949942Y-213659524D01*
X121949942Y-213659524D02*
X121997561Y-213707143D01*
X121997561Y-213707143D02*
X122045180Y-213802381D01*
X122045180Y-213802381D02*
X122045180Y-214040476D01*
X122045180Y-214040476D02*
X121997561Y-214183333D01*
X121711847Y-215040476D02*
X121045180Y-215040476D01*
X122092800Y-214802381D02*
X121378514Y-214564286D01*
X121378514Y-214564286D02*
X121378514Y-215183333D01*
X121045180Y-216088095D02*
X121045180Y-215516667D01*
X121045180Y-215802381D02*
X122045180Y-215802381D01*
X122045180Y-215802381D02*
X121902323Y-215707143D01*
X121902323Y-215707143D02*
X121807085Y-215611905D01*
X121807085Y-215611905D02*
X121759466Y-215516667D01*
%TO.C,S36*%
X121092800Y-203611905D02*
X121045180Y-203754762D01*
X121045180Y-203754762D02*
X121045180Y-203992857D01*
X121045180Y-203992857D02*
X121092800Y-204088095D01*
X121092800Y-204088095D02*
X121140419Y-204135714D01*
X121140419Y-204135714D02*
X121235657Y-204183333D01*
X121235657Y-204183333D02*
X121330895Y-204183333D01*
X121330895Y-204183333D02*
X121426133Y-204135714D01*
X121426133Y-204135714D02*
X121473752Y-204088095D01*
X121473752Y-204088095D02*
X121521371Y-203992857D01*
X121521371Y-203992857D02*
X121568990Y-203802381D01*
X121568990Y-203802381D02*
X121616609Y-203707143D01*
X121616609Y-203707143D02*
X121664228Y-203659524D01*
X121664228Y-203659524D02*
X121759466Y-203611905D01*
X121759466Y-203611905D02*
X121854704Y-203611905D01*
X121854704Y-203611905D02*
X121949942Y-203659524D01*
X121949942Y-203659524D02*
X121997561Y-203707143D01*
X121997561Y-203707143D02*
X122045180Y-203802381D01*
X122045180Y-203802381D02*
X122045180Y-204040476D01*
X122045180Y-204040476D02*
X121997561Y-204183333D01*
X122045180Y-204516667D02*
X122045180Y-205135714D01*
X122045180Y-205135714D02*
X121664228Y-204802381D01*
X121664228Y-204802381D02*
X121664228Y-204945238D01*
X121664228Y-204945238D02*
X121616609Y-205040476D01*
X121616609Y-205040476D02*
X121568990Y-205088095D01*
X121568990Y-205088095D02*
X121473752Y-205135714D01*
X121473752Y-205135714D02*
X121235657Y-205135714D01*
X121235657Y-205135714D02*
X121140419Y-205088095D01*
X121140419Y-205088095D02*
X121092800Y-205040476D01*
X121092800Y-205040476D02*
X121045180Y-204945238D01*
X121045180Y-204945238D02*
X121045180Y-204659524D01*
X121045180Y-204659524D02*
X121092800Y-204564286D01*
X121092800Y-204564286D02*
X121140419Y-204516667D01*
X122045180Y-205992857D02*
X122045180Y-205802381D01*
X122045180Y-205802381D02*
X121997561Y-205707143D01*
X121997561Y-205707143D02*
X121949942Y-205659524D01*
X121949942Y-205659524D02*
X121807085Y-205564286D01*
X121807085Y-205564286D02*
X121616609Y-205516667D01*
X121616609Y-205516667D02*
X121235657Y-205516667D01*
X121235657Y-205516667D02*
X121140419Y-205564286D01*
X121140419Y-205564286D02*
X121092800Y-205611905D01*
X121092800Y-205611905D02*
X121045180Y-205707143D01*
X121045180Y-205707143D02*
X121045180Y-205897619D01*
X121045180Y-205897619D02*
X121092800Y-205992857D01*
X121092800Y-205992857D02*
X121140419Y-206040476D01*
X121140419Y-206040476D02*
X121235657Y-206088095D01*
X121235657Y-206088095D02*
X121473752Y-206088095D01*
X121473752Y-206088095D02*
X121568990Y-206040476D01*
X121568990Y-206040476D02*
X121616609Y-205992857D01*
X121616609Y-205992857D02*
X121664228Y-205897619D01*
X121664228Y-205897619D02*
X121664228Y-205707143D01*
X121664228Y-205707143D02*
X121616609Y-205611905D01*
X121616609Y-205611905D02*
X121568990Y-205564286D01*
X121568990Y-205564286D02*
X121473752Y-205516667D01*
%TO.C,S12*%
X133092800Y-153611905D02*
X133045180Y-153754762D01*
X133045180Y-153754762D02*
X133045180Y-153992857D01*
X133045180Y-153992857D02*
X133092800Y-154088095D01*
X133092800Y-154088095D02*
X133140419Y-154135714D01*
X133140419Y-154135714D02*
X133235657Y-154183333D01*
X133235657Y-154183333D02*
X133330895Y-154183333D01*
X133330895Y-154183333D02*
X133426133Y-154135714D01*
X133426133Y-154135714D02*
X133473752Y-154088095D01*
X133473752Y-154088095D02*
X133521371Y-153992857D01*
X133521371Y-153992857D02*
X133568990Y-153802381D01*
X133568990Y-153802381D02*
X133616609Y-153707143D01*
X133616609Y-153707143D02*
X133664228Y-153659524D01*
X133664228Y-153659524D02*
X133759466Y-153611905D01*
X133759466Y-153611905D02*
X133854704Y-153611905D01*
X133854704Y-153611905D02*
X133949942Y-153659524D01*
X133949942Y-153659524D02*
X133997561Y-153707143D01*
X133997561Y-153707143D02*
X134045180Y-153802381D01*
X134045180Y-153802381D02*
X134045180Y-154040476D01*
X134045180Y-154040476D02*
X133997561Y-154183333D01*
X133045180Y-155135714D02*
X133045180Y-154564286D01*
X133045180Y-154850000D02*
X134045180Y-154850000D01*
X134045180Y-154850000D02*
X133902323Y-154754762D01*
X133902323Y-154754762D02*
X133807085Y-154659524D01*
X133807085Y-154659524D02*
X133759466Y-154564286D01*
X133949942Y-155516667D02*
X133997561Y-155564286D01*
X133997561Y-155564286D02*
X134045180Y-155659524D01*
X134045180Y-155659524D02*
X134045180Y-155897619D01*
X134045180Y-155897619D02*
X133997561Y-155992857D01*
X133997561Y-155992857D02*
X133949942Y-156040476D01*
X133949942Y-156040476D02*
X133854704Y-156088095D01*
X133854704Y-156088095D02*
X133759466Y-156088095D01*
X133759466Y-156088095D02*
X133616609Y-156040476D01*
X133616609Y-156040476D02*
X133045180Y-155469048D01*
X133045180Y-155469048D02*
X133045180Y-156088095D01*
%TO.C,S22*%
X133092800Y-173611905D02*
X133045180Y-173754762D01*
X133045180Y-173754762D02*
X133045180Y-173992857D01*
X133045180Y-173992857D02*
X133092800Y-174088095D01*
X133092800Y-174088095D02*
X133140419Y-174135714D01*
X133140419Y-174135714D02*
X133235657Y-174183333D01*
X133235657Y-174183333D02*
X133330895Y-174183333D01*
X133330895Y-174183333D02*
X133426133Y-174135714D01*
X133426133Y-174135714D02*
X133473752Y-174088095D01*
X133473752Y-174088095D02*
X133521371Y-173992857D01*
X133521371Y-173992857D02*
X133568990Y-173802381D01*
X133568990Y-173802381D02*
X133616609Y-173707143D01*
X133616609Y-173707143D02*
X133664228Y-173659524D01*
X133664228Y-173659524D02*
X133759466Y-173611905D01*
X133759466Y-173611905D02*
X133854704Y-173611905D01*
X133854704Y-173611905D02*
X133949942Y-173659524D01*
X133949942Y-173659524D02*
X133997561Y-173707143D01*
X133997561Y-173707143D02*
X134045180Y-173802381D01*
X134045180Y-173802381D02*
X134045180Y-174040476D01*
X134045180Y-174040476D02*
X133997561Y-174183333D01*
X133949942Y-174564286D02*
X133997561Y-174611905D01*
X133997561Y-174611905D02*
X134045180Y-174707143D01*
X134045180Y-174707143D02*
X134045180Y-174945238D01*
X134045180Y-174945238D02*
X133997561Y-175040476D01*
X133997561Y-175040476D02*
X133949942Y-175088095D01*
X133949942Y-175088095D02*
X133854704Y-175135714D01*
X133854704Y-175135714D02*
X133759466Y-175135714D01*
X133759466Y-175135714D02*
X133616609Y-175088095D01*
X133616609Y-175088095D02*
X133045180Y-174516667D01*
X133045180Y-174516667D02*
X133045180Y-175135714D01*
X133949942Y-175516667D02*
X133997561Y-175564286D01*
X133997561Y-175564286D02*
X134045180Y-175659524D01*
X134045180Y-175659524D02*
X134045180Y-175897619D01*
X134045180Y-175897619D02*
X133997561Y-175992857D01*
X133997561Y-175992857D02*
X133949942Y-176040476D01*
X133949942Y-176040476D02*
X133854704Y-176088095D01*
X133854704Y-176088095D02*
X133759466Y-176088095D01*
X133759466Y-176088095D02*
X133616609Y-176040476D01*
X133616609Y-176040476D02*
X133045180Y-175469048D01*
X133045180Y-175469048D02*
X133045180Y-176088095D01*
%TO.C,S5*%
X109092800Y-144088095D02*
X109045180Y-144230952D01*
X109045180Y-144230952D02*
X109045180Y-144469047D01*
X109045180Y-144469047D02*
X109092800Y-144564285D01*
X109092800Y-144564285D02*
X109140419Y-144611904D01*
X109140419Y-144611904D02*
X109235657Y-144659523D01*
X109235657Y-144659523D02*
X109330895Y-144659523D01*
X109330895Y-144659523D02*
X109426133Y-144611904D01*
X109426133Y-144611904D02*
X109473752Y-144564285D01*
X109473752Y-144564285D02*
X109521371Y-144469047D01*
X109521371Y-144469047D02*
X109568990Y-144278571D01*
X109568990Y-144278571D02*
X109616609Y-144183333D01*
X109616609Y-144183333D02*
X109664228Y-144135714D01*
X109664228Y-144135714D02*
X109759466Y-144088095D01*
X109759466Y-144088095D02*
X109854704Y-144088095D01*
X109854704Y-144088095D02*
X109949942Y-144135714D01*
X109949942Y-144135714D02*
X109997561Y-144183333D01*
X109997561Y-144183333D02*
X110045180Y-144278571D01*
X110045180Y-144278571D02*
X110045180Y-144516666D01*
X110045180Y-144516666D02*
X109997561Y-144659523D01*
X110045180Y-145564285D02*
X110045180Y-145088095D01*
X110045180Y-145088095D02*
X109568990Y-145040476D01*
X109568990Y-145040476D02*
X109616609Y-145088095D01*
X109616609Y-145088095D02*
X109664228Y-145183333D01*
X109664228Y-145183333D02*
X109664228Y-145421428D01*
X109664228Y-145421428D02*
X109616609Y-145516666D01*
X109616609Y-145516666D02*
X109568990Y-145564285D01*
X109568990Y-145564285D02*
X109473752Y-145611904D01*
X109473752Y-145611904D02*
X109235657Y-145611904D01*
X109235657Y-145611904D02*
X109140419Y-145564285D01*
X109140419Y-145564285D02*
X109092800Y-145516666D01*
X109092800Y-145516666D02*
X109045180Y-145421428D01*
X109045180Y-145421428D02*
X109045180Y-145183333D01*
X109045180Y-145183333D02*
X109092800Y-145088095D01*
X109092800Y-145088095D02*
X109140419Y-145040476D01*
%TO.C,S9*%
X97092800Y-154088095D02*
X97045180Y-154230952D01*
X97045180Y-154230952D02*
X97045180Y-154469047D01*
X97045180Y-154469047D02*
X97092800Y-154564285D01*
X97092800Y-154564285D02*
X97140419Y-154611904D01*
X97140419Y-154611904D02*
X97235657Y-154659523D01*
X97235657Y-154659523D02*
X97330895Y-154659523D01*
X97330895Y-154659523D02*
X97426133Y-154611904D01*
X97426133Y-154611904D02*
X97473752Y-154564285D01*
X97473752Y-154564285D02*
X97521371Y-154469047D01*
X97521371Y-154469047D02*
X97568990Y-154278571D01*
X97568990Y-154278571D02*
X97616609Y-154183333D01*
X97616609Y-154183333D02*
X97664228Y-154135714D01*
X97664228Y-154135714D02*
X97759466Y-154088095D01*
X97759466Y-154088095D02*
X97854704Y-154088095D01*
X97854704Y-154088095D02*
X97949942Y-154135714D01*
X97949942Y-154135714D02*
X97997561Y-154183333D01*
X97997561Y-154183333D02*
X98045180Y-154278571D01*
X98045180Y-154278571D02*
X98045180Y-154516666D01*
X98045180Y-154516666D02*
X97997561Y-154659523D01*
X97045180Y-155135714D02*
X97045180Y-155326190D01*
X97045180Y-155326190D02*
X97092800Y-155421428D01*
X97092800Y-155421428D02*
X97140419Y-155469047D01*
X97140419Y-155469047D02*
X97283276Y-155564285D01*
X97283276Y-155564285D02*
X97473752Y-155611904D01*
X97473752Y-155611904D02*
X97854704Y-155611904D01*
X97854704Y-155611904D02*
X97949942Y-155564285D01*
X97949942Y-155564285D02*
X97997561Y-155516666D01*
X97997561Y-155516666D02*
X98045180Y-155421428D01*
X98045180Y-155421428D02*
X98045180Y-155230952D01*
X98045180Y-155230952D02*
X97997561Y-155135714D01*
X97997561Y-155135714D02*
X97949942Y-155088095D01*
X97949942Y-155088095D02*
X97854704Y-155040476D01*
X97854704Y-155040476D02*
X97616609Y-155040476D01*
X97616609Y-155040476D02*
X97521371Y-155088095D01*
X97521371Y-155088095D02*
X97473752Y-155135714D01*
X97473752Y-155135714D02*
X97426133Y-155230952D01*
X97426133Y-155230952D02*
X97426133Y-155421428D01*
X97426133Y-155421428D02*
X97473752Y-155516666D01*
X97473752Y-155516666D02*
X97521371Y-155564285D01*
X97521371Y-155564285D02*
X97616609Y-155611904D01*
%TO.C,S39*%
X97092800Y-213611905D02*
X97045180Y-213754762D01*
X97045180Y-213754762D02*
X97045180Y-213992857D01*
X97045180Y-213992857D02*
X97092800Y-214088095D01*
X97092800Y-214088095D02*
X97140419Y-214135714D01*
X97140419Y-214135714D02*
X97235657Y-214183333D01*
X97235657Y-214183333D02*
X97330895Y-214183333D01*
X97330895Y-214183333D02*
X97426133Y-214135714D01*
X97426133Y-214135714D02*
X97473752Y-214088095D01*
X97473752Y-214088095D02*
X97521371Y-213992857D01*
X97521371Y-213992857D02*
X97568990Y-213802381D01*
X97568990Y-213802381D02*
X97616609Y-213707143D01*
X97616609Y-213707143D02*
X97664228Y-213659524D01*
X97664228Y-213659524D02*
X97759466Y-213611905D01*
X97759466Y-213611905D02*
X97854704Y-213611905D01*
X97854704Y-213611905D02*
X97949942Y-213659524D01*
X97949942Y-213659524D02*
X97997561Y-213707143D01*
X97997561Y-213707143D02*
X98045180Y-213802381D01*
X98045180Y-213802381D02*
X98045180Y-214040476D01*
X98045180Y-214040476D02*
X97997561Y-214183333D01*
X98045180Y-214516667D02*
X98045180Y-215135714D01*
X98045180Y-215135714D02*
X97664228Y-214802381D01*
X97664228Y-214802381D02*
X97664228Y-214945238D01*
X97664228Y-214945238D02*
X97616609Y-215040476D01*
X97616609Y-215040476D02*
X97568990Y-215088095D01*
X97568990Y-215088095D02*
X97473752Y-215135714D01*
X97473752Y-215135714D02*
X97235657Y-215135714D01*
X97235657Y-215135714D02*
X97140419Y-215088095D01*
X97140419Y-215088095D02*
X97092800Y-215040476D01*
X97092800Y-215040476D02*
X97045180Y-214945238D01*
X97045180Y-214945238D02*
X97045180Y-214659524D01*
X97045180Y-214659524D02*
X97092800Y-214564286D01*
X97092800Y-214564286D02*
X97140419Y-214516667D01*
X97045180Y-215611905D02*
X97045180Y-215802381D01*
X97045180Y-215802381D02*
X97092800Y-215897619D01*
X97092800Y-215897619D02*
X97140419Y-215945238D01*
X97140419Y-215945238D02*
X97283276Y-216040476D01*
X97283276Y-216040476D02*
X97473752Y-216088095D01*
X97473752Y-216088095D02*
X97854704Y-216088095D01*
X97854704Y-216088095D02*
X97949942Y-216040476D01*
X97949942Y-216040476D02*
X97997561Y-215992857D01*
X97997561Y-215992857D02*
X98045180Y-215897619D01*
X98045180Y-215897619D02*
X98045180Y-215707143D01*
X98045180Y-215707143D02*
X97997561Y-215611905D01*
X97997561Y-215611905D02*
X97949942Y-215564286D01*
X97949942Y-215564286D02*
X97854704Y-215516667D01*
X97854704Y-215516667D02*
X97616609Y-215516667D01*
X97616609Y-215516667D02*
X97521371Y-215564286D01*
X97521371Y-215564286D02*
X97473752Y-215611905D01*
X97473752Y-215611905D02*
X97426133Y-215707143D01*
X97426133Y-215707143D02*
X97426133Y-215897619D01*
X97426133Y-215897619D02*
X97473752Y-215992857D01*
X97473752Y-215992857D02*
X97521371Y-216040476D01*
X97521371Y-216040476D02*
X97616609Y-216088095D01*
%TO.C,S31*%
X121092800Y-193611905D02*
X121045180Y-193754762D01*
X121045180Y-193754762D02*
X121045180Y-193992857D01*
X121045180Y-193992857D02*
X121092800Y-194088095D01*
X121092800Y-194088095D02*
X121140419Y-194135714D01*
X121140419Y-194135714D02*
X121235657Y-194183333D01*
X121235657Y-194183333D02*
X121330895Y-194183333D01*
X121330895Y-194183333D02*
X121426133Y-194135714D01*
X121426133Y-194135714D02*
X121473752Y-194088095D01*
X121473752Y-194088095D02*
X121521371Y-193992857D01*
X121521371Y-193992857D02*
X121568990Y-193802381D01*
X121568990Y-193802381D02*
X121616609Y-193707143D01*
X121616609Y-193707143D02*
X121664228Y-193659524D01*
X121664228Y-193659524D02*
X121759466Y-193611905D01*
X121759466Y-193611905D02*
X121854704Y-193611905D01*
X121854704Y-193611905D02*
X121949942Y-193659524D01*
X121949942Y-193659524D02*
X121997561Y-193707143D01*
X121997561Y-193707143D02*
X122045180Y-193802381D01*
X122045180Y-193802381D02*
X122045180Y-194040476D01*
X122045180Y-194040476D02*
X121997561Y-194183333D01*
X122045180Y-194516667D02*
X122045180Y-195135714D01*
X122045180Y-195135714D02*
X121664228Y-194802381D01*
X121664228Y-194802381D02*
X121664228Y-194945238D01*
X121664228Y-194945238D02*
X121616609Y-195040476D01*
X121616609Y-195040476D02*
X121568990Y-195088095D01*
X121568990Y-195088095D02*
X121473752Y-195135714D01*
X121473752Y-195135714D02*
X121235657Y-195135714D01*
X121235657Y-195135714D02*
X121140419Y-195088095D01*
X121140419Y-195088095D02*
X121092800Y-195040476D01*
X121092800Y-195040476D02*
X121045180Y-194945238D01*
X121045180Y-194945238D02*
X121045180Y-194659524D01*
X121045180Y-194659524D02*
X121092800Y-194564286D01*
X121092800Y-194564286D02*
X121140419Y-194516667D01*
X121045180Y-196088095D02*
X121045180Y-195516667D01*
X121045180Y-195802381D02*
X122045180Y-195802381D01*
X122045180Y-195802381D02*
X121902323Y-195707143D01*
X121902323Y-195707143D02*
X121807085Y-195611905D01*
X121807085Y-195611905D02*
X121759466Y-195516667D01*
%TO.C,S17*%
X133092800Y-163611905D02*
X133045180Y-163754762D01*
X133045180Y-163754762D02*
X133045180Y-163992857D01*
X133045180Y-163992857D02*
X133092800Y-164088095D01*
X133092800Y-164088095D02*
X133140419Y-164135714D01*
X133140419Y-164135714D02*
X133235657Y-164183333D01*
X133235657Y-164183333D02*
X133330895Y-164183333D01*
X133330895Y-164183333D02*
X133426133Y-164135714D01*
X133426133Y-164135714D02*
X133473752Y-164088095D01*
X133473752Y-164088095D02*
X133521371Y-163992857D01*
X133521371Y-163992857D02*
X133568990Y-163802381D01*
X133568990Y-163802381D02*
X133616609Y-163707143D01*
X133616609Y-163707143D02*
X133664228Y-163659524D01*
X133664228Y-163659524D02*
X133759466Y-163611905D01*
X133759466Y-163611905D02*
X133854704Y-163611905D01*
X133854704Y-163611905D02*
X133949942Y-163659524D01*
X133949942Y-163659524D02*
X133997561Y-163707143D01*
X133997561Y-163707143D02*
X134045180Y-163802381D01*
X134045180Y-163802381D02*
X134045180Y-164040476D01*
X134045180Y-164040476D02*
X133997561Y-164183333D01*
X133045180Y-165135714D02*
X133045180Y-164564286D01*
X133045180Y-164850000D02*
X134045180Y-164850000D01*
X134045180Y-164850000D02*
X133902323Y-164754762D01*
X133902323Y-164754762D02*
X133807085Y-164659524D01*
X133807085Y-164659524D02*
X133759466Y-164564286D01*
X134045180Y-165469048D02*
X134045180Y-166135714D01*
X134045180Y-166135714D02*
X133045180Y-165707143D01*
%TO.C,S26*%
X121092800Y-183611905D02*
X121045180Y-183754762D01*
X121045180Y-183754762D02*
X121045180Y-183992857D01*
X121045180Y-183992857D02*
X121092800Y-184088095D01*
X121092800Y-184088095D02*
X121140419Y-184135714D01*
X121140419Y-184135714D02*
X121235657Y-184183333D01*
X121235657Y-184183333D02*
X121330895Y-184183333D01*
X121330895Y-184183333D02*
X121426133Y-184135714D01*
X121426133Y-184135714D02*
X121473752Y-184088095D01*
X121473752Y-184088095D02*
X121521371Y-183992857D01*
X121521371Y-183992857D02*
X121568990Y-183802381D01*
X121568990Y-183802381D02*
X121616609Y-183707143D01*
X121616609Y-183707143D02*
X121664228Y-183659524D01*
X121664228Y-183659524D02*
X121759466Y-183611905D01*
X121759466Y-183611905D02*
X121854704Y-183611905D01*
X121854704Y-183611905D02*
X121949942Y-183659524D01*
X121949942Y-183659524D02*
X121997561Y-183707143D01*
X121997561Y-183707143D02*
X122045180Y-183802381D01*
X122045180Y-183802381D02*
X122045180Y-184040476D01*
X122045180Y-184040476D02*
X121997561Y-184183333D01*
X121949942Y-184564286D02*
X121997561Y-184611905D01*
X121997561Y-184611905D02*
X122045180Y-184707143D01*
X122045180Y-184707143D02*
X122045180Y-184945238D01*
X122045180Y-184945238D02*
X121997561Y-185040476D01*
X121997561Y-185040476D02*
X121949942Y-185088095D01*
X121949942Y-185088095D02*
X121854704Y-185135714D01*
X121854704Y-185135714D02*
X121759466Y-185135714D01*
X121759466Y-185135714D02*
X121616609Y-185088095D01*
X121616609Y-185088095D02*
X121045180Y-184516667D01*
X121045180Y-184516667D02*
X121045180Y-185135714D01*
X122045180Y-185992857D02*
X122045180Y-185802381D01*
X122045180Y-185802381D02*
X121997561Y-185707143D01*
X121997561Y-185707143D02*
X121949942Y-185659524D01*
X121949942Y-185659524D02*
X121807085Y-185564286D01*
X121807085Y-185564286D02*
X121616609Y-185516667D01*
X121616609Y-185516667D02*
X121235657Y-185516667D01*
X121235657Y-185516667D02*
X121140419Y-185564286D01*
X121140419Y-185564286D02*
X121092800Y-185611905D01*
X121092800Y-185611905D02*
X121045180Y-185707143D01*
X121045180Y-185707143D02*
X121045180Y-185897619D01*
X121045180Y-185897619D02*
X121092800Y-185992857D01*
X121092800Y-185992857D02*
X121140419Y-186040476D01*
X121140419Y-186040476D02*
X121235657Y-186088095D01*
X121235657Y-186088095D02*
X121473752Y-186088095D01*
X121473752Y-186088095D02*
X121568990Y-186040476D01*
X121568990Y-186040476D02*
X121616609Y-185992857D01*
X121616609Y-185992857D02*
X121664228Y-185897619D01*
X121664228Y-185897619D02*
X121664228Y-185707143D01*
X121664228Y-185707143D02*
X121616609Y-185611905D01*
X121616609Y-185611905D02*
X121568990Y-185564286D01*
X121568990Y-185564286D02*
X121473752Y-185516667D01*
%TO.C,S21*%
X121092800Y-173611905D02*
X121045180Y-173754762D01*
X121045180Y-173754762D02*
X121045180Y-173992857D01*
X121045180Y-173992857D02*
X121092800Y-174088095D01*
X121092800Y-174088095D02*
X121140419Y-174135714D01*
X121140419Y-174135714D02*
X121235657Y-174183333D01*
X121235657Y-174183333D02*
X121330895Y-174183333D01*
X121330895Y-174183333D02*
X121426133Y-174135714D01*
X121426133Y-174135714D02*
X121473752Y-174088095D01*
X121473752Y-174088095D02*
X121521371Y-173992857D01*
X121521371Y-173992857D02*
X121568990Y-173802381D01*
X121568990Y-173802381D02*
X121616609Y-173707143D01*
X121616609Y-173707143D02*
X121664228Y-173659524D01*
X121664228Y-173659524D02*
X121759466Y-173611905D01*
X121759466Y-173611905D02*
X121854704Y-173611905D01*
X121854704Y-173611905D02*
X121949942Y-173659524D01*
X121949942Y-173659524D02*
X121997561Y-173707143D01*
X121997561Y-173707143D02*
X122045180Y-173802381D01*
X122045180Y-173802381D02*
X122045180Y-174040476D01*
X122045180Y-174040476D02*
X121997561Y-174183333D01*
X121949942Y-174564286D02*
X121997561Y-174611905D01*
X121997561Y-174611905D02*
X122045180Y-174707143D01*
X122045180Y-174707143D02*
X122045180Y-174945238D01*
X122045180Y-174945238D02*
X121997561Y-175040476D01*
X121997561Y-175040476D02*
X121949942Y-175088095D01*
X121949942Y-175088095D02*
X121854704Y-175135714D01*
X121854704Y-175135714D02*
X121759466Y-175135714D01*
X121759466Y-175135714D02*
X121616609Y-175088095D01*
X121616609Y-175088095D02*
X121045180Y-174516667D01*
X121045180Y-174516667D02*
X121045180Y-175135714D01*
X121045180Y-176088095D02*
X121045180Y-175516667D01*
X121045180Y-175802381D02*
X122045180Y-175802381D01*
X122045180Y-175802381D02*
X121902323Y-175707143D01*
X121902323Y-175707143D02*
X121807085Y-175611905D01*
X121807085Y-175611905D02*
X121759466Y-175516667D01*
%TO.C,S18*%
X85092800Y-173611905D02*
X85045180Y-173754762D01*
X85045180Y-173754762D02*
X85045180Y-173992857D01*
X85045180Y-173992857D02*
X85092800Y-174088095D01*
X85092800Y-174088095D02*
X85140419Y-174135714D01*
X85140419Y-174135714D02*
X85235657Y-174183333D01*
X85235657Y-174183333D02*
X85330895Y-174183333D01*
X85330895Y-174183333D02*
X85426133Y-174135714D01*
X85426133Y-174135714D02*
X85473752Y-174088095D01*
X85473752Y-174088095D02*
X85521371Y-173992857D01*
X85521371Y-173992857D02*
X85568990Y-173802381D01*
X85568990Y-173802381D02*
X85616609Y-173707143D01*
X85616609Y-173707143D02*
X85664228Y-173659524D01*
X85664228Y-173659524D02*
X85759466Y-173611905D01*
X85759466Y-173611905D02*
X85854704Y-173611905D01*
X85854704Y-173611905D02*
X85949942Y-173659524D01*
X85949942Y-173659524D02*
X85997561Y-173707143D01*
X85997561Y-173707143D02*
X86045180Y-173802381D01*
X86045180Y-173802381D02*
X86045180Y-174040476D01*
X86045180Y-174040476D02*
X85997561Y-174183333D01*
X85045180Y-175135714D02*
X85045180Y-174564286D01*
X85045180Y-174850000D02*
X86045180Y-174850000D01*
X86045180Y-174850000D02*
X85902323Y-174754762D01*
X85902323Y-174754762D02*
X85807085Y-174659524D01*
X85807085Y-174659524D02*
X85759466Y-174564286D01*
X85616609Y-175707143D02*
X85664228Y-175611905D01*
X85664228Y-175611905D02*
X85711847Y-175564286D01*
X85711847Y-175564286D02*
X85807085Y-175516667D01*
X85807085Y-175516667D02*
X85854704Y-175516667D01*
X85854704Y-175516667D02*
X85949942Y-175564286D01*
X85949942Y-175564286D02*
X85997561Y-175611905D01*
X85997561Y-175611905D02*
X86045180Y-175707143D01*
X86045180Y-175707143D02*
X86045180Y-175897619D01*
X86045180Y-175897619D02*
X85997561Y-175992857D01*
X85997561Y-175992857D02*
X85949942Y-176040476D01*
X85949942Y-176040476D02*
X85854704Y-176088095D01*
X85854704Y-176088095D02*
X85807085Y-176088095D01*
X85807085Y-176088095D02*
X85711847Y-176040476D01*
X85711847Y-176040476D02*
X85664228Y-175992857D01*
X85664228Y-175992857D02*
X85616609Y-175897619D01*
X85616609Y-175897619D02*
X85616609Y-175707143D01*
X85616609Y-175707143D02*
X85568990Y-175611905D01*
X85568990Y-175611905D02*
X85521371Y-175564286D01*
X85521371Y-175564286D02*
X85426133Y-175516667D01*
X85426133Y-175516667D02*
X85235657Y-175516667D01*
X85235657Y-175516667D02*
X85140419Y-175564286D01*
X85140419Y-175564286D02*
X85092800Y-175611905D01*
X85092800Y-175611905D02*
X85045180Y-175707143D01*
X85045180Y-175707143D02*
X85045180Y-175897619D01*
X85045180Y-175897619D02*
X85092800Y-175992857D01*
X85092800Y-175992857D02*
X85140419Y-176040476D01*
X85140419Y-176040476D02*
X85235657Y-176088095D01*
X85235657Y-176088095D02*
X85426133Y-176088095D01*
X85426133Y-176088095D02*
X85521371Y-176040476D01*
X85521371Y-176040476D02*
X85568990Y-175992857D01*
X85568990Y-175992857D02*
X85616609Y-175897619D01*
%TO.C,S6*%
X121092800Y-144088095D02*
X121045180Y-144230952D01*
X121045180Y-144230952D02*
X121045180Y-144469047D01*
X121045180Y-144469047D02*
X121092800Y-144564285D01*
X121092800Y-144564285D02*
X121140419Y-144611904D01*
X121140419Y-144611904D02*
X121235657Y-144659523D01*
X121235657Y-144659523D02*
X121330895Y-144659523D01*
X121330895Y-144659523D02*
X121426133Y-144611904D01*
X121426133Y-144611904D02*
X121473752Y-144564285D01*
X121473752Y-144564285D02*
X121521371Y-144469047D01*
X121521371Y-144469047D02*
X121568990Y-144278571D01*
X121568990Y-144278571D02*
X121616609Y-144183333D01*
X121616609Y-144183333D02*
X121664228Y-144135714D01*
X121664228Y-144135714D02*
X121759466Y-144088095D01*
X121759466Y-144088095D02*
X121854704Y-144088095D01*
X121854704Y-144088095D02*
X121949942Y-144135714D01*
X121949942Y-144135714D02*
X121997561Y-144183333D01*
X121997561Y-144183333D02*
X122045180Y-144278571D01*
X122045180Y-144278571D02*
X122045180Y-144516666D01*
X122045180Y-144516666D02*
X121997561Y-144659523D01*
X122045180Y-145516666D02*
X122045180Y-145326190D01*
X122045180Y-145326190D02*
X121997561Y-145230952D01*
X121997561Y-145230952D02*
X121949942Y-145183333D01*
X121949942Y-145183333D02*
X121807085Y-145088095D01*
X121807085Y-145088095D02*
X121616609Y-145040476D01*
X121616609Y-145040476D02*
X121235657Y-145040476D01*
X121235657Y-145040476D02*
X121140419Y-145088095D01*
X121140419Y-145088095D02*
X121092800Y-145135714D01*
X121092800Y-145135714D02*
X121045180Y-145230952D01*
X121045180Y-145230952D02*
X121045180Y-145421428D01*
X121045180Y-145421428D02*
X121092800Y-145516666D01*
X121092800Y-145516666D02*
X121140419Y-145564285D01*
X121140419Y-145564285D02*
X121235657Y-145611904D01*
X121235657Y-145611904D02*
X121473752Y-145611904D01*
X121473752Y-145611904D02*
X121568990Y-145564285D01*
X121568990Y-145564285D02*
X121616609Y-145516666D01*
X121616609Y-145516666D02*
X121664228Y-145421428D01*
X121664228Y-145421428D02*
X121664228Y-145230952D01*
X121664228Y-145230952D02*
X121616609Y-145135714D01*
X121616609Y-145135714D02*
X121568990Y-145088095D01*
X121568990Y-145088095D02*
X121473752Y-145040476D01*
%TO.C,S14*%
X97092800Y-163611905D02*
X97045180Y-163754762D01*
X97045180Y-163754762D02*
X97045180Y-163992857D01*
X97045180Y-163992857D02*
X97092800Y-164088095D01*
X97092800Y-164088095D02*
X97140419Y-164135714D01*
X97140419Y-164135714D02*
X97235657Y-164183333D01*
X97235657Y-164183333D02*
X97330895Y-164183333D01*
X97330895Y-164183333D02*
X97426133Y-164135714D01*
X97426133Y-164135714D02*
X97473752Y-164088095D01*
X97473752Y-164088095D02*
X97521371Y-163992857D01*
X97521371Y-163992857D02*
X97568990Y-163802381D01*
X97568990Y-163802381D02*
X97616609Y-163707143D01*
X97616609Y-163707143D02*
X97664228Y-163659524D01*
X97664228Y-163659524D02*
X97759466Y-163611905D01*
X97759466Y-163611905D02*
X97854704Y-163611905D01*
X97854704Y-163611905D02*
X97949942Y-163659524D01*
X97949942Y-163659524D02*
X97997561Y-163707143D01*
X97997561Y-163707143D02*
X98045180Y-163802381D01*
X98045180Y-163802381D02*
X98045180Y-164040476D01*
X98045180Y-164040476D02*
X97997561Y-164183333D01*
X97045180Y-165135714D02*
X97045180Y-164564286D01*
X97045180Y-164850000D02*
X98045180Y-164850000D01*
X98045180Y-164850000D02*
X97902323Y-164754762D01*
X97902323Y-164754762D02*
X97807085Y-164659524D01*
X97807085Y-164659524D02*
X97759466Y-164564286D01*
X97711847Y-165992857D02*
X97045180Y-165992857D01*
X98092800Y-165754762D02*
X97378514Y-165516667D01*
X97378514Y-165516667D02*
X97378514Y-166135714D01*
%TO.C,S29*%
X97092800Y-193611905D02*
X97045180Y-193754762D01*
X97045180Y-193754762D02*
X97045180Y-193992857D01*
X97045180Y-193992857D02*
X97092800Y-194088095D01*
X97092800Y-194088095D02*
X97140419Y-194135714D01*
X97140419Y-194135714D02*
X97235657Y-194183333D01*
X97235657Y-194183333D02*
X97330895Y-194183333D01*
X97330895Y-194183333D02*
X97426133Y-194135714D01*
X97426133Y-194135714D02*
X97473752Y-194088095D01*
X97473752Y-194088095D02*
X97521371Y-193992857D01*
X97521371Y-193992857D02*
X97568990Y-193802381D01*
X97568990Y-193802381D02*
X97616609Y-193707143D01*
X97616609Y-193707143D02*
X97664228Y-193659524D01*
X97664228Y-193659524D02*
X97759466Y-193611905D01*
X97759466Y-193611905D02*
X97854704Y-193611905D01*
X97854704Y-193611905D02*
X97949942Y-193659524D01*
X97949942Y-193659524D02*
X97997561Y-193707143D01*
X97997561Y-193707143D02*
X98045180Y-193802381D01*
X98045180Y-193802381D02*
X98045180Y-194040476D01*
X98045180Y-194040476D02*
X97997561Y-194183333D01*
X97949942Y-194564286D02*
X97997561Y-194611905D01*
X97997561Y-194611905D02*
X98045180Y-194707143D01*
X98045180Y-194707143D02*
X98045180Y-194945238D01*
X98045180Y-194945238D02*
X97997561Y-195040476D01*
X97997561Y-195040476D02*
X97949942Y-195088095D01*
X97949942Y-195088095D02*
X97854704Y-195135714D01*
X97854704Y-195135714D02*
X97759466Y-195135714D01*
X97759466Y-195135714D02*
X97616609Y-195088095D01*
X97616609Y-195088095D02*
X97045180Y-194516667D01*
X97045180Y-194516667D02*
X97045180Y-195135714D01*
X97045180Y-195611905D02*
X97045180Y-195802381D01*
X97045180Y-195802381D02*
X97092800Y-195897619D01*
X97092800Y-195897619D02*
X97140419Y-195945238D01*
X97140419Y-195945238D02*
X97283276Y-196040476D01*
X97283276Y-196040476D02*
X97473752Y-196088095D01*
X97473752Y-196088095D02*
X97854704Y-196088095D01*
X97854704Y-196088095D02*
X97949942Y-196040476D01*
X97949942Y-196040476D02*
X97997561Y-195992857D01*
X97997561Y-195992857D02*
X98045180Y-195897619D01*
X98045180Y-195897619D02*
X98045180Y-195707143D01*
X98045180Y-195707143D02*
X97997561Y-195611905D01*
X97997561Y-195611905D02*
X97949942Y-195564286D01*
X97949942Y-195564286D02*
X97854704Y-195516667D01*
X97854704Y-195516667D02*
X97616609Y-195516667D01*
X97616609Y-195516667D02*
X97521371Y-195564286D01*
X97521371Y-195564286D02*
X97473752Y-195611905D01*
X97473752Y-195611905D02*
X97426133Y-195707143D01*
X97426133Y-195707143D02*
X97426133Y-195897619D01*
X97426133Y-195897619D02*
X97473752Y-195992857D01*
X97473752Y-195992857D02*
X97521371Y-196040476D01*
X97521371Y-196040476D02*
X97616609Y-196088095D01*
%TO.C,S15*%
X109092800Y-163611905D02*
X109045180Y-163754762D01*
X109045180Y-163754762D02*
X109045180Y-163992857D01*
X109045180Y-163992857D02*
X109092800Y-164088095D01*
X109092800Y-164088095D02*
X109140419Y-164135714D01*
X109140419Y-164135714D02*
X109235657Y-164183333D01*
X109235657Y-164183333D02*
X109330895Y-164183333D01*
X109330895Y-164183333D02*
X109426133Y-164135714D01*
X109426133Y-164135714D02*
X109473752Y-164088095D01*
X109473752Y-164088095D02*
X109521371Y-163992857D01*
X109521371Y-163992857D02*
X109568990Y-163802381D01*
X109568990Y-163802381D02*
X109616609Y-163707143D01*
X109616609Y-163707143D02*
X109664228Y-163659524D01*
X109664228Y-163659524D02*
X109759466Y-163611905D01*
X109759466Y-163611905D02*
X109854704Y-163611905D01*
X109854704Y-163611905D02*
X109949942Y-163659524D01*
X109949942Y-163659524D02*
X109997561Y-163707143D01*
X109997561Y-163707143D02*
X110045180Y-163802381D01*
X110045180Y-163802381D02*
X110045180Y-164040476D01*
X110045180Y-164040476D02*
X109997561Y-164183333D01*
X109045180Y-165135714D02*
X109045180Y-164564286D01*
X109045180Y-164850000D02*
X110045180Y-164850000D01*
X110045180Y-164850000D02*
X109902323Y-164754762D01*
X109902323Y-164754762D02*
X109807085Y-164659524D01*
X109807085Y-164659524D02*
X109759466Y-164564286D01*
X110045180Y-166040476D02*
X110045180Y-165564286D01*
X110045180Y-165564286D02*
X109568990Y-165516667D01*
X109568990Y-165516667D02*
X109616609Y-165564286D01*
X109616609Y-165564286D02*
X109664228Y-165659524D01*
X109664228Y-165659524D02*
X109664228Y-165897619D01*
X109664228Y-165897619D02*
X109616609Y-165992857D01*
X109616609Y-165992857D02*
X109568990Y-166040476D01*
X109568990Y-166040476D02*
X109473752Y-166088095D01*
X109473752Y-166088095D02*
X109235657Y-166088095D01*
X109235657Y-166088095D02*
X109140419Y-166040476D01*
X109140419Y-166040476D02*
X109092800Y-165992857D01*
X109092800Y-165992857D02*
X109045180Y-165897619D01*
X109045180Y-165897619D02*
X109045180Y-165659524D01*
X109045180Y-165659524D02*
X109092800Y-165564286D01*
X109092800Y-165564286D02*
X109140419Y-165516667D01*
%TO.C,S19*%
X97092800Y-173611905D02*
X97045180Y-173754762D01*
X97045180Y-173754762D02*
X97045180Y-173992857D01*
X97045180Y-173992857D02*
X97092800Y-174088095D01*
X97092800Y-174088095D02*
X97140419Y-174135714D01*
X97140419Y-174135714D02*
X97235657Y-174183333D01*
X97235657Y-174183333D02*
X97330895Y-174183333D01*
X97330895Y-174183333D02*
X97426133Y-174135714D01*
X97426133Y-174135714D02*
X97473752Y-174088095D01*
X97473752Y-174088095D02*
X97521371Y-173992857D01*
X97521371Y-173992857D02*
X97568990Y-173802381D01*
X97568990Y-173802381D02*
X97616609Y-173707143D01*
X97616609Y-173707143D02*
X97664228Y-173659524D01*
X97664228Y-173659524D02*
X97759466Y-173611905D01*
X97759466Y-173611905D02*
X97854704Y-173611905D01*
X97854704Y-173611905D02*
X97949942Y-173659524D01*
X97949942Y-173659524D02*
X97997561Y-173707143D01*
X97997561Y-173707143D02*
X98045180Y-173802381D01*
X98045180Y-173802381D02*
X98045180Y-174040476D01*
X98045180Y-174040476D02*
X97997561Y-174183333D01*
X97045180Y-175135714D02*
X97045180Y-174564286D01*
X97045180Y-174850000D02*
X98045180Y-174850000D01*
X98045180Y-174850000D02*
X97902323Y-174754762D01*
X97902323Y-174754762D02*
X97807085Y-174659524D01*
X97807085Y-174659524D02*
X97759466Y-174564286D01*
X97045180Y-175611905D02*
X97045180Y-175802381D01*
X97045180Y-175802381D02*
X97092800Y-175897619D01*
X97092800Y-175897619D02*
X97140419Y-175945238D01*
X97140419Y-175945238D02*
X97283276Y-176040476D01*
X97283276Y-176040476D02*
X97473752Y-176088095D01*
X97473752Y-176088095D02*
X97854704Y-176088095D01*
X97854704Y-176088095D02*
X97949942Y-176040476D01*
X97949942Y-176040476D02*
X97997561Y-175992857D01*
X97997561Y-175992857D02*
X98045180Y-175897619D01*
X98045180Y-175897619D02*
X98045180Y-175707143D01*
X98045180Y-175707143D02*
X97997561Y-175611905D01*
X97997561Y-175611905D02*
X97949942Y-175564286D01*
X97949942Y-175564286D02*
X97854704Y-175516667D01*
X97854704Y-175516667D02*
X97616609Y-175516667D01*
X97616609Y-175516667D02*
X97521371Y-175564286D01*
X97521371Y-175564286D02*
X97473752Y-175611905D01*
X97473752Y-175611905D02*
X97426133Y-175707143D01*
X97426133Y-175707143D02*
X97426133Y-175897619D01*
X97426133Y-175897619D02*
X97473752Y-175992857D01*
X97473752Y-175992857D02*
X97521371Y-176040476D01*
X97521371Y-176040476D02*
X97616609Y-176088095D01*
%TO.C,S33*%
X85092800Y-203611905D02*
X85045180Y-203754762D01*
X85045180Y-203754762D02*
X85045180Y-203992857D01*
X85045180Y-203992857D02*
X85092800Y-204088095D01*
X85092800Y-204088095D02*
X85140419Y-204135714D01*
X85140419Y-204135714D02*
X85235657Y-204183333D01*
X85235657Y-204183333D02*
X85330895Y-204183333D01*
X85330895Y-204183333D02*
X85426133Y-204135714D01*
X85426133Y-204135714D02*
X85473752Y-204088095D01*
X85473752Y-204088095D02*
X85521371Y-203992857D01*
X85521371Y-203992857D02*
X85568990Y-203802381D01*
X85568990Y-203802381D02*
X85616609Y-203707143D01*
X85616609Y-203707143D02*
X85664228Y-203659524D01*
X85664228Y-203659524D02*
X85759466Y-203611905D01*
X85759466Y-203611905D02*
X85854704Y-203611905D01*
X85854704Y-203611905D02*
X85949942Y-203659524D01*
X85949942Y-203659524D02*
X85997561Y-203707143D01*
X85997561Y-203707143D02*
X86045180Y-203802381D01*
X86045180Y-203802381D02*
X86045180Y-204040476D01*
X86045180Y-204040476D02*
X85997561Y-204183333D01*
X86045180Y-204516667D02*
X86045180Y-205135714D01*
X86045180Y-205135714D02*
X85664228Y-204802381D01*
X85664228Y-204802381D02*
X85664228Y-204945238D01*
X85664228Y-204945238D02*
X85616609Y-205040476D01*
X85616609Y-205040476D02*
X85568990Y-205088095D01*
X85568990Y-205088095D02*
X85473752Y-205135714D01*
X85473752Y-205135714D02*
X85235657Y-205135714D01*
X85235657Y-205135714D02*
X85140419Y-205088095D01*
X85140419Y-205088095D02*
X85092800Y-205040476D01*
X85092800Y-205040476D02*
X85045180Y-204945238D01*
X85045180Y-204945238D02*
X85045180Y-204659524D01*
X85045180Y-204659524D02*
X85092800Y-204564286D01*
X85092800Y-204564286D02*
X85140419Y-204516667D01*
X86045180Y-205469048D02*
X86045180Y-206088095D01*
X86045180Y-206088095D02*
X85664228Y-205754762D01*
X85664228Y-205754762D02*
X85664228Y-205897619D01*
X85664228Y-205897619D02*
X85616609Y-205992857D01*
X85616609Y-205992857D02*
X85568990Y-206040476D01*
X85568990Y-206040476D02*
X85473752Y-206088095D01*
X85473752Y-206088095D02*
X85235657Y-206088095D01*
X85235657Y-206088095D02*
X85140419Y-206040476D01*
X85140419Y-206040476D02*
X85092800Y-205992857D01*
X85092800Y-205992857D02*
X85045180Y-205897619D01*
X85045180Y-205897619D02*
X85045180Y-205611905D01*
X85045180Y-205611905D02*
X85092800Y-205516667D01*
X85092800Y-205516667D02*
X85140419Y-205469048D01*
%TO.C,S37*%
X133092800Y-203611905D02*
X133045180Y-203754762D01*
X133045180Y-203754762D02*
X133045180Y-203992857D01*
X133045180Y-203992857D02*
X133092800Y-204088095D01*
X133092800Y-204088095D02*
X133140419Y-204135714D01*
X133140419Y-204135714D02*
X133235657Y-204183333D01*
X133235657Y-204183333D02*
X133330895Y-204183333D01*
X133330895Y-204183333D02*
X133426133Y-204135714D01*
X133426133Y-204135714D02*
X133473752Y-204088095D01*
X133473752Y-204088095D02*
X133521371Y-203992857D01*
X133521371Y-203992857D02*
X133568990Y-203802381D01*
X133568990Y-203802381D02*
X133616609Y-203707143D01*
X133616609Y-203707143D02*
X133664228Y-203659524D01*
X133664228Y-203659524D02*
X133759466Y-203611905D01*
X133759466Y-203611905D02*
X133854704Y-203611905D01*
X133854704Y-203611905D02*
X133949942Y-203659524D01*
X133949942Y-203659524D02*
X133997561Y-203707143D01*
X133997561Y-203707143D02*
X134045180Y-203802381D01*
X134045180Y-203802381D02*
X134045180Y-204040476D01*
X134045180Y-204040476D02*
X133997561Y-204183333D01*
X134045180Y-204516667D02*
X134045180Y-205135714D01*
X134045180Y-205135714D02*
X133664228Y-204802381D01*
X133664228Y-204802381D02*
X133664228Y-204945238D01*
X133664228Y-204945238D02*
X133616609Y-205040476D01*
X133616609Y-205040476D02*
X133568990Y-205088095D01*
X133568990Y-205088095D02*
X133473752Y-205135714D01*
X133473752Y-205135714D02*
X133235657Y-205135714D01*
X133235657Y-205135714D02*
X133140419Y-205088095D01*
X133140419Y-205088095D02*
X133092800Y-205040476D01*
X133092800Y-205040476D02*
X133045180Y-204945238D01*
X133045180Y-204945238D02*
X133045180Y-204659524D01*
X133045180Y-204659524D02*
X133092800Y-204564286D01*
X133092800Y-204564286D02*
X133140419Y-204516667D01*
X134045180Y-205469048D02*
X134045180Y-206135714D01*
X134045180Y-206135714D02*
X133045180Y-205707143D01*
%TO.C,*%
D11*
%TO.C,S24*%
X94900000Y-182250000D02*
X96600000Y-183950000D01*
X93100000Y-182250000D02*
X94900000Y-182250000D01*
X96600000Y-183950000D02*
X96600000Y-185750000D01*
X91400000Y-183950000D02*
X93100000Y-182250000D01*
X96600000Y-185750000D02*
X94900000Y-187450000D01*
X91400000Y-185750000D02*
X91400000Y-183950000D01*
X94900000Y-187450000D02*
X93100000Y-187450000D01*
X93100000Y-187450000D02*
X91400000Y-185750000D01*
X95000000Y-184850000D02*
G75*
G03*
X95000000Y-184850000I-1000000J0D01*
G01*
X96100000Y-183450000D02*
X95600000Y-182950000D01*
X95600000Y-182550000D01*
X96100000Y-182550000D01*
X96100000Y-183450000D01*
G36*
X96100000Y-183450000D02*
G01*
X95600000Y-182950000D01*
X95600000Y-182550000D01*
X96100000Y-182550000D01*
X96100000Y-183450000D01*
G37*
X92400000Y-182950000D02*
X91900000Y-183450000D01*
X91900000Y-182550000D01*
X92400000Y-182550000D01*
X92400000Y-182950000D01*
G36*
X92400000Y-182950000D02*
G01*
X91900000Y-183450000D01*
X91900000Y-182550000D01*
X92400000Y-182550000D01*
X92400000Y-182950000D01*
G37*
X96100000Y-187150000D02*
X95600000Y-187150000D01*
X95600000Y-186750000D01*
X96100000Y-186250000D01*
X96100000Y-187150000D01*
G36*
X96100000Y-187150000D02*
G01*
X95600000Y-187150000D01*
X95600000Y-186750000D01*
X96100000Y-186250000D01*
X96100000Y-187150000D01*
G37*
X92400000Y-186750000D02*
X92400000Y-187150000D01*
X91900000Y-187150000D01*
X91900000Y-186250000D01*
X92400000Y-186750000D01*
G36*
X92400000Y-186750000D02*
G01*
X92400000Y-187150000D01*
X91900000Y-187150000D01*
X91900000Y-186250000D01*
X92400000Y-186750000D01*
G37*
%TO.C,S16*%
X118900000Y-162250000D02*
X120600000Y-163950000D01*
X117100000Y-162250000D02*
X118900000Y-162250000D01*
X120600000Y-163950000D02*
X120600000Y-165750000D01*
X115400000Y-163950000D02*
X117100000Y-162250000D01*
X120600000Y-165750000D02*
X118900000Y-167450000D01*
X115400000Y-165750000D02*
X115400000Y-163950000D01*
X118900000Y-167450000D02*
X117100000Y-167450000D01*
X117100000Y-167450000D02*
X115400000Y-165750000D01*
X119000000Y-164850000D02*
G75*
G03*
X119000000Y-164850000I-1000000J0D01*
G01*
X120100000Y-163450000D02*
X119600000Y-162950000D01*
X119600000Y-162550000D01*
X120100000Y-162550000D01*
X120100000Y-163450000D01*
G36*
X120100000Y-163450000D02*
G01*
X119600000Y-162950000D01*
X119600000Y-162550000D01*
X120100000Y-162550000D01*
X120100000Y-163450000D01*
G37*
X116400000Y-162950000D02*
X115900000Y-163450000D01*
X115900000Y-162550000D01*
X116400000Y-162550000D01*
X116400000Y-162950000D01*
G36*
X116400000Y-162950000D02*
G01*
X115900000Y-163450000D01*
X115900000Y-162550000D01*
X116400000Y-162550000D01*
X116400000Y-162950000D01*
G37*
X120100000Y-167150000D02*
X119600000Y-167150000D01*
X119600000Y-166750000D01*
X120100000Y-166250000D01*
X120100000Y-167150000D01*
G36*
X120100000Y-167150000D02*
G01*
X119600000Y-167150000D01*
X119600000Y-166750000D01*
X120100000Y-166250000D01*
X120100000Y-167150000D01*
G37*
X116400000Y-166750000D02*
X116400000Y-167150000D01*
X115900000Y-167150000D01*
X115900000Y-166250000D01*
X116400000Y-166750000D01*
G36*
X116400000Y-166750000D02*
G01*
X116400000Y-167150000D01*
X115900000Y-167150000D01*
X115900000Y-166250000D01*
X116400000Y-166750000D01*
G37*
%TO.C,S34*%
X94900000Y-202250000D02*
X96600000Y-203950000D01*
X93100000Y-202250000D02*
X94900000Y-202250000D01*
X96600000Y-203950000D02*
X96600000Y-205750000D01*
X91400000Y-203950000D02*
X93100000Y-202250000D01*
X96600000Y-205750000D02*
X94900000Y-207450000D01*
X91400000Y-205750000D02*
X91400000Y-203950000D01*
X94900000Y-207450000D02*
X93100000Y-207450000D01*
X93100000Y-207450000D02*
X91400000Y-205750000D01*
X95000000Y-204850000D02*
G75*
G03*
X95000000Y-204850000I-1000000J0D01*
G01*
X96100000Y-203450000D02*
X95600000Y-202950000D01*
X95600000Y-202550000D01*
X96100000Y-202550000D01*
X96100000Y-203450000D01*
G36*
X96100000Y-203450000D02*
G01*
X95600000Y-202950000D01*
X95600000Y-202550000D01*
X96100000Y-202550000D01*
X96100000Y-203450000D01*
G37*
X92400000Y-202950000D02*
X91900000Y-203450000D01*
X91900000Y-202550000D01*
X92400000Y-202550000D01*
X92400000Y-202950000D01*
G36*
X92400000Y-202950000D02*
G01*
X91900000Y-203450000D01*
X91900000Y-202550000D01*
X92400000Y-202550000D01*
X92400000Y-202950000D01*
G37*
X96100000Y-207150000D02*
X95600000Y-207150000D01*
X95600000Y-206750000D01*
X96100000Y-206250000D01*
X96100000Y-207150000D01*
G36*
X96100000Y-207150000D02*
G01*
X95600000Y-207150000D01*
X95600000Y-206750000D01*
X96100000Y-206250000D01*
X96100000Y-207150000D01*
G37*
X92400000Y-206750000D02*
X92400000Y-207150000D01*
X91900000Y-207150000D01*
X91900000Y-206250000D01*
X92400000Y-206750000D01*
G36*
X92400000Y-206750000D02*
G01*
X92400000Y-207150000D01*
X91900000Y-207150000D01*
X91900000Y-206250000D01*
X92400000Y-206750000D01*
G37*
%TO.C,S42*%
X130900000Y-212250000D02*
X132600000Y-213950000D01*
X129100000Y-212250000D02*
X130900000Y-212250000D01*
X132600000Y-213950000D02*
X132600000Y-215750000D01*
X127400000Y-213950000D02*
X129100000Y-212250000D01*
X132600000Y-215750000D02*
X130900000Y-217450000D01*
X127400000Y-215750000D02*
X127400000Y-213950000D01*
X130900000Y-217450000D02*
X129100000Y-217450000D01*
X129100000Y-217450000D02*
X127400000Y-215750000D01*
X131000000Y-214850000D02*
G75*
G03*
X131000000Y-214850000I-1000000J0D01*
G01*
X132100000Y-213450000D02*
X131600000Y-212950000D01*
X131600000Y-212550000D01*
X132100000Y-212550000D01*
X132100000Y-213450000D01*
G36*
X132100000Y-213450000D02*
G01*
X131600000Y-212950000D01*
X131600000Y-212550000D01*
X132100000Y-212550000D01*
X132100000Y-213450000D01*
G37*
X128400000Y-212950000D02*
X127900000Y-213450000D01*
X127900000Y-212550000D01*
X128400000Y-212550000D01*
X128400000Y-212950000D01*
G36*
X128400000Y-212950000D02*
G01*
X127900000Y-213450000D01*
X127900000Y-212550000D01*
X128400000Y-212550000D01*
X128400000Y-212950000D01*
G37*
X132100000Y-217150000D02*
X131600000Y-217150000D01*
X131600000Y-216750000D01*
X132100000Y-216250000D01*
X132100000Y-217150000D01*
G36*
X132100000Y-217150000D02*
G01*
X131600000Y-217150000D01*
X131600000Y-216750000D01*
X132100000Y-216250000D01*
X132100000Y-217150000D01*
G37*
X128400000Y-216750000D02*
X128400000Y-217150000D01*
X127900000Y-217150000D01*
X127900000Y-216250000D01*
X128400000Y-216750000D01*
G36*
X128400000Y-216750000D02*
G01*
X128400000Y-217150000D01*
X127900000Y-217150000D01*
X127900000Y-216250000D01*
X128400000Y-216750000D01*
G37*
%TO.C,*%
D12*
X117370000Y-100209993D02*
X117420000Y-100229993D01*
X117450000Y-100249993D01*
X117460000Y-100289993D01*
X117460000Y-100329993D01*
X117440000Y-100359993D01*
X117400000Y-100379993D01*
X117350000Y-100389993D01*
X117280000Y-100399993D01*
X117200000Y-100399993D01*
X117140000Y-100379993D01*
X117100000Y-100359993D01*
X117080000Y-100339993D01*
X117070000Y-100299993D01*
X117070000Y-100279993D01*
X117080000Y-100249993D01*
X117120000Y-100219993D01*
X117170000Y-100209993D01*
X117230000Y-100199993D01*
X117310000Y-100199993D01*
X117370000Y-100209993D01*
G36*
X117370000Y-100209993D02*
G01*
X117420000Y-100229993D01*
X117450000Y-100249993D01*
X117460000Y-100289993D01*
X117460000Y-100329993D01*
X117440000Y-100359993D01*
X117400000Y-100379993D01*
X117350000Y-100389993D01*
X117280000Y-100399993D01*
X117200000Y-100399993D01*
X117140000Y-100379993D01*
X117100000Y-100359993D01*
X117080000Y-100339993D01*
X117070000Y-100299993D01*
X117070000Y-100279993D01*
X117080000Y-100249993D01*
X117120000Y-100219993D01*
X117170000Y-100209993D01*
X117230000Y-100199993D01*
X117310000Y-100199993D01*
X117370000Y-100209993D01*
G37*
X117760000Y-99769993D02*
X117760000Y-99969993D01*
X117760000Y-99999993D01*
X117760000Y-100909993D01*
X117740000Y-100949993D01*
X116780000Y-100949993D01*
X116740000Y-100939993D01*
X116740000Y-100299993D01*
X116890000Y-100299993D01*
X116900000Y-100349993D01*
X116910000Y-100399993D01*
X116940000Y-100439993D01*
X116970000Y-100479993D01*
X117010000Y-100509993D01*
X117050000Y-100529993D01*
X117090000Y-100549993D01*
X117140000Y-100559993D01*
X117190000Y-100569993D01*
X117250000Y-100569993D01*
X117300000Y-100569993D01*
X117360000Y-100559993D01*
X117400000Y-100549993D01*
X117450000Y-100539993D01*
X117500000Y-100519993D01*
X117540000Y-100489993D01*
X117580000Y-100459993D01*
X117610000Y-100419993D01*
X117630000Y-100369993D01*
X117640000Y-100319993D01*
X117630000Y-100269993D01*
X117620000Y-100219993D01*
X117600000Y-100169993D01*
X117580000Y-100129993D01*
X117540000Y-100099993D01*
X117500000Y-100079993D01*
X117450000Y-100059993D01*
X117400000Y-100039993D01*
X117360000Y-100029993D01*
X117300000Y-100029993D01*
X117250000Y-100029993D01*
X117190000Y-100029993D01*
X117140000Y-100039993D01*
X117100000Y-100049993D01*
X117050000Y-100059993D01*
X117000000Y-100089993D01*
X116970000Y-100109993D01*
X116940000Y-100149993D01*
X116910000Y-100199993D01*
X116900000Y-100249993D01*
X116890000Y-100299993D01*
X116740000Y-100299993D01*
X116740000Y-99769993D01*
X116770000Y-99749993D01*
X117730000Y-99749993D01*
X117760000Y-99769993D01*
G36*
X117760000Y-99769993D02*
G01*
X117760000Y-99969993D01*
X117760000Y-99999993D01*
X117760000Y-100909993D01*
X117740000Y-100949993D01*
X116780000Y-100949993D01*
X116740000Y-100939993D01*
X116740000Y-100299993D01*
X116890000Y-100299993D01*
X116900000Y-100349993D01*
X116910000Y-100399993D01*
X116940000Y-100439993D01*
X116970000Y-100479993D01*
X117010000Y-100509993D01*
X117050000Y-100529993D01*
X117090000Y-100549993D01*
X117140000Y-100559993D01*
X117190000Y-100569993D01*
X117250000Y-100569993D01*
X117300000Y-100569993D01*
X117360000Y-100559993D01*
X117400000Y-100549993D01*
X117450000Y-100539993D01*
X117500000Y-100519993D01*
X117540000Y-100489993D01*
X117580000Y-100459993D01*
X117610000Y-100419993D01*
X117630000Y-100369993D01*
X117640000Y-100319993D01*
X117630000Y-100269993D01*
X117620000Y-100219993D01*
X117600000Y-100169993D01*
X117580000Y-100129993D01*
X117540000Y-100099993D01*
X117500000Y-100079993D01*
X117450000Y-100059993D01*
X117400000Y-100039993D01*
X117360000Y-100029993D01*
X117300000Y-100029993D01*
X117250000Y-100029993D01*
X117190000Y-100029993D01*
X117140000Y-100039993D01*
X117100000Y-100049993D01*
X117050000Y-100059993D01*
X117000000Y-100089993D01*
X116970000Y-100109993D01*
X116940000Y-100149993D01*
X116910000Y-100199993D01*
X116900000Y-100249993D01*
X116890000Y-100299993D01*
X116740000Y-100299993D01*
X116740000Y-99769993D01*
X116770000Y-99749993D01*
X117730000Y-99749993D01*
X117760000Y-99769993D01*
G37*
D11*
%TO.C,S4*%
X94900000Y-142250000D02*
X96600000Y-143950000D01*
X93100000Y-142250000D02*
X94900000Y-142250000D01*
X96600000Y-143950000D02*
X96600000Y-145750000D01*
X91400000Y-143950000D02*
X93100000Y-142250000D01*
X96600000Y-145750000D02*
X94900000Y-147450000D01*
X91400000Y-145750000D02*
X91400000Y-143950000D01*
X94900000Y-147450000D02*
X93100000Y-147450000D01*
X93100000Y-147450000D02*
X91400000Y-145750000D01*
X95000000Y-144850000D02*
G75*
G03*
X95000000Y-144850000I-1000000J0D01*
G01*
X96100000Y-143450000D02*
X95600000Y-142950000D01*
X95600000Y-142550000D01*
X96100000Y-142550000D01*
X96100000Y-143450000D01*
G36*
X96100000Y-143450000D02*
G01*
X95600000Y-142950000D01*
X95600000Y-142550000D01*
X96100000Y-142550000D01*
X96100000Y-143450000D01*
G37*
X92400000Y-142950000D02*
X91900000Y-143450000D01*
X91900000Y-142550000D01*
X92400000Y-142550000D01*
X92400000Y-142950000D01*
G36*
X92400000Y-142950000D02*
G01*
X91900000Y-143450000D01*
X91900000Y-142550000D01*
X92400000Y-142550000D01*
X92400000Y-142950000D01*
G37*
X96100000Y-147150000D02*
X95600000Y-147150000D01*
X95600000Y-146750000D01*
X96100000Y-146250000D01*
X96100000Y-147150000D01*
G36*
X96100000Y-147150000D02*
G01*
X95600000Y-147150000D01*
X95600000Y-146750000D01*
X96100000Y-146250000D01*
X96100000Y-147150000D01*
G37*
X92400000Y-146750000D02*
X92400000Y-147150000D01*
X91900000Y-147150000D01*
X91900000Y-146250000D01*
X92400000Y-146750000D01*
G36*
X92400000Y-146750000D02*
G01*
X92400000Y-147150000D01*
X91900000Y-147150000D01*
X91900000Y-146250000D01*
X92400000Y-146750000D01*
G37*
%TO.C,S38*%
X82900000Y-212250000D02*
X84600000Y-213950000D01*
X81100000Y-212250000D02*
X82900000Y-212250000D01*
X84600000Y-213950000D02*
X84600000Y-215750000D01*
X79400000Y-213950000D02*
X81100000Y-212250000D01*
X84600000Y-215750000D02*
X82900000Y-217450000D01*
X79400000Y-215750000D02*
X79400000Y-213950000D01*
X82900000Y-217450000D02*
X81100000Y-217450000D01*
X81100000Y-217450000D02*
X79400000Y-215750000D01*
X83000000Y-214850000D02*
G75*
G03*
X83000000Y-214850000I-1000000J0D01*
G01*
X84100000Y-213450000D02*
X83600000Y-212950000D01*
X83600000Y-212550000D01*
X84100000Y-212550000D01*
X84100000Y-213450000D01*
G36*
X84100000Y-213450000D02*
G01*
X83600000Y-212950000D01*
X83600000Y-212550000D01*
X84100000Y-212550000D01*
X84100000Y-213450000D01*
G37*
X80400000Y-212950000D02*
X79900000Y-213450000D01*
X79900000Y-212550000D01*
X80400000Y-212550000D01*
X80400000Y-212950000D01*
G36*
X80400000Y-212950000D02*
G01*
X79900000Y-213450000D01*
X79900000Y-212550000D01*
X80400000Y-212550000D01*
X80400000Y-212950000D01*
G37*
X84100000Y-217150000D02*
X83600000Y-217150000D01*
X83600000Y-216750000D01*
X84100000Y-216250000D01*
X84100000Y-217150000D01*
G36*
X84100000Y-217150000D02*
G01*
X83600000Y-217150000D01*
X83600000Y-216750000D01*
X84100000Y-216250000D01*
X84100000Y-217150000D01*
G37*
X80400000Y-216750000D02*
X80400000Y-217150000D01*
X79900000Y-217150000D01*
X79900000Y-216250000D01*
X80400000Y-216750000D01*
G36*
X80400000Y-216750000D02*
G01*
X80400000Y-217150000D01*
X79900000Y-217150000D01*
X79900000Y-216250000D01*
X80400000Y-216750000D01*
G37*
%TO.C,S32*%
X130900000Y-192250000D02*
X132600000Y-193950000D01*
X129100000Y-192250000D02*
X130900000Y-192250000D01*
X132600000Y-193950000D02*
X132600000Y-195750000D01*
X127400000Y-193950000D02*
X129100000Y-192250000D01*
X132600000Y-195750000D02*
X130900000Y-197450000D01*
X127400000Y-195750000D02*
X127400000Y-193950000D01*
X130900000Y-197450000D02*
X129100000Y-197450000D01*
X129100000Y-197450000D02*
X127400000Y-195750000D01*
X131000000Y-194850000D02*
G75*
G03*
X131000000Y-194850000I-1000000J0D01*
G01*
X132100000Y-193450000D02*
X131600000Y-192950000D01*
X131600000Y-192550000D01*
X132100000Y-192550000D01*
X132100000Y-193450000D01*
G36*
X132100000Y-193450000D02*
G01*
X131600000Y-192950000D01*
X131600000Y-192550000D01*
X132100000Y-192550000D01*
X132100000Y-193450000D01*
G37*
X128400000Y-192950000D02*
X127900000Y-193450000D01*
X127900000Y-192550000D01*
X128400000Y-192550000D01*
X128400000Y-192950000D01*
G36*
X128400000Y-192950000D02*
G01*
X127900000Y-193450000D01*
X127900000Y-192550000D01*
X128400000Y-192550000D01*
X128400000Y-192950000D01*
G37*
X132100000Y-197150000D02*
X131600000Y-197150000D01*
X131600000Y-196750000D01*
X132100000Y-196250000D01*
X132100000Y-197150000D01*
G36*
X132100000Y-197150000D02*
G01*
X131600000Y-197150000D01*
X131600000Y-196750000D01*
X132100000Y-196250000D01*
X132100000Y-197150000D01*
G37*
X128400000Y-196750000D02*
X128400000Y-197150000D01*
X127900000Y-197150000D01*
X127900000Y-196250000D01*
X128400000Y-196750000D01*
G36*
X128400000Y-196750000D02*
G01*
X128400000Y-197150000D01*
X127900000Y-197150000D01*
X127900000Y-196250000D01*
X128400000Y-196750000D01*
G37*
%TO.C,S3*%
X82900000Y-142250000D02*
X84600000Y-143950000D01*
X81100000Y-142250000D02*
X82900000Y-142250000D01*
X84600000Y-143950000D02*
X84600000Y-145750000D01*
X79400000Y-143950000D02*
X81100000Y-142250000D01*
X84600000Y-145750000D02*
X82900000Y-147450000D01*
X79400000Y-145750000D02*
X79400000Y-143950000D01*
X82900000Y-147450000D02*
X81100000Y-147450000D01*
X81100000Y-147450000D02*
X79400000Y-145750000D01*
X83000000Y-144850000D02*
G75*
G03*
X83000000Y-144850000I-1000000J0D01*
G01*
X84100000Y-143450000D02*
X83600000Y-142950000D01*
X83600000Y-142550000D01*
X84100000Y-142550000D01*
X84100000Y-143450000D01*
G36*
X84100000Y-143450000D02*
G01*
X83600000Y-142950000D01*
X83600000Y-142550000D01*
X84100000Y-142550000D01*
X84100000Y-143450000D01*
G37*
X80400000Y-142950000D02*
X79900000Y-143450000D01*
X79900000Y-142550000D01*
X80400000Y-142550000D01*
X80400000Y-142950000D01*
G36*
X80400000Y-142950000D02*
G01*
X79900000Y-143450000D01*
X79900000Y-142550000D01*
X80400000Y-142550000D01*
X80400000Y-142950000D01*
G37*
X84100000Y-147150000D02*
X83600000Y-147150000D01*
X83600000Y-146750000D01*
X84100000Y-146250000D01*
X84100000Y-147150000D01*
G36*
X84100000Y-147150000D02*
G01*
X83600000Y-147150000D01*
X83600000Y-146750000D01*
X84100000Y-146250000D01*
X84100000Y-147150000D01*
G37*
X80400000Y-146750000D02*
X80400000Y-147150000D01*
X79900000Y-147150000D01*
X79900000Y-146250000D01*
X80400000Y-146750000D01*
G36*
X80400000Y-146750000D02*
G01*
X80400000Y-147150000D01*
X79900000Y-147150000D01*
X79900000Y-146250000D01*
X80400000Y-146750000D01*
G37*
%TO.C,S25*%
X106900000Y-182250000D02*
X108600000Y-183950000D01*
X105100000Y-182250000D02*
X106900000Y-182250000D01*
X108600000Y-183950000D02*
X108600000Y-185750000D01*
X103400000Y-183950000D02*
X105100000Y-182250000D01*
X108600000Y-185750000D02*
X106900000Y-187450000D01*
X103400000Y-185750000D02*
X103400000Y-183950000D01*
X106900000Y-187450000D02*
X105100000Y-187450000D01*
X105100000Y-187450000D02*
X103400000Y-185750000D01*
X107000000Y-184850000D02*
G75*
G03*
X107000000Y-184850000I-1000000J0D01*
G01*
X108100000Y-183450000D02*
X107600000Y-182950000D01*
X107600000Y-182550000D01*
X108100000Y-182550000D01*
X108100000Y-183450000D01*
G36*
X108100000Y-183450000D02*
G01*
X107600000Y-182950000D01*
X107600000Y-182550000D01*
X108100000Y-182550000D01*
X108100000Y-183450000D01*
G37*
X104400000Y-182950000D02*
X103900000Y-183450000D01*
X103900000Y-182550000D01*
X104400000Y-182550000D01*
X104400000Y-182950000D01*
G36*
X104400000Y-182950000D02*
G01*
X103900000Y-183450000D01*
X103900000Y-182550000D01*
X104400000Y-182550000D01*
X104400000Y-182950000D01*
G37*
X108100000Y-187150000D02*
X107600000Y-187150000D01*
X107600000Y-186750000D01*
X108100000Y-186250000D01*
X108100000Y-187150000D01*
G36*
X108100000Y-187150000D02*
G01*
X107600000Y-187150000D01*
X107600000Y-186750000D01*
X108100000Y-186250000D01*
X108100000Y-187150000D01*
G37*
X104400000Y-186750000D02*
X104400000Y-187150000D01*
X103900000Y-187150000D01*
X103900000Y-186250000D01*
X104400000Y-186750000D01*
G36*
X104400000Y-186750000D02*
G01*
X104400000Y-187150000D01*
X103900000Y-187150000D01*
X103900000Y-186250000D01*
X104400000Y-186750000D01*
G37*
%TO.C,S1*%
X118900000Y-132250000D02*
X120600000Y-133950000D01*
X117100000Y-132250000D02*
X118900000Y-132250000D01*
X120600000Y-133950000D02*
X120600000Y-135750000D01*
X115400000Y-133950000D02*
X117100000Y-132250000D01*
X120600000Y-135750000D02*
X118900000Y-137450000D01*
X115400000Y-135750000D02*
X115400000Y-133950000D01*
X118900000Y-137450000D02*
X117100000Y-137450000D01*
X117100000Y-137450000D02*
X115400000Y-135750000D01*
X119000000Y-134850000D02*
G75*
G03*
X119000000Y-134850000I-1000000J0D01*
G01*
X120100000Y-133450000D02*
X119600000Y-132950000D01*
X119600000Y-132550000D01*
X120100000Y-132550000D01*
X120100000Y-133450000D01*
G36*
X120100000Y-133450000D02*
G01*
X119600000Y-132950000D01*
X119600000Y-132550000D01*
X120100000Y-132550000D01*
X120100000Y-133450000D01*
G37*
X116400000Y-132950000D02*
X115900000Y-133450000D01*
X115900000Y-132550000D01*
X116400000Y-132550000D01*
X116400000Y-132950000D01*
G36*
X116400000Y-132950000D02*
G01*
X115900000Y-133450000D01*
X115900000Y-132550000D01*
X116400000Y-132550000D01*
X116400000Y-132950000D01*
G37*
X120100000Y-137150000D02*
X119600000Y-137150000D01*
X119600000Y-136750000D01*
X120100000Y-136250000D01*
X120100000Y-137150000D01*
G36*
X120100000Y-137150000D02*
G01*
X119600000Y-137150000D01*
X119600000Y-136750000D01*
X120100000Y-136250000D01*
X120100000Y-137150000D01*
G37*
X116400000Y-136750000D02*
X116400000Y-137150000D01*
X115900000Y-137150000D01*
X115900000Y-136250000D01*
X116400000Y-136750000D01*
G36*
X116400000Y-136750000D02*
G01*
X116400000Y-137150000D01*
X115900000Y-137150000D01*
X115900000Y-136250000D01*
X116400000Y-136750000D01*
G37*
%TO.C,S23*%
X82900000Y-182250000D02*
X84600000Y-183950000D01*
X81100000Y-182250000D02*
X82900000Y-182250000D01*
X84600000Y-183950000D02*
X84600000Y-185750000D01*
X79400000Y-183950000D02*
X81100000Y-182250000D01*
X84600000Y-185750000D02*
X82900000Y-187450000D01*
X79400000Y-185750000D02*
X79400000Y-183950000D01*
X82900000Y-187450000D02*
X81100000Y-187450000D01*
X81100000Y-187450000D02*
X79400000Y-185750000D01*
X83000000Y-184850000D02*
G75*
G03*
X83000000Y-184850000I-1000000J0D01*
G01*
X84100000Y-183450000D02*
X83600000Y-182950000D01*
X83600000Y-182550000D01*
X84100000Y-182550000D01*
X84100000Y-183450000D01*
G36*
X84100000Y-183450000D02*
G01*
X83600000Y-182950000D01*
X83600000Y-182550000D01*
X84100000Y-182550000D01*
X84100000Y-183450000D01*
G37*
X80400000Y-182950000D02*
X79900000Y-183450000D01*
X79900000Y-182550000D01*
X80400000Y-182550000D01*
X80400000Y-182950000D01*
G36*
X80400000Y-182950000D02*
G01*
X79900000Y-183450000D01*
X79900000Y-182550000D01*
X80400000Y-182550000D01*
X80400000Y-182950000D01*
G37*
X84100000Y-187150000D02*
X83600000Y-187150000D01*
X83600000Y-186750000D01*
X84100000Y-186250000D01*
X84100000Y-187150000D01*
G36*
X84100000Y-187150000D02*
G01*
X83600000Y-187150000D01*
X83600000Y-186750000D01*
X84100000Y-186250000D01*
X84100000Y-187150000D01*
G37*
X80400000Y-186750000D02*
X80400000Y-187150000D01*
X79900000Y-187150000D01*
X79900000Y-186250000D01*
X80400000Y-186750000D01*
G36*
X80400000Y-186750000D02*
G01*
X80400000Y-187150000D01*
X79900000Y-187150000D01*
X79900000Y-186250000D01*
X80400000Y-186750000D01*
G37*
%TO.C,J3*%
X87995000Y-129305000D02*
X87995000Y-127975000D01*
X89325000Y-129305000D02*
X87995000Y-129305000D01*
X90595000Y-129305000D02*
X123675000Y-129305000D01*
X90595000Y-129305000D02*
X90595000Y-126645000D01*
X123675000Y-129305000D02*
X123675000Y-126645000D01*
X90595000Y-126645000D02*
X123675000Y-126645000D01*
%TO.C,S28*%
X82900000Y-192250000D02*
X84600000Y-193950000D01*
X81100000Y-192250000D02*
X82900000Y-192250000D01*
X84600000Y-193950000D02*
X84600000Y-195750000D01*
X79400000Y-193950000D02*
X81100000Y-192250000D01*
X84600000Y-195750000D02*
X82900000Y-197450000D01*
X79400000Y-195750000D02*
X79400000Y-193950000D01*
X82900000Y-197450000D02*
X81100000Y-197450000D01*
X81100000Y-197450000D02*
X79400000Y-195750000D01*
X83000000Y-194850000D02*
G75*
G03*
X83000000Y-194850000I-1000000J0D01*
G01*
X84100000Y-193450000D02*
X83600000Y-192950000D01*
X83600000Y-192550000D01*
X84100000Y-192550000D01*
X84100000Y-193450000D01*
G36*
X84100000Y-193450000D02*
G01*
X83600000Y-192950000D01*
X83600000Y-192550000D01*
X84100000Y-192550000D01*
X84100000Y-193450000D01*
G37*
X80400000Y-192950000D02*
X79900000Y-193450000D01*
X79900000Y-192550000D01*
X80400000Y-192550000D01*
X80400000Y-192950000D01*
G36*
X80400000Y-192950000D02*
G01*
X79900000Y-193450000D01*
X79900000Y-192550000D01*
X80400000Y-192550000D01*
X80400000Y-192950000D01*
G37*
X84100000Y-197150000D02*
X83600000Y-197150000D01*
X83600000Y-196750000D01*
X84100000Y-196250000D01*
X84100000Y-197150000D01*
G36*
X84100000Y-197150000D02*
G01*
X83600000Y-197150000D01*
X83600000Y-196750000D01*
X84100000Y-196250000D01*
X84100000Y-197150000D01*
G37*
X80400000Y-196750000D02*
X80400000Y-197150000D01*
X79900000Y-197150000D01*
X79900000Y-196250000D01*
X80400000Y-196750000D01*
G36*
X80400000Y-196750000D02*
G01*
X80400000Y-197150000D01*
X79900000Y-197150000D01*
X79900000Y-196250000D01*
X80400000Y-196750000D01*
G37*
%TO.C,S20*%
X106900000Y-172250000D02*
X108600000Y-173950000D01*
X105100000Y-172250000D02*
X106900000Y-172250000D01*
X108600000Y-173950000D02*
X108600000Y-175750000D01*
X103400000Y-173950000D02*
X105100000Y-172250000D01*
X108600000Y-175750000D02*
X106900000Y-177450000D01*
X103400000Y-175750000D02*
X103400000Y-173950000D01*
X106900000Y-177450000D02*
X105100000Y-177450000D01*
X105100000Y-177450000D02*
X103400000Y-175750000D01*
X107000000Y-174850000D02*
G75*
G03*
X107000000Y-174850000I-1000000J0D01*
G01*
X108100000Y-173450000D02*
X107600000Y-172950000D01*
X107600000Y-172550000D01*
X108100000Y-172550000D01*
X108100000Y-173450000D01*
G36*
X108100000Y-173450000D02*
G01*
X107600000Y-172950000D01*
X107600000Y-172550000D01*
X108100000Y-172550000D01*
X108100000Y-173450000D01*
G37*
X104400000Y-172950000D02*
X103900000Y-173450000D01*
X103900000Y-172550000D01*
X104400000Y-172550000D01*
X104400000Y-172950000D01*
G36*
X104400000Y-172950000D02*
G01*
X103900000Y-173450000D01*
X103900000Y-172550000D01*
X104400000Y-172550000D01*
X104400000Y-172950000D01*
G37*
X108100000Y-177150000D02*
X107600000Y-177150000D01*
X107600000Y-176750000D01*
X108100000Y-176250000D01*
X108100000Y-177150000D01*
G36*
X108100000Y-177150000D02*
G01*
X107600000Y-177150000D01*
X107600000Y-176750000D01*
X108100000Y-176250000D01*
X108100000Y-177150000D01*
G37*
X104400000Y-176750000D02*
X104400000Y-177150000D01*
X103900000Y-177150000D01*
X103900000Y-176250000D01*
X104400000Y-176750000D01*
G36*
X104400000Y-176750000D02*
G01*
X104400000Y-177150000D01*
X103900000Y-177150000D01*
X103900000Y-176250000D01*
X104400000Y-176750000D01*
G37*
%TO.C,S30*%
X106900000Y-192250000D02*
X108600000Y-193950000D01*
X105100000Y-192250000D02*
X106900000Y-192250000D01*
X108600000Y-193950000D02*
X108600000Y-195750000D01*
X103400000Y-193950000D02*
X105100000Y-192250000D01*
X108600000Y-195750000D02*
X106900000Y-197450000D01*
X103400000Y-195750000D02*
X103400000Y-193950000D01*
X106900000Y-197450000D02*
X105100000Y-197450000D01*
X105100000Y-197450000D02*
X103400000Y-195750000D01*
X107000000Y-194850000D02*
G75*
G03*
X107000000Y-194850000I-1000000J0D01*
G01*
X108100000Y-193450000D02*
X107600000Y-192950000D01*
X107600000Y-192550000D01*
X108100000Y-192550000D01*
X108100000Y-193450000D01*
G36*
X108100000Y-193450000D02*
G01*
X107600000Y-192950000D01*
X107600000Y-192550000D01*
X108100000Y-192550000D01*
X108100000Y-193450000D01*
G37*
X104400000Y-192950000D02*
X103900000Y-193450000D01*
X103900000Y-192550000D01*
X104400000Y-192550000D01*
X104400000Y-192950000D01*
G36*
X104400000Y-192950000D02*
G01*
X103900000Y-193450000D01*
X103900000Y-192550000D01*
X104400000Y-192550000D01*
X104400000Y-192950000D01*
G37*
X108100000Y-197150000D02*
X107600000Y-197150000D01*
X107600000Y-196750000D01*
X108100000Y-196250000D01*
X108100000Y-197150000D01*
G36*
X108100000Y-197150000D02*
G01*
X107600000Y-197150000D01*
X107600000Y-196750000D01*
X108100000Y-196250000D01*
X108100000Y-197150000D01*
G37*
X104400000Y-196750000D02*
X104400000Y-197150000D01*
X103900000Y-197150000D01*
X103900000Y-196250000D01*
X104400000Y-196750000D01*
G36*
X104400000Y-196750000D02*
G01*
X104400000Y-197150000D01*
X103900000Y-197150000D01*
X103900000Y-196250000D01*
X104400000Y-196750000D01*
G37*
%TO.C,S11*%
X118900000Y-152250000D02*
X120600000Y-153950000D01*
X117100000Y-152250000D02*
X118900000Y-152250000D01*
X120600000Y-153950000D02*
X120600000Y-155750000D01*
X115400000Y-153950000D02*
X117100000Y-152250000D01*
X120600000Y-155750000D02*
X118900000Y-157450000D01*
X115400000Y-155750000D02*
X115400000Y-153950000D01*
X118900000Y-157450000D02*
X117100000Y-157450000D01*
X117100000Y-157450000D02*
X115400000Y-155750000D01*
X119000000Y-154850000D02*
G75*
G03*
X119000000Y-154850000I-1000000J0D01*
G01*
X120100000Y-153450000D02*
X119600000Y-152950000D01*
X119600000Y-152550000D01*
X120100000Y-152550000D01*
X120100000Y-153450000D01*
G36*
X120100000Y-153450000D02*
G01*
X119600000Y-152950000D01*
X119600000Y-152550000D01*
X120100000Y-152550000D01*
X120100000Y-153450000D01*
G37*
X116400000Y-152950000D02*
X115900000Y-153450000D01*
X115900000Y-152550000D01*
X116400000Y-152550000D01*
X116400000Y-152950000D01*
G36*
X116400000Y-152950000D02*
G01*
X115900000Y-153450000D01*
X115900000Y-152550000D01*
X116400000Y-152550000D01*
X116400000Y-152950000D01*
G37*
X120100000Y-157150000D02*
X119600000Y-157150000D01*
X119600000Y-156750000D01*
X120100000Y-156250000D01*
X120100000Y-157150000D01*
G36*
X120100000Y-157150000D02*
G01*
X119600000Y-157150000D01*
X119600000Y-156750000D01*
X120100000Y-156250000D01*
X120100000Y-157150000D01*
G37*
X116400000Y-156750000D02*
X116400000Y-157150000D01*
X115900000Y-157150000D01*
X115900000Y-156250000D01*
X116400000Y-156750000D01*
G36*
X116400000Y-156750000D02*
G01*
X116400000Y-157150000D01*
X115900000Y-157150000D01*
X115900000Y-156250000D01*
X116400000Y-156750000D01*
G37*
%TO.C,S2*%
X130900000Y-132250000D02*
X132600000Y-133950000D01*
X129100000Y-132250000D02*
X130900000Y-132250000D01*
X132600000Y-133950000D02*
X132600000Y-135750000D01*
X127400000Y-133950000D02*
X129100000Y-132250000D01*
X132600000Y-135750000D02*
X130900000Y-137450000D01*
X127400000Y-135750000D02*
X127400000Y-133950000D01*
X130900000Y-137450000D02*
X129100000Y-137450000D01*
X129100000Y-137450000D02*
X127400000Y-135750000D01*
X131000000Y-134850000D02*
G75*
G03*
X131000000Y-134850000I-1000000J0D01*
G01*
X132100000Y-133450000D02*
X131600000Y-132950000D01*
X131600000Y-132550000D01*
X132100000Y-132550000D01*
X132100000Y-133450000D01*
G36*
X132100000Y-133450000D02*
G01*
X131600000Y-132950000D01*
X131600000Y-132550000D01*
X132100000Y-132550000D01*
X132100000Y-133450000D01*
G37*
X128400000Y-132950000D02*
X127900000Y-133450000D01*
X127900000Y-132550000D01*
X128400000Y-132550000D01*
X128400000Y-132950000D01*
G36*
X128400000Y-132950000D02*
G01*
X127900000Y-133450000D01*
X127900000Y-132550000D01*
X128400000Y-132550000D01*
X128400000Y-132950000D01*
G37*
X132100000Y-137150000D02*
X131600000Y-137150000D01*
X131600000Y-136750000D01*
X132100000Y-136250000D01*
X132100000Y-137150000D01*
G36*
X132100000Y-137150000D02*
G01*
X131600000Y-137150000D01*
X131600000Y-136750000D01*
X132100000Y-136250000D01*
X132100000Y-137150000D01*
G37*
X128400000Y-136750000D02*
X128400000Y-137150000D01*
X127900000Y-137150000D01*
X127900000Y-136250000D01*
X128400000Y-136750000D01*
G36*
X128400000Y-136750000D02*
G01*
X128400000Y-137150000D01*
X127900000Y-137150000D01*
X127900000Y-136250000D01*
X128400000Y-136750000D01*
G37*
%TO.C,S10*%
X106900000Y-152250000D02*
X108600000Y-153950000D01*
X105100000Y-152250000D02*
X106900000Y-152250000D01*
X108600000Y-153950000D02*
X108600000Y-155750000D01*
X103400000Y-153950000D02*
X105100000Y-152250000D01*
X108600000Y-155750000D02*
X106900000Y-157450000D01*
X103400000Y-155750000D02*
X103400000Y-153950000D01*
X106900000Y-157450000D02*
X105100000Y-157450000D01*
X105100000Y-157450000D02*
X103400000Y-155750000D01*
X107000000Y-154850000D02*
G75*
G03*
X107000000Y-154850000I-1000000J0D01*
G01*
X108100000Y-153450000D02*
X107600000Y-152950000D01*
X107600000Y-152550000D01*
X108100000Y-152550000D01*
X108100000Y-153450000D01*
G36*
X108100000Y-153450000D02*
G01*
X107600000Y-152950000D01*
X107600000Y-152550000D01*
X108100000Y-152550000D01*
X108100000Y-153450000D01*
G37*
X104400000Y-152950000D02*
X103900000Y-153450000D01*
X103900000Y-152550000D01*
X104400000Y-152550000D01*
X104400000Y-152950000D01*
G36*
X104400000Y-152950000D02*
G01*
X103900000Y-153450000D01*
X103900000Y-152550000D01*
X104400000Y-152550000D01*
X104400000Y-152950000D01*
G37*
X108100000Y-157150000D02*
X107600000Y-157150000D01*
X107600000Y-156750000D01*
X108100000Y-156250000D01*
X108100000Y-157150000D01*
G36*
X108100000Y-157150000D02*
G01*
X107600000Y-157150000D01*
X107600000Y-156750000D01*
X108100000Y-156250000D01*
X108100000Y-157150000D01*
G37*
X104400000Y-156750000D02*
X104400000Y-157150000D01*
X103900000Y-157150000D01*
X103900000Y-156250000D01*
X104400000Y-156750000D01*
G36*
X104400000Y-156750000D02*
G01*
X104400000Y-157150000D01*
X103900000Y-157150000D01*
X103900000Y-156250000D01*
X104400000Y-156750000D01*
G37*
%TO.C,S7*%
X130900000Y-142250000D02*
X132600000Y-143950000D01*
X129100000Y-142250000D02*
X130900000Y-142250000D01*
X132600000Y-143950000D02*
X132600000Y-145750000D01*
X127400000Y-143950000D02*
X129100000Y-142250000D01*
X132600000Y-145750000D02*
X130900000Y-147450000D01*
X127400000Y-145750000D02*
X127400000Y-143950000D01*
X130900000Y-147450000D02*
X129100000Y-147450000D01*
X129100000Y-147450000D02*
X127400000Y-145750000D01*
X131000000Y-144850000D02*
G75*
G03*
X131000000Y-144850000I-1000000J0D01*
G01*
X132100000Y-143450000D02*
X131600000Y-142950000D01*
X131600000Y-142550000D01*
X132100000Y-142550000D01*
X132100000Y-143450000D01*
G36*
X132100000Y-143450000D02*
G01*
X131600000Y-142950000D01*
X131600000Y-142550000D01*
X132100000Y-142550000D01*
X132100000Y-143450000D01*
G37*
X128400000Y-142950000D02*
X127900000Y-143450000D01*
X127900000Y-142550000D01*
X128400000Y-142550000D01*
X128400000Y-142950000D01*
G36*
X128400000Y-142950000D02*
G01*
X127900000Y-143450000D01*
X127900000Y-142550000D01*
X128400000Y-142550000D01*
X128400000Y-142950000D01*
G37*
X132100000Y-147150000D02*
X131600000Y-147150000D01*
X131600000Y-146750000D01*
X132100000Y-146250000D01*
X132100000Y-147150000D01*
G36*
X132100000Y-147150000D02*
G01*
X131600000Y-147150000D01*
X131600000Y-146750000D01*
X132100000Y-146250000D01*
X132100000Y-147150000D01*
G37*
X128400000Y-146750000D02*
X128400000Y-147150000D01*
X127900000Y-147150000D01*
X127900000Y-146250000D01*
X128400000Y-146750000D01*
G36*
X128400000Y-146750000D02*
G01*
X128400000Y-147150000D01*
X127900000Y-147150000D01*
X127900000Y-146250000D01*
X128400000Y-146750000D01*
G37*
%TO.C,S40*%
X106900000Y-212250000D02*
X108600000Y-213950000D01*
X105100000Y-212250000D02*
X106900000Y-212250000D01*
X108600000Y-213950000D02*
X108600000Y-215750000D01*
X103400000Y-213950000D02*
X105100000Y-212250000D01*
X108600000Y-215750000D02*
X106900000Y-217450000D01*
X103400000Y-215750000D02*
X103400000Y-213950000D01*
X106900000Y-217450000D02*
X105100000Y-217450000D01*
X105100000Y-217450000D02*
X103400000Y-215750000D01*
X107000000Y-214850000D02*
G75*
G03*
X107000000Y-214850000I-1000000J0D01*
G01*
X108100000Y-213450000D02*
X107600000Y-212950000D01*
X107600000Y-212550000D01*
X108100000Y-212550000D01*
X108100000Y-213450000D01*
G36*
X108100000Y-213450000D02*
G01*
X107600000Y-212950000D01*
X107600000Y-212550000D01*
X108100000Y-212550000D01*
X108100000Y-213450000D01*
G37*
X104400000Y-212950000D02*
X103900000Y-213450000D01*
X103900000Y-212550000D01*
X104400000Y-212550000D01*
X104400000Y-212950000D01*
G36*
X104400000Y-212950000D02*
G01*
X103900000Y-213450000D01*
X103900000Y-212550000D01*
X104400000Y-212550000D01*
X104400000Y-212950000D01*
G37*
X108100000Y-217150000D02*
X107600000Y-217150000D01*
X107600000Y-216750000D01*
X108100000Y-216250000D01*
X108100000Y-217150000D01*
G36*
X108100000Y-217150000D02*
G01*
X107600000Y-217150000D01*
X107600000Y-216750000D01*
X108100000Y-216250000D01*
X108100000Y-217150000D01*
G37*
X104400000Y-216750000D02*
X104400000Y-217150000D01*
X103900000Y-217150000D01*
X103900000Y-216250000D01*
X104400000Y-216750000D01*
G36*
X104400000Y-216750000D02*
G01*
X104400000Y-217150000D01*
X103900000Y-217150000D01*
X103900000Y-216250000D01*
X104400000Y-216750000D01*
G37*
%TO.C,S35*%
X106900000Y-202250000D02*
X108600000Y-203950000D01*
X105100000Y-202250000D02*
X106900000Y-202250000D01*
X108600000Y-203950000D02*
X108600000Y-205750000D01*
X103400000Y-203950000D02*
X105100000Y-202250000D01*
X108600000Y-205750000D02*
X106900000Y-207450000D01*
X103400000Y-205750000D02*
X103400000Y-203950000D01*
X106900000Y-207450000D02*
X105100000Y-207450000D01*
X105100000Y-207450000D02*
X103400000Y-205750000D01*
X107000000Y-204850000D02*
G75*
G03*
X107000000Y-204850000I-1000000J0D01*
G01*
X108100000Y-203450000D02*
X107600000Y-202950000D01*
X107600000Y-202550000D01*
X108100000Y-202550000D01*
X108100000Y-203450000D01*
G36*
X108100000Y-203450000D02*
G01*
X107600000Y-202950000D01*
X107600000Y-202550000D01*
X108100000Y-202550000D01*
X108100000Y-203450000D01*
G37*
X104400000Y-202950000D02*
X103900000Y-203450000D01*
X103900000Y-202550000D01*
X104400000Y-202550000D01*
X104400000Y-202950000D01*
G36*
X104400000Y-202950000D02*
G01*
X103900000Y-203450000D01*
X103900000Y-202550000D01*
X104400000Y-202550000D01*
X104400000Y-202950000D01*
G37*
X108100000Y-207150000D02*
X107600000Y-207150000D01*
X107600000Y-206750000D01*
X108100000Y-206250000D01*
X108100000Y-207150000D01*
G36*
X108100000Y-207150000D02*
G01*
X107600000Y-207150000D01*
X107600000Y-206750000D01*
X108100000Y-206250000D01*
X108100000Y-207150000D01*
G37*
X104400000Y-206750000D02*
X104400000Y-207150000D01*
X103900000Y-207150000D01*
X103900000Y-206250000D01*
X104400000Y-206750000D01*
G36*
X104400000Y-206750000D02*
G01*
X104400000Y-207150000D01*
X103900000Y-207150000D01*
X103900000Y-206250000D01*
X104400000Y-206750000D01*
G37*
%TO.C,S27*%
X130900000Y-182250000D02*
X132600000Y-183950000D01*
X129100000Y-182250000D02*
X130900000Y-182250000D01*
X132600000Y-183950000D02*
X132600000Y-185750000D01*
X127400000Y-183950000D02*
X129100000Y-182250000D01*
X132600000Y-185750000D02*
X130900000Y-187450000D01*
X127400000Y-185750000D02*
X127400000Y-183950000D01*
X130900000Y-187450000D02*
X129100000Y-187450000D01*
X129100000Y-187450000D02*
X127400000Y-185750000D01*
X131000000Y-184850000D02*
G75*
G03*
X131000000Y-184850000I-1000000J0D01*
G01*
X132100000Y-183450000D02*
X131600000Y-182950000D01*
X131600000Y-182550000D01*
X132100000Y-182550000D01*
X132100000Y-183450000D01*
G36*
X132100000Y-183450000D02*
G01*
X131600000Y-182950000D01*
X131600000Y-182550000D01*
X132100000Y-182550000D01*
X132100000Y-183450000D01*
G37*
X128400000Y-182950000D02*
X127900000Y-183450000D01*
X127900000Y-182550000D01*
X128400000Y-182550000D01*
X128400000Y-182950000D01*
G36*
X128400000Y-182950000D02*
G01*
X127900000Y-183450000D01*
X127900000Y-182550000D01*
X128400000Y-182550000D01*
X128400000Y-182950000D01*
G37*
X132100000Y-187150000D02*
X131600000Y-187150000D01*
X131600000Y-186750000D01*
X132100000Y-186250000D01*
X132100000Y-187150000D01*
G36*
X132100000Y-187150000D02*
G01*
X131600000Y-187150000D01*
X131600000Y-186750000D01*
X132100000Y-186250000D01*
X132100000Y-187150000D01*
G37*
X128400000Y-186750000D02*
X128400000Y-187150000D01*
X127900000Y-187150000D01*
X127900000Y-186250000D01*
X128400000Y-186750000D01*
G36*
X128400000Y-186750000D02*
G01*
X128400000Y-187150000D01*
X127900000Y-187150000D01*
X127900000Y-186250000D01*
X128400000Y-186750000D01*
G37*
%TO.C,S13*%
X82900000Y-162250000D02*
X84600000Y-163950000D01*
X81100000Y-162250000D02*
X82900000Y-162250000D01*
X84600000Y-163950000D02*
X84600000Y-165750000D01*
X79400000Y-163950000D02*
X81100000Y-162250000D01*
X84600000Y-165750000D02*
X82900000Y-167450000D01*
X79400000Y-165750000D02*
X79400000Y-163950000D01*
X82900000Y-167450000D02*
X81100000Y-167450000D01*
X81100000Y-167450000D02*
X79400000Y-165750000D01*
X83000000Y-164850000D02*
G75*
G03*
X83000000Y-164850000I-1000000J0D01*
G01*
X84100000Y-163450000D02*
X83600000Y-162950000D01*
X83600000Y-162550000D01*
X84100000Y-162550000D01*
X84100000Y-163450000D01*
G36*
X84100000Y-163450000D02*
G01*
X83600000Y-162950000D01*
X83600000Y-162550000D01*
X84100000Y-162550000D01*
X84100000Y-163450000D01*
G37*
X80400000Y-162950000D02*
X79900000Y-163450000D01*
X79900000Y-162550000D01*
X80400000Y-162550000D01*
X80400000Y-162950000D01*
G36*
X80400000Y-162950000D02*
G01*
X79900000Y-163450000D01*
X79900000Y-162550000D01*
X80400000Y-162550000D01*
X80400000Y-162950000D01*
G37*
X84100000Y-167150000D02*
X83600000Y-167150000D01*
X83600000Y-166750000D01*
X84100000Y-166250000D01*
X84100000Y-167150000D01*
G36*
X84100000Y-167150000D02*
G01*
X83600000Y-167150000D01*
X83600000Y-166750000D01*
X84100000Y-166250000D01*
X84100000Y-167150000D01*
G37*
X80400000Y-166750000D02*
X80400000Y-167150000D01*
X79900000Y-167150000D01*
X79900000Y-166250000D01*
X80400000Y-166750000D01*
G36*
X80400000Y-166750000D02*
G01*
X80400000Y-167150000D01*
X79900000Y-167150000D01*
X79900000Y-166250000D01*
X80400000Y-166750000D01*
G37*
%TO.C,S8*%
X82900000Y-152250000D02*
X84600000Y-153950000D01*
X81100000Y-152250000D02*
X82900000Y-152250000D01*
X84600000Y-153950000D02*
X84600000Y-155750000D01*
X79400000Y-153950000D02*
X81100000Y-152250000D01*
X84600000Y-155750000D02*
X82900000Y-157450000D01*
X79400000Y-155750000D02*
X79400000Y-153950000D01*
X82900000Y-157450000D02*
X81100000Y-157450000D01*
X81100000Y-157450000D02*
X79400000Y-155750000D01*
X83000000Y-154850000D02*
G75*
G03*
X83000000Y-154850000I-1000000J0D01*
G01*
X84100000Y-153450000D02*
X83600000Y-152950000D01*
X83600000Y-152550000D01*
X84100000Y-152550000D01*
X84100000Y-153450000D01*
G36*
X84100000Y-153450000D02*
G01*
X83600000Y-152950000D01*
X83600000Y-152550000D01*
X84100000Y-152550000D01*
X84100000Y-153450000D01*
G37*
X80400000Y-152950000D02*
X79900000Y-153450000D01*
X79900000Y-152550000D01*
X80400000Y-152550000D01*
X80400000Y-152950000D01*
G36*
X80400000Y-152950000D02*
G01*
X79900000Y-153450000D01*
X79900000Y-152550000D01*
X80400000Y-152550000D01*
X80400000Y-152950000D01*
G37*
X84100000Y-157150000D02*
X83600000Y-157150000D01*
X83600000Y-156750000D01*
X84100000Y-156250000D01*
X84100000Y-157150000D01*
G36*
X84100000Y-157150000D02*
G01*
X83600000Y-157150000D01*
X83600000Y-156750000D01*
X84100000Y-156250000D01*
X84100000Y-157150000D01*
G37*
X80400000Y-156750000D02*
X80400000Y-157150000D01*
X79900000Y-157150000D01*
X79900000Y-156250000D01*
X80400000Y-156750000D01*
G36*
X80400000Y-156750000D02*
G01*
X80400000Y-157150000D01*
X79900000Y-157150000D01*
X79900000Y-156250000D01*
X80400000Y-156750000D01*
G37*
%TO.C,S41*%
X118900000Y-212250000D02*
X120600000Y-213950000D01*
X117100000Y-212250000D02*
X118900000Y-212250000D01*
X120600000Y-213950000D02*
X120600000Y-215750000D01*
X115400000Y-213950000D02*
X117100000Y-212250000D01*
X120600000Y-215750000D02*
X118900000Y-217450000D01*
X115400000Y-215750000D02*
X115400000Y-213950000D01*
X118900000Y-217450000D02*
X117100000Y-217450000D01*
X117100000Y-217450000D02*
X115400000Y-215750000D01*
X119000000Y-214850000D02*
G75*
G03*
X119000000Y-214850000I-1000000J0D01*
G01*
X120100000Y-213450000D02*
X119600000Y-212950000D01*
X119600000Y-212550000D01*
X120100000Y-212550000D01*
X120100000Y-213450000D01*
G36*
X120100000Y-213450000D02*
G01*
X119600000Y-212950000D01*
X119600000Y-212550000D01*
X120100000Y-212550000D01*
X120100000Y-213450000D01*
G37*
X116400000Y-212950000D02*
X115900000Y-213450000D01*
X115900000Y-212550000D01*
X116400000Y-212550000D01*
X116400000Y-212950000D01*
G36*
X116400000Y-212950000D02*
G01*
X115900000Y-213450000D01*
X115900000Y-212550000D01*
X116400000Y-212550000D01*
X116400000Y-212950000D01*
G37*
X120100000Y-217150000D02*
X119600000Y-217150000D01*
X119600000Y-216750000D01*
X120100000Y-216250000D01*
X120100000Y-217150000D01*
G36*
X120100000Y-217150000D02*
G01*
X119600000Y-217150000D01*
X119600000Y-216750000D01*
X120100000Y-216250000D01*
X120100000Y-217150000D01*
G37*
X116400000Y-216750000D02*
X116400000Y-217150000D01*
X115900000Y-217150000D01*
X115900000Y-216250000D01*
X116400000Y-216750000D01*
G36*
X116400000Y-216750000D02*
G01*
X116400000Y-217150000D01*
X115900000Y-217150000D01*
X115900000Y-216250000D01*
X116400000Y-216750000D01*
G37*
%TO.C,S36*%
X118900000Y-202250000D02*
X120600000Y-203950000D01*
X117100000Y-202250000D02*
X118900000Y-202250000D01*
X120600000Y-203950000D02*
X120600000Y-205750000D01*
X115400000Y-203950000D02*
X117100000Y-202250000D01*
X120600000Y-205750000D02*
X118900000Y-207450000D01*
X115400000Y-205750000D02*
X115400000Y-203950000D01*
X118900000Y-207450000D02*
X117100000Y-207450000D01*
X117100000Y-207450000D02*
X115400000Y-205750000D01*
X119000000Y-204850000D02*
G75*
G03*
X119000000Y-204850000I-1000000J0D01*
G01*
X120100000Y-203450000D02*
X119600000Y-202950000D01*
X119600000Y-202550000D01*
X120100000Y-202550000D01*
X120100000Y-203450000D01*
G36*
X120100000Y-203450000D02*
G01*
X119600000Y-202950000D01*
X119600000Y-202550000D01*
X120100000Y-202550000D01*
X120100000Y-203450000D01*
G37*
X116400000Y-202950000D02*
X115900000Y-203450000D01*
X115900000Y-202550000D01*
X116400000Y-202550000D01*
X116400000Y-202950000D01*
G36*
X116400000Y-202950000D02*
G01*
X115900000Y-203450000D01*
X115900000Y-202550000D01*
X116400000Y-202550000D01*
X116400000Y-202950000D01*
G37*
X120100000Y-207150000D02*
X119600000Y-207150000D01*
X119600000Y-206750000D01*
X120100000Y-206250000D01*
X120100000Y-207150000D01*
G36*
X120100000Y-207150000D02*
G01*
X119600000Y-207150000D01*
X119600000Y-206750000D01*
X120100000Y-206250000D01*
X120100000Y-207150000D01*
G37*
X116400000Y-206750000D02*
X116400000Y-207150000D01*
X115900000Y-207150000D01*
X115900000Y-206250000D01*
X116400000Y-206750000D01*
G36*
X116400000Y-206750000D02*
G01*
X116400000Y-207150000D01*
X115900000Y-207150000D01*
X115900000Y-206250000D01*
X116400000Y-206750000D01*
G37*
%TO.C,S12*%
X130900000Y-152250000D02*
X132600000Y-153950000D01*
X129100000Y-152250000D02*
X130900000Y-152250000D01*
X132600000Y-153950000D02*
X132600000Y-155750000D01*
X127400000Y-153950000D02*
X129100000Y-152250000D01*
X132600000Y-155750000D02*
X130900000Y-157450000D01*
X127400000Y-155750000D02*
X127400000Y-153950000D01*
X130900000Y-157450000D02*
X129100000Y-157450000D01*
X129100000Y-157450000D02*
X127400000Y-155750000D01*
X131000000Y-154850000D02*
G75*
G03*
X131000000Y-154850000I-1000000J0D01*
G01*
X132100000Y-153450000D02*
X131600000Y-152950000D01*
X131600000Y-152550000D01*
X132100000Y-152550000D01*
X132100000Y-153450000D01*
G36*
X132100000Y-153450000D02*
G01*
X131600000Y-152950000D01*
X131600000Y-152550000D01*
X132100000Y-152550000D01*
X132100000Y-153450000D01*
G37*
X128400000Y-152950000D02*
X127900000Y-153450000D01*
X127900000Y-152550000D01*
X128400000Y-152550000D01*
X128400000Y-152950000D01*
G36*
X128400000Y-152950000D02*
G01*
X127900000Y-153450000D01*
X127900000Y-152550000D01*
X128400000Y-152550000D01*
X128400000Y-152950000D01*
G37*
X132100000Y-157150000D02*
X131600000Y-157150000D01*
X131600000Y-156750000D01*
X132100000Y-156250000D01*
X132100000Y-157150000D01*
G36*
X132100000Y-157150000D02*
G01*
X131600000Y-157150000D01*
X131600000Y-156750000D01*
X132100000Y-156250000D01*
X132100000Y-157150000D01*
G37*
X128400000Y-156750000D02*
X128400000Y-157150000D01*
X127900000Y-157150000D01*
X127900000Y-156250000D01*
X128400000Y-156750000D01*
G36*
X128400000Y-156750000D02*
G01*
X128400000Y-157150000D01*
X127900000Y-157150000D01*
X127900000Y-156250000D01*
X128400000Y-156750000D01*
G37*
%TO.C,S22*%
X130900000Y-172250000D02*
X132600000Y-173950000D01*
X129100000Y-172250000D02*
X130900000Y-172250000D01*
X132600000Y-173950000D02*
X132600000Y-175750000D01*
X127400000Y-173950000D02*
X129100000Y-172250000D01*
X132600000Y-175750000D02*
X130900000Y-177450000D01*
X127400000Y-175750000D02*
X127400000Y-173950000D01*
X130900000Y-177450000D02*
X129100000Y-177450000D01*
X129100000Y-177450000D02*
X127400000Y-175750000D01*
X131000000Y-174850000D02*
G75*
G03*
X131000000Y-174850000I-1000000J0D01*
G01*
X132100000Y-173450000D02*
X131600000Y-172950000D01*
X131600000Y-172550000D01*
X132100000Y-172550000D01*
X132100000Y-173450000D01*
G36*
X132100000Y-173450000D02*
G01*
X131600000Y-172950000D01*
X131600000Y-172550000D01*
X132100000Y-172550000D01*
X132100000Y-173450000D01*
G37*
X128400000Y-172950000D02*
X127900000Y-173450000D01*
X127900000Y-172550000D01*
X128400000Y-172550000D01*
X128400000Y-172950000D01*
G36*
X128400000Y-172950000D02*
G01*
X127900000Y-173450000D01*
X127900000Y-172550000D01*
X128400000Y-172550000D01*
X128400000Y-172950000D01*
G37*
X132100000Y-177150000D02*
X131600000Y-177150000D01*
X131600000Y-176750000D01*
X132100000Y-176250000D01*
X132100000Y-177150000D01*
G36*
X132100000Y-177150000D02*
G01*
X131600000Y-177150000D01*
X131600000Y-176750000D01*
X132100000Y-176250000D01*
X132100000Y-177150000D01*
G37*
X128400000Y-176750000D02*
X128400000Y-177150000D01*
X127900000Y-177150000D01*
X127900000Y-176250000D01*
X128400000Y-176750000D01*
G36*
X128400000Y-176750000D02*
G01*
X128400000Y-177150000D01*
X127900000Y-177150000D01*
X127900000Y-176250000D01*
X128400000Y-176750000D01*
G37*
%TO.C,S5*%
X106900000Y-142250000D02*
X108600000Y-143950000D01*
X105100000Y-142250000D02*
X106900000Y-142250000D01*
X108600000Y-143950000D02*
X108600000Y-145750000D01*
X103400000Y-143950000D02*
X105100000Y-142250000D01*
X108600000Y-145750000D02*
X106900000Y-147450000D01*
X103400000Y-145750000D02*
X103400000Y-143950000D01*
X106900000Y-147450000D02*
X105100000Y-147450000D01*
X105100000Y-147450000D02*
X103400000Y-145750000D01*
X107000000Y-144850000D02*
G75*
G03*
X107000000Y-144850000I-1000000J0D01*
G01*
X108100000Y-143450000D02*
X107600000Y-142950000D01*
X107600000Y-142550000D01*
X108100000Y-142550000D01*
X108100000Y-143450000D01*
G36*
X108100000Y-143450000D02*
G01*
X107600000Y-142950000D01*
X107600000Y-142550000D01*
X108100000Y-142550000D01*
X108100000Y-143450000D01*
G37*
X104400000Y-142950000D02*
X103900000Y-143450000D01*
X103900000Y-142550000D01*
X104400000Y-142550000D01*
X104400000Y-142950000D01*
G36*
X104400000Y-142950000D02*
G01*
X103900000Y-143450000D01*
X103900000Y-142550000D01*
X104400000Y-142550000D01*
X104400000Y-142950000D01*
G37*
X108100000Y-147150000D02*
X107600000Y-147150000D01*
X107600000Y-146750000D01*
X108100000Y-146250000D01*
X108100000Y-147150000D01*
G36*
X108100000Y-147150000D02*
G01*
X107600000Y-147150000D01*
X107600000Y-146750000D01*
X108100000Y-146250000D01*
X108100000Y-147150000D01*
G37*
X104400000Y-146750000D02*
X104400000Y-147150000D01*
X103900000Y-147150000D01*
X103900000Y-146250000D01*
X104400000Y-146750000D01*
G36*
X104400000Y-146750000D02*
G01*
X104400000Y-147150000D01*
X103900000Y-147150000D01*
X103900000Y-146250000D01*
X104400000Y-146750000D01*
G37*
%TO.C,S9*%
X94900000Y-152250000D02*
X96600000Y-153950000D01*
X93100000Y-152250000D02*
X94900000Y-152250000D01*
X96600000Y-153950000D02*
X96600000Y-155750000D01*
X91400000Y-153950000D02*
X93100000Y-152250000D01*
X96600000Y-155750000D02*
X94900000Y-157450000D01*
X91400000Y-155750000D02*
X91400000Y-153950000D01*
X94900000Y-157450000D02*
X93100000Y-157450000D01*
X93100000Y-157450000D02*
X91400000Y-155750000D01*
X95000000Y-154850000D02*
G75*
G03*
X95000000Y-154850000I-1000000J0D01*
G01*
X96100000Y-153450000D02*
X95600000Y-152950000D01*
X95600000Y-152550000D01*
X96100000Y-152550000D01*
X96100000Y-153450000D01*
G36*
X96100000Y-153450000D02*
G01*
X95600000Y-152950000D01*
X95600000Y-152550000D01*
X96100000Y-152550000D01*
X96100000Y-153450000D01*
G37*
X92400000Y-152950000D02*
X91900000Y-153450000D01*
X91900000Y-152550000D01*
X92400000Y-152550000D01*
X92400000Y-152950000D01*
G36*
X92400000Y-152950000D02*
G01*
X91900000Y-153450000D01*
X91900000Y-152550000D01*
X92400000Y-152550000D01*
X92400000Y-152950000D01*
G37*
X96100000Y-157150000D02*
X95600000Y-157150000D01*
X95600000Y-156750000D01*
X96100000Y-156250000D01*
X96100000Y-157150000D01*
G36*
X96100000Y-157150000D02*
G01*
X95600000Y-157150000D01*
X95600000Y-156750000D01*
X96100000Y-156250000D01*
X96100000Y-157150000D01*
G37*
X92400000Y-156750000D02*
X92400000Y-157150000D01*
X91900000Y-157150000D01*
X91900000Y-156250000D01*
X92400000Y-156750000D01*
G36*
X92400000Y-156750000D02*
G01*
X92400000Y-157150000D01*
X91900000Y-157150000D01*
X91900000Y-156250000D01*
X92400000Y-156750000D01*
G37*
%TO.C,S39*%
X94900000Y-212250000D02*
X96600000Y-213950000D01*
X93100000Y-212250000D02*
X94900000Y-212250000D01*
X96600000Y-213950000D02*
X96600000Y-215750000D01*
X91400000Y-213950000D02*
X93100000Y-212250000D01*
X96600000Y-215750000D02*
X94900000Y-217450000D01*
X91400000Y-215750000D02*
X91400000Y-213950000D01*
X94900000Y-217450000D02*
X93100000Y-217450000D01*
X93100000Y-217450000D02*
X91400000Y-215750000D01*
X95000000Y-214850000D02*
G75*
G03*
X95000000Y-214850000I-1000000J0D01*
G01*
X96100000Y-213450000D02*
X95600000Y-212950000D01*
X95600000Y-212550000D01*
X96100000Y-212550000D01*
X96100000Y-213450000D01*
G36*
X96100000Y-213450000D02*
G01*
X95600000Y-212950000D01*
X95600000Y-212550000D01*
X96100000Y-212550000D01*
X96100000Y-213450000D01*
G37*
X92400000Y-212950000D02*
X91900000Y-213450000D01*
X91900000Y-212550000D01*
X92400000Y-212550000D01*
X92400000Y-212950000D01*
G36*
X92400000Y-212950000D02*
G01*
X91900000Y-213450000D01*
X91900000Y-212550000D01*
X92400000Y-212550000D01*
X92400000Y-212950000D01*
G37*
X96100000Y-217150000D02*
X95600000Y-217150000D01*
X95600000Y-216750000D01*
X96100000Y-216250000D01*
X96100000Y-217150000D01*
G36*
X96100000Y-217150000D02*
G01*
X95600000Y-217150000D01*
X95600000Y-216750000D01*
X96100000Y-216250000D01*
X96100000Y-217150000D01*
G37*
X92400000Y-216750000D02*
X92400000Y-217150000D01*
X91900000Y-217150000D01*
X91900000Y-216250000D01*
X92400000Y-216750000D01*
G36*
X92400000Y-216750000D02*
G01*
X92400000Y-217150000D01*
X91900000Y-217150000D01*
X91900000Y-216250000D01*
X92400000Y-216750000D01*
G37*
%TO.C,S31*%
X118900000Y-192250000D02*
X120600000Y-193950000D01*
X117100000Y-192250000D02*
X118900000Y-192250000D01*
X120600000Y-193950000D02*
X120600000Y-195750000D01*
X115400000Y-193950000D02*
X117100000Y-192250000D01*
X120600000Y-195750000D02*
X118900000Y-197450000D01*
X115400000Y-195750000D02*
X115400000Y-193950000D01*
X118900000Y-197450000D02*
X117100000Y-197450000D01*
X117100000Y-197450000D02*
X115400000Y-195750000D01*
X119000000Y-194850000D02*
G75*
G03*
X119000000Y-194850000I-1000000J0D01*
G01*
X120100000Y-193450000D02*
X119600000Y-192950000D01*
X119600000Y-192550000D01*
X120100000Y-192550000D01*
X120100000Y-193450000D01*
G36*
X120100000Y-193450000D02*
G01*
X119600000Y-192950000D01*
X119600000Y-192550000D01*
X120100000Y-192550000D01*
X120100000Y-193450000D01*
G37*
X116400000Y-192950000D02*
X115900000Y-193450000D01*
X115900000Y-192550000D01*
X116400000Y-192550000D01*
X116400000Y-192950000D01*
G36*
X116400000Y-192950000D02*
G01*
X115900000Y-193450000D01*
X115900000Y-192550000D01*
X116400000Y-192550000D01*
X116400000Y-192950000D01*
G37*
X120100000Y-197150000D02*
X119600000Y-197150000D01*
X119600000Y-196750000D01*
X120100000Y-196250000D01*
X120100000Y-197150000D01*
G36*
X120100000Y-197150000D02*
G01*
X119600000Y-197150000D01*
X119600000Y-196750000D01*
X120100000Y-196250000D01*
X120100000Y-197150000D01*
G37*
X116400000Y-196750000D02*
X116400000Y-197150000D01*
X115900000Y-197150000D01*
X115900000Y-196250000D01*
X116400000Y-196750000D01*
G36*
X116400000Y-196750000D02*
G01*
X116400000Y-197150000D01*
X115900000Y-197150000D01*
X115900000Y-196250000D01*
X116400000Y-196750000D01*
G37*
%TO.C,S17*%
X130900000Y-162250000D02*
X132600000Y-163950000D01*
X129100000Y-162250000D02*
X130900000Y-162250000D01*
X132600000Y-163950000D02*
X132600000Y-165750000D01*
X127400000Y-163950000D02*
X129100000Y-162250000D01*
X132600000Y-165750000D02*
X130900000Y-167450000D01*
X127400000Y-165750000D02*
X127400000Y-163950000D01*
X130900000Y-167450000D02*
X129100000Y-167450000D01*
X129100000Y-167450000D02*
X127400000Y-165750000D01*
X131000000Y-164850000D02*
G75*
G03*
X131000000Y-164850000I-1000000J0D01*
G01*
X132100000Y-163450000D02*
X131600000Y-162950000D01*
X131600000Y-162550000D01*
X132100000Y-162550000D01*
X132100000Y-163450000D01*
G36*
X132100000Y-163450000D02*
G01*
X131600000Y-162950000D01*
X131600000Y-162550000D01*
X132100000Y-162550000D01*
X132100000Y-163450000D01*
G37*
X128400000Y-162950000D02*
X127900000Y-163450000D01*
X127900000Y-162550000D01*
X128400000Y-162550000D01*
X128400000Y-162950000D01*
G36*
X128400000Y-162950000D02*
G01*
X127900000Y-163450000D01*
X127900000Y-162550000D01*
X128400000Y-162550000D01*
X128400000Y-162950000D01*
G37*
X132100000Y-167150000D02*
X131600000Y-167150000D01*
X131600000Y-166750000D01*
X132100000Y-166250000D01*
X132100000Y-167150000D01*
G36*
X132100000Y-167150000D02*
G01*
X131600000Y-167150000D01*
X131600000Y-166750000D01*
X132100000Y-166250000D01*
X132100000Y-167150000D01*
G37*
X128400000Y-166750000D02*
X128400000Y-167150000D01*
X127900000Y-167150000D01*
X127900000Y-166250000D01*
X128400000Y-166750000D01*
G36*
X128400000Y-166750000D02*
G01*
X128400000Y-167150000D01*
X127900000Y-167150000D01*
X127900000Y-166250000D01*
X128400000Y-166750000D01*
G37*
%TO.C,S26*%
X118900000Y-182250000D02*
X120600000Y-183950000D01*
X117100000Y-182250000D02*
X118900000Y-182250000D01*
X120600000Y-183950000D02*
X120600000Y-185750000D01*
X115400000Y-183950000D02*
X117100000Y-182250000D01*
X120600000Y-185750000D02*
X118900000Y-187450000D01*
X115400000Y-185750000D02*
X115400000Y-183950000D01*
X118900000Y-187450000D02*
X117100000Y-187450000D01*
X117100000Y-187450000D02*
X115400000Y-185750000D01*
X119000000Y-184850000D02*
G75*
G03*
X119000000Y-184850000I-1000000J0D01*
G01*
X120100000Y-183450000D02*
X119600000Y-182950000D01*
X119600000Y-182550000D01*
X120100000Y-182550000D01*
X120100000Y-183450000D01*
G36*
X120100000Y-183450000D02*
G01*
X119600000Y-182950000D01*
X119600000Y-182550000D01*
X120100000Y-182550000D01*
X120100000Y-183450000D01*
G37*
X116400000Y-182950000D02*
X115900000Y-183450000D01*
X115900000Y-182550000D01*
X116400000Y-182550000D01*
X116400000Y-182950000D01*
G36*
X116400000Y-182950000D02*
G01*
X115900000Y-183450000D01*
X115900000Y-182550000D01*
X116400000Y-182550000D01*
X116400000Y-182950000D01*
G37*
X120100000Y-187150000D02*
X119600000Y-187150000D01*
X119600000Y-186750000D01*
X120100000Y-186250000D01*
X120100000Y-187150000D01*
G36*
X120100000Y-187150000D02*
G01*
X119600000Y-187150000D01*
X119600000Y-186750000D01*
X120100000Y-186250000D01*
X120100000Y-187150000D01*
G37*
X116400000Y-186750000D02*
X116400000Y-187150000D01*
X115900000Y-187150000D01*
X115900000Y-186250000D01*
X116400000Y-186750000D01*
G36*
X116400000Y-186750000D02*
G01*
X116400000Y-187150000D01*
X115900000Y-187150000D01*
X115900000Y-186250000D01*
X116400000Y-186750000D01*
G37*
%TO.C,S21*%
X118900000Y-172250000D02*
X120600000Y-173950000D01*
X117100000Y-172250000D02*
X118900000Y-172250000D01*
X120600000Y-173950000D02*
X120600000Y-175750000D01*
X115400000Y-173950000D02*
X117100000Y-172250000D01*
X120600000Y-175750000D02*
X118900000Y-177450000D01*
X115400000Y-175750000D02*
X115400000Y-173950000D01*
X118900000Y-177450000D02*
X117100000Y-177450000D01*
X117100000Y-177450000D02*
X115400000Y-175750000D01*
X119000000Y-174850000D02*
G75*
G03*
X119000000Y-174850000I-1000000J0D01*
G01*
X120100000Y-173450000D02*
X119600000Y-172950000D01*
X119600000Y-172550000D01*
X120100000Y-172550000D01*
X120100000Y-173450000D01*
G36*
X120100000Y-173450000D02*
G01*
X119600000Y-172950000D01*
X119600000Y-172550000D01*
X120100000Y-172550000D01*
X120100000Y-173450000D01*
G37*
X116400000Y-172950000D02*
X115900000Y-173450000D01*
X115900000Y-172550000D01*
X116400000Y-172550000D01*
X116400000Y-172950000D01*
G36*
X116400000Y-172950000D02*
G01*
X115900000Y-173450000D01*
X115900000Y-172550000D01*
X116400000Y-172550000D01*
X116400000Y-172950000D01*
G37*
X120100000Y-177150000D02*
X119600000Y-177150000D01*
X119600000Y-176750000D01*
X120100000Y-176250000D01*
X120100000Y-177150000D01*
G36*
X120100000Y-177150000D02*
G01*
X119600000Y-177150000D01*
X119600000Y-176750000D01*
X120100000Y-176250000D01*
X120100000Y-177150000D01*
G37*
X116400000Y-176750000D02*
X116400000Y-177150000D01*
X115900000Y-177150000D01*
X115900000Y-176250000D01*
X116400000Y-176750000D01*
G36*
X116400000Y-176750000D02*
G01*
X116400000Y-177150000D01*
X115900000Y-177150000D01*
X115900000Y-176250000D01*
X116400000Y-176750000D01*
G37*
%TO.C,S18*%
X82900000Y-172250000D02*
X84600000Y-173950000D01*
X81100000Y-172250000D02*
X82900000Y-172250000D01*
X84600000Y-173950000D02*
X84600000Y-175750000D01*
X79400000Y-173950000D02*
X81100000Y-172250000D01*
X84600000Y-175750000D02*
X82900000Y-177450000D01*
X79400000Y-175750000D02*
X79400000Y-173950000D01*
X82900000Y-177450000D02*
X81100000Y-177450000D01*
X81100000Y-177450000D02*
X79400000Y-175750000D01*
X83000000Y-174850000D02*
G75*
G03*
X83000000Y-174850000I-1000000J0D01*
G01*
X84100000Y-173450000D02*
X83600000Y-172950000D01*
X83600000Y-172550000D01*
X84100000Y-172550000D01*
X84100000Y-173450000D01*
G36*
X84100000Y-173450000D02*
G01*
X83600000Y-172950000D01*
X83600000Y-172550000D01*
X84100000Y-172550000D01*
X84100000Y-173450000D01*
G37*
X80400000Y-172950000D02*
X79900000Y-173450000D01*
X79900000Y-172550000D01*
X80400000Y-172550000D01*
X80400000Y-172950000D01*
G36*
X80400000Y-172950000D02*
G01*
X79900000Y-173450000D01*
X79900000Y-172550000D01*
X80400000Y-172550000D01*
X80400000Y-172950000D01*
G37*
X84100000Y-177150000D02*
X83600000Y-177150000D01*
X83600000Y-176750000D01*
X84100000Y-176250000D01*
X84100000Y-177150000D01*
G36*
X84100000Y-177150000D02*
G01*
X83600000Y-177150000D01*
X83600000Y-176750000D01*
X84100000Y-176250000D01*
X84100000Y-177150000D01*
G37*
X80400000Y-176750000D02*
X80400000Y-177150000D01*
X79900000Y-177150000D01*
X79900000Y-176250000D01*
X80400000Y-176750000D01*
G36*
X80400000Y-176750000D02*
G01*
X80400000Y-177150000D01*
X79900000Y-177150000D01*
X79900000Y-176250000D01*
X80400000Y-176750000D01*
G37*
%TO.C,S6*%
X118900000Y-142250000D02*
X120600000Y-143950000D01*
X117100000Y-142250000D02*
X118900000Y-142250000D01*
X120600000Y-143950000D02*
X120600000Y-145750000D01*
X115400000Y-143950000D02*
X117100000Y-142250000D01*
X120600000Y-145750000D02*
X118900000Y-147450000D01*
X115400000Y-145750000D02*
X115400000Y-143950000D01*
X118900000Y-147450000D02*
X117100000Y-147450000D01*
X117100000Y-147450000D02*
X115400000Y-145750000D01*
X119000000Y-144850000D02*
G75*
G03*
X119000000Y-144850000I-1000000J0D01*
G01*
X120100000Y-143450000D02*
X119600000Y-142950000D01*
X119600000Y-142550000D01*
X120100000Y-142550000D01*
X120100000Y-143450000D01*
G36*
X120100000Y-143450000D02*
G01*
X119600000Y-142950000D01*
X119600000Y-142550000D01*
X120100000Y-142550000D01*
X120100000Y-143450000D01*
G37*
X116400000Y-142950000D02*
X115900000Y-143450000D01*
X115900000Y-142550000D01*
X116400000Y-142550000D01*
X116400000Y-142950000D01*
G36*
X116400000Y-142950000D02*
G01*
X115900000Y-143450000D01*
X115900000Y-142550000D01*
X116400000Y-142550000D01*
X116400000Y-142950000D01*
G37*
X120100000Y-147150000D02*
X119600000Y-147150000D01*
X119600000Y-146750000D01*
X120100000Y-146250000D01*
X120100000Y-147150000D01*
G36*
X120100000Y-147150000D02*
G01*
X119600000Y-147150000D01*
X119600000Y-146750000D01*
X120100000Y-146250000D01*
X120100000Y-147150000D01*
G37*
X116400000Y-146750000D02*
X116400000Y-147150000D01*
X115900000Y-147150000D01*
X115900000Y-146250000D01*
X116400000Y-146750000D01*
G36*
X116400000Y-146750000D02*
G01*
X116400000Y-147150000D01*
X115900000Y-147150000D01*
X115900000Y-146250000D01*
X116400000Y-146750000D01*
G37*
%TO.C,S14*%
X94900000Y-162250000D02*
X96600000Y-163950000D01*
X93100000Y-162250000D02*
X94900000Y-162250000D01*
X96600000Y-163950000D02*
X96600000Y-165750000D01*
X91400000Y-163950000D02*
X93100000Y-162250000D01*
X96600000Y-165750000D02*
X94900000Y-167450000D01*
X91400000Y-165750000D02*
X91400000Y-163950000D01*
X94900000Y-167450000D02*
X93100000Y-167450000D01*
X93100000Y-167450000D02*
X91400000Y-165750000D01*
X95000000Y-164850000D02*
G75*
G03*
X95000000Y-164850000I-1000000J0D01*
G01*
X96100000Y-163450000D02*
X95600000Y-162950000D01*
X95600000Y-162550000D01*
X96100000Y-162550000D01*
X96100000Y-163450000D01*
G36*
X96100000Y-163450000D02*
G01*
X95600000Y-162950000D01*
X95600000Y-162550000D01*
X96100000Y-162550000D01*
X96100000Y-163450000D01*
G37*
X92400000Y-162950000D02*
X91900000Y-163450000D01*
X91900000Y-162550000D01*
X92400000Y-162550000D01*
X92400000Y-162950000D01*
G36*
X92400000Y-162950000D02*
G01*
X91900000Y-163450000D01*
X91900000Y-162550000D01*
X92400000Y-162550000D01*
X92400000Y-162950000D01*
G37*
X96100000Y-167150000D02*
X95600000Y-167150000D01*
X95600000Y-166750000D01*
X96100000Y-166250000D01*
X96100000Y-167150000D01*
G36*
X96100000Y-167150000D02*
G01*
X95600000Y-167150000D01*
X95600000Y-166750000D01*
X96100000Y-166250000D01*
X96100000Y-167150000D01*
G37*
X92400000Y-166750000D02*
X92400000Y-167150000D01*
X91900000Y-167150000D01*
X91900000Y-166250000D01*
X92400000Y-166750000D01*
G36*
X92400000Y-166750000D02*
G01*
X92400000Y-167150000D01*
X91900000Y-167150000D01*
X91900000Y-166250000D01*
X92400000Y-166750000D01*
G37*
%TO.C,S29*%
X94900000Y-192250000D02*
X96600000Y-193950000D01*
X93100000Y-192250000D02*
X94900000Y-192250000D01*
X96600000Y-193950000D02*
X96600000Y-195750000D01*
X91400000Y-193950000D02*
X93100000Y-192250000D01*
X96600000Y-195750000D02*
X94900000Y-197450000D01*
X91400000Y-195750000D02*
X91400000Y-193950000D01*
X94900000Y-197450000D02*
X93100000Y-197450000D01*
X93100000Y-197450000D02*
X91400000Y-195750000D01*
X95000000Y-194850000D02*
G75*
G03*
X95000000Y-194850000I-1000000J0D01*
G01*
X96100000Y-193450000D02*
X95600000Y-192950000D01*
X95600000Y-192550000D01*
X96100000Y-192550000D01*
X96100000Y-193450000D01*
G36*
X96100000Y-193450000D02*
G01*
X95600000Y-192950000D01*
X95600000Y-192550000D01*
X96100000Y-192550000D01*
X96100000Y-193450000D01*
G37*
X92400000Y-192950000D02*
X91900000Y-193450000D01*
X91900000Y-192550000D01*
X92400000Y-192550000D01*
X92400000Y-192950000D01*
G36*
X92400000Y-192950000D02*
G01*
X91900000Y-193450000D01*
X91900000Y-192550000D01*
X92400000Y-192550000D01*
X92400000Y-192950000D01*
G37*
X96100000Y-197150000D02*
X95600000Y-197150000D01*
X95600000Y-196750000D01*
X96100000Y-196250000D01*
X96100000Y-197150000D01*
G36*
X96100000Y-197150000D02*
G01*
X95600000Y-197150000D01*
X95600000Y-196750000D01*
X96100000Y-196250000D01*
X96100000Y-197150000D01*
G37*
X92400000Y-196750000D02*
X92400000Y-197150000D01*
X91900000Y-197150000D01*
X91900000Y-196250000D01*
X92400000Y-196750000D01*
G36*
X92400000Y-196750000D02*
G01*
X92400000Y-197150000D01*
X91900000Y-197150000D01*
X91900000Y-196250000D01*
X92400000Y-196750000D01*
G37*
%TO.C,S15*%
X106900000Y-162250000D02*
X108600000Y-163950000D01*
X105100000Y-162250000D02*
X106900000Y-162250000D01*
X108600000Y-163950000D02*
X108600000Y-165750000D01*
X103400000Y-163950000D02*
X105100000Y-162250000D01*
X108600000Y-165750000D02*
X106900000Y-167450000D01*
X103400000Y-165750000D02*
X103400000Y-163950000D01*
X106900000Y-167450000D02*
X105100000Y-167450000D01*
X105100000Y-167450000D02*
X103400000Y-165750000D01*
X107000000Y-164850000D02*
G75*
G03*
X107000000Y-164850000I-1000000J0D01*
G01*
X108100000Y-163450000D02*
X107600000Y-162950000D01*
X107600000Y-162550000D01*
X108100000Y-162550000D01*
X108100000Y-163450000D01*
G36*
X108100000Y-163450000D02*
G01*
X107600000Y-162950000D01*
X107600000Y-162550000D01*
X108100000Y-162550000D01*
X108100000Y-163450000D01*
G37*
X104400000Y-162950000D02*
X103900000Y-163450000D01*
X103900000Y-162550000D01*
X104400000Y-162550000D01*
X104400000Y-162950000D01*
G36*
X104400000Y-162950000D02*
G01*
X103900000Y-163450000D01*
X103900000Y-162550000D01*
X104400000Y-162550000D01*
X104400000Y-162950000D01*
G37*
X108100000Y-167150000D02*
X107600000Y-167150000D01*
X107600000Y-166750000D01*
X108100000Y-166250000D01*
X108100000Y-167150000D01*
G36*
X108100000Y-167150000D02*
G01*
X107600000Y-167150000D01*
X107600000Y-166750000D01*
X108100000Y-166250000D01*
X108100000Y-167150000D01*
G37*
X104400000Y-166750000D02*
X104400000Y-167150000D01*
X103900000Y-167150000D01*
X103900000Y-166250000D01*
X104400000Y-166750000D01*
G36*
X104400000Y-166750000D02*
G01*
X104400000Y-167150000D01*
X103900000Y-167150000D01*
X103900000Y-166250000D01*
X104400000Y-166750000D01*
G37*
%TO.C,S19*%
X94900000Y-172250000D02*
X96600000Y-173950000D01*
X93100000Y-172250000D02*
X94900000Y-172250000D01*
X96600000Y-173950000D02*
X96600000Y-175750000D01*
X91400000Y-173950000D02*
X93100000Y-172250000D01*
X96600000Y-175750000D02*
X94900000Y-177450000D01*
X91400000Y-175750000D02*
X91400000Y-173950000D01*
X94900000Y-177450000D02*
X93100000Y-177450000D01*
X93100000Y-177450000D02*
X91400000Y-175750000D01*
X95000000Y-174850000D02*
G75*
G03*
X95000000Y-174850000I-1000000J0D01*
G01*
X96100000Y-173450000D02*
X95600000Y-172950000D01*
X95600000Y-172550000D01*
X96100000Y-172550000D01*
X96100000Y-173450000D01*
G36*
X96100000Y-173450000D02*
G01*
X95600000Y-172950000D01*
X95600000Y-172550000D01*
X96100000Y-172550000D01*
X96100000Y-173450000D01*
G37*
X92400000Y-172950000D02*
X91900000Y-173450000D01*
X91900000Y-172550000D01*
X92400000Y-172550000D01*
X92400000Y-172950000D01*
G36*
X92400000Y-172950000D02*
G01*
X91900000Y-173450000D01*
X91900000Y-172550000D01*
X92400000Y-172550000D01*
X92400000Y-172950000D01*
G37*
X96100000Y-177150000D02*
X95600000Y-177150000D01*
X95600000Y-176750000D01*
X96100000Y-176250000D01*
X96100000Y-177150000D01*
G36*
X96100000Y-177150000D02*
G01*
X95600000Y-177150000D01*
X95600000Y-176750000D01*
X96100000Y-176250000D01*
X96100000Y-177150000D01*
G37*
X92400000Y-176750000D02*
X92400000Y-177150000D01*
X91900000Y-177150000D01*
X91900000Y-176250000D01*
X92400000Y-176750000D01*
G36*
X92400000Y-176750000D02*
G01*
X92400000Y-177150000D01*
X91900000Y-177150000D01*
X91900000Y-176250000D01*
X92400000Y-176750000D01*
G37*
%TO.C,S33*%
X82900000Y-202250000D02*
X84600000Y-203950000D01*
X81100000Y-202250000D02*
X82900000Y-202250000D01*
X84600000Y-203950000D02*
X84600000Y-205750000D01*
X79400000Y-203950000D02*
X81100000Y-202250000D01*
X84600000Y-205750000D02*
X82900000Y-207450000D01*
X79400000Y-205750000D02*
X79400000Y-203950000D01*
X82900000Y-207450000D02*
X81100000Y-207450000D01*
X81100000Y-207450000D02*
X79400000Y-205750000D01*
X83000000Y-204850000D02*
G75*
G03*
X83000000Y-204850000I-1000000J0D01*
G01*
X84100000Y-203450000D02*
X83600000Y-202950000D01*
X83600000Y-202550000D01*
X84100000Y-202550000D01*
X84100000Y-203450000D01*
G36*
X84100000Y-203450000D02*
G01*
X83600000Y-202950000D01*
X83600000Y-202550000D01*
X84100000Y-202550000D01*
X84100000Y-203450000D01*
G37*
X80400000Y-202950000D02*
X79900000Y-203450000D01*
X79900000Y-202550000D01*
X80400000Y-202550000D01*
X80400000Y-202950000D01*
G36*
X80400000Y-202950000D02*
G01*
X79900000Y-203450000D01*
X79900000Y-202550000D01*
X80400000Y-202550000D01*
X80400000Y-202950000D01*
G37*
X84100000Y-207150000D02*
X83600000Y-207150000D01*
X83600000Y-206750000D01*
X84100000Y-206250000D01*
X84100000Y-207150000D01*
G36*
X84100000Y-207150000D02*
G01*
X83600000Y-207150000D01*
X83600000Y-206750000D01*
X84100000Y-206250000D01*
X84100000Y-207150000D01*
G37*
X80400000Y-206750000D02*
X80400000Y-207150000D01*
X79900000Y-207150000D01*
X79900000Y-206250000D01*
X80400000Y-206750000D01*
G36*
X80400000Y-206750000D02*
G01*
X80400000Y-207150000D01*
X79900000Y-207150000D01*
X79900000Y-206250000D01*
X80400000Y-206750000D01*
G37*
%TO.C,S37*%
X130900000Y-202250000D02*
X132600000Y-203950000D01*
X129100000Y-202250000D02*
X130900000Y-202250000D01*
X132600000Y-203950000D02*
X132600000Y-205750000D01*
X127400000Y-203950000D02*
X129100000Y-202250000D01*
X132600000Y-205750000D02*
X130900000Y-207450000D01*
X127400000Y-205750000D02*
X127400000Y-203950000D01*
X130900000Y-207450000D02*
X129100000Y-207450000D01*
X129100000Y-207450000D02*
X127400000Y-205750000D01*
X131000000Y-204850000D02*
G75*
G03*
X131000000Y-204850000I-1000000J0D01*
G01*
X132100000Y-203450000D02*
X131600000Y-202950000D01*
X131600000Y-202550000D01*
X132100000Y-202550000D01*
X132100000Y-203450000D01*
G36*
X132100000Y-203450000D02*
G01*
X131600000Y-202950000D01*
X131600000Y-202550000D01*
X132100000Y-202550000D01*
X132100000Y-203450000D01*
G37*
X128400000Y-202950000D02*
X127900000Y-203450000D01*
X127900000Y-202550000D01*
X128400000Y-202550000D01*
X128400000Y-202950000D01*
G36*
X128400000Y-202950000D02*
G01*
X127900000Y-203450000D01*
X127900000Y-202550000D01*
X128400000Y-202550000D01*
X128400000Y-202950000D01*
G37*
X132100000Y-207150000D02*
X131600000Y-207150000D01*
X131600000Y-206750000D01*
X132100000Y-206250000D01*
X132100000Y-207150000D01*
G36*
X132100000Y-207150000D02*
G01*
X131600000Y-207150000D01*
X131600000Y-206750000D01*
X132100000Y-206250000D01*
X132100000Y-207150000D01*
G37*
X128400000Y-206750000D02*
X128400000Y-207150000D01*
X127900000Y-207150000D01*
X127900000Y-206250000D01*
X128400000Y-206750000D01*
G36*
X128400000Y-206750000D02*
G01*
X128400000Y-207150000D01*
X127900000Y-207150000D01*
X127900000Y-206250000D01*
X128400000Y-206750000D01*
G37*
%TD*%
%LPC*%
D13*
%TO.C,S24*%
X92100000Y-181700000D03*
X92100000Y-188000000D03*
X95900000Y-188000000D03*
X95900000Y-181700000D03*
%TD*%
%TO.C,S16*%
X116100000Y-161700000D03*
X116100000Y-168000000D03*
X119900000Y-168000000D03*
X119900000Y-161700000D03*
%TD*%
%TO.C,S34*%
X92100000Y-201700000D03*
X92100000Y-208000000D03*
X95900000Y-208000000D03*
X95900000Y-201700000D03*
%TD*%
%TO.C,S42*%
X128100000Y-211700000D03*
X128100000Y-218000000D03*
X131900000Y-218000000D03*
X131900000Y-211700000D03*
%TD*%
%TO.C,S4*%
X92100000Y-141700000D03*
X92100000Y-148000000D03*
X95900000Y-148000000D03*
X95900000Y-141700000D03*
%TD*%
%TO.C,S38*%
X80100000Y-211700000D03*
X80100000Y-218000000D03*
X83900000Y-218000000D03*
X83900000Y-211700000D03*
%TD*%
%TO.C,S32*%
X128100000Y-191700000D03*
X128100000Y-198000000D03*
X131900000Y-198000000D03*
X131900000Y-191700000D03*
%TD*%
%TO.C,S3*%
X80100000Y-141700000D03*
X80100000Y-148000000D03*
X83900000Y-148000000D03*
X83900000Y-141700000D03*
%TD*%
%TO.C,S25*%
X104100000Y-181700000D03*
X104100000Y-188000000D03*
X107900000Y-188000000D03*
X107900000Y-181700000D03*
%TD*%
%TO.C,S1*%
X116100000Y-131700000D03*
X116100000Y-138000000D03*
X119900000Y-138000000D03*
X119900000Y-131700000D03*
%TD*%
%TO.C,S23*%
X80100000Y-181700000D03*
X80100000Y-188000000D03*
X83900000Y-188000000D03*
X83900000Y-181700000D03*
%TD*%
D14*
%TO.C,J3*%
X89325000Y-127975000D03*
D15*
X91865000Y-127975000D03*
X94405000Y-127975000D03*
X96945000Y-127975000D03*
X99485000Y-127975000D03*
X102025000Y-127975000D03*
X104565000Y-127975000D03*
X107105000Y-127975000D03*
X109645000Y-127975000D03*
X112185000Y-127975000D03*
X114725000Y-127975000D03*
X117265000Y-127975000D03*
X119805000Y-127975000D03*
X122345000Y-127975000D03*
%TD*%
D13*
%TO.C,S28*%
X80100000Y-191700000D03*
X80100000Y-198000000D03*
X83900000Y-198000000D03*
X83900000Y-191700000D03*
%TD*%
%TO.C,S20*%
X104100000Y-171700000D03*
X104100000Y-178000000D03*
X107900000Y-178000000D03*
X107900000Y-171700000D03*
%TD*%
%TO.C,S30*%
X104100000Y-191700000D03*
X104100000Y-198000000D03*
X107900000Y-198000000D03*
X107900000Y-191700000D03*
%TD*%
%TO.C,S11*%
X116100000Y-151700000D03*
X116100000Y-158000000D03*
X119900000Y-158000000D03*
X119900000Y-151700000D03*
%TD*%
%TO.C,S2*%
X128100000Y-131700000D03*
X128100000Y-138000000D03*
X131900000Y-138000000D03*
X131900000Y-131700000D03*
%TD*%
%TO.C,S10*%
X104100000Y-151700000D03*
X104100000Y-158000000D03*
X107900000Y-158000000D03*
X107900000Y-151700000D03*
%TD*%
%TO.C,S7*%
X128100000Y-141700000D03*
X128100000Y-148000000D03*
X131900000Y-148000000D03*
X131900000Y-141700000D03*
%TD*%
%TO.C,S40*%
X104100000Y-211700000D03*
X104100000Y-218000000D03*
X107900000Y-218000000D03*
X107900000Y-211700000D03*
%TD*%
%TO.C,S35*%
X104100000Y-201700000D03*
X104100000Y-208000000D03*
X107900000Y-208000000D03*
X107900000Y-201700000D03*
%TD*%
%TO.C,S27*%
X128100000Y-181700000D03*
X128100000Y-188000000D03*
X131900000Y-188000000D03*
X131900000Y-181700000D03*
%TD*%
%TO.C,S13*%
X80100000Y-161700000D03*
X80100000Y-168000000D03*
X83900000Y-168000000D03*
X83900000Y-161700000D03*
%TD*%
%TO.C,S8*%
X80100000Y-151700000D03*
X80100000Y-158000000D03*
X83900000Y-158000000D03*
X83900000Y-151700000D03*
%TD*%
%TO.C,S41*%
X116100000Y-211700000D03*
X116100000Y-218000000D03*
X119900000Y-218000000D03*
X119900000Y-211700000D03*
%TD*%
%TO.C,S36*%
X116100000Y-201700000D03*
X116100000Y-208000000D03*
X119900000Y-208000000D03*
X119900000Y-201700000D03*
%TD*%
%TO.C,S12*%
X128100000Y-151700000D03*
X128100000Y-158000000D03*
X131900000Y-158000000D03*
X131900000Y-151700000D03*
%TD*%
%TO.C,S22*%
X128100000Y-171700000D03*
X128100000Y-178000000D03*
X131900000Y-178000000D03*
X131900000Y-171700000D03*
%TD*%
%TO.C,S5*%
X104100000Y-141700000D03*
X104100000Y-148000000D03*
X107900000Y-148000000D03*
X107900000Y-141700000D03*
%TD*%
%TO.C,S9*%
X92100000Y-151700000D03*
X92100000Y-158000000D03*
X95900000Y-158000000D03*
X95900000Y-151700000D03*
%TD*%
%TO.C,S39*%
X92100000Y-211700000D03*
X92100000Y-218000000D03*
X95900000Y-218000000D03*
X95900000Y-211700000D03*
%TD*%
%TO.C,S31*%
X116100000Y-191700000D03*
X116100000Y-198000000D03*
X119900000Y-198000000D03*
X119900000Y-191700000D03*
%TD*%
%TO.C,S17*%
X128100000Y-161700000D03*
X128100000Y-168000000D03*
X131900000Y-168000000D03*
X131900000Y-161700000D03*
%TD*%
%TO.C,S26*%
X116100000Y-181700000D03*
X116100000Y-188000000D03*
X119900000Y-188000000D03*
X119900000Y-181700000D03*
%TD*%
%TO.C,S21*%
X116100000Y-171700000D03*
X116100000Y-178000000D03*
X119900000Y-178000000D03*
X119900000Y-171700000D03*
%TD*%
%TO.C,S18*%
X80100000Y-171700000D03*
X80100000Y-178000000D03*
X83900000Y-178000000D03*
X83900000Y-171700000D03*
%TD*%
%TO.C,S6*%
X116100000Y-141700000D03*
X116100000Y-148000000D03*
X119900000Y-148000000D03*
X119900000Y-141700000D03*
%TD*%
%TO.C,S14*%
X92100000Y-161700000D03*
X92100000Y-168000000D03*
X95900000Y-168000000D03*
X95900000Y-161700000D03*
%TD*%
%TO.C,S29*%
X92100000Y-191700000D03*
X92100000Y-198000000D03*
X95900000Y-198000000D03*
X95900000Y-191700000D03*
%TD*%
%TO.C,S15*%
X104100000Y-161700000D03*
X104100000Y-168000000D03*
X107900000Y-168000000D03*
X107900000Y-161700000D03*
%TD*%
%TO.C,S19*%
X92100000Y-171700000D03*
X92100000Y-178000000D03*
X95900000Y-178000000D03*
X95900000Y-171700000D03*
%TD*%
%TO.C,S33*%
X80100000Y-201700000D03*
X80100000Y-208000000D03*
X83900000Y-208000000D03*
X83900000Y-201700000D03*
%TD*%
%TO.C,S37*%
X128100000Y-201700000D03*
X128100000Y-208000000D03*
X131900000Y-208000000D03*
X131900000Y-201700000D03*
%TD*%
D16*
%TO.C,J7*%
X93550000Y-98099994D03*
D17*
X94300000Y-98099994D03*
D16*
X95050000Y-98099994D03*
D18*
X93550000Y-96099994D03*
D17*
X94300000Y-96099994D03*
D18*
X95050000Y-96099994D03*
X93550000Y-94099994D03*
D17*
X94300000Y-94099994D03*
D18*
X95050000Y-94099994D03*
X93550000Y-92099994D03*
D17*
X94300000Y-92099994D03*
D18*
X95050000Y-92099994D03*
X93550000Y-90099994D03*
D17*
X94300000Y-90099994D03*
D18*
X95050000Y-90099994D03*
X93550000Y-88099994D03*
D17*
X94300000Y-88099994D03*
D18*
X95050000Y-88099994D03*
X93550000Y-86099994D03*
D17*
X94300000Y-86099994D03*
D18*
X95050000Y-86099994D03*
X93550000Y-84099994D03*
D17*
X94300000Y-84099994D03*
D18*
X95050000Y-84099994D03*
X93550000Y-82099994D03*
D17*
X94300000Y-82099994D03*
D18*
X95050000Y-82099994D03*
X93550000Y-80099994D03*
D17*
X94300000Y-80099994D03*
D18*
X95050000Y-80099994D03*
%TD*%
D19*
%TO.C,J2*%
X123050000Y-208987500D03*
D20*
X125050000Y-208987500D03*
%TD*%
D16*
%TO.C,J6*%
X115050000Y-78099994D03*
D21*
X115050000Y-77349994D03*
D16*
X115050000Y-76599994D03*
D18*
X113050000Y-78099994D03*
D21*
X113050000Y-77349994D03*
D18*
X113050000Y-76599994D03*
X111050000Y-78099994D03*
D21*
X111050000Y-77349994D03*
D18*
X111050000Y-76599994D03*
X109050000Y-78099994D03*
D21*
X109050000Y-77349994D03*
D18*
X109050000Y-76599994D03*
X107050000Y-78099994D03*
D21*
X107050000Y-77349994D03*
D18*
X107050000Y-76599994D03*
X105050000Y-78099994D03*
D21*
X105050000Y-77349994D03*
D18*
X105050000Y-76599994D03*
X103050000Y-78099994D03*
D21*
X103050000Y-77349994D03*
D18*
X103050000Y-76599994D03*
X101050000Y-78099994D03*
D21*
X101050000Y-77349994D03*
D18*
X101050000Y-76599994D03*
X99050000Y-78099994D03*
D21*
X99050000Y-77349994D03*
D18*
X99050000Y-76599994D03*
X97050000Y-78099994D03*
D21*
X97050000Y-77349994D03*
D18*
X97050000Y-76599994D03*
%TD*%
D16*
%TO.C,J5*%
X115050000Y-101599994D03*
D21*
X115050000Y-100849994D03*
D16*
X115050000Y-100099994D03*
D18*
X113050000Y-101599994D03*
D21*
X113050000Y-100849994D03*
D18*
X113050000Y-100099994D03*
X111050000Y-101599994D03*
D21*
X111050000Y-100849994D03*
D18*
X111050000Y-100099994D03*
X109050000Y-101599994D03*
D21*
X109050000Y-100849994D03*
D18*
X109050000Y-100099994D03*
X107050000Y-101599994D03*
D21*
X107050000Y-100849994D03*
D18*
X107050000Y-100099994D03*
X105050000Y-101599994D03*
D21*
X105050000Y-100849994D03*
D18*
X105050000Y-100099994D03*
X103050000Y-101599994D03*
D21*
X103050000Y-100849994D03*
D18*
X103050000Y-100099994D03*
X101050000Y-101599994D03*
D21*
X101050000Y-100849994D03*
D18*
X101050000Y-100099994D03*
X99050000Y-101599994D03*
D21*
X99050000Y-100849994D03*
D18*
X99050000Y-100099994D03*
X97050000Y-101599994D03*
D21*
X97050000Y-100849994D03*
D18*
X97050000Y-100099994D03*
%TD*%
D22*
%TO.C,J1*%
X108910000Y-216770000D03*
X103130000Y-216770000D03*
D23*
X110340000Y-220420000D03*
D24*
X110340000Y-216240000D03*
D23*
X101700000Y-220420000D03*
D24*
X101700000Y-216240000D03*
%TD*%
D16*
%TO.C,J4*%
X117050000Y-98099994D03*
D17*
X117800000Y-98099994D03*
D16*
X118550000Y-98099994D03*
D18*
X117050000Y-96099994D03*
D17*
X117800000Y-96099994D03*
D18*
X118550000Y-96099994D03*
X117050000Y-94099994D03*
D17*
X117800000Y-94099994D03*
D18*
X118550000Y-94099994D03*
X117050000Y-92099994D03*
D17*
X117800000Y-92099994D03*
D18*
X118550000Y-92099994D03*
X117050000Y-90099994D03*
D17*
X117800000Y-90099994D03*
D18*
X118550000Y-90099994D03*
X117050000Y-88099994D03*
D17*
X117800000Y-88099994D03*
D18*
X118550000Y-88099994D03*
X117050000Y-86099994D03*
D17*
X117800000Y-86099994D03*
D18*
X118550000Y-86099994D03*
X117050000Y-84099994D03*
D17*
X117800000Y-84099994D03*
D18*
X118550000Y-84099994D03*
X117050000Y-82099994D03*
D17*
X117800000Y-82099994D03*
D18*
X118550000Y-82099994D03*
X117050000Y-80099994D03*
D17*
X117800000Y-80099994D03*
D18*
X118550000Y-80099994D03*
%TD*%
%LPD*%
M02*
