%TF.GenerationSoftware,KiCad,Pcbnew,7.0.5*%
%TF.CreationDate,2023-07-27T14:44:28-03:00*%
%TF.ProjectId,Open_Machinist_Calculator,4f70656e-5f4d-4616-9368-696e6973745f,rev?*%
%TF.SameCoordinates,Original*%
%TF.FileFunction,Paste,Bot*%
%TF.FilePolarity,Positive*%
%FSLAX46Y46*%
G04 Gerber Fmt 4.6, Leading zero omitted, Abs format (unit mm)*
G04 Created by KiCad (PCBNEW 7.0.5) date 2023-07-27 14:44:28*
%MOMM*%
%LPD*%
G01*
G04 APERTURE LIST*
G04 Aperture macros list*
%AMRoundRect*
0 Rectangle with rounded corners*
0 $1 Rounding radius*
0 $2 $3 $4 $5 $6 $7 $8 $9 X,Y pos of 4 corners*
0 Add a 4 corners polygon primitive as box body*
4,1,4,$2,$3,$4,$5,$6,$7,$8,$9,$2,$3,0*
0 Add four circle primitives for the rounded corners*
1,1,$1+$1,$2,$3*
1,1,$1+$1,$4,$5*
1,1,$1+$1,$6,$7*
1,1,$1+$1,$8,$9*
0 Add four rect primitives between the rounded corners*
20,1,$1+$1,$2,$3,$4,$5,0*
20,1,$1+$1,$4,$5,$6,$7,0*
20,1,$1+$1,$6,$7,$8,$9,0*
20,1,$1+$1,$8,$9,$2,$3,0*%
G04 Aperture macros list end*
%ADD10RoundRect,0.250000X0.350000X0.450000X-0.350000X0.450000X-0.350000X-0.450000X0.350000X-0.450000X0*%
%ADD11RoundRect,0.150000X-0.150000X0.512500X-0.150000X-0.512500X0.150000X-0.512500X0.150000X0.512500X0*%
%ADD12RoundRect,0.225000X-0.250000X0.225000X-0.250000X-0.225000X0.250000X-0.225000X0.250000X0.225000X0*%
%ADD13RoundRect,0.250000X0.450000X-0.350000X0.450000X0.350000X-0.450000X0.350000X-0.450000X-0.350000X0*%
%ADD14RoundRect,0.250000X-0.450000X0.350000X-0.450000X-0.350000X0.450000X-0.350000X0.450000X0.350000X0*%
%ADD15RoundRect,0.200000X0.275000X-0.200000X0.275000X0.200000X-0.275000X0.200000X-0.275000X-0.200000X0*%
%ADD16RoundRect,0.250000X-0.350000X-0.450000X0.350000X-0.450000X0.350000X0.450000X-0.350000X0.450000X0*%
%ADD17RoundRect,0.250000X-0.625000X0.400000X-0.625000X-0.400000X0.625000X-0.400000X0.625000X0.400000X0*%
%ADD18RoundRect,0.200000X-0.200000X-0.275000X0.200000X-0.275000X0.200000X0.275000X-0.200000X0.275000X0*%
%ADD19R,0.375000X0.500000*%
%ADD20R,0.300000X0.650000*%
%ADD21RoundRect,0.250000X-0.475000X0.337500X-0.475000X-0.337500X0.475000X-0.337500X0.475000X0.337500X0*%
%ADD22RoundRect,0.225000X-0.225000X-0.250000X0.225000X-0.250000X0.225000X0.250000X-0.225000X0.250000X0*%
%ADD23RoundRect,0.225000X0.225000X0.250000X-0.225000X0.250000X-0.225000X-0.250000X0.225000X-0.250000X0*%
%ADD24RoundRect,0.150000X0.150000X-0.512500X0.150000X0.512500X-0.150000X0.512500X-0.150000X-0.512500X0*%
%ADD25RoundRect,0.250000X0.475000X-0.337500X0.475000X0.337500X-0.475000X0.337500X-0.475000X-0.337500X0*%
%ADD26RoundRect,0.225000X0.250000X-0.225000X0.250000X0.225000X-0.250000X0.225000X-0.250000X-0.225000X0*%
%ADD27RoundRect,0.250000X0.555000X-0.435000X0.555000X0.435000X-0.555000X0.435000X-0.555000X-0.435000X0*%
%ADD28RoundRect,0.125000X0.125000X-0.262500X0.125000X0.262500X-0.125000X0.262500X-0.125000X-0.262500X0*%
%ADD29RoundRect,0.218750X-0.218750X-0.256250X0.218750X-0.256250X0.218750X0.256250X-0.218750X0.256250X0*%
%ADD30RoundRect,0.127500X-0.127500X0.172500X-0.127500X-0.172500X0.127500X-0.172500X0.127500X0.172500X0*%
%ADD31RoundRect,0.125000X-0.125000X0.175000X-0.125000X-0.175000X0.125000X-0.175000X0.125000X0.175000X0*%
%ADD32RoundRect,0.175000X-0.175000X0.275000X-0.175000X-0.275000X0.175000X-0.275000X0.175000X0.275000X0*%
%ADD33R,0.600000X2.450000*%
%ADD34R,0.300000X2.450000*%
%ADD35RoundRect,0.250000X0.315000X-0.315000X0.315000X0.315000X-0.315000X0.315000X-0.315000X-0.315000X0*%
%ADD36O,0.200000X0.875000*%
%ADD37O,0.875000X0.200000*%
%ADD38RoundRect,0.250000X-0.337500X-0.475000X0.337500X-0.475000X0.337500X0.475000X-0.337500X0.475000X0*%
%ADD39R,1.000000X1.150000*%
%ADD40RoundRect,0.225000X-0.375000X0.225000X-0.375000X-0.225000X0.375000X-0.225000X0.375000X0.225000X0*%
%ADD41R,0.900000X1.700000*%
%ADD42RoundRect,0.150000X-0.150000X0.587500X-0.150000X-0.587500X0.150000X-0.587500X0.150000X0.587500X0*%
G04 APERTURE END LIST*
D10*
%TO.C,R14*%
X104000000Y-123237500D03*
X102000000Y-123237500D03*
%TD*%
D11*
%TO.C,Q2*%
X107105000Y-123237500D03*
X108055000Y-120962500D03*
X106155000Y-120962500D03*
%TD*%
D12*
%TO.C,C6*%
X109150000Y-92624994D03*
X109150000Y-94174994D03*
%TD*%
D13*
%TO.C,R3*%
X110000000Y-199800000D03*
X110000000Y-197800000D03*
%TD*%
D14*
%TO.C,R10*%
X126600000Y-212500000D03*
X126600000Y-214500000D03*
%TD*%
D15*
%TO.C,R12*%
X113800000Y-98124994D03*
X113800000Y-96474994D03*
%TD*%
D11*
%TO.C,U4*%
X113100000Y-80712494D03*
X114050000Y-80712494D03*
X115000000Y-80712494D03*
X115000000Y-82987494D03*
X113100000Y-82987494D03*
%TD*%
D13*
%TO.C,R9*%
X128900000Y-219700000D03*
X128900000Y-217700000D03*
%TD*%
D16*
%TO.C,R7*%
X109000000Y-209700000D03*
X111000000Y-209700000D03*
%TD*%
D17*
%TO.C,F1*%
X113000000Y-214950000D03*
X113000000Y-218050000D03*
%TD*%
D18*
%TO.C,R13*%
X97225000Y-82099994D03*
X98875000Y-82099994D03*
%TD*%
D13*
%TO.C,R8*%
X129250000Y-209100000D03*
X129250000Y-207100000D03*
%TD*%
D19*
%TO.C,U1*%
X106537500Y-211850000D03*
D20*
X106000000Y-211925000D03*
D19*
X105462500Y-211850000D03*
X105462500Y-210150000D03*
D20*
X106000000Y-210075000D03*
D19*
X106537500Y-210150000D03*
%TD*%
D21*
%TO.C,C1*%
X115300000Y-218062500D03*
X115300000Y-220137500D03*
%TD*%
D22*
%TO.C,C15*%
X110025000Y-80349994D03*
X111575000Y-80349994D03*
%TD*%
D18*
%TO.C,R15*%
X113225000Y-84849994D03*
X114875000Y-84849994D03*
%TD*%
D23*
%TO.C,C8*%
X98825000Y-85099994D03*
X97275000Y-85099994D03*
%TD*%
%TO.C,C12*%
X98825000Y-83599994D03*
X97275000Y-83599994D03*
%TD*%
D13*
%TO.C,R5*%
X133900000Y-195800000D03*
X133900000Y-193800000D03*
%TD*%
D24*
%TO.C,U2*%
X131150000Y-204637500D03*
X130200000Y-204637500D03*
X129250000Y-204637500D03*
X129250000Y-202362500D03*
X131150000Y-202362500D03*
%TD*%
D13*
%TO.C,R11*%
X128800000Y-214500000D03*
X128800000Y-212500000D03*
%TD*%
D25*
%TO.C,C2*%
X131000000Y-214537500D03*
X131000000Y-212462500D03*
%TD*%
D15*
%TO.C,R20*%
X115300000Y-98124994D03*
X115300000Y-96474994D03*
%TD*%
D26*
%TO.C,C9*%
X105300000Y-82124994D03*
X105300000Y-80574994D03*
%TD*%
D22*
%TO.C,C18*%
X110025000Y-86599994D03*
X111575000Y-86599994D03*
%TD*%
D27*
%TO.C,U5*%
X111800000Y-93149994D03*
X113800000Y-93149994D03*
X111800000Y-91449994D03*
X113800000Y-91449994D03*
D28*
X114705000Y-94962494D03*
X113435000Y-94962494D03*
X112165000Y-94962494D03*
X110895000Y-94962494D03*
X110895000Y-89637494D03*
X112165000Y-89637494D03*
X113435000Y-89637494D03*
X114705000Y-89637494D03*
%TD*%
D29*
%TO.C,D2*%
X110012500Y-83349994D03*
X111587500Y-83349994D03*
%TD*%
D13*
%TO.C,R1*%
X86000000Y-199800000D03*
X86000000Y-197800000D03*
%TD*%
D25*
%TO.C,C4*%
X133300000Y-202437500D03*
X133300000Y-200362500D03*
%TD*%
D26*
%TO.C,C10*%
X106800000Y-82124994D03*
X106800000Y-80574994D03*
%TD*%
D21*
%TO.C,C3*%
X133300000Y-204662500D03*
X133300000Y-206737500D03*
%TD*%
D30*
%TO.C,SW2*%
X133465000Y-106660000D03*
X133465000Y-107660000D03*
D31*
X133465000Y-108660000D03*
D32*
X134820000Y-104660000D03*
X134820000Y-110660000D03*
%TD*%
D10*
%TO.C,R6*%
X103200000Y-209700000D03*
X101200000Y-209700000D03*
%TD*%
D18*
%TO.C,R19*%
X113225000Y-87849994D03*
X114875000Y-87849994D03*
%TD*%
D13*
%TO.C,R2*%
X98000000Y-199800000D03*
X98000000Y-197800000D03*
%TD*%
D26*
%TO.C,C11*%
X108300000Y-82124994D03*
X108300000Y-80574994D03*
%TD*%
D33*
%TO.C,J1*%
X109245000Y-214825000D03*
X108470000Y-214825000D03*
D34*
X107770000Y-214825000D03*
X107270000Y-214825000D03*
X106770000Y-214825000D03*
X106270000Y-214825000D03*
X105770000Y-214825000D03*
X105270000Y-214825000D03*
X104770000Y-214825000D03*
X104270000Y-214825000D03*
D33*
X103570000Y-214825000D03*
X102795000Y-214825000D03*
%TD*%
D35*
%TO.C,U3*%
X103850000Y-88399994D03*
X105250000Y-88399994D03*
X103850000Y-86999994D03*
X105250000Y-86999994D03*
D36*
X107150000Y-91137494D03*
X106750000Y-91137494D03*
X106350000Y-91137494D03*
X105950000Y-91137494D03*
X105550000Y-91137494D03*
X105150000Y-91137494D03*
X104750000Y-91137494D03*
X104350000Y-91137494D03*
X103950000Y-91137494D03*
X103550000Y-91137494D03*
X103150000Y-91137494D03*
X102750000Y-91137494D03*
X102350000Y-91137494D03*
X101950000Y-91137494D03*
D37*
X101112500Y-90299994D03*
X101112500Y-89899994D03*
X101112500Y-89499994D03*
X101112500Y-89099994D03*
X101112500Y-88699994D03*
X101112500Y-88299994D03*
X101112500Y-87899994D03*
X101112500Y-87499994D03*
X101112500Y-87099994D03*
X101112500Y-86699994D03*
X101112500Y-86299994D03*
X101112500Y-85899994D03*
X101112500Y-85499994D03*
X101112500Y-85099994D03*
D36*
X101950000Y-84262494D03*
X102350000Y-84262494D03*
X102750000Y-84262494D03*
X103150000Y-84262494D03*
X103550000Y-84262494D03*
X103950000Y-84262494D03*
X104350000Y-84262494D03*
X104750000Y-84262494D03*
X105150000Y-84262494D03*
X105550000Y-84262494D03*
X105950000Y-84262494D03*
X106350000Y-84262494D03*
X106750000Y-84262494D03*
X107150000Y-84262494D03*
D37*
X107987500Y-85099994D03*
X107987500Y-85499994D03*
X107987500Y-85899994D03*
X107987500Y-86299994D03*
X107987500Y-86699994D03*
X107987500Y-87099994D03*
X107987500Y-87499994D03*
X107987500Y-87899994D03*
X107987500Y-88299994D03*
X107987500Y-88699994D03*
X107987500Y-89099994D03*
X107987500Y-89499994D03*
X107987500Y-89899994D03*
X107987500Y-90299994D03*
%TD*%
D13*
%TO.C,R4*%
X122000000Y-199800000D03*
X122000000Y-197800000D03*
%TD*%
D12*
%TO.C,C7*%
X107650000Y-92624994D03*
X107650000Y-94174994D03*
%TD*%
D22*
%TO.C,C16*%
X97275000Y-91599994D03*
X98825000Y-91599994D03*
%TD*%
%TO.C,C14*%
X110025000Y-84849994D03*
X111575000Y-84849994D03*
%TD*%
%TO.C,C13*%
X110025000Y-88099994D03*
X111575000Y-88099994D03*
%TD*%
D38*
%TO.C,C5*%
X121562500Y-220000000D03*
X123637500Y-220000000D03*
%TD*%
D39*
%TO.C,Y1*%
X98750000Y-88224994D03*
X98750000Y-89974994D03*
X97350000Y-89974994D03*
X97350000Y-88224994D03*
%TD*%
D18*
%TO.C,R18*%
X113225000Y-86349994D03*
X114875000Y-86349994D03*
%TD*%
D40*
%TO.C,D1*%
X133800000Y-209150000D03*
X133800000Y-212450000D03*
%TD*%
D41*
%TO.C,SW1*%
X108950000Y-97099994D03*
X112350000Y-97099994D03*
%TD*%
D23*
%TO.C,C17*%
X98825000Y-86599994D03*
X97275000Y-86599994D03*
%TD*%
D42*
%TO.C,Q1*%
X122100000Y-212500000D03*
X124000000Y-212500000D03*
X123050000Y-214375000D03*
%TD*%
D18*
%TO.C,R17*%
X109975000Y-81849994D03*
X111625000Y-81849994D03*
%TD*%
M02*
