%TF.GenerationSoftware,KiCad,Pcbnew,7.0.5*%
%TF.CreationDate,2023-07-27T14:44:28-03:00*%
%TF.ProjectId,Open_Machinist_Calculator,4f70656e-5f4d-4616-9368-696e6973745f,rev?*%
%TF.SameCoordinates,Original*%
%TF.FileFunction,Legend,Bot*%
%TF.FilePolarity,Positive*%
%FSLAX46Y46*%
G04 Gerber Fmt 4.6, Leading zero omitted, Abs format (unit mm)*
G04 Created by KiCad (PCBNEW 7.0.5) date 2023-07-27 14:44:28*
%MOMM*%
%LPD*%
G01*
G04 APERTURE LIST*
G04 Aperture macros list*
%AMRoundRect*
0 Rectangle with rounded corners*
0 $1 Rounding radius*
0 $2 $3 $4 $5 $6 $7 $8 $9 X,Y pos of 4 corners*
0 Add a 4 corners polygon primitive as box body*
4,1,4,$2,$3,$4,$5,$6,$7,$8,$9,$2,$3,0*
0 Add four circle primitives for the rounded corners*
1,1,$1+$1,$2,$3*
1,1,$1+$1,$4,$5*
1,1,$1+$1,$6,$7*
1,1,$1+$1,$8,$9*
0 Add four rect primitives between the rounded corners*
20,1,$1+$1,$2,$3,$4,$5,0*
20,1,$1+$1,$4,$5,$6,$7,0*
20,1,$1+$1,$6,$7,$8,$9,0*
20,1,$1+$1,$8,$9,$2,$3,0*%
G04 Aperture macros list end*
%ADD10C,0.150000*%
%ADD11C,0.110000*%
%ADD12C,0.400000*%
%ADD13C,0.120000*%
%ADD14C,0.281155*%
%ADD15C,0.100000*%
%ADD16C,0.010000*%
%ADD17RoundRect,0.250000X0.350000X0.450000X-0.350000X0.450000X-0.350000X-0.450000X0.350000X-0.450000X0*%
%ADD18RoundRect,0.150000X-0.150000X0.512500X-0.150000X-0.512500X0.150000X-0.512500X0.150000X0.512500X0*%
%ADD19R,1.700000X1.700000*%
%ADD20O,1.700000X1.700000*%
%ADD21RoundRect,0.225000X-0.250000X0.225000X-0.250000X-0.225000X0.250000X-0.225000X0.250000X0.225000X0*%
%ADD22RoundRect,0.250000X0.450000X-0.350000X0.450000X0.350000X-0.450000X0.350000X-0.450000X-0.350000X0*%
%ADD23RoundRect,0.250000X-0.450000X0.350000X-0.450000X-0.350000X0.450000X-0.350000X0.450000X0.350000X0*%
%ADD24RoundRect,0.200000X0.275000X-0.200000X0.275000X0.200000X-0.275000X0.200000X-0.275000X-0.200000X0*%
%ADD25RoundRect,0.250000X-0.350000X-0.450000X0.350000X-0.450000X0.350000X0.450000X-0.350000X0.450000X0*%
%ADD26RoundRect,0.250000X-0.625000X0.400000X-0.625000X-0.400000X0.625000X-0.400000X0.625000X0.400000X0*%
%ADD27C,1.350000*%
%ADD28R,3.000000X1.500000*%
%ADD29O,1.350000X1.350000*%
%ADD30RoundRect,0.200000X-0.200000X-0.275000X0.200000X-0.275000X0.200000X0.275000X-0.200000X0.275000X0*%
%ADD31R,0.375000X0.500000*%
%ADD32R,0.300000X0.650000*%
%ADD33RoundRect,0.250000X-0.350000X-0.625000X0.350000X-0.625000X0.350000X0.625000X-0.350000X0.625000X0*%
%ADD34O,1.200000X1.750000*%
%ADD35RoundRect,0.250000X-0.475000X0.337500X-0.475000X-0.337500X0.475000X-0.337500X0.475000X0.337500X0*%
%ADD36RoundRect,0.225000X-0.225000X-0.250000X0.225000X-0.250000X0.225000X0.250000X-0.225000X0.250000X0*%
%ADD37RoundRect,0.225000X0.225000X0.250000X-0.225000X0.250000X-0.225000X-0.250000X0.225000X-0.250000X0*%
%ADD38RoundRect,0.150000X0.150000X-0.512500X0.150000X0.512500X-0.150000X0.512500X-0.150000X-0.512500X0*%
%ADD39RoundRect,0.250000X0.475000X-0.337500X0.475000X0.337500X-0.475000X0.337500X-0.475000X-0.337500X0*%
%ADD40RoundRect,0.225000X0.250000X-0.225000X0.250000X0.225000X-0.250000X0.225000X-0.250000X-0.225000X0*%
%ADD41RoundRect,0.125000X0.125000X-0.262500X0.125000X0.262500X-0.125000X0.262500X-0.125000X-0.262500X0*%
%ADD42R,4.000000X3.400000*%
%ADD43RoundRect,0.218750X-0.218750X-0.256250X0.218750X-0.256250X0.218750X0.256250X-0.218750X0.256250X0*%
%ADD44R,1.500000X3.000000*%
%ADD45RoundRect,0.127500X-0.127500X0.172500X-0.127500X-0.172500X0.127500X-0.172500X0.127500X0.172500X0*%
%ADD46RoundRect,0.125000X-0.125000X0.175000X-0.125000X-0.175000X0.125000X-0.175000X0.125000X0.175000X0*%
%ADD47RoundRect,0.175000X-0.175000X0.275000X-0.175000X-0.275000X0.175000X-0.275000X0.175000X0.275000X0*%
%ADD48C,0.650000*%
%ADD49R,0.600000X2.450000*%
%ADD50R,0.300000X2.450000*%
%ADD51O,0.200000X0.875000*%
%ADD52O,0.875000X0.200000*%
%ADD53R,0.800000X0.800000*%
%ADD54RoundRect,0.250000X-0.337500X-0.475000X0.337500X-0.475000X0.337500X0.475000X-0.337500X0.475000X0*%
%ADD55R,1.000000X1.150000*%
%ADD56RoundRect,0.225000X-0.375000X0.225000X-0.375000X-0.225000X0.375000X-0.225000X0.375000X0.225000X0*%
%ADD57R,0.900000X1.700000*%
%ADD58RoundRect,0.150000X-0.150000X0.587500X-0.150000X-0.587500X0.150000X-0.587500X0.150000X0.587500X0*%
G04 APERTURE END LIST*
D10*
X117250000Y-78999993D02*
X117850000Y-78399993D01*
X95949999Y-77899994D02*
X95349999Y-77299994D01*
X95150000Y-99499995D02*
X94550000Y-99499995D01*
X94850000Y-99199995D01*
X95150000Y-99499995D01*
G36*
X95150000Y-99499995D02*
G01*
X94550000Y-99499995D01*
X94850000Y-99199995D01*
X95150000Y-99499995D01*
G37*
X95600000Y-100299994D02*
X95450000Y-100749994D01*
X95450000Y-99849994D01*
X95600000Y-100299994D01*
G36*
X95600000Y-100299994D02*
G01*
X95450000Y-100749994D01*
X95450000Y-99849994D01*
X95600000Y-100299994D01*
G37*
D11*
X118049999Y-77899994D02*
G75*
G03*
X118049999Y-77899994I-799999J0D01*
G01*
D10*
X108500000Y-84099994D02*
X108800000Y-84099994D01*
X108800000Y-84299994D01*
X108500000Y-84299994D01*
X108500000Y-84099994D01*
D12*
X117900000Y-100299994D02*
G75*
G03*
X117900000Y-100299994I-650000J0D01*
G01*
D10*
X95450000Y-99799995D02*
X94850000Y-99199995D01*
D13*
X110720000Y-84084994D02*
X109250000Y-84084994D01*
X109250000Y-82614994D02*
X109250000Y-84084994D01*
D10*
X95949999Y-77899994D02*
X95649999Y-78199994D01*
X95649999Y-77599994D01*
X95949999Y-77899994D01*
G36*
X95949999Y-77899994D02*
G01*
X95649999Y-78199994D01*
X95649999Y-77599994D01*
X95949999Y-77899994D01*
G37*
D11*
X95650000Y-77899994D02*
G75*
G03*
X95650000Y-77899994I-800000J0D01*
G01*
X95650000Y-100299994D02*
G75*
G03*
X95650000Y-100299994I-800000J0D01*
G01*
D10*
X116650000Y-78399993D02*
X117250000Y-78999993D01*
X116150000Y-100299994D02*
X116750000Y-100899994D01*
X95649999Y-77599994D02*
X95649999Y-78199994D01*
X95450000Y-78299994D01*
X95450000Y-77499994D01*
X95649999Y-77599994D01*
G36*
X95649999Y-77599994D02*
G01*
X95649999Y-78199994D01*
X95450000Y-78299994D01*
X95450000Y-77499994D01*
X95649999Y-77599994D01*
G37*
X108400000Y-83099994D02*
X108900000Y-83099994D01*
X108900000Y-84099994D01*
X108400000Y-84099994D01*
X108400000Y-83099994D01*
D13*
X110720000Y-82614994D02*
X109250000Y-82614994D01*
D12*
X117900000Y-77899994D02*
G75*
G03*
X117900000Y-77899994I-650000J0D01*
G01*
D14*
X108840577Y-90999994D02*
G75*
G03*
X108840577Y-90999994I-140577J0D01*
G01*
D10*
X94850000Y-99199995D02*
X94250000Y-99799995D01*
X116750000Y-99699994D02*
X116150000Y-100299994D01*
X108400000Y-83099994D02*
X108900000Y-83099994D01*
X108900000Y-83699994D01*
X108400000Y-83699994D01*
X108400000Y-83099994D01*
G36*
X108400000Y-83099994D02*
G01*
X108900000Y-83099994D01*
X108900000Y-83699994D01*
X108400000Y-83699994D01*
X108400000Y-83099994D01*
G37*
X95200000Y-99599994D02*
X95325000Y-99774994D01*
X95000000Y-99649994D01*
X94550000Y-99699994D01*
X94275000Y-99899994D01*
X94375000Y-100874994D01*
X94200000Y-100674994D01*
X94100000Y-100224994D01*
X94175000Y-99974994D01*
X94300000Y-99774994D01*
X94750000Y-99499994D01*
X95200000Y-99599994D01*
G36*
X95200000Y-99599994D02*
G01*
X95325000Y-99774994D01*
X95000000Y-99649994D01*
X94550000Y-99699994D01*
X94275000Y-99899994D01*
X94375000Y-100874994D01*
X94200000Y-100674994D01*
X94100000Y-100224994D01*
X94175000Y-99974994D01*
X94300000Y-99774994D01*
X94750000Y-99499994D01*
X95200000Y-99599994D01*
G37*
X116450000Y-100599994D02*
X116150000Y-100299994D01*
X116450000Y-99999994D01*
X116450000Y-100599994D01*
G36*
X116450000Y-100599994D02*
G01*
X116150000Y-100299994D01*
X116450000Y-99999994D01*
X116450000Y-100599994D01*
G37*
X94350000Y-78449994D02*
X94200000Y-78249994D01*
X94100000Y-77899994D01*
X94200000Y-77549994D01*
X94350000Y-77349994D01*
X94350000Y-78449994D01*
G36*
X94350000Y-78449994D02*
G01*
X94200000Y-78249994D01*
X94100000Y-77899994D01*
X94200000Y-77549994D01*
X94350000Y-77349994D01*
X94350000Y-78449994D01*
G37*
X95349999Y-78499994D02*
X95949999Y-77899994D01*
D15*
X94850000Y-101074994D02*
X94600000Y-101024994D01*
X95150000Y-101024994D01*
X94850000Y-101074994D01*
G36*
X94850000Y-101074994D02*
G01*
X94600000Y-101024994D01*
X95150000Y-101024994D01*
X94850000Y-101074994D01*
G37*
D10*
X117250000Y-78999993D02*
X116950000Y-78699993D01*
X117550000Y-78699993D01*
X117250000Y-78999993D01*
G36*
X117250000Y-78999993D02*
G01*
X116950000Y-78699993D01*
X117550000Y-78699993D01*
X117250000Y-78999993D01*
G37*
%TO.C,R14*%
X103642857Y-122042319D02*
X103976190Y-121566128D01*
X104214285Y-122042319D02*
X104214285Y-121042319D01*
X104214285Y-121042319D02*
X103833333Y-121042319D01*
X103833333Y-121042319D02*
X103738095Y-121089938D01*
X103738095Y-121089938D02*
X103690476Y-121137557D01*
X103690476Y-121137557D02*
X103642857Y-121232795D01*
X103642857Y-121232795D02*
X103642857Y-121375652D01*
X103642857Y-121375652D02*
X103690476Y-121470890D01*
X103690476Y-121470890D02*
X103738095Y-121518509D01*
X103738095Y-121518509D02*
X103833333Y-121566128D01*
X103833333Y-121566128D02*
X104214285Y-121566128D01*
X102690476Y-122042319D02*
X103261904Y-122042319D01*
X102976190Y-122042319D02*
X102976190Y-121042319D01*
X102976190Y-121042319D02*
X103071428Y-121185176D01*
X103071428Y-121185176D02*
X103166666Y-121280414D01*
X103166666Y-121280414D02*
X103261904Y-121328033D01*
X101833333Y-121375652D02*
X101833333Y-122042319D01*
X102071428Y-120994700D02*
X102309523Y-121708985D01*
X102309523Y-121708985D02*
X101690476Y-121708985D01*
%TO.C,Q2*%
X105255057Y-122004761D02*
X105207438Y-121909523D01*
X105207438Y-121909523D02*
X105112200Y-121814285D01*
X105112200Y-121814285D02*
X104969342Y-121671428D01*
X104969342Y-121671428D02*
X104921723Y-121576190D01*
X104921723Y-121576190D02*
X104921723Y-121480952D01*
X105159819Y-121528571D02*
X105112200Y-121433333D01*
X105112200Y-121433333D02*
X105016961Y-121338095D01*
X105016961Y-121338095D02*
X104826485Y-121290476D01*
X104826485Y-121290476D02*
X104493152Y-121290476D01*
X104493152Y-121290476D02*
X104302676Y-121338095D01*
X104302676Y-121338095D02*
X104207438Y-121433333D01*
X104207438Y-121433333D02*
X104159819Y-121528571D01*
X104159819Y-121528571D02*
X104159819Y-121719047D01*
X104159819Y-121719047D02*
X104207438Y-121814285D01*
X104207438Y-121814285D02*
X104302676Y-121909523D01*
X104302676Y-121909523D02*
X104493152Y-121957142D01*
X104493152Y-121957142D02*
X104826485Y-121957142D01*
X104826485Y-121957142D02*
X105016961Y-121909523D01*
X105016961Y-121909523D02*
X105112200Y-121814285D01*
X105112200Y-121814285D02*
X105159819Y-121719047D01*
X105159819Y-121719047D02*
X105159819Y-121528571D01*
X104255057Y-122338095D02*
X104207438Y-122385714D01*
X104207438Y-122385714D02*
X104159819Y-122480952D01*
X104159819Y-122480952D02*
X104159819Y-122719047D01*
X104159819Y-122719047D02*
X104207438Y-122814285D01*
X104207438Y-122814285D02*
X104255057Y-122861904D01*
X104255057Y-122861904D02*
X104350295Y-122909523D01*
X104350295Y-122909523D02*
X104445533Y-122909523D01*
X104445533Y-122909523D02*
X104588390Y-122861904D01*
X104588390Y-122861904D02*
X105159819Y-122290476D01*
X105159819Y-122290476D02*
X105159819Y-122909523D01*
%TO.C,*%
%TO.C,R3*%
X112104819Y-198633333D02*
X111628628Y-198300000D01*
X112104819Y-198061905D02*
X111104819Y-198061905D01*
X111104819Y-198061905D02*
X111104819Y-198442857D01*
X111104819Y-198442857D02*
X111152438Y-198538095D01*
X111152438Y-198538095D02*
X111200057Y-198585714D01*
X111200057Y-198585714D02*
X111295295Y-198633333D01*
X111295295Y-198633333D02*
X111438152Y-198633333D01*
X111438152Y-198633333D02*
X111533390Y-198585714D01*
X111533390Y-198585714D02*
X111581009Y-198538095D01*
X111581009Y-198538095D02*
X111628628Y-198442857D01*
X111628628Y-198442857D02*
X111628628Y-198061905D01*
X111104819Y-198966667D02*
X111104819Y-199585714D01*
X111104819Y-199585714D02*
X111485771Y-199252381D01*
X111485771Y-199252381D02*
X111485771Y-199395238D01*
X111485771Y-199395238D02*
X111533390Y-199490476D01*
X111533390Y-199490476D02*
X111581009Y-199538095D01*
X111581009Y-199538095D02*
X111676247Y-199585714D01*
X111676247Y-199585714D02*
X111914342Y-199585714D01*
X111914342Y-199585714D02*
X112009580Y-199538095D01*
X112009580Y-199538095D02*
X112057200Y-199490476D01*
X112057200Y-199490476D02*
X112104819Y-199395238D01*
X112104819Y-199395238D02*
X112104819Y-199109524D01*
X112104819Y-199109524D02*
X112057200Y-199014286D01*
X112057200Y-199014286D02*
X112009580Y-198966667D01*
%TO.C,R10*%
X125404819Y-212857142D02*
X124928628Y-212523809D01*
X125404819Y-212285714D02*
X124404819Y-212285714D01*
X124404819Y-212285714D02*
X124404819Y-212666666D01*
X124404819Y-212666666D02*
X124452438Y-212761904D01*
X124452438Y-212761904D02*
X124500057Y-212809523D01*
X124500057Y-212809523D02*
X124595295Y-212857142D01*
X124595295Y-212857142D02*
X124738152Y-212857142D01*
X124738152Y-212857142D02*
X124833390Y-212809523D01*
X124833390Y-212809523D02*
X124881009Y-212761904D01*
X124881009Y-212761904D02*
X124928628Y-212666666D01*
X124928628Y-212666666D02*
X124928628Y-212285714D01*
X125404819Y-213809523D02*
X125404819Y-213238095D01*
X125404819Y-213523809D02*
X124404819Y-213523809D01*
X124404819Y-213523809D02*
X124547676Y-213428571D01*
X124547676Y-213428571D02*
X124642914Y-213333333D01*
X124642914Y-213333333D02*
X124690533Y-213238095D01*
X124404819Y-214428571D02*
X124404819Y-214523809D01*
X124404819Y-214523809D02*
X124452438Y-214619047D01*
X124452438Y-214619047D02*
X124500057Y-214666666D01*
X124500057Y-214666666D02*
X124595295Y-214714285D01*
X124595295Y-214714285D02*
X124785771Y-214761904D01*
X124785771Y-214761904D02*
X125023866Y-214761904D01*
X125023866Y-214761904D02*
X125214342Y-214714285D01*
X125214342Y-214714285D02*
X125309580Y-214666666D01*
X125309580Y-214666666D02*
X125357200Y-214619047D01*
X125357200Y-214619047D02*
X125404819Y-214523809D01*
X125404819Y-214523809D02*
X125404819Y-214428571D01*
X125404819Y-214428571D02*
X125357200Y-214333333D01*
X125357200Y-214333333D02*
X125309580Y-214285714D01*
X125309580Y-214285714D02*
X125214342Y-214238095D01*
X125214342Y-214238095D02*
X125023866Y-214190476D01*
X125023866Y-214190476D02*
X124785771Y-214190476D01*
X124785771Y-214190476D02*
X124595295Y-214238095D01*
X124595295Y-214238095D02*
X124500057Y-214285714D01*
X124500057Y-214285714D02*
X124452438Y-214333333D01*
X124452438Y-214333333D02*
X124404819Y-214428571D01*
%TO.C,R9*%
X131004819Y-218533333D02*
X130528628Y-218200000D01*
X131004819Y-217961905D02*
X130004819Y-217961905D01*
X130004819Y-217961905D02*
X130004819Y-218342857D01*
X130004819Y-218342857D02*
X130052438Y-218438095D01*
X130052438Y-218438095D02*
X130100057Y-218485714D01*
X130100057Y-218485714D02*
X130195295Y-218533333D01*
X130195295Y-218533333D02*
X130338152Y-218533333D01*
X130338152Y-218533333D02*
X130433390Y-218485714D01*
X130433390Y-218485714D02*
X130481009Y-218438095D01*
X130481009Y-218438095D02*
X130528628Y-218342857D01*
X130528628Y-218342857D02*
X130528628Y-217961905D01*
X131004819Y-219009524D02*
X131004819Y-219200000D01*
X131004819Y-219200000D02*
X130957200Y-219295238D01*
X130957200Y-219295238D02*
X130909580Y-219342857D01*
X130909580Y-219342857D02*
X130766723Y-219438095D01*
X130766723Y-219438095D02*
X130576247Y-219485714D01*
X130576247Y-219485714D02*
X130195295Y-219485714D01*
X130195295Y-219485714D02*
X130100057Y-219438095D01*
X130100057Y-219438095D02*
X130052438Y-219390476D01*
X130052438Y-219390476D02*
X130004819Y-219295238D01*
X130004819Y-219295238D02*
X130004819Y-219104762D01*
X130004819Y-219104762D02*
X130052438Y-219009524D01*
X130052438Y-219009524D02*
X130100057Y-218961905D01*
X130100057Y-218961905D02*
X130195295Y-218914286D01*
X130195295Y-218914286D02*
X130433390Y-218914286D01*
X130433390Y-218914286D02*
X130528628Y-218961905D01*
X130528628Y-218961905D02*
X130576247Y-219009524D01*
X130576247Y-219009524D02*
X130623866Y-219104762D01*
X130623866Y-219104762D02*
X130623866Y-219295238D01*
X130623866Y-219295238D02*
X130576247Y-219390476D01*
X130576247Y-219390476D02*
X130528628Y-219438095D01*
X130528628Y-219438095D02*
X130433390Y-219485714D01*
%TO.C,R7*%
X110166666Y-211804819D02*
X110499999Y-211328628D01*
X110738094Y-211804819D02*
X110738094Y-210804819D01*
X110738094Y-210804819D02*
X110357142Y-210804819D01*
X110357142Y-210804819D02*
X110261904Y-210852438D01*
X110261904Y-210852438D02*
X110214285Y-210900057D01*
X110214285Y-210900057D02*
X110166666Y-210995295D01*
X110166666Y-210995295D02*
X110166666Y-211138152D01*
X110166666Y-211138152D02*
X110214285Y-211233390D01*
X110214285Y-211233390D02*
X110261904Y-211281009D01*
X110261904Y-211281009D02*
X110357142Y-211328628D01*
X110357142Y-211328628D02*
X110738094Y-211328628D01*
X109833332Y-210804819D02*
X109166666Y-210804819D01*
X109166666Y-210804819D02*
X109595237Y-211804819D01*
%TO.C,*%
%TO.C,F1*%
X111111009Y-216166666D02*
X111111009Y-215833333D01*
X111634819Y-215833333D02*
X110634819Y-215833333D01*
X110634819Y-215833333D02*
X110634819Y-216309523D01*
X111634819Y-217214285D02*
X111634819Y-216642857D01*
X111634819Y-216928571D02*
X110634819Y-216928571D01*
X110634819Y-216928571D02*
X110777676Y-216833333D01*
X110777676Y-216833333D02*
X110872914Y-216738095D01*
X110872914Y-216738095D02*
X110920533Y-216642857D01*
%TO.C,*%
%TO.C,R8*%
X131354819Y-207933333D02*
X130878628Y-207600000D01*
X131354819Y-207361905D02*
X130354819Y-207361905D01*
X130354819Y-207361905D02*
X130354819Y-207742857D01*
X130354819Y-207742857D02*
X130402438Y-207838095D01*
X130402438Y-207838095D02*
X130450057Y-207885714D01*
X130450057Y-207885714D02*
X130545295Y-207933333D01*
X130545295Y-207933333D02*
X130688152Y-207933333D01*
X130688152Y-207933333D02*
X130783390Y-207885714D01*
X130783390Y-207885714D02*
X130831009Y-207838095D01*
X130831009Y-207838095D02*
X130878628Y-207742857D01*
X130878628Y-207742857D02*
X130878628Y-207361905D01*
X130783390Y-208504762D02*
X130735771Y-208409524D01*
X130735771Y-208409524D02*
X130688152Y-208361905D01*
X130688152Y-208361905D02*
X130592914Y-208314286D01*
X130592914Y-208314286D02*
X130545295Y-208314286D01*
X130545295Y-208314286D02*
X130450057Y-208361905D01*
X130450057Y-208361905D02*
X130402438Y-208409524D01*
X130402438Y-208409524D02*
X130354819Y-208504762D01*
X130354819Y-208504762D02*
X130354819Y-208695238D01*
X130354819Y-208695238D02*
X130402438Y-208790476D01*
X130402438Y-208790476D02*
X130450057Y-208838095D01*
X130450057Y-208838095D02*
X130545295Y-208885714D01*
X130545295Y-208885714D02*
X130592914Y-208885714D01*
X130592914Y-208885714D02*
X130688152Y-208838095D01*
X130688152Y-208838095D02*
X130735771Y-208790476D01*
X130735771Y-208790476D02*
X130783390Y-208695238D01*
X130783390Y-208695238D02*
X130783390Y-208504762D01*
X130783390Y-208504762D02*
X130831009Y-208409524D01*
X130831009Y-208409524D02*
X130878628Y-208361905D01*
X130878628Y-208361905D02*
X130973866Y-208314286D01*
X130973866Y-208314286D02*
X131164342Y-208314286D01*
X131164342Y-208314286D02*
X131259580Y-208361905D01*
X131259580Y-208361905D02*
X131307200Y-208409524D01*
X131307200Y-208409524D02*
X131354819Y-208504762D01*
X131354819Y-208504762D02*
X131354819Y-208695238D01*
X131354819Y-208695238D02*
X131307200Y-208790476D01*
X131307200Y-208790476D02*
X131259580Y-208838095D01*
X131259580Y-208838095D02*
X131164342Y-208885714D01*
X131164342Y-208885714D02*
X130973866Y-208885714D01*
X130973866Y-208885714D02*
X130878628Y-208838095D01*
X130878628Y-208838095D02*
X130831009Y-208790476D01*
X130831009Y-208790476D02*
X130783390Y-208695238D01*
%TO.C,U1*%
X107204819Y-210238095D02*
X108014342Y-210238095D01*
X108014342Y-210238095D02*
X108109580Y-210285714D01*
X108109580Y-210285714D02*
X108157200Y-210333333D01*
X108157200Y-210333333D02*
X108204819Y-210428571D01*
X108204819Y-210428571D02*
X108204819Y-210619047D01*
X108204819Y-210619047D02*
X108157200Y-210714285D01*
X108157200Y-210714285D02*
X108109580Y-210761904D01*
X108109580Y-210761904D02*
X108014342Y-210809523D01*
X108014342Y-210809523D02*
X107204819Y-210809523D01*
X108204819Y-211809523D02*
X108204819Y-211238095D01*
X108204819Y-211523809D02*
X107204819Y-211523809D01*
X107204819Y-211523809D02*
X107347676Y-211428571D01*
X107347676Y-211428571D02*
X107442914Y-211333333D01*
X107442914Y-211333333D02*
X107490533Y-211238095D01*
%TO.C,J2*%
X124383333Y-210992319D02*
X124383333Y-211706604D01*
X124383333Y-211706604D02*
X124430952Y-211849461D01*
X124430952Y-211849461D02*
X124526190Y-211944700D01*
X124526190Y-211944700D02*
X124669047Y-211992319D01*
X124669047Y-211992319D02*
X124764285Y-211992319D01*
X123954761Y-211087557D02*
X123907142Y-211039938D01*
X123907142Y-211039938D02*
X123811904Y-210992319D01*
X123811904Y-210992319D02*
X123573809Y-210992319D01*
X123573809Y-210992319D02*
X123478571Y-211039938D01*
X123478571Y-211039938D02*
X123430952Y-211087557D01*
X123430952Y-211087557D02*
X123383333Y-211182795D01*
X123383333Y-211182795D02*
X123383333Y-211278033D01*
X123383333Y-211278033D02*
X123430952Y-211420890D01*
X123430952Y-211420890D02*
X124002380Y-211992319D01*
X124002380Y-211992319D02*
X123383333Y-211992319D01*
%TO.C,C1*%
X113979580Y-218933333D02*
X114027200Y-218885714D01*
X114027200Y-218885714D02*
X114074819Y-218742857D01*
X114074819Y-218742857D02*
X114074819Y-218647619D01*
X114074819Y-218647619D02*
X114027200Y-218504762D01*
X114027200Y-218504762D02*
X113931961Y-218409524D01*
X113931961Y-218409524D02*
X113836723Y-218361905D01*
X113836723Y-218361905D02*
X113646247Y-218314286D01*
X113646247Y-218314286D02*
X113503390Y-218314286D01*
X113503390Y-218314286D02*
X113312914Y-218361905D01*
X113312914Y-218361905D02*
X113217676Y-218409524D01*
X113217676Y-218409524D02*
X113122438Y-218504762D01*
X113122438Y-218504762D02*
X113074819Y-218647619D01*
X113074819Y-218647619D02*
X113074819Y-218742857D01*
X113074819Y-218742857D02*
X113122438Y-218885714D01*
X113122438Y-218885714D02*
X113170057Y-218933333D01*
X114074819Y-219885714D02*
X114074819Y-219314286D01*
X114074819Y-219600000D02*
X113074819Y-219600000D01*
X113074819Y-219600000D02*
X113217676Y-219504762D01*
X113217676Y-219504762D02*
X113312914Y-219409524D01*
X113312914Y-219409524D02*
X113360533Y-219314286D01*
%TO.C,R5*%
X136004819Y-194633333D02*
X135528628Y-194300000D01*
X136004819Y-194061905D02*
X135004819Y-194061905D01*
X135004819Y-194061905D02*
X135004819Y-194442857D01*
X135004819Y-194442857D02*
X135052438Y-194538095D01*
X135052438Y-194538095D02*
X135100057Y-194585714D01*
X135100057Y-194585714D02*
X135195295Y-194633333D01*
X135195295Y-194633333D02*
X135338152Y-194633333D01*
X135338152Y-194633333D02*
X135433390Y-194585714D01*
X135433390Y-194585714D02*
X135481009Y-194538095D01*
X135481009Y-194538095D02*
X135528628Y-194442857D01*
X135528628Y-194442857D02*
X135528628Y-194061905D01*
X135004819Y-195538095D02*
X135004819Y-195061905D01*
X135004819Y-195061905D02*
X135481009Y-195014286D01*
X135481009Y-195014286D02*
X135433390Y-195061905D01*
X135433390Y-195061905D02*
X135385771Y-195157143D01*
X135385771Y-195157143D02*
X135385771Y-195395238D01*
X135385771Y-195395238D02*
X135433390Y-195490476D01*
X135433390Y-195490476D02*
X135481009Y-195538095D01*
X135481009Y-195538095D02*
X135576247Y-195585714D01*
X135576247Y-195585714D02*
X135814342Y-195585714D01*
X135814342Y-195585714D02*
X135909580Y-195538095D01*
X135909580Y-195538095D02*
X135957200Y-195490476D01*
X135957200Y-195490476D02*
X136004819Y-195395238D01*
X136004819Y-195395238D02*
X136004819Y-195157143D01*
X136004819Y-195157143D02*
X135957200Y-195061905D01*
X135957200Y-195061905D02*
X135909580Y-195014286D01*
%TO.C,*%
%TO.C,U2*%
X132054819Y-202738095D02*
X132864342Y-202738095D01*
X132864342Y-202738095D02*
X132959580Y-202785714D01*
X132959580Y-202785714D02*
X133007200Y-202833333D01*
X133007200Y-202833333D02*
X133054819Y-202928571D01*
X133054819Y-202928571D02*
X133054819Y-203119047D01*
X133054819Y-203119047D02*
X133007200Y-203214285D01*
X133007200Y-203214285D02*
X132959580Y-203261904D01*
X132959580Y-203261904D02*
X132864342Y-203309523D01*
X132864342Y-203309523D02*
X132054819Y-203309523D01*
X132150057Y-203738095D02*
X132102438Y-203785714D01*
X132102438Y-203785714D02*
X132054819Y-203880952D01*
X132054819Y-203880952D02*
X132054819Y-204119047D01*
X132054819Y-204119047D02*
X132102438Y-204214285D01*
X132102438Y-204214285D02*
X132150057Y-204261904D01*
X132150057Y-204261904D02*
X132245295Y-204309523D01*
X132245295Y-204309523D02*
X132340533Y-204309523D01*
X132340533Y-204309523D02*
X132483390Y-204261904D01*
X132483390Y-204261904D02*
X133054819Y-203690476D01*
X133054819Y-203690476D02*
X133054819Y-204309523D01*
%TO.C,R11*%
X130904819Y-212857142D02*
X130428628Y-212523809D01*
X130904819Y-212285714D02*
X129904819Y-212285714D01*
X129904819Y-212285714D02*
X129904819Y-212666666D01*
X129904819Y-212666666D02*
X129952438Y-212761904D01*
X129952438Y-212761904D02*
X130000057Y-212809523D01*
X130000057Y-212809523D02*
X130095295Y-212857142D01*
X130095295Y-212857142D02*
X130238152Y-212857142D01*
X130238152Y-212857142D02*
X130333390Y-212809523D01*
X130333390Y-212809523D02*
X130381009Y-212761904D01*
X130381009Y-212761904D02*
X130428628Y-212666666D01*
X130428628Y-212666666D02*
X130428628Y-212285714D01*
X130904819Y-213809523D02*
X130904819Y-213238095D01*
X130904819Y-213523809D02*
X129904819Y-213523809D01*
X129904819Y-213523809D02*
X130047676Y-213428571D01*
X130047676Y-213428571D02*
X130142914Y-213333333D01*
X130142914Y-213333333D02*
X130190533Y-213238095D01*
X130904819Y-214761904D02*
X130904819Y-214190476D01*
X130904819Y-214476190D02*
X129904819Y-214476190D01*
X129904819Y-214476190D02*
X130047676Y-214380952D01*
X130047676Y-214380952D02*
X130142914Y-214285714D01*
X130142914Y-214285714D02*
X130190533Y-214190476D01*
%TO.C,C2*%
X133039580Y-213333333D02*
X133087200Y-213285714D01*
X133087200Y-213285714D02*
X133134819Y-213142857D01*
X133134819Y-213142857D02*
X133134819Y-213047619D01*
X133134819Y-213047619D02*
X133087200Y-212904762D01*
X133087200Y-212904762D02*
X132991961Y-212809524D01*
X132991961Y-212809524D02*
X132896723Y-212761905D01*
X132896723Y-212761905D02*
X132706247Y-212714286D01*
X132706247Y-212714286D02*
X132563390Y-212714286D01*
X132563390Y-212714286D02*
X132372914Y-212761905D01*
X132372914Y-212761905D02*
X132277676Y-212809524D01*
X132277676Y-212809524D02*
X132182438Y-212904762D01*
X132182438Y-212904762D02*
X132134819Y-213047619D01*
X132134819Y-213047619D02*
X132134819Y-213142857D01*
X132134819Y-213142857D02*
X132182438Y-213285714D01*
X132182438Y-213285714D02*
X132230057Y-213333333D01*
X132230057Y-213714286D02*
X132182438Y-213761905D01*
X132182438Y-213761905D02*
X132134819Y-213857143D01*
X132134819Y-213857143D02*
X132134819Y-214095238D01*
X132134819Y-214095238D02*
X132182438Y-214190476D01*
X132182438Y-214190476D02*
X132230057Y-214238095D01*
X132230057Y-214238095D02*
X132325295Y-214285714D01*
X132325295Y-214285714D02*
X132420533Y-214285714D01*
X132420533Y-214285714D02*
X132563390Y-214238095D01*
X132563390Y-214238095D02*
X133134819Y-213666667D01*
X133134819Y-213666667D02*
X133134819Y-214285714D01*
%TO.C,*%
%TO.C,R1*%
X88104819Y-198633333D02*
X87628628Y-198300000D01*
X88104819Y-198061905D02*
X87104819Y-198061905D01*
X87104819Y-198061905D02*
X87104819Y-198442857D01*
X87104819Y-198442857D02*
X87152438Y-198538095D01*
X87152438Y-198538095D02*
X87200057Y-198585714D01*
X87200057Y-198585714D02*
X87295295Y-198633333D01*
X87295295Y-198633333D02*
X87438152Y-198633333D01*
X87438152Y-198633333D02*
X87533390Y-198585714D01*
X87533390Y-198585714D02*
X87581009Y-198538095D01*
X87581009Y-198538095D02*
X87628628Y-198442857D01*
X87628628Y-198442857D02*
X87628628Y-198061905D01*
X88104819Y-199585714D02*
X88104819Y-199014286D01*
X88104819Y-199300000D02*
X87104819Y-199300000D01*
X87104819Y-199300000D02*
X87247676Y-199204762D01*
X87247676Y-199204762D02*
X87342914Y-199109524D01*
X87342914Y-199109524D02*
X87390533Y-199014286D01*
%TO.C,C4*%
X135339580Y-201233333D02*
X135387200Y-201185714D01*
X135387200Y-201185714D02*
X135434819Y-201042857D01*
X135434819Y-201042857D02*
X135434819Y-200947619D01*
X135434819Y-200947619D02*
X135387200Y-200804762D01*
X135387200Y-200804762D02*
X135291961Y-200709524D01*
X135291961Y-200709524D02*
X135196723Y-200661905D01*
X135196723Y-200661905D02*
X135006247Y-200614286D01*
X135006247Y-200614286D02*
X134863390Y-200614286D01*
X134863390Y-200614286D02*
X134672914Y-200661905D01*
X134672914Y-200661905D02*
X134577676Y-200709524D01*
X134577676Y-200709524D02*
X134482438Y-200804762D01*
X134482438Y-200804762D02*
X134434819Y-200947619D01*
X134434819Y-200947619D02*
X134434819Y-201042857D01*
X134434819Y-201042857D02*
X134482438Y-201185714D01*
X134482438Y-201185714D02*
X134530057Y-201233333D01*
X134768152Y-202090476D02*
X135434819Y-202090476D01*
X134387200Y-201852381D02*
X135101485Y-201614286D01*
X135101485Y-201614286D02*
X135101485Y-202233333D01*
%TO.C,C3*%
X131979580Y-205533333D02*
X132027200Y-205485714D01*
X132027200Y-205485714D02*
X132074819Y-205342857D01*
X132074819Y-205342857D02*
X132074819Y-205247619D01*
X132074819Y-205247619D02*
X132027200Y-205104762D01*
X132027200Y-205104762D02*
X131931961Y-205009524D01*
X131931961Y-205009524D02*
X131836723Y-204961905D01*
X131836723Y-204961905D02*
X131646247Y-204914286D01*
X131646247Y-204914286D02*
X131503390Y-204914286D01*
X131503390Y-204914286D02*
X131312914Y-204961905D01*
X131312914Y-204961905D02*
X131217676Y-205009524D01*
X131217676Y-205009524D02*
X131122438Y-205104762D01*
X131122438Y-205104762D02*
X131074819Y-205247619D01*
X131074819Y-205247619D02*
X131074819Y-205342857D01*
X131074819Y-205342857D02*
X131122438Y-205485714D01*
X131122438Y-205485714D02*
X131170057Y-205533333D01*
X131074819Y-205866667D02*
X131074819Y-206485714D01*
X131074819Y-206485714D02*
X131455771Y-206152381D01*
X131455771Y-206152381D02*
X131455771Y-206295238D01*
X131455771Y-206295238D02*
X131503390Y-206390476D01*
X131503390Y-206390476D02*
X131551009Y-206438095D01*
X131551009Y-206438095D02*
X131646247Y-206485714D01*
X131646247Y-206485714D02*
X131884342Y-206485714D01*
X131884342Y-206485714D02*
X131979580Y-206438095D01*
X131979580Y-206438095D02*
X132027200Y-206390476D01*
X132027200Y-206390476D02*
X132074819Y-206295238D01*
X132074819Y-206295238D02*
X132074819Y-206009524D01*
X132074819Y-206009524D02*
X132027200Y-205914286D01*
X132027200Y-205914286D02*
X131979580Y-205866667D01*
%TO.C,SW2*%
X132727200Y-106326667D02*
X132774819Y-106469524D01*
X132774819Y-106469524D02*
X132774819Y-106707619D01*
X132774819Y-106707619D02*
X132727200Y-106802857D01*
X132727200Y-106802857D02*
X132679580Y-106850476D01*
X132679580Y-106850476D02*
X132584342Y-106898095D01*
X132584342Y-106898095D02*
X132489104Y-106898095D01*
X132489104Y-106898095D02*
X132393866Y-106850476D01*
X132393866Y-106850476D02*
X132346247Y-106802857D01*
X132346247Y-106802857D02*
X132298628Y-106707619D01*
X132298628Y-106707619D02*
X132251009Y-106517143D01*
X132251009Y-106517143D02*
X132203390Y-106421905D01*
X132203390Y-106421905D02*
X132155771Y-106374286D01*
X132155771Y-106374286D02*
X132060533Y-106326667D01*
X132060533Y-106326667D02*
X131965295Y-106326667D01*
X131965295Y-106326667D02*
X131870057Y-106374286D01*
X131870057Y-106374286D02*
X131822438Y-106421905D01*
X131822438Y-106421905D02*
X131774819Y-106517143D01*
X131774819Y-106517143D02*
X131774819Y-106755238D01*
X131774819Y-106755238D02*
X131822438Y-106898095D01*
X131774819Y-107231429D02*
X132774819Y-107469524D01*
X132774819Y-107469524D02*
X132060533Y-107660000D01*
X132060533Y-107660000D02*
X132774819Y-107850476D01*
X132774819Y-107850476D02*
X131774819Y-108088572D01*
X131870057Y-108421905D02*
X131822438Y-108469524D01*
X131822438Y-108469524D02*
X131774819Y-108564762D01*
X131774819Y-108564762D02*
X131774819Y-108802857D01*
X131774819Y-108802857D02*
X131822438Y-108898095D01*
X131822438Y-108898095D02*
X131870057Y-108945714D01*
X131870057Y-108945714D02*
X131965295Y-108993333D01*
X131965295Y-108993333D02*
X132060533Y-108993333D01*
X132060533Y-108993333D02*
X132203390Y-108945714D01*
X132203390Y-108945714D02*
X132774819Y-108374286D01*
X132774819Y-108374286D02*
X132774819Y-108993333D01*
%TO.C,R6*%
X102366666Y-208504819D02*
X102699999Y-208028628D01*
X102938094Y-208504819D02*
X102938094Y-207504819D01*
X102938094Y-207504819D02*
X102557142Y-207504819D01*
X102557142Y-207504819D02*
X102461904Y-207552438D01*
X102461904Y-207552438D02*
X102414285Y-207600057D01*
X102414285Y-207600057D02*
X102366666Y-207695295D01*
X102366666Y-207695295D02*
X102366666Y-207838152D01*
X102366666Y-207838152D02*
X102414285Y-207933390D01*
X102414285Y-207933390D02*
X102461904Y-207981009D01*
X102461904Y-207981009D02*
X102557142Y-208028628D01*
X102557142Y-208028628D02*
X102938094Y-208028628D01*
X101509523Y-207504819D02*
X101699999Y-207504819D01*
X101699999Y-207504819D02*
X101795237Y-207552438D01*
X101795237Y-207552438D02*
X101842856Y-207600057D01*
X101842856Y-207600057D02*
X101938094Y-207742914D01*
X101938094Y-207742914D02*
X101985713Y-207933390D01*
X101985713Y-207933390D02*
X101985713Y-208314342D01*
X101985713Y-208314342D02*
X101938094Y-208409580D01*
X101938094Y-208409580D02*
X101890475Y-208457200D01*
X101890475Y-208457200D02*
X101795237Y-208504819D01*
X101795237Y-208504819D02*
X101604761Y-208504819D01*
X101604761Y-208504819D02*
X101509523Y-208457200D01*
X101509523Y-208457200D02*
X101461904Y-208409580D01*
X101461904Y-208409580D02*
X101414285Y-208314342D01*
X101414285Y-208314342D02*
X101414285Y-208076247D01*
X101414285Y-208076247D02*
X101461904Y-207981009D01*
X101461904Y-207981009D02*
X101509523Y-207933390D01*
X101509523Y-207933390D02*
X101604761Y-207885771D01*
X101604761Y-207885771D02*
X101795237Y-207885771D01*
X101795237Y-207885771D02*
X101890475Y-207933390D01*
X101890475Y-207933390D02*
X101938094Y-207981009D01*
X101938094Y-207981009D02*
X101985713Y-208076247D01*
%TO.C,R2*%
X100104819Y-198633333D02*
X99628628Y-198300000D01*
X100104819Y-198061905D02*
X99104819Y-198061905D01*
X99104819Y-198061905D02*
X99104819Y-198442857D01*
X99104819Y-198442857D02*
X99152438Y-198538095D01*
X99152438Y-198538095D02*
X99200057Y-198585714D01*
X99200057Y-198585714D02*
X99295295Y-198633333D01*
X99295295Y-198633333D02*
X99438152Y-198633333D01*
X99438152Y-198633333D02*
X99533390Y-198585714D01*
X99533390Y-198585714D02*
X99581009Y-198538095D01*
X99581009Y-198538095D02*
X99628628Y-198442857D01*
X99628628Y-198442857D02*
X99628628Y-198061905D01*
X99200057Y-199014286D02*
X99152438Y-199061905D01*
X99152438Y-199061905D02*
X99104819Y-199157143D01*
X99104819Y-199157143D02*
X99104819Y-199395238D01*
X99104819Y-199395238D02*
X99152438Y-199490476D01*
X99152438Y-199490476D02*
X99200057Y-199538095D01*
X99200057Y-199538095D02*
X99295295Y-199585714D01*
X99295295Y-199585714D02*
X99390533Y-199585714D01*
X99390533Y-199585714D02*
X99533390Y-199538095D01*
X99533390Y-199538095D02*
X100104819Y-198966667D01*
X100104819Y-198966667D02*
X100104819Y-199585714D01*
%TO.C,J1*%
X106353333Y-212274819D02*
X106353333Y-212989104D01*
X106353333Y-212989104D02*
X106400952Y-213131961D01*
X106400952Y-213131961D02*
X106496190Y-213227200D01*
X106496190Y-213227200D02*
X106639047Y-213274819D01*
X106639047Y-213274819D02*
X106734285Y-213274819D01*
X105353333Y-213274819D02*
X105924761Y-213274819D01*
X105639047Y-213274819D02*
X105639047Y-212274819D01*
X105639047Y-212274819D02*
X105734285Y-212417676D01*
X105734285Y-212417676D02*
X105829523Y-212512914D01*
X105829523Y-212512914D02*
X105924761Y-212560533D01*
%TO.C,R4*%
X124104819Y-198633333D02*
X123628628Y-198300000D01*
X124104819Y-198061905D02*
X123104819Y-198061905D01*
X123104819Y-198061905D02*
X123104819Y-198442857D01*
X123104819Y-198442857D02*
X123152438Y-198538095D01*
X123152438Y-198538095D02*
X123200057Y-198585714D01*
X123200057Y-198585714D02*
X123295295Y-198633333D01*
X123295295Y-198633333D02*
X123438152Y-198633333D01*
X123438152Y-198633333D02*
X123533390Y-198585714D01*
X123533390Y-198585714D02*
X123581009Y-198538095D01*
X123581009Y-198538095D02*
X123628628Y-198442857D01*
X123628628Y-198442857D02*
X123628628Y-198061905D01*
X123438152Y-199490476D02*
X124104819Y-199490476D01*
X123057200Y-199252381D02*
X123771485Y-199014286D01*
X123771485Y-199014286D02*
X123771485Y-199633333D01*
%TO.C,C5*%
X122766666Y-222039580D02*
X122814285Y-222087200D01*
X122814285Y-222087200D02*
X122957142Y-222134819D01*
X122957142Y-222134819D02*
X123052380Y-222134819D01*
X123052380Y-222134819D02*
X123195237Y-222087200D01*
X123195237Y-222087200D02*
X123290475Y-221991961D01*
X123290475Y-221991961D02*
X123338094Y-221896723D01*
X123338094Y-221896723D02*
X123385713Y-221706247D01*
X123385713Y-221706247D02*
X123385713Y-221563390D01*
X123385713Y-221563390D02*
X123338094Y-221372914D01*
X123338094Y-221372914D02*
X123290475Y-221277676D01*
X123290475Y-221277676D02*
X123195237Y-221182438D01*
X123195237Y-221182438D02*
X123052380Y-221134819D01*
X123052380Y-221134819D02*
X122957142Y-221134819D01*
X122957142Y-221134819D02*
X122814285Y-221182438D01*
X122814285Y-221182438D02*
X122766666Y-221230057D01*
X121861904Y-221134819D02*
X122338094Y-221134819D01*
X122338094Y-221134819D02*
X122385713Y-221611009D01*
X122385713Y-221611009D02*
X122338094Y-221563390D01*
X122338094Y-221563390D02*
X122242856Y-221515771D01*
X122242856Y-221515771D02*
X122004761Y-221515771D01*
X122004761Y-221515771D02*
X121909523Y-221563390D01*
X121909523Y-221563390D02*
X121861904Y-221611009D01*
X121861904Y-221611009D02*
X121814285Y-221706247D01*
X121814285Y-221706247D02*
X121814285Y-221944342D01*
X121814285Y-221944342D02*
X121861904Y-222039580D01*
X121861904Y-222039580D02*
X121909523Y-222087200D01*
X121909523Y-222087200D02*
X122004761Y-222134819D01*
X122004761Y-222134819D02*
X122242856Y-222134819D01*
X122242856Y-222134819D02*
X122338094Y-222087200D01*
X122338094Y-222087200D02*
X122385713Y-222039580D01*
%TO.C,D1*%
X132254819Y-210061905D02*
X131254819Y-210061905D01*
X131254819Y-210061905D02*
X131254819Y-210300000D01*
X131254819Y-210300000D02*
X131302438Y-210442857D01*
X131302438Y-210442857D02*
X131397676Y-210538095D01*
X131397676Y-210538095D02*
X131492914Y-210585714D01*
X131492914Y-210585714D02*
X131683390Y-210633333D01*
X131683390Y-210633333D02*
X131826247Y-210633333D01*
X131826247Y-210633333D02*
X132016723Y-210585714D01*
X132016723Y-210585714D02*
X132111961Y-210538095D01*
X132111961Y-210538095D02*
X132207200Y-210442857D01*
X132207200Y-210442857D02*
X132254819Y-210300000D01*
X132254819Y-210300000D02*
X132254819Y-210061905D01*
X132254819Y-211585714D02*
X132254819Y-211014286D01*
X132254819Y-211300000D02*
X131254819Y-211300000D01*
X131254819Y-211300000D02*
X131397676Y-211204762D01*
X131397676Y-211204762D02*
X131492914Y-211109524D01*
X131492914Y-211109524D02*
X131540533Y-211014286D01*
%TO.C,Q1*%
X121200057Y-213342261D02*
X121152438Y-213247023D01*
X121152438Y-213247023D02*
X121057200Y-213151785D01*
X121057200Y-213151785D02*
X120914342Y-213008928D01*
X120914342Y-213008928D02*
X120866723Y-212913690D01*
X120866723Y-212913690D02*
X120866723Y-212818452D01*
X121104819Y-212866071D02*
X121057200Y-212770833D01*
X121057200Y-212770833D02*
X120961961Y-212675595D01*
X120961961Y-212675595D02*
X120771485Y-212627976D01*
X120771485Y-212627976D02*
X120438152Y-212627976D01*
X120438152Y-212627976D02*
X120247676Y-212675595D01*
X120247676Y-212675595D02*
X120152438Y-212770833D01*
X120152438Y-212770833D02*
X120104819Y-212866071D01*
X120104819Y-212866071D02*
X120104819Y-213056547D01*
X120104819Y-213056547D02*
X120152438Y-213151785D01*
X120152438Y-213151785D02*
X120247676Y-213247023D01*
X120247676Y-213247023D02*
X120438152Y-213294642D01*
X120438152Y-213294642D02*
X120771485Y-213294642D01*
X120771485Y-213294642D02*
X120961961Y-213247023D01*
X120961961Y-213247023D02*
X121057200Y-213151785D01*
X121057200Y-213151785D02*
X121104819Y-213056547D01*
X121104819Y-213056547D02*
X121104819Y-212866071D01*
X121104819Y-214247023D02*
X121104819Y-213675595D01*
X121104819Y-213961309D02*
X120104819Y-213961309D01*
X120104819Y-213961309D02*
X120247676Y-213866071D01*
X120247676Y-213866071D02*
X120342914Y-213770833D01*
X120342914Y-213770833D02*
X120390533Y-213675595D01*
D13*
%TO.C,R14*%
X103227064Y-122502500D02*
X102772936Y-122502500D01*
X103227064Y-123972500D02*
X102772936Y-123972500D01*
%TO.C,Q2*%
X105545000Y-122100000D02*
X105545000Y-120300000D01*
X105545000Y-122100000D02*
X105545000Y-122900000D01*
X108665000Y-122100000D02*
X108665000Y-121300000D01*
X108665000Y-122100000D02*
X108665000Y-122900000D01*
%TO.C,*%
D16*
X117350000Y-100209994D02*
X117400000Y-100219994D01*
X117440000Y-100239994D01*
X117460000Y-100269994D01*
X117460000Y-100309994D01*
X117450000Y-100349994D01*
X117420000Y-100369994D01*
X117370000Y-100389994D01*
X117310000Y-100399994D01*
X117230000Y-100399994D01*
X117170000Y-100389994D01*
X117120000Y-100379994D01*
X117080000Y-100349994D01*
X117070000Y-100319994D01*
X117070000Y-100299994D01*
X117080000Y-100259994D01*
X117100000Y-100239994D01*
X117140000Y-100219994D01*
X117200000Y-100199994D01*
X117280000Y-100199994D01*
X117350000Y-100209994D01*
G36*
X117350000Y-100209994D02*
G01*
X117400000Y-100219994D01*
X117440000Y-100239994D01*
X117460000Y-100269994D01*
X117460000Y-100309994D01*
X117450000Y-100349994D01*
X117420000Y-100369994D01*
X117370000Y-100389994D01*
X117310000Y-100399994D01*
X117230000Y-100399994D01*
X117170000Y-100389994D01*
X117120000Y-100379994D01*
X117080000Y-100349994D01*
X117070000Y-100319994D01*
X117070000Y-100299994D01*
X117080000Y-100259994D01*
X117100000Y-100239994D01*
X117140000Y-100219994D01*
X117200000Y-100199994D01*
X117280000Y-100199994D01*
X117350000Y-100209994D01*
G37*
X117760000Y-99689994D02*
X117760000Y-100599994D01*
X117760000Y-100629994D01*
X117760000Y-100829994D01*
X117730000Y-100849994D01*
X116770000Y-100849994D01*
X116740000Y-100829994D01*
X116740000Y-100299994D01*
X116890000Y-100299994D01*
X116900000Y-100349994D01*
X116910000Y-100399994D01*
X116940000Y-100449994D01*
X116970000Y-100489994D01*
X117000000Y-100509994D01*
X117050000Y-100539994D01*
X117100000Y-100549994D01*
X117140000Y-100559994D01*
X117190000Y-100569994D01*
X117250000Y-100569994D01*
X117300000Y-100569994D01*
X117360000Y-100569994D01*
X117400000Y-100559994D01*
X117450000Y-100539994D01*
X117500000Y-100519994D01*
X117540000Y-100499994D01*
X117580000Y-100469994D01*
X117600000Y-100429994D01*
X117620000Y-100379994D01*
X117630000Y-100329994D01*
X117640000Y-100279994D01*
X117630000Y-100229994D01*
X117610000Y-100179994D01*
X117580000Y-100139994D01*
X117540000Y-100109994D01*
X117500000Y-100079994D01*
X117450000Y-100059994D01*
X117400000Y-100049994D01*
X117360000Y-100039994D01*
X117300000Y-100029994D01*
X117250000Y-100029994D01*
X117190000Y-100029994D01*
X117140000Y-100039994D01*
X117090000Y-100049994D01*
X117050000Y-100069994D01*
X117010000Y-100089994D01*
X116970000Y-100119994D01*
X116940000Y-100159994D01*
X116910000Y-100199994D01*
X116900000Y-100249994D01*
X116890000Y-100299994D01*
X116740000Y-100299994D01*
X116740000Y-99659994D01*
X116780000Y-99649994D01*
X117740000Y-99649994D01*
X117760000Y-99689994D01*
G36*
X117760000Y-99689994D02*
G01*
X117760000Y-100599994D01*
X117760000Y-100629994D01*
X117760000Y-100829994D01*
X117730000Y-100849994D01*
X116770000Y-100849994D01*
X116740000Y-100829994D01*
X116740000Y-100299994D01*
X116890000Y-100299994D01*
X116900000Y-100349994D01*
X116910000Y-100399994D01*
X116940000Y-100449994D01*
X116970000Y-100489994D01*
X117000000Y-100509994D01*
X117050000Y-100539994D01*
X117100000Y-100549994D01*
X117140000Y-100559994D01*
X117190000Y-100569994D01*
X117250000Y-100569994D01*
X117300000Y-100569994D01*
X117360000Y-100569994D01*
X117400000Y-100559994D01*
X117450000Y-100539994D01*
X117500000Y-100519994D01*
X117540000Y-100499994D01*
X117580000Y-100469994D01*
X117600000Y-100429994D01*
X117620000Y-100379994D01*
X117630000Y-100329994D01*
X117640000Y-100279994D01*
X117630000Y-100229994D01*
X117610000Y-100179994D01*
X117580000Y-100139994D01*
X117540000Y-100109994D01*
X117500000Y-100079994D01*
X117450000Y-100059994D01*
X117400000Y-100049994D01*
X117360000Y-100039994D01*
X117300000Y-100029994D01*
X117250000Y-100029994D01*
X117190000Y-100029994D01*
X117140000Y-100039994D01*
X117090000Y-100049994D01*
X117050000Y-100069994D01*
X117010000Y-100089994D01*
X116970000Y-100119994D01*
X116940000Y-100159994D01*
X116910000Y-100199994D01*
X116900000Y-100249994D01*
X116890000Y-100299994D01*
X116740000Y-100299994D01*
X116740000Y-99659994D01*
X116780000Y-99649994D01*
X117740000Y-99649994D01*
X117760000Y-99689994D01*
G37*
D13*
%TO.C,C6*%
X109660000Y-93259414D02*
X109660000Y-93540574D01*
X108640000Y-93259414D02*
X108640000Y-93540574D01*
%TO.C,R3*%
X109265000Y-199027064D02*
X109265000Y-198572936D01*
X110735000Y-199027064D02*
X110735000Y-198572936D01*
%TO.C,R10*%
X127335000Y-213272936D02*
X127335000Y-213727064D01*
X125865000Y-213272936D02*
X125865000Y-213727064D01*
%TO.C,R12*%
X113277500Y-97537252D02*
X113277500Y-97062736D01*
X114322500Y-97537252D02*
X114322500Y-97062736D01*
%TO.C,U4*%
X115610000Y-81849994D02*
X115610000Y-81049994D01*
X115610000Y-81849994D02*
X115610000Y-82649994D01*
X112490000Y-81849994D02*
X112490000Y-80049994D01*
X112490000Y-81849994D02*
X112490000Y-82649994D01*
%TO.C,R9*%
X128165000Y-218927064D02*
X128165000Y-218472936D01*
X129635000Y-218927064D02*
X129635000Y-218472936D01*
%TO.C,R7*%
X109772936Y-208965000D02*
X110227064Y-208965000D01*
X109772936Y-210435000D02*
X110227064Y-210435000D01*
%TO.C,*%
D16*
X106330000Y-97739994D02*
X106380000Y-97779994D01*
X106410000Y-97839994D01*
X106410000Y-97979994D01*
X106370000Y-98009994D01*
X106240000Y-98009994D01*
X106180000Y-97959994D01*
X106180000Y-97829994D01*
X106210000Y-97769994D01*
X106260000Y-97729994D01*
X106330000Y-97739994D01*
G36*
X106330000Y-97739994D02*
G01*
X106380000Y-97779994D01*
X106410000Y-97839994D01*
X106410000Y-97979994D01*
X106370000Y-98009994D01*
X106240000Y-98009994D01*
X106180000Y-97959994D01*
X106180000Y-97829994D01*
X106210000Y-97769994D01*
X106260000Y-97729994D01*
X106330000Y-97739994D01*
G37*
X106340000Y-96799994D02*
X106390000Y-96849994D01*
X106400000Y-96909994D01*
X106400000Y-97049994D01*
X106350000Y-97059994D01*
X106210000Y-97059994D01*
X106170000Y-97039994D01*
X106170000Y-96899994D01*
X106210000Y-96809994D01*
X106270000Y-96779994D01*
X106340000Y-96799994D01*
G36*
X106340000Y-96799994D02*
G01*
X106390000Y-96849994D01*
X106400000Y-96909994D01*
X106400000Y-97049994D01*
X106350000Y-97059994D01*
X106210000Y-97059994D01*
X106170000Y-97039994D01*
X106170000Y-96899994D01*
X106210000Y-96809994D01*
X106270000Y-96779994D01*
X106340000Y-96799994D01*
G37*
X106280000Y-94939994D02*
X106350000Y-94959994D01*
X106400000Y-94989994D01*
X106430000Y-95029994D01*
X106430000Y-95079994D01*
X106420000Y-95129994D01*
X106380000Y-95159994D01*
X106320000Y-95179994D01*
X106230000Y-95199994D01*
X106130000Y-95199994D01*
X106040000Y-95189994D01*
X105970000Y-95169994D01*
X105930000Y-95129994D01*
X105910000Y-95089994D01*
X105920000Y-95019994D01*
X105950000Y-94979994D01*
X106010000Y-94949994D01*
X106090000Y-94939994D01*
X106180000Y-94929994D01*
X106280000Y-94939994D01*
G36*
X106280000Y-94939994D02*
G01*
X106350000Y-94959994D01*
X106400000Y-94989994D01*
X106430000Y-95029994D01*
X106430000Y-95079994D01*
X106420000Y-95129994D01*
X106380000Y-95159994D01*
X106320000Y-95179994D01*
X106230000Y-95199994D01*
X106130000Y-95199994D01*
X106040000Y-95189994D01*
X105970000Y-95169994D01*
X105930000Y-95129994D01*
X105910000Y-95089994D01*
X105920000Y-95019994D01*
X105950000Y-94979994D01*
X106010000Y-94949994D01*
X106090000Y-94939994D01*
X106180000Y-94929994D01*
X106280000Y-94939994D01*
G37*
X106360000Y-93129994D02*
X106410000Y-93159994D01*
X106430000Y-93209994D01*
X106430000Y-93259994D01*
X106410000Y-93299994D01*
X106370000Y-93339994D01*
X106310000Y-93359994D01*
X106220000Y-93369994D01*
X106110000Y-93369994D01*
X106030000Y-93359994D01*
X105970000Y-93329994D01*
X105920000Y-93299994D01*
X105910000Y-93259994D01*
X105910000Y-93229994D01*
X105920000Y-93179994D01*
X105960000Y-93149994D01*
X106020000Y-93119994D01*
X106100000Y-93109994D01*
X106200000Y-93109994D01*
X106290000Y-93109994D01*
X106360000Y-93129994D01*
G36*
X106360000Y-93129994D02*
G01*
X106410000Y-93159994D01*
X106430000Y-93209994D01*
X106430000Y-93259994D01*
X106410000Y-93299994D01*
X106370000Y-93339994D01*
X106310000Y-93359994D01*
X106220000Y-93369994D01*
X106110000Y-93369994D01*
X106030000Y-93359994D01*
X105970000Y-93329994D01*
X105920000Y-93299994D01*
X105910000Y-93259994D01*
X105910000Y-93229994D01*
X105920000Y-93179994D01*
X105960000Y-93149994D01*
X106020000Y-93119994D01*
X106100000Y-93109994D01*
X106200000Y-93109994D01*
X106290000Y-93109994D01*
X106360000Y-93129994D01*
G37*
X106830000Y-92059994D02*
X106830000Y-98629994D01*
X106820000Y-98629994D01*
X106590000Y-98239994D01*
X106630000Y-98199994D01*
X106640000Y-98119994D01*
X106640000Y-97849994D01*
X106630000Y-97789994D01*
X106610000Y-97719994D01*
X106580000Y-97659994D01*
X106540000Y-97609994D01*
X106490000Y-97559994D01*
X106430000Y-97529994D01*
X106360000Y-97509994D01*
X106290000Y-97499994D01*
X106220000Y-97509994D01*
X106160000Y-97529994D01*
X106100000Y-97559994D01*
X106050000Y-97599994D01*
X105870000Y-97529994D01*
X105810000Y-97499994D01*
X105760000Y-97499994D01*
X105760000Y-97289994D01*
X105820000Y-97289994D01*
X106500000Y-97289994D01*
X106570000Y-97289994D01*
X106620000Y-97259994D01*
X106630000Y-97189994D01*
X106630000Y-96909994D01*
X106630000Y-96849994D01*
X106610000Y-96789994D01*
X106580000Y-96719994D01*
X106540000Y-96669994D01*
X106490000Y-96619994D01*
X106430000Y-96579994D01*
X106370000Y-96549994D01*
X106360000Y-96549994D01*
X106300000Y-96549994D01*
X106270000Y-96369994D01*
X106340000Y-96369994D01*
X106410000Y-96349994D01*
X106470000Y-96329994D01*
X106520000Y-96289994D01*
X106570000Y-96239994D01*
X106610000Y-96179994D01*
X106630000Y-96119994D01*
X106640000Y-96049994D01*
X106640000Y-95979994D01*
X106630000Y-95909994D01*
X106600000Y-95849994D01*
X106570000Y-95799994D01*
X106520000Y-95749994D01*
X106460000Y-95709994D01*
X106400000Y-95689994D01*
X106330000Y-95679994D01*
X106270000Y-95669994D01*
X106220000Y-95429994D01*
X106290000Y-95419994D01*
X106350000Y-95409994D01*
X106420000Y-95389994D01*
X106480000Y-95359994D01*
X106540000Y-95329994D01*
X106590000Y-95289994D01*
X106620000Y-95239994D01*
X106650000Y-95179994D01*
X106660000Y-95119994D01*
X106660000Y-95049994D01*
X106650000Y-94979994D01*
X106630000Y-94919994D01*
X106590000Y-94859994D01*
X106550000Y-94809994D01*
X106490000Y-94769994D01*
X106430000Y-94749994D01*
X106360000Y-94729994D01*
X106300000Y-94709994D01*
X106230000Y-94709994D01*
X106160000Y-94699994D01*
X106080000Y-94709994D01*
X106010000Y-94719994D01*
X105940000Y-94729994D01*
X105880000Y-94759994D01*
X105830000Y-94779994D01*
X105780000Y-94819994D01*
X105740000Y-94869994D01*
X105700000Y-94929994D01*
X105680000Y-94989994D01*
X105680000Y-95059994D01*
X105680000Y-95129994D01*
X105700000Y-95189994D01*
X105730000Y-95259994D01*
X105770000Y-95309994D01*
X105820000Y-95349994D01*
X105880000Y-95379994D01*
X105940000Y-95399994D01*
X106010000Y-95419994D01*
X106070000Y-95419994D01*
X106140000Y-95429994D01*
X106220000Y-95429994D01*
X106260000Y-95669994D01*
X106200000Y-95679994D01*
X106130000Y-95709994D01*
X106080000Y-95749994D01*
X106030000Y-95799994D01*
X105980000Y-95859994D01*
X105940000Y-95909994D01*
X105920000Y-95959994D01*
X105910000Y-95949994D01*
X105910000Y-95809994D01*
X105900000Y-95699994D01*
X105870000Y-95649994D01*
X105810000Y-95629994D01*
X105740000Y-95639994D01*
X105690000Y-95669994D01*
X105680000Y-95729994D01*
X105680000Y-96209994D01*
X105680000Y-96279994D01*
X105710000Y-96339994D01*
X105770000Y-96369994D01*
X105830000Y-96369994D01*
X105900000Y-96339994D01*
X105950000Y-96299994D01*
X105990000Y-96249994D01*
X106030000Y-96189994D01*
X106100000Y-96069994D01*
X106140000Y-96009994D01*
X106180000Y-95959994D01*
X106240000Y-95919994D01*
X106300000Y-95899994D01*
X106360000Y-95919994D01*
X106400000Y-95969994D01*
X106410000Y-96039994D01*
X106390000Y-96099994D01*
X106330000Y-96129994D01*
X106260000Y-96139994D01*
X106200000Y-96159994D01*
X106180000Y-96219994D01*
X106180000Y-96309994D01*
X106210000Y-96359994D01*
X106270000Y-96369994D01*
X106290000Y-96549994D01*
X106220000Y-96559994D01*
X106160000Y-96569994D01*
X106100000Y-96599994D01*
X106050000Y-96649994D01*
X106000000Y-96699994D01*
X105970000Y-96759994D01*
X105950000Y-96819994D01*
X105940000Y-96889994D01*
X105940000Y-97019994D01*
X105910000Y-97059994D01*
X105770000Y-97059994D01*
X105710000Y-97079994D01*
X105680000Y-97119994D01*
X105680000Y-97209994D01*
X105700000Y-97269994D01*
X105750000Y-97289994D01*
X105760000Y-97499994D01*
X105710000Y-97539994D01*
X105680000Y-97609994D01*
X105680000Y-97679994D01*
X105720000Y-97709994D01*
X105900000Y-97789994D01*
X105950000Y-97849994D01*
X105950000Y-97979994D01*
X105910000Y-98009994D01*
X105770000Y-98009994D01*
X105710000Y-98029994D01*
X105690000Y-98079994D01*
X105690000Y-98169994D01*
X105710000Y-98229994D01*
X105770000Y-98239994D01*
X106520000Y-98239994D01*
X106580000Y-98239994D01*
X106820000Y-98629994D01*
X105500000Y-98959994D01*
X105470000Y-98939994D01*
X105470000Y-93999994D01*
X105680000Y-93999994D01*
X105730000Y-94039994D01*
X105800000Y-94049994D01*
X105930000Y-94049994D01*
X105950000Y-94089994D01*
X105950000Y-94359994D01*
X105960000Y-94439994D01*
X105980000Y-94499994D01*
X106040000Y-94509994D01*
X106110000Y-94509994D01*
X106500000Y-94419994D01*
X106570000Y-94389994D01*
X106630000Y-94359994D01*
X106640000Y-94299994D01*
X106610000Y-94219994D01*
X106570000Y-94179994D01*
X106520000Y-94169994D01*
X106180000Y-94249994D01*
X106160000Y-94209994D01*
X106160000Y-94069994D01*
X106210000Y-94049994D01*
X106550000Y-94049994D01*
X106610000Y-94029994D01*
X106630000Y-93979994D01*
X106630000Y-93909994D01*
X106610000Y-93849994D01*
X106550000Y-93819994D01*
X106480000Y-93819994D01*
X105800000Y-93819994D01*
X105730000Y-93819994D01*
X105680000Y-93859994D01*
X105680000Y-93929994D01*
X105680000Y-93999994D01*
X105470000Y-93999994D01*
X105470000Y-93309994D01*
X105680000Y-93309994D01*
X105700000Y-93369994D01*
X105730000Y-93439994D01*
X105780000Y-93489994D01*
X105830000Y-93519994D01*
X105890000Y-93549994D01*
X105950000Y-93579994D01*
X106010000Y-93589994D01*
X106080000Y-93599994D01*
X106150000Y-93599994D01*
X106230000Y-93599994D01*
X106300000Y-93589994D01*
X106360000Y-93579994D01*
X106430000Y-93559994D01*
X106490000Y-93529994D01*
X106540000Y-93499994D01*
X106590000Y-93459994D01*
X106620000Y-93409994D01*
X106650000Y-93349994D01*
X106660000Y-93279994D01*
X106660000Y-93209994D01*
X106650000Y-93139994D01*
X106630000Y-93079994D01*
X106590000Y-93019994D01*
X106540000Y-92979994D01*
X106480000Y-92939994D01*
X106420000Y-92919994D01*
X106350000Y-92899994D01*
X106290000Y-92879994D01*
X106220000Y-92879994D01*
X106150000Y-92879994D01*
X106070000Y-92879994D01*
X106000000Y-92889994D01*
X105940000Y-92909994D01*
X105880000Y-92929994D01*
X105820000Y-92959994D01*
X105770000Y-92999994D01*
X105730000Y-93049994D01*
X105700000Y-93109994D01*
X105680000Y-93169994D01*
X105680000Y-93239994D01*
X105680000Y-93309994D01*
X105470000Y-93309994D01*
X105470000Y-92429994D01*
X105480000Y-92369994D01*
X106790000Y-92039994D01*
X106830000Y-92059994D01*
G36*
X106830000Y-92059994D02*
G01*
X106830000Y-98629994D01*
X106820000Y-98629994D01*
X106590000Y-98239994D01*
X106630000Y-98199994D01*
X106640000Y-98119994D01*
X106640000Y-97849994D01*
X106630000Y-97789994D01*
X106610000Y-97719994D01*
X106580000Y-97659994D01*
X106540000Y-97609994D01*
X106490000Y-97559994D01*
X106430000Y-97529994D01*
X106360000Y-97509994D01*
X106290000Y-97499994D01*
X106220000Y-97509994D01*
X106160000Y-97529994D01*
X106100000Y-97559994D01*
X106050000Y-97599994D01*
X105870000Y-97529994D01*
X105810000Y-97499994D01*
X105760000Y-97499994D01*
X105760000Y-97289994D01*
X105820000Y-97289994D01*
X106500000Y-97289994D01*
X106570000Y-97289994D01*
X106620000Y-97259994D01*
X106630000Y-97189994D01*
X106630000Y-96909994D01*
X106630000Y-96849994D01*
X106610000Y-96789994D01*
X106580000Y-96719994D01*
X106540000Y-96669994D01*
X106490000Y-96619994D01*
X106430000Y-96579994D01*
X106370000Y-96549994D01*
X106360000Y-96549994D01*
X106300000Y-96549994D01*
X106270000Y-96369994D01*
X106340000Y-96369994D01*
X106410000Y-96349994D01*
X106470000Y-96329994D01*
X106520000Y-96289994D01*
X106570000Y-96239994D01*
X106610000Y-96179994D01*
X106630000Y-96119994D01*
X106640000Y-96049994D01*
X106640000Y-95979994D01*
X106630000Y-95909994D01*
X106600000Y-95849994D01*
X106570000Y-95799994D01*
X106520000Y-95749994D01*
X106460000Y-95709994D01*
X106400000Y-95689994D01*
X106330000Y-95679994D01*
X106270000Y-95669994D01*
X106220000Y-95429994D01*
X106290000Y-95419994D01*
X106350000Y-95409994D01*
X106420000Y-95389994D01*
X106480000Y-95359994D01*
X106540000Y-95329994D01*
X106590000Y-95289994D01*
X106620000Y-95239994D01*
X106650000Y-95179994D01*
X106660000Y-95119994D01*
X106660000Y-95049994D01*
X106650000Y-94979994D01*
X106630000Y-94919994D01*
X106590000Y-94859994D01*
X106550000Y-94809994D01*
X106490000Y-94769994D01*
X106430000Y-94749994D01*
X106360000Y-94729994D01*
X106300000Y-94709994D01*
X106230000Y-94709994D01*
X106160000Y-94699994D01*
X106080000Y-94709994D01*
X106010000Y-94719994D01*
X105940000Y-94729994D01*
X105880000Y-94759994D01*
X105830000Y-94779994D01*
X105780000Y-94819994D01*
X105740000Y-94869994D01*
X105700000Y-94929994D01*
X105680000Y-94989994D01*
X105680000Y-95059994D01*
X105680000Y-95129994D01*
X105700000Y-95189994D01*
X105730000Y-95259994D01*
X105770000Y-95309994D01*
X105820000Y-95349994D01*
X105880000Y-95379994D01*
X105940000Y-95399994D01*
X106010000Y-95419994D01*
X106070000Y-95419994D01*
X106140000Y-95429994D01*
X106220000Y-95429994D01*
X106260000Y-95669994D01*
X106200000Y-95679994D01*
X106130000Y-95709994D01*
X106080000Y-95749994D01*
X106030000Y-95799994D01*
X105980000Y-95859994D01*
X105940000Y-95909994D01*
X105920000Y-95959994D01*
X105910000Y-95949994D01*
X105910000Y-95809994D01*
X105900000Y-95699994D01*
X105870000Y-95649994D01*
X105810000Y-95629994D01*
X105740000Y-95639994D01*
X105690000Y-95669994D01*
X105680000Y-95729994D01*
X105680000Y-96209994D01*
X105680000Y-96279994D01*
X105710000Y-96339994D01*
X105770000Y-96369994D01*
X105830000Y-96369994D01*
X105900000Y-96339994D01*
X105950000Y-96299994D01*
X105990000Y-96249994D01*
X106030000Y-96189994D01*
X106100000Y-96069994D01*
X106140000Y-96009994D01*
X106180000Y-95959994D01*
X106240000Y-95919994D01*
X106300000Y-95899994D01*
X106360000Y-95919994D01*
X106400000Y-95969994D01*
X106410000Y-96039994D01*
X106390000Y-96099994D01*
X106330000Y-96129994D01*
X106260000Y-96139994D01*
X106200000Y-96159994D01*
X106180000Y-96219994D01*
X106180000Y-96309994D01*
X106210000Y-96359994D01*
X106270000Y-96369994D01*
X106290000Y-96549994D01*
X106220000Y-96559994D01*
X106160000Y-96569994D01*
X106100000Y-96599994D01*
X106050000Y-96649994D01*
X106000000Y-96699994D01*
X105970000Y-96759994D01*
X105950000Y-96819994D01*
X105940000Y-96889994D01*
X105940000Y-97019994D01*
X105910000Y-97059994D01*
X105770000Y-97059994D01*
X105710000Y-97079994D01*
X105680000Y-97119994D01*
X105680000Y-97209994D01*
X105700000Y-97269994D01*
X105750000Y-97289994D01*
X105760000Y-97499994D01*
X105710000Y-97539994D01*
X105680000Y-97609994D01*
X105680000Y-97679994D01*
X105720000Y-97709994D01*
X105900000Y-97789994D01*
X105950000Y-97849994D01*
X105950000Y-97979994D01*
X105910000Y-98009994D01*
X105770000Y-98009994D01*
X105710000Y-98029994D01*
X105690000Y-98079994D01*
X105690000Y-98169994D01*
X105710000Y-98229994D01*
X105770000Y-98239994D01*
X106520000Y-98239994D01*
X106580000Y-98239994D01*
X106820000Y-98629994D01*
X105500000Y-98959994D01*
X105470000Y-98939994D01*
X105470000Y-93999994D01*
X105680000Y-93999994D01*
X105730000Y-94039994D01*
X105800000Y-94049994D01*
X105930000Y-94049994D01*
X105950000Y-94089994D01*
X105950000Y-94359994D01*
X105960000Y-94439994D01*
X105980000Y-94499994D01*
X106040000Y-94509994D01*
X106110000Y-94509994D01*
X106500000Y-94419994D01*
X106570000Y-94389994D01*
X106630000Y-94359994D01*
X106640000Y-94299994D01*
X106610000Y-94219994D01*
X106570000Y-94179994D01*
X106520000Y-94169994D01*
X106180000Y-94249994D01*
X106160000Y-94209994D01*
X106160000Y-94069994D01*
X106210000Y-94049994D01*
X106550000Y-94049994D01*
X106610000Y-94029994D01*
X106630000Y-93979994D01*
X106630000Y-93909994D01*
X106610000Y-93849994D01*
X106550000Y-93819994D01*
X106480000Y-93819994D01*
X105800000Y-93819994D01*
X105730000Y-93819994D01*
X105680000Y-93859994D01*
X105680000Y-93929994D01*
X105680000Y-93999994D01*
X105470000Y-93999994D01*
X105470000Y-93309994D01*
X105680000Y-93309994D01*
X105700000Y-93369994D01*
X105730000Y-93439994D01*
X105780000Y-93489994D01*
X105830000Y-93519994D01*
X105890000Y-93549994D01*
X105950000Y-93579994D01*
X106010000Y-93589994D01*
X106080000Y-93599994D01*
X106150000Y-93599994D01*
X106230000Y-93599994D01*
X106300000Y-93589994D01*
X106360000Y-93579994D01*
X106430000Y-93559994D01*
X106490000Y-93529994D01*
X106540000Y-93499994D01*
X106590000Y-93459994D01*
X106620000Y-93409994D01*
X106650000Y-93349994D01*
X106660000Y-93279994D01*
X106660000Y-93209994D01*
X106650000Y-93139994D01*
X106630000Y-93079994D01*
X106590000Y-93019994D01*
X106540000Y-92979994D01*
X106480000Y-92939994D01*
X106420000Y-92919994D01*
X106350000Y-92899994D01*
X106290000Y-92879994D01*
X106220000Y-92879994D01*
X106150000Y-92879994D01*
X106070000Y-92879994D01*
X106000000Y-92889994D01*
X105940000Y-92909994D01*
X105880000Y-92929994D01*
X105820000Y-92959994D01*
X105770000Y-92999994D01*
X105730000Y-93049994D01*
X105700000Y-93109994D01*
X105680000Y-93169994D01*
X105680000Y-93239994D01*
X105680000Y-93309994D01*
X105470000Y-93309994D01*
X105470000Y-92429994D01*
X105480000Y-92369994D01*
X106790000Y-92039994D01*
X106830000Y-92059994D01*
G37*
D13*
%TO.C,F1*%
X113910000Y-215772936D02*
X113910000Y-217227064D01*
X112090000Y-215772936D02*
X112090000Y-217227064D01*
%TO.C,*%
D16*
X108230000Y-94979994D02*
X108260000Y-95029994D01*
X108260000Y-95099994D01*
X108250000Y-95169994D01*
X108390000Y-95169994D01*
X108450000Y-95169994D01*
X108490000Y-95219994D01*
X108500000Y-95299994D01*
X108480000Y-95369994D01*
X108430000Y-95389994D01*
X108290000Y-95389994D01*
X108260000Y-95419994D01*
X108240000Y-95479994D01*
X108190000Y-95509994D01*
X108110000Y-95509994D01*
X108050000Y-95489994D01*
X108010000Y-95389994D01*
X107800000Y-95389994D01*
X107730000Y-95379994D01*
X107670000Y-95349994D01*
X107630000Y-95319994D01*
X107600000Y-95269994D01*
X107580000Y-95199994D01*
X107580000Y-95129994D01*
X107580000Y-95059994D01*
X107620000Y-95019994D01*
X107690000Y-94999994D01*
X107760000Y-95019994D01*
X107790000Y-95069994D01*
X107800000Y-95139994D01*
X107850000Y-95169994D01*
X107980000Y-95169994D01*
X108040000Y-95149994D01*
X108030000Y-95079994D01*
X108040000Y-95019994D01*
X108070000Y-94979994D01*
X108160000Y-94969994D01*
X108230000Y-94979994D01*
G36*
X108230000Y-94979994D02*
G01*
X108260000Y-95029994D01*
X108260000Y-95099994D01*
X108250000Y-95169994D01*
X108390000Y-95169994D01*
X108450000Y-95169994D01*
X108490000Y-95219994D01*
X108500000Y-95299994D01*
X108480000Y-95369994D01*
X108430000Y-95389994D01*
X108290000Y-95389994D01*
X108260000Y-95419994D01*
X108240000Y-95479994D01*
X108190000Y-95509994D01*
X108110000Y-95509994D01*
X108050000Y-95489994D01*
X108010000Y-95389994D01*
X107800000Y-95389994D01*
X107730000Y-95379994D01*
X107670000Y-95349994D01*
X107630000Y-95319994D01*
X107600000Y-95269994D01*
X107580000Y-95199994D01*
X107580000Y-95129994D01*
X107580000Y-95059994D01*
X107620000Y-95019994D01*
X107690000Y-94999994D01*
X107760000Y-95019994D01*
X107790000Y-95069994D01*
X107800000Y-95139994D01*
X107850000Y-95169994D01*
X107980000Y-95169994D01*
X108040000Y-95149994D01*
X108030000Y-95079994D01*
X108040000Y-95019994D01*
X108070000Y-94979994D01*
X108160000Y-94969994D01*
X108230000Y-94979994D01*
G37*
X107750000Y-98229994D02*
X107780000Y-98249994D01*
X107910000Y-98309994D01*
X107960000Y-98309994D01*
X108010000Y-98269994D01*
X108070000Y-98239994D01*
X108140000Y-98219994D01*
X108210000Y-98219994D01*
X108280000Y-98229994D01*
X108340000Y-98249994D01*
X108400000Y-98289994D01*
X108440000Y-98339994D01*
X108280000Y-98489994D01*
X108220000Y-98459994D01*
X108150000Y-98459994D01*
X108100000Y-98489994D01*
X108080000Y-98559994D01*
X108080000Y-98689994D01*
X108080000Y-98729994D01*
X108280000Y-98729994D01*
X108310000Y-98689994D01*
X108310000Y-98619994D01*
X108310000Y-98549994D01*
X108280000Y-98489994D01*
X108450000Y-98339994D01*
X108490000Y-98399994D01*
X108520000Y-98459994D01*
X108530000Y-98519994D01*
X108540000Y-98589994D01*
X108540000Y-98859994D01*
X108520000Y-98929994D01*
X108470000Y-98959994D01*
X108400000Y-98959994D01*
X107720000Y-98959994D01*
X107650000Y-98959994D01*
X107600000Y-98929994D01*
X107580000Y-98859994D01*
X107590000Y-98779994D01*
X107630000Y-98739994D01*
X107690000Y-98729994D01*
X107830000Y-98729994D01*
X107850000Y-98679994D01*
X107850000Y-98539994D01*
X107770000Y-98489994D01*
X107610000Y-98419994D01*
X107580000Y-98369994D01*
X107590000Y-98309994D01*
X107630000Y-98239994D01*
X107680000Y-98209994D01*
X107750000Y-98229994D01*
G36*
X107750000Y-98229994D02*
G01*
X107780000Y-98249994D01*
X107910000Y-98309994D01*
X107960000Y-98309994D01*
X108010000Y-98269994D01*
X108070000Y-98239994D01*
X108140000Y-98219994D01*
X108210000Y-98219994D01*
X108280000Y-98229994D01*
X108340000Y-98249994D01*
X108400000Y-98289994D01*
X108440000Y-98339994D01*
X108280000Y-98489994D01*
X108220000Y-98459994D01*
X108150000Y-98459994D01*
X108100000Y-98489994D01*
X108080000Y-98559994D01*
X108080000Y-98689994D01*
X108080000Y-98729994D01*
X108280000Y-98729994D01*
X108310000Y-98689994D01*
X108310000Y-98619994D01*
X108310000Y-98549994D01*
X108280000Y-98489994D01*
X108450000Y-98339994D01*
X108490000Y-98399994D01*
X108520000Y-98459994D01*
X108530000Y-98519994D01*
X108540000Y-98589994D01*
X108540000Y-98859994D01*
X108520000Y-98929994D01*
X108470000Y-98959994D01*
X108400000Y-98959994D01*
X107720000Y-98959994D01*
X107650000Y-98959994D01*
X107600000Y-98929994D01*
X107580000Y-98859994D01*
X107590000Y-98779994D01*
X107630000Y-98739994D01*
X107690000Y-98729994D01*
X107830000Y-98729994D01*
X107850000Y-98679994D01*
X107850000Y-98539994D01*
X107770000Y-98489994D01*
X107610000Y-98419994D01*
X107580000Y-98369994D01*
X107590000Y-98309994D01*
X107630000Y-98239994D01*
X107680000Y-98209994D01*
X107750000Y-98229994D01*
G37*
X107910000Y-96599994D02*
X107960000Y-96639994D01*
X108000000Y-96699994D01*
X108020000Y-96769994D01*
X108030000Y-96829994D01*
X108050000Y-96909994D01*
X108090000Y-96919994D01*
X108110000Y-96859994D01*
X108100000Y-96789994D01*
X108080000Y-96719994D01*
X108080000Y-96669994D01*
X108140000Y-96619994D01*
X108200000Y-96609994D01*
X108250000Y-96659994D01*
X108270000Y-96719994D01*
X108280000Y-96789994D01*
X108290000Y-96849994D01*
X108280000Y-96939994D01*
X108260000Y-97009994D01*
X108230000Y-97059994D01*
X108190000Y-97099994D01*
X108140000Y-97119994D01*
X108070000Y-97129994D01*
X108010000Y-97119994D01*
X107940000Y-97089994D01*
X107890000Y-97049994D01*
X107860000Y-96989994D01*
X107840000Y-96929994D01*
X107820000Y-96849994D01*
X107800000Y-96789994D01*
X107770000Y-96809994D01*
X107760000Y-96889994D01*
X107780000Y-96949994D01*
X107820000Y-97019994D01*
X107820000Y-97079994D01*
X107760000Y-97129994D01*
X107710000Y-97149994D01*
X107650000Y-97129994D01*
X107620000Y-97069994D01*
X107590000Y-96999994D01*
X107580000Y-96939994D01*
X107580000Y-96879994D01*
X107580000Y-96799994D01*
X107590000Y-96739994D01*
X107610000Y-96679994D01*
X107660000Y-96629994D01*
X107710000Y-96599994D01*
X107780000Y-96579994D01*
X107850000Y-96579994D01*
X107910000Y-96599994D01*
G36*
X107910000Y-96599994D02*
G01*
X107960000Y-96639994D01*
X108000000Y-96699994D01*
X108020000Y-96769994D01*
X108030000Y-96829994D01*
X108050000Y-96909994D01*
X108090000Y-96919994D01*
X108110000Y-96859994D01*
X108100000Y-96789994D01*
X108080000Y-96719994D01*
X108080000Y-96669994D01*
X108140000Y-96619994D01*
X108200000Y-96609994D01*
X108250000Y-96659994D01*
X108270000Y-96719994D01*
X108280000Y-96789994D01*
X108290000Y-96849994D01*
X108280000Y-96939994D01*
X108260000Y-97009994D01*
X108230000Y-97059994D01*
X108190000Y-97099994D01*
X108140000Y-97119994D01*
X108070000Y-97129994D01*
X108010000Y-97119994D01*
X107940000Y-97089994D01*
X107890000Y-97049994D01*
X107860000Y-96989994D01*
X107840000Y-96929994D01*
X107820000Y-96849994D01*
X107800000Y-96789994D01*
X107770000Y-96809994D01*
X107760000Y-96889994D01*
X107780000Y-96949994D01*
X107820000Y-97019994D01*
X107820000Y-97079994D01*
X107760000Y-97129994D01*
X107710000Y-97149994D01*
X107650000Y-97129994D01*
X107620000Y-97069994D01*
X107590000Y-96999994D01*
X107580000Y-96939994D01*
X107580000Y-96879994D01*
X107580000Y-96799994D01*
X107590000Y-96739994D01*
X107610000Y-96679994D01*
X107660000Y-96629994D01*
X107710000Y-96599994D01*
X107780000Y-96579994D01*
X107850000Y-96579994D01*
X107910000Y-96599994D01*
G37*
X108080000Y-97359994D02*
X108140000Y-97379994D01*
X108190000Y-97419994D01*
X108240000Y-97469994D01*
X108270000Y-97529994D01*
X108280000Y-97599994D01*
X108290000Y-97669994D01*
X108280000Y-97739994D01*
X108260000Y-97809994D01*
X108230000Y-97869994D01*
X108190000Y-97919994D01*
X108150000Y-97969994D01*
X108090000Y-97999994D01*
X108030000Y-98019994D01*
X107960000Y-98029994D01*
X107890000Y-98029994D01*
X107820000Y-98019994D01*
X107760000Y-97989994D01*
X107700000Y-97959994D01*
X107650000Y-97909994D01*
X107610000Y-97849994D01*
X107590000Y-97789994D01*
X107580000Y-97719994D01*
X107580000Y-97639994D01*
X107580000Y-97549994D01*
X107600000Y-97469994D01*
X107630000Y-97419994D01*
X107660000Y-97389994D01*
X107710000Y-97389994D01*
X107780000Y-97429994D01*
X107810000Y-97479994D01*
X107790000Y-97539994D01*
X107770000Y-97599994D01*
X107770000Y-97679994D01*
X107790000Y-97739994D01*
X107840000Y-97789994D01*
X107860000Y-97739994D01*
X107980000Y-97759994D01*
X108010000Y-97779994D01*
X108060000Y-97729994D01*
X108080000Y-97669994D01*
X108070000Y-97599994D01*
X108010000Y-97579994D01*
X107980000Y-97619994D01*
X107980000Y-97759994D01*
X107860000Y-97729994D01*
X107860000Y-97459994D01*
X107890000Y-97399994D01*
X107930000Y-97349994D01*
X107940000Y-97349994D01*
X108010000Y-97349994D01*
X108080000Y-97359994D01*
G36*
X108080000Y-97359994D02*
G01*
X108140000Y-97379994D01*
X108190000Y-97419994D01*
X108240000Y-97469994D01*
X108270000Y-97529994D01*
X108280000Y-97599994D01*
X108290000Y-97669994D01*
X108280000Y-97739994D01*
X108260000Y-97809994D01*
X108230000Y-97869994D01*
X108190000Y-97919994D01*
X108150000Y-97969994D01*
X108090000Y-97999994D01*
X108030000Y-98019994D01*
X107960000Y-98029994D01*
X107890000Y-98029994D01*
X107820000Y-98019994D01*
X107760000Y-97989994D01*
X107700000Y-97959994D01*
X107650000Y-97909994D01*
X107610000Y-97849994D01*
X107590000Y-97789994D01*
X107580000Y-97719994D01*
X107580000Y-97639994D01*
X107580000Y-97549994D01*
X107600000Y-97469994D01*
X107630000Y-97419994D01*
X107660000Y-97389994D01*
X107710000Y-97389994D01*
X107780000Y-97429994D01*
X107810000Y-97479994D01*
X107790000Y-97539994D01*
X107770000Y-97599994D01*
X107770000Y-97679994D01*
X107790000Y-97739994D01*
X107840000Y-97789994D01*
X107860000Y-97739994D01*
X107980000Y-97759994D01*
X108010000Y-97779994D01*
X108060000Y-97729994D01*
X108080000Y-97669994D01*
X108070000Y-97599994D01*
X108010000Y-97579994D01*
X107980000Y-97619994D01*
X107980000Y-97759994D01*
X107860000Y-97729994D01*
X107860000Y-97459994D01*
X107890000Y-97399994D01*
X107930000Y-97349994D01*
X107940000Y-97349994D01*
X108010000Y-97349994D01*
X108080000Y-97359994D01*
G37*
X108080000Y-95709994D02*
X108140000Y-95729994D01*
X108190000Y-95769994D01*
X108240000Y-95819994D01*
X108270000Y-95879994D01*
X108280000Y-95939994D01*
X108290000Y-96019994D01*
X108280000Y-96089994D01*
X108260000Y-96159994D01*
X108230000Y-96209994D01*
X108190000Y-96269994D01*
X108150000Y-96309994D01*
X108090000Y-96349994D01*
X108030000Y-96369994D01*
X107960000Y-96379994D01*
X107890000Y-96379994D01*
X107820000Y-96359994D01*
X107760000Y-96339994D01*
X107700000Y-96299994D01*
X107650000Y-96259994D01*
X107610000Y-96199994D01*
X107590000Y-96139994D01*
X107580000Y-96069994D01*
X107580000Y-95989994D01*
X107580000Y-95889994D01*
X107600000Y-95819994D01*
X107630000Y-95769994D01*
X107660000Y-95739994D01*
X107710000Y-95739994D01*
X107780000Y-95769994D01*
X107810000Y-95819994D01*
X107790000Y-95889994D01*
X107770000Y-95949994D01*
X107770000Y-96019994D01*
X107790000Y-96089994D01*
X107840000Y-96129994D01*
X107848000Y-96109994D01*
X107980000Y-96109994D01*
X108010000Y-96129994D01*
X108060000Y-96069994D01*
X108080000Y-96009994D01*
X108070000Y-95949994D01*
X108010000Y-95929994D01*
X107980000Y-95969994D01*
X107980000Y-96109994D01*
X107848000Y-96109994D01*
X107860000Y-96079994D01*
X107860000Y-95809994D01*
X107890000Y-95749994D01*
X107930000Y-95699994D01*
X107940000Y-95699994D01*
X108010000Y-95699994D01*
X108080000Y-95709994D01*
G36*
X108080000Y-95709994D02*
G01*
X108140000Y-95729994D01*
X108190000Y-95769994D01*
X108240000Y-95819994D01*
X108270000Y-95879994D01*
X108280000Y-95939994D01*
X108290000Y-96019994D01*
X108280000Y-96089994D01*
X108260000Y-96159994D01*
X108230000Y-96209994D01*
X108190000Y-96269994D01*
X108150000Y-96309994D01*
X108090000Y-96349994D01*
X108030000Y-96369994D01*
X107960000Y-96379994D01*
X107890000Y-96379994D01*
X107820000Y-96359994D01*
X107760000Y-96339994D01*
X107700000Y-96299994D01*
X107650000Y-96259994D01*
X107610000Y-96199994D01*
X107590000Y-96139994D01*
X107580000Y-96069994D01*
X107580000Y-95989994D01*
X107580000Y-95889994D01*
X107600000Y-95819994D01*
X107630000Y-95769994D01*
X107660000Y-95739994D01*
X107710000Y-95739994D01*
X107780000Y-95769994D01*
X107810000Y-95819994D01*
X107790000Y-95889994D01*
X107770000Y-95949994D01*
X107770000Y-96019994D01*
X107790000Y-96089994D01*
X107840000Y-96129994D01*
X107848000Y-96109994D01*
X107980000Y-96109994D01*
X108010000Y-96129994D01*
X108060000Y-96069994D01*
X108080000Y-96009994D01*
X108070000Y-95949994D01*
X108010000Y-95929994D01*
X107980000Y-95969994D01*
X107980000Y-96109994D01*
X107848000Y-96109994D01*
X107860000Y-96079994D01*
X107860000Y-95809994D01*
X107890000Y-95749994D01*
X107930000Y-95699994D01*
X107940000Y-95699994D01*
X108010000Y-95699994D01*
X108080000Y-95709994D01*
G37*
X104600000Y-93729994D02*
X104640000Y-93779994D01*
X104640000Y-93849994D01*
X104600000Y-93909994D01*
X104520000Y-93929994D01*
X104450000Y-93899994D01*
X104420000Y-93839994D01*
X104430000Y-93779994D01*
X104470000Y-93719994D01*
X104540000Y-93709994D01*
X104600000Y-93729994D01*
G36*
X104600000Y-93729994D02*
G01*
X104640000Y-93779994D01*
X104640000Y-93849994D01*
X104600000Y-93909994D01*
X104520000Y-93929994D01*
X104450000Y-93899994D01*
X104420000Y-93839994D01*
X104430000Y-93779994D01*
X104470000Y-93719994D01*
X104540000Y-93709994D01*
X104600000Y-93729994D01*
G37*
X104580000Y-95839994D02*
X104620000Y-95879994D01*
X104640000Y-95949994D01*
X104610000Y-96009994D01*
X104550000Y-96049994D01*
X104480000Y-96049994D01*
X104450000Y-96019994D01*
X104410000Y-95969994D01*
X104410000Y-95899994D01*
X104450000Y-95839994D01*
X104510000Y-95819994D01*
X104580000Y-95839994D01*
G36*
X104580000Y-95839994D02*
G01*
X104620000Y-95879994D01*
X104640000Y-95949994D01*
X104610000Y-96009994D01*
X104550000Y-96049994D01*
X104480000Y-96049994D01*
X104450000Y-96019994D01*
X104410000Y-95969994D01*
X104410000Y-95899994D01*
X104450000Y-95839994D01*
X104510000Y-95819994D01*
X104580000Y-95839994D01*
G37*
X105330000Y-98159994D02*
X105280000Y-98179994D01*
X104030000Y-98489994D01*
X103970000Y-98499994D01*
X103970000Y-97559994D01*
X104180000Y-97559994D01*
X104190000Y-97619994D01*
X104210000Y-97689994D01*
X104240000Y-97749994D01*
X104260000Y-97779994D01*
X104320000Y-97789994D01*
X104380000Y-97759994D01*
X104430000Y-97709994D01*
X104410000Y-97649994D01*
X104370000Y-97579994D01*
X104360000Y-97519994D01*
X104370000Y-97439994D01*
X104410000Y-97439994D01*
X104430000Y-97519994D01*
X104440000Y-97589994D01*
X104470000Y-97649994D01*
X104510000Y-97709994D01*
X104570000Y-97749994D01*
X104630000Y-97769994D01*
X104700000Y-97769994D01*
X104760000Y-97759994D01*
X104810000Y-97729994D01*
X104840000Y-97689994D01*
X104870000Y-97629994D01*
X104880000Y-97549994D01*
X104890000Y-97469994D01*
X104880000Y-97399994D01*
X104860000Y-97329994D01*
X104830000Y-97269994D01*
X104780000Y-97249994D01*
X104790000Y-97029994D01*
X104840000Y-96999994D01*
X104860000Y-96939994D01*
X104890000Y-96909994D01*
X105030000Y-96909994D01*
X105080000Y-96879994D01*
X105100000Y-96809994D01*
X105090000Y-96729994D01*
X105050000Y-96689994D01*
X104980000Y-96689994D01*
X104910000Y-96689994D01*
X104850000Y-96679994D01*
X104860000Y-96609994D01*
X104850000Y-96549994D01*
X104820000Y-96499994D01*
X104740000Y-96489994D01*
X104670000Y-96509994D01*
X104630000Y-96259994D01*
X104690000Y-96229994D01*
X104750000Y-96189994D01*
X104800000Y-96139994D01*
X104840000Y-96079994D01*
X104860000Y-96019994D01*
X104860000Y-95949994D01*
X104840000Y-95889994D01*
X104810000Y-95829994D01*
X104830000Y-95799994D01*
X104860000Y-95739994D01*
X104860000Y-95659994D01*
X104830000Y-95599994D01*
X104770000Y-95579994D01*
X104290000Y-95579994D01*
X104230000Y-95589994D01*
X104180000Y-95629994D01*
X104180000Y-95709994D01*
X104190000Y-95779994D01*
X104240000Y-95809994D01*
X104210000Y-95849994D01*
X104180000Y-95909994D01*
X104180000Y-95979994D01*
X104190000Y-96039994D01*
X104210000Y-96099994D01*
X104260000Y-96159994D01*
X104310000Y-96209994D01*
X104370000Y-96239994D01*
X104430000Y-96259994D01*
X104500000Y-96269994D01*
X104570000Y-96269994D01*
X104630000Y-96259994D01*
X104660000Y-96509994D01*
X104630000Y-96549994D01*
X104630000Y-96659994D01*
X104590000Y-96689994D01*
X104460000Y-96689994D01*
X104400000Y-96669994D01*
X104390000Y-96599994D01*
X104370000Y-96539994D01*
X104300000Y-96529994D01*
X104220000Y-96539994D01*
X104180000Y-96579994D01*
X104180000Y-96639994D01*
X104180000Y-96719994D01*
X104200000Y-96779994D01*
X104230000Y-96839994D01*
X104270000Y-96869994D01*
X104330000Y-96899994D01*
X104400000Y-96909994D01*
X104610000Y-96909994D01*
X104650000Y-97019994D01*
X104710000Y-97029994D01*
X104790000Y-97029994D01*
X104770000Y-97249994D01*
X104710000Y-97279994D01*
X104670000Y-97339994D01*
X104690000Y-97399994D01*
X104710000Y-97459994D01*
X104700000Y-97549994D01*
X104670000Y-97569994D01*
X104640000Y-97519994D01*
X104620000Y-97439994D01*
X104610000Y-97369994D01*
X104580000Y-97309994D01*
X104540000Y-97259994D01*
X104480000Y-97229994D01*
X104410000Y-97219994D01*
X104340000Y-97229994D01*
X104280000Y-97249994D01*
X104230000Y-97299994D01*
X104200000Y-97359994D01*
X104180000Y-97419994D01*
X104180000Y-97489994D01*
X104180000Y-97559994D01*
X103970000Y-97559994D01*
X103970000Y-94149994D01*
X103990000Y-94149994D01*
X104000000Y-94149994D01*
X104740000Y-94149994D01*
X104670000Y-94379994D01*
X104600000Y-94359994D01*
X104520000Y-94359994D01*
X104310000Y-94359994D01*
X104250000Y-94359994D01*
X104190000Y-94389994D01*
X104180000Y-94449994D01*
X104180000Y-94539994D01*
X104220000Y-94579994D01*
X104280000Y-94589994D01*
X104490000Y-94589994D01*
X104560000Y-94589994D01*
X104620000Y-94619994D01*
X104630000Y-94689994D01*
X104590000Y-94729994D01*
X104530000Y-94739994D01*
X104320000Y-94739994D01*
X104250000Y-94749994D01*
X104200000Y-94769994D01*
X104180000Y-94829994D01*
X104180000Y-94919994D01*
X104210000Y-94959994D01*
X104280000Y-94969994D01*
X104480000Y-94969994D01*
X104560000Y-94979994D01*
X104610000Y-95009994D01*
X104630000Y-95069994D01*
X104600000Y-95119994D01*
X104530000Y-95139994D01*
X104260000Y-95139994D01*
X104200000Y-95159994D01*
X104180000Y-95209994D01*
X104180000Y-95299994D01*
X104210000Y-95349994D01*
X104270000Y-95359994D01*
X104750000Y-95359994D01*
X104810000Y-95349994D01*
X104850000Y-95309994D01*
X104860000Y-95229994D01*
X104840000Y-95169994D01*
X104790000Y-95139994D01*
X104800000Y-95109994D01*
X104840000Y-95059994D01*
X104860000Y-94999994D01*
X104850000Y-94929994D01*
X104830000Y-94869994D01*
X104790000Y-94819994D01*
X104770000Y-94779994D01*
X104810000Y-94729994D01*
X104850000Y-94669994D01*
X104860000Y-94599994D01*
X104850000Y-94529994D01*
X104820000Y-94479994D01*
X104780000Y-94429994D01*
X104730000Y-94399994D01*
X104680000Y-94379994D01*
X104750000Y-94149994D01*
X104810000Y-94149994D01*
X104860000Y-94119994D01*
X104870000Y-94029994D01*
X104850000Y-93969994D01*
X104800000Y-93939994D01*
X104840000Y-93889994D01*
X104860000Y-93829994D01*
X104870000Y-93759994D01*
X104850000Y-93699994D01*
X104820000Y-93639994D01*
X104770000Y-93589994D01*
X104720000Y-93539994D01*
X104660000Y-93509994D01*
X104590000Y-93489994D01*
X104530000Y-93479994D01*
X104460000Y-93489994D01*
X104400000Y-93509994D01*
X104340000Y-93549994D01*
X104280000Y-93599994D01*
X104240000Y-93649994D01*
X104210000Y-93709994D01*
X104200000Y-93769994D01*
X104210000Y-93849994D01*
X104240000Y-93909994D01*
X104240000Y-93929994D01*
X104030000Y-93929994D01*
X103970000Y-93929994D01*
X103970000Y-93349994D01*
X104030000Y-93319994D01*
X105280000Y-93009994D01*
X105330000Y-93009994D01*
X105330000Y-98159994D01*
G36*
X105330000Y-98159994D02*
G01*
X105280000Y-98179994D01*
X104030000Y-98489994D01*
X103970000Y-98499994D01*
X103970000Y-97559994D01*
X104180000Y-97559994D01*
X104190000Y-97619994D01*
X104210000Y-97689994D01*
X104240000Y-97749994D01*
X104260000Y-97779994D01*
X104320000Y-97789994D01*
X104380000Y-97759994D01*
X104430000Y-97709994D01*
X104410000Y-97649994D01*
X104370000Y-97579994D01*
X104360000Y-97519994D01*
X104370000Y-97439994D01*
X104410000Y-97439994D01*
X104430000Y-97519994D01*
X104440000Y-97589994D01*
X104470000Y-97649994D01*
X104510000Y-97709994D01*
X104570000Y-97749994D01*
X104630000Y-97769994D01*
X104700000Y-97769994D01*
X104760000Y-97759994D01*
X104810000Y-97729994D01*
X104840000Y-97689994D01*
X104870000Y-97629994D01*
X104880000Y-97549994D01*
X104890000Y-97469994D01*
X104880000Y-97399994D01*
X104860000Y-97329994D01*
X104830000Y-97269994D01*
X104780000Y-97249994D01*
X104790000Y-97029994D01*
X104840000Y-96999994D01*
X104860000Y-96939994D01*
X104890000Y-96909994D01*
X105030000Y-96909994D01*
X105080000Y-96879994D01*
X105100000Y-96809994D01*
X105090000Y-96729994D01*
X105050000Y-96689994D01*
X104980000Y-96689994D01*
X104910000Y-96689994D01*
X104850000Y-96679994D01*
X104860000Y-96609994D01*
X104850000Y-96549994D01*
X104820000Y-96499994D01*
X104740000Y-96489994D01*
X104670000Y-96509994D01*
X104630000Y-96259994D01*
X104690000Y-96229994D01*
X104750000Y-96189994D01*
X104800000Y-96139994D01*
X104840000Y-96079994D01*
X104860000Y-96019994D01*
X104860000Y-95949994D01*
X104840000Y-95889994D01*
X104810000Y-95829994D01*
X104830000Y-95799994D01*
X104860000Y-95739994D01*
X104860000Y-95659994D01*
X104830000Y-95599994D01*
X104770000Y-95579994D01*
X104290000Y-95579994D01*
X104230000Y-95589994D01*
X104180000Y-95629994D01*
X104180000Y-95709994D01*
X104190000Y-95779994D01*
X104240000Y-95809994D01*
X104210000Y-95849994D01*
X104180000Y-95909994D01*
X104180000Y-95979994D01*
X104190000Y-96039994D01*
X104210000Y-96099994D01*
X104260000Y-96159994D01*
X104310000Y-96209994D01*
X104370000Y-96239994D01*
X104430000Y-96259994D01*
X104500000Y-96269994D01*
X104570000Y-96269994D01*
X104630000Y-96259994D01*
X104660000Y-96509994D01*
X104630000Y-96549994D01*
X104630000Y-96659994D01*
X104590000Y-96689994D01*
X104460000Y-96689994D01*
X104400000Y-96669994D01*
X104390000Y-96599994D01*
X104370000Y-96539994D01*
X104300000Y-96529994D01*
X104220000Y-96539994D01*
X104180000Y-96579994D01*
X104180000Y-96639994D01*
X104180000Y-96719994D01*
X104200000Y-96779994D01*
X104230000Y-96839994D01*
X104270000Y-96869994D01*
X104330000Y-96899994D01*
X104400000Y-96909994D01*
X104610000Y-96909994D01*
X104650000Y-97019994D01*
X104710000Y-97029994D01*
X104790000Y-97029994D01*
X104770000Y-97249994D01*
X104710000Y-97279994D01*
X104670000Y-97339994D01*
X104690000Y-97399994D01*
X104710000Y-97459994D01*
X104700000Y-97549994D01*
X104670000Y-97569994D01*
X104640000Y-97519994D01*
X104620000Y-97439994D01*
X104610000Y-97369994D01*
X104580000Y-97309994D01*
X104540000Y-97259994D01*
X104480000Y-97229994D01*
X104410000Y-97219994D01*
X104340000Y-97229994D01*
X104280000Y-97249994D01*
X104230000Y-97299994D01*
X104200000Y-97359994D01*
X104180000Y-97419994D01*
X104180000Y-97489994D01*
X104180000Y-97559994D01*
X103970000Y-97559994D01*
X103970000Y-94149994D01*
X103990000Y-94149994D01*
X104000000Y-94149994D01*
X104740000Y-94149994D01*
X104670000Y-94379994D01*
X104600000Y-94359994D01*
X104520000Y-94359994D01*
X104310000Y-94359994D01*
X104250000Y-94359994D01*
X104190000Y-94389994D01*
X104180000Y-94449994D01*
X104180000Y-94539994D01*
X104220000Y-94579994D01*
X104280000Y-94589994D01*
X104490000Y-94589994D01*
X104560000Y-94589994D01*
X104620000Y-94619994D01*
X104630000Y-94689994D01*
X104590000Y-94729994D01*
X104530000Y-94739994D01*
X104320000Y-94739994D01*
X104250000Y-94749994D01*
X104200000Y-94769994D01*
X104180000Y-94829994D01*
X104180000Y-94919994D01*
X104210000Y-94959994D01*
X104280000Y-94969994D01*
X104480000Y-94969994D01*
X104560000Y-94979994D01*
X104610000Y-95009994D01*
X104630000Y-95069994D01*
X104600000Y-95119994D01*
X104530000Y-95139994D01*
X104260000Y-95139994D01*
X104200000Y-95159994D01*
X104180000Y-95209994D01*
X104180000Y-95299994D01*
X104210000Y-95349994D01*
X104270000Y-95359994D01*
X104750000Y-95359994D01*
X104810000Y-95349994D01*
X104850000Y-95309994D01*
X104860000Y-95229994D01*
X104840000Y-95169994D01*
X104790000Y-95139994D01*
X104800000Y-95109994D01*
X104840000Y-95059994D01*
X104860000Y-94999994D01*
X104850000Y-94929994D01*
X104830000Y-94869994D01*
X104790000Y-94819994D01*
X104770000Y-94779994D01*
X104810000Y-94729994D01*
X104850000Y-94669994D01*
X104860000Y-94599994D01*
X104850000Y-94529994D01*
X104820000Y-94479994D01*
X104780000Y-94429994D01*
X104730000Y-94399994D01*
X104680000Y-94379994D01*
X104750000Y-94149994D01*
X104810000Y-94149994D01*
X104860000Y-94119994D01*
X104870000Y-94029994D01*
X104850000Y-93969994D01*
X104800000Y-93939994D01*
X104840000Y-93889994D01*
X104860000Y-93829994D01*
X104870000Y-93759994D01*
X104850000Y-93699994D01*
X104820000Y-93639994D01*
X104770000Y-93589994D01*
X104720000Y-93539994D01*
X104660000Y-93509994D01*
X104590000Y-93489994D01*
X104530000Y-93479994D01*
X104460000Y-93489994D01*
X104400000Y-93509994D01*
X104340000Y-93549994D01*
X104280000Y-93599994D01*
X104240000Y-93649994D01*
X104210000Y-93709994D01*
X104200000Y-93769994D01*
X104210000Y-93849994D01*
X104240000Y-93909994D01*
X104240000Y-93929994D01*
X104030000Y-93929994D01*
X103970000Y-93929994D01*
X103970000Y-93349994D01*
X104030000Y-93319994D01*
X105280000Y-93009994D01*
X105330000Y-93009994D01*
X105330000Y-98159994D01*
G37*
X103970000Y-94149994D02*
X103930000Y-94149994D01*
X103890000Y-94099994D01*
X103890000Y-94019994D01*
X103910000Y-93959994D01*
X103960000Y-93929994D01*
X103970000Y-93929994D01*
X103970000Y-94149994D01*
G36*
X103970000Y-94149994D02*
G01*
X103930000Y-94149994D01*
X103890000Y-94099994D01*
X103890000Y-94019994D01*
X103910000Y-93959994D01*
X103960000Y-93929994D01*
X103970000Y-93929994D01*
X103970000Y-94149994D01*
G37*
X100440000Y-85439994D02*
X100470000Y-85489994D01*
X100470000Y-85549994D01*
X100440000Y-85599994D01*
X100410000Y-85649994D01*
X100280000Y-85769994D01*
X100240000Y-85819994D01*
X100190000Y-85829994D01*
X100140000Y-85799994D01*
X100100000Y-85749994D01*
X100100000Y-85709994D01*
X100130000Y-85649994D01*
X100100000Y-85639994D01*
X99750000Y-85639994D01*
X99690000Y-85629994D01*
X99650000Y-85599994D01*
X99640000Y-85539994D01*
X99640000Y-85469994D01*
X99680000Y-85439994D01*
X99740000Y-85429994D01*
X100390000Y-85429994D01*
X100440000Y-85439994D01*
G36*
X100440000Y-85439994D02*
G01*
X100470000Y-85489994D01*
X100470000Y-85549994D01*
X100440000Y-85599994D01*
X100410000Y-85649994D01*
X100280000Y-85769994D01*
X100240000Y-85819994D01*
X100190000Y-85829994D01*
X100140000Y-85799994D01*
X100100000Y-85749994D01*
X100100000Y-85709994D01*
X100130000Y-85649994D01*
X100100000Y-85639994D01*
X99750000Y-85639994D01*
X99690000Y-85629994D01*
X99650000Y-85599994D01*
X99640000Y-85539994D01*
X99640000Y-85469994D01*
X99680000Y-85439994D01*
X99740000Y-85429994D01*
X100390000Y-85429994D01*
X100440000Y-85439994D01*
G37*
X100220000Y-88869994D02*
X100240000Y-88929994D01*
X100240000Y-88989994D01*
X100220000Y-89049994D01*
X100190000Y-89089994D01*
X100200000Y-89109994D01*
X100230000Y-89149994D01*
X100230000Y-89229994D01*
X100210000Y-89279994D01*
X100170000Y-89299994D01*
X99690000Y-89299994D01*
X99650000Y-89269994D01*
X99640000Y-89209994D01*
X99640000Y-89139994D01*
X99680000Y-89109994D01*
X99730000Y-89099994D01*
X99970000Y-89099994D01*
X100020000Y-89079994D01*
X100050000Y-89029994D01*
X100040000Y-88969994D01*
X100030000Y-88919994D01*
X100060000Y-88869994D01*
X100120000Y-88849994D01*
X100170000Y-88839994D01*
X100220000Y-88869994D01*
G36*
X100220000Y-88869994D02*
G01*
X100240000Y-88929994D01*
X100240000Y-88989994D01*
X100220000Y-89049994D01*
X100190000Y-89089994D01*
X100200000Y-89109994D01*
X100230000Y-89149994D01*
X100230000Y-89229994D01*
X100210000Y-89279994D01*
X100170000Y-89299994D01*
X99690000Y-89299994D01*
X99650000Y-89269994D01*
X99640000Y-89209994D01*
X99640000Y-89139994D01*
X99680000Y-89109994D01*
X99730000Y-89099994D01*
X99970000Y-89099994D01*
X100020000Y-89079994D01*
X100050000Y-89029994D01*
X100040000Y-88969994D01*
X100030000Y-88919994D01*
X100060000Y-88869994D01*
X100120000Y-88849994D01*
X100170000Y-88839994D01*
X100220000Y-88869994D01*
G37*
X100220000Y-86809994D02*
X100240000Y-86869994D01*
X100240000Y-86919994D01*
X100220000Y-86979994D01*
X100190000Y-87029994D01*
X100200000Y-87049994D01*
X100230000Y-87089994D01*
X100230000Y-87169994D01*
X100210000Y-87219994D01*
X100170000Y-87239994D01*
X99690000Y-87239994D01*
X99650000Y-87209994D01*
X99640000Y-87149994D01*
X99640000Y-87079994D01*
X99680000Y-87049994D01*
X99730000Y-87039994D01*
X99970000Y-87039994D01*
X100020000Y-87019994D01*
X100050000Y-86969994D01*
X100040000Y-86909994D01*
X100030000Y-86849994D01*
X100060000Y-86809994D01*
X100120000Y-86779994D01*
X100170000Y-86779994D01*
X100220000Y-86809994D01*
G36*
X100220000Y-86809994D02*
G01*
X100240000Y-86869994D01*
X100240000Y-86919994D01*
X100220000Y-86979994D01*
X100190000Y-87029994D01*
X100200000Y-87049994D01*
X100230000Y-87089994D01*
X100230000Y-87169994D01*
X100210000Y-87219994D01*
X100170000Y-87239994D01*
X99690000Y-87239994D01*
X99650000Y-87209994D01*
X99640000Y-87149994D01*
X99640000Y-87079994D01*
X99680000Y-87049994D01*
X99730000Y-87039994D01*
X99970000Y-87039994D01*
X100020000Y-87019994D01*
X100050000Y-86969994D01*
X100040000Y-86909994D01*
X100030000Y-86849994D01*
X100060000Y-86809994D01*
X100120000Y-86779994D01*
X100170000Y-86779994D01*
X100220000Y-86809994D01*
G37*
X100200000Y-90599994D02*
X100240000Y-90649994D01*
X100260000Y-90709994D01*
X100230000Y-90759994D01*
X100210000Y-90779994D01*
X100150000Y-90799994D01*
X100000000Y-90869994D01*
X99950000Y-90889994D01*
X99970000Y-90909994D01*
X100070000Y-90969994D01*
X100230000Y-91059994D01*
X100260000Y-91099994D01*
X100240000Y-91159994D01*
X100200000Y-91219994D01*
X100160000Y-91239994D01*
X100110000Y-91209994D01*
X99750000Y-90999994D01*
X99680000Y-91009994D01*
X99540000Y-91069994D01*
X99500000Y-91089994D01*
X99470000Y-91099994D01*
X99440000Y-91089994D01*
X99400000Y-91039994D01*
X99380000Y-90969994D01*
X99400000Y-90919994D01*
X99450000Y-90899994D01*
X100100000Y-90609994D01*
X100150000Y-90589994D01*
X100200000Y-90599994D01*
G36*
X100200000Y-90599994D02*
G01*
X100240000Y-90649994D01*
X100260000Y-90709994D01*
X100230000Y-90759994D01*
X100210000Y-90779994D01*
X100150000Y-90799994D01*
X100000000Y-90869994D01*
X99950000Y-90889994D01*
X99970000Y-90909994D01*
X100070000Y-90969994D01*
X100230000Y-91059994D01*
X100260000Y-91099994D01*
X100240000Y-91159994D01*
X100200000Y-91219994D01*
X100160000Y-91239994D01*
X100110000Y-91209994D01*
X99750000Y-90999994D01*
X99680000Y-91009994D01*
X99540000Y-91069994D01*
X99500000Y-91089994D01*
X99470000Y-91099994D01*
X99440000Y-91089994D01*
X99400000Y-91039994D01*
X99380000Y-90969994D01*
X99400000Y-90919994D01*
X99450000Y-90899994D01*
X100100000Y-90609994D01*
X100150000Y-90589994D01*
X100200000Y-90599994D01*
G37*
X100210000Y-87429994D02*
X100230000Y-87469994D01*
X100230000Y-87549994D01*
X100210000Y-87599994D01*
X100160000Y-87619994D01*
X99920000Y-87619994D01*
X99870000Y-87639994D01*
X99840000Y-87689994D01*
X99840000Y-87749994D01*
X99870000Y-87799994D01*
X99930000Y-87819994D01*
X100110000Y-87819994D01*
X100170000Y-87819994D01*
X100210000Y-87839994D01*
X100230000Y-87889994D01*
X100230000Y-87969994D01*
X100200000Y-88009994D01*
X100140000Y-88009994D01*
X99960000Y-88009994D01*
X99900000Y-88009994D01*
X99840000Y-87999994D01*
X99790000Y-87979994D01*
X99740000Y-87949994D01*
X99690000Y-87909994D01*
X99660000Y-87859994D01*
X99640000Y-87809994D01*
X99640000Y-87749994D01*
X99650000Y-87689994D01*
X99680000Y-87639994D01*
X99690000Y-87609994D01*
X99650000Y-87589994D01*
X99640000Y-87529994D01*
X99640000Y-87459994D01*
X99680000Y-87419994D01*
X99730000Y-87409994D01*
X100160000Y-87409994D01*
X100210000Y-87429994D01*
G36*
X100210000Y-87429994D02*
G01*
X100230000Y-87469994D01*
X100230000Y-87549994D01*
X100210000Y-87599994D01*
X100160000Y-87619994D01*
X99920000Y-87619994D01*
X99870000Y-87639994D01*
X99840000Y-87689994D01*
X99840000Y-87749994D01*
X99870000Y-87799994D01*
X99930000Y-87819994D01*
X100110000Y-87819994D01*
X100170000Y-87819994D01*
X100210000Y-87839994D01*
X100230000Y-87889994D01*
X100230000Y-87969994D01*
X100200000Y-88009994D01*
X100140000Y-88009994D01*
X99960000Y-88009994D01*
X99900000Y-88009994D01*
X99840000Y-87999994D01*
X99790000Y-87979994D01*
X99740000Y-87949994D01*
X99690000Y-87909994D01*
X99660000Y-87859994D01*
X99640000Y-87809994D01*
X99640000Y-87749994D01*
X99650000Y-87689994D01*
X99680000Y-87639994D01*
X99690000Y-87609994D01*
X99650000Y-87589994D01*
X99640000Y-87529994D01*
X99640000Y-87459994D01*
X99680000Y-87419994D01*
X99730000Y-87409994D01*
X100160000Y-87409994D01*
X100210000Y-87429994D01*
G37*
X100200000Y-88229994D02*
X100230000Y-88279994D01*
X100230000Y-88329994D01*
X100230000Y-88389994D01*
X100350000Y-88389994D01*
X100400000Y-88399994D01*
X100430000Y-88439994D01*
X100440000Y-88509994D01*
X100420000Y-88569994D01*
X100380000Y-88589994D01*
X100260000Y-88589994D01*
X100230000Y-88609994D01*
X100220000Y-88669994D01*
X100170000Y-88689994D01*
X100100000Y-88689994D01*
X100050000Y-88679994D01*
X100020000Y-88589994D01*
X99830000Y-88589994D01*
X99770000Y-88579994D01*
X99720000Y-88549994D01*
X99680000Y-88519994D01*
X99660000Y-88479994D01*
X99640000Y-88419994D01*
X99640000Y-88359994D01*
X99640000Y-88299994D01*
X99670000Y-88259994D01*
X99740000Y-88249994D01*
X99800000Y-88259994D01*
X99820000Y-88309994D01*
X99830000Y-88369994D01*
X99870000Y-88389994D01*
X99990000Y-88389994D01*
X100040000Y-88379994D01*
X100030000Y-88319994D01*
X100040000Y-88259994D01*
X100070000Y-88229994D01*
X100140000Y-88219994D01*
X100200000Y-88229994D01*
G36*
X100200000Y-88229994D02*
G01*
X100230000Y-88279994D01*
X100230000Y-88329994D01*
X100230000Y-88389994D01*
X100350000Y-88389994D01*
X100400000Y-88399994D01*
X100430000Y-88439994D01*
X100440000Y-88509994D01*
X100420000Y-88569994D01*
X100380000Y-88589994D01*
X100260000Y-88589994D01*
X100230000Y-88609994D01*
X100220000Y-88669994D01*
X100170000Y-88689994D01*
X100100000Y-88689994D01*
X100050000Y-88679994D01*
X100020000Y-88589994D01*
X99830000Y-88589994D01*
X99770000Y-88579994D01*
X99720000Y-88549994D01*
X99680000Y-88519994D01*
X99660000Y-88479994D01*
X99640000Y-88419994D01*
X99640000Y-88359994D01*
X99640000Y-88299994D01*
X99670000Y-88259994D01*
X99740000Y-88249994D01*
X99800000Y-88259994D01*
X99820000Y-88309994D01*
X99830000Y-88369994D01*
X99870000Y-88389994D01*
X99990000Y-88389994D01*
X100040000Y-88379994D01*
X100030000Y-88319994D01*
X100040000Y-88259994D01*
X100070000Y-88229994D01*
X100140000Y-88219994D01*
X100200000Y-88229994D01*
G37*
X100020000Y-91399994D02*
X100070000Y-91419994D01*
X100120000Y-91449994D01*
X100170000Y-91499994D01*
X100210000Y-91549994D01*
X100230000Y-91599994D01*
X100230000Y-91659994D01*
X100230000Y-91699994D01*
X100210000Y-91749994D01*
X100190000Y-91789994D01*
X100430000Y-91789994D01*
X100490000Y-91799994D01*
X100510000Y-91849994D01*
X100510000Y-91929994D01*
X100490000Y-91969994D01*
X100440000Y-91979994D01*
X99710000Y-91979994D01*
X99660000Y-91969994D01*
X99640000Y-91929994D01*
X99640000Y-91849994D01*
X99670000Y-91799994D01*
X99680000Y-91779994D01*
X99840000Y-91729994D01*
X99880000Y-91769994D01*
X99940000Y-91779994D01*
X99990000Y-91759994D01*
X100030000Y-91719994D01*
X100030000Y-91649994D01*
X99990000Y-91609994D01*
X99940000Y-91589994D01*
X99880000Y-91599994D01*
X99840000Y-91649994D01*
X99840000Y-91709994D01*
X99840000Y-91729994D01*
X99680000Y-91769994D01*
X99650000Y-91729994D01*
X99640000Y-91669994D01*
X99640000Y-91609994D01*
X99660000Y-91559994D01*
X99690000Y-91509994D01*
X99740000Y-91459994D01*
X99790000Y-91419994D01*
X99850000Y-91399994D01*
X99900000Y-91389994D01*
X99960000Y-91389994D01*
X100020000Y-91399994D01*
G36*
X100020000Y-91399994D02*
G01*
X100070000Y-91419994D01*
X100120000Y-91449994D01*
X100170000Y-91499994D01*
X100210000Y-91549994D01*
X100230000Y-91599994D01*
X100230000Y-91659994D01*
X100230000Y-91699994D01*
X100210000Y-91749994D01*
X100190000Y-91789994D01*
X100430000Y-91789994D01*
X100490000Y-91799994D01*
X100510000Y-91849994D01*
X100510000Y-91929994D01*
X100490000Y-91969994D01*
X100440000Y-91979994D01*
X99710000Y-91979994D01*
X99660000Y-91969994D01*
X99640000Y-91929994D01*
X99640000Y-91849994D01*
X99670000Y-91799994D01*
X99680000Y-91779994D01*
X99840000Y-91729994D01*
X99880000Y-91769994D01*
X99940000Y-91779994D01*
X99990000Y-91759994D01*
X100030000Y-91719994D01*
X100030000Y-91649994D01*
X99990000Y-91609994D01*
X99940000Y-91589994D01*
X99880000Y-91599994D01*
X99840000Y-91649994D01*
X99840000Y-91709994D01*
X99840000Y-91729994D01*
X99680000Y-91769994D01*
X99650000Y-91729994D01*
X99640000Y-91669994D01*
X99640000Y-91609994D01*
X99660000Y-91559994D01*
X99690000Y-91509994D01*
X99740000Y-91459994D01*
X99790000Y-91419994D01*
X99850000Y-91399994D01*
X99900000Y-91389994D01*
X99960000Y-91389994D01*
X100020000Y-91399994D01*
G37*
X100200000Y-89509994D02*
X100230000Y-89549994D01*
X100230000Y-89609994D01*
X100210000Y-89669994D01*
X100170000Y-89699994D01*
X100030000Y-89759994D01*
X99990000Y-89719994D01*
X99940000Y-89699994D01*
X99880000Y-89719994D01*
X99840000Y-89759994D01*
X99840000Y-89819994D01*
X99860000Y-89869994D01*
X99900000Y-89899994D01*
X99950000Y-89899994D01*
X100010000Y-89869994D01*
X100040000Y-89819994D01*
X100030000Y-89769994D01*
X100170000Y-89699994D01*
X100180000Y-89699994D01*
X100210000Y-89749994D01*
X100230000Y-89809994D01*
X100230000Y-89859994D01*
X100220000Y-89919994D01*
X100190000Y-89969994D01*
X100140000Y-90019994D01*
X100100000Y-90049994D01*
X100040000Y-90079994D01*
X99990000Y-90099994D01*
X99930000Y-90099994D01*
X99870000Y-90089994D01*
X99810000Y-90069994D01*
X99760000Y-90049994D01*
X99710000Y-89999994D01*
X99670000Y-89959994D01*
X99650000Y-89899994D01*
X99640000Y-89849994D01*
X99640000Y-89789994D01*
X99660000Y-89729994D01*
X99700000Y-89689994D01*
X99650000Y-89669994D01*
X99640000Y-89619994D01*
X99640000Y-89549994D01*
X99670000Y-89509994D01*
X99720000Y-89489994D01*
X100080000Y-89489994D01*
X100140000Y-89489994D01*
X100200000Y-89509994D01*
G36*
X100200000Y-89509994D02*
G01*
X100230000Y-89549994D01*
X100230000Y-89609994D01*
X100210000Y-89669994D01*
X100170000Y-89699994D01*
X100030000Y-89759994D01*
X99990000Y-89719994D01*
X99940000Y-89699994D01*
X99880000Y-89719994D01*
X99840000Y-89759994D01*
X99840000Y-89819994D01*
X99860000Y-89869994D01*
X99900000Y-89899994D01*
X99950000Y-89899994D01*
X100010000Y-89869994D01*
X100040000Y-89819994D01*
X100030000Y-89769994D01*
X100170000Y-89699994D01*
X100180000Y-89699994D01*
X100210000Y-89749994D01*
X100230000Y-89809994D01*
X100230000Y-89859994D01*
X100220000Y-89919994D01*
X100190000Y-89969994D01*
X100140000Y-90019994D01*
X100100000Y-90049994D01*
X100040000Y-90079994D01*
X99990000Y-90099994D01*
X99930000Y-90099994D01*
X99870000Y-90089994D01*
X99810000Y-90069994D01*
X99760000Y-90049994D01*
X99710000Y-89999994D01*
X99670000Y-89959994D01*
X99650000Y-89899994D01*
X99640000Y-89849994D01*
X99640000Y-89789994D01*
X99660000Y-89729994D01*
X99700000Y-89689994D01*
X99650000Y-89669994D01*
X99640000Y-89619994D01*
X99640000Y-89549994D01*
X99670000Y-89509994D01*
X99720000Y-89489994D01*
X100080000Y-89489994D01*
X100140000Y-89489994D01*
X100200000Y-89509994D01*
G37*
X100030000Y-86009994D02*
X100090000Y-86029994D01*
X100140000Y-86059994D01*
X100180000Y-86099994D01*
X100220000Y-86149994D01*
X100240000Y-86199994D01*
X100250000Y-86259994D01*
X100260000Y-86319994D01*
X100250000Y-86379994D01*
X100230000Y-86429994D01*
X100200000Y-86479994D01*
X100170000Y-86529994D01*
X100090000Y-86619994D01*
X100080000Y-86619994D01*
X99960000Y-86619994D01*
X99900000Y-86619994D01*
X99840000Y-86599994D01*
X99790000Y-86579994D01*
X99740000Y-86539994D01*
X99700000Y-86489994D01*
X99670000Y-86449994D01*
X99840000Y-86349994D01*
X99870000Y-86389994D01*
X99920000Y-86419994D01*
X99990000Y-86409994D01*
X100030000Y-86379994D01*
X100060000Y-86329994D01*
X100060000Y-86269994D01*
X100020000Y-86219994D01*
X99970000Y-86199994D01*
X99900000Y-86209994D01*
X99860000Y-86239994D01*
X99840000Y-86299994D01*
X99840000Y-86349994D01*
X99670000Y-86439994D01*
X99650000Y-86389994D01*
X99640000Y-86329994D01*
X99640000Y-86269994D01*
X99650000Y-86209994D01*
X99670000Y-86159994D01*
X99710000Y-86109994D01*
X99750000Y-86069994D01*
X99800000Y-86029994D01*
X99850000Y-86009994D01*
X99910000Y-85999994D01*
X99970000Y-85999994D01*
X100030000Y-86009994D01*
G36*
X100030000Y-86009994D02*
G01*
X100090000Y-86029994D01*
X100140000Y-86059994D01*
X100180000Y-86099994D01*
X100220000Y-86149994D01*
X100240000Y-86199994D01*
X100250000Y-86259994D01*
X100260000Y-86319994D01*
X100250000Y-86379994D01*
X100230000Y-86429994D01*
X100200000Y-86479994D01*
X100170000Y-86529994D01*
X100090000Y-86619994D01*
X100080000Y-86619994D01*
X99960000Y-86619994D01*
X99900000Y-86619994D01*
X99840000Y-86599994D01*
X99790000Y-86579994D01*
X99740000Y-86539994D01*
X99700000Y-86489994D01*
X99670000Y-86449994D01*
X99840000Y-86349994D01*
X99870000Y-86389994D01*
X99920000Y-86419994D01*
X99990000Y-86409994D01*
X100030000Y-86379994D01*
X100060000Y-86329994D01*
X100060000Y-86269994D01*
X100020000Y-86219994D01*
X99970000Y-86199994D01*
X99900000Y-86209994D01*
X99860000Y-86239994D01*
X99840000Y-86299994D01*
X99840000Y-86349994D01*
X99670000Y-86439994D01*
X99650000Y-86389994D01*
X99640000Y-86329994D01*
X99640000Y-86269994D01*
X99650000Y-86209994D01*
X99670000Y-86159994D01*
X99710000Y-86109994D01*
X99750000Y-86069994D01*
X99800000Y-86029994D01*
X99850000Y-86009994D01*
X99910000Y-85999994D01*
X99970000Y-85999994D01*
X100030000Y-86009994D01*
G37*
X99830000Y-83859994D02*
X99840000Y-83919994D01*
X99840000Y-84089994D01*
X99850000Y-84099994D01*
X99870000Y-84059994D01*
X99900000Y-84009994D01*
X99940000Y-83959994D01*
X99990000Y-83919994D01*
X100040000Y-83879994D01*
X100090000Y-83859994D01*
X100150000Y-83849994D01*
X100210000Y-83849994D01*
X100270000Y-83869994D01*
X100320000Y-83889994D01*
X100370000Y-83919994D01*
X100410000Y-83959994D01*
X100450000Y-84009994D01*
X100470000Y-84059994D01*
X100480000Y-84119994D01*
X100480000Y-84179994D01*
X100470000Y-84239994D01*
X100450000Y-84299994D01*
X100420000Y-84339994D01*
X100380000Y-84379994D01*
X100330000Y-84419994D01*
X100280000Y-84439994D01*
X100220000Y-84459994D01*
X100160000Y-84459994D01*
X100110000Y-84459994D01*
X100080000Y-84419994D01*
X100070000Y-84339994D01*
X100090000Y-84289994D01*
X100140000Y-84259994D01*
X100190000Y-84259994D01*
X100250000Y-84239994D01*
X100280000Y-84189994D01*
X100280000Y-84129994D01*
X100250000Y-84079994D01*
X100190000Y-84049994D01*
X100140000Y-84059994D01*
X100090000Y-84099994D01*
X100050000Y-84139994D01*
X100010000Y-84189994D01*
X99920000Y-84339994D01*
X99890000Y-84389994D01*
X99840000Y-84429994D01*
X99790000Y-84449994D01*
X99730000Y-84459994D01*
X99680000Y-84439994D01*
X99640000Y-84399994D01*
X99640000Y-84339994D01*
X99640000Y-83929994D01*
X99640000Y-83869994D01*
X99670000Y-83819994D01*
X99730000Y-83819994D01*
X99790000Y-83819994D01*
X99830000Y-83859994D01*
G36*
X99830000Y-83859994D02*
G01*
X99840000Y-83919994D01*
X99840000Y-84089994D01*
X99850000Y-84099994D01*
X99870000Y-84059994D01*
X99900000Y-84009994D01*
X99940000Y-83959994D01*
X99990000Y-83919994D01*
X100040000Y-83879994D01*
X100090000Y-83859994D01*
X100150000Y-83849994D01*
X100210000Y-83849994D01*
X100270000Y-83869994D01*
X100320000Y-83889994D01*
X100370000Y-83919994D01*
X100410000Y-83959994D01*
X100450000Y-84009994D01*
X100470000Y-84059994D01*
X100480000Y-84119994D01*
X100480000Y-84179994D01*
X100470000Y-84239994D01*
X100450000Y-84299994D01*
X100420000Y-84339994D01*
X100380000Y-84379994D01*
X100330000Y-84419994D01*
X100280000Y-84439994D01*
X100220000Y-84459994D01*
X100160000Y-84459994D01*
X100110000Y-84459994D01*
X100080000Y-84419994D01*
X100070000Y-84339994D01*
X100090000Y-84289994D01*
X100140000Y-84259994D01*
X100190000Y-84259994D01*
X100250000Y-84239994D01*
X100280000Y-84189994D01*
X100280000Y-84129994D01*
X100250000Y-84079994D01*
X100190000Y-84049994D01*
X100140000Y-84059994D01*
X100090000Y-84099994D01*
X100050000Y-84139994D01*
X100010000Y-84189994D01*
X99920000Y-84339994D01*
X99890000Y-84389994D01*
X99840000Y-84429994D01*
X99790000Y-84449994D01*
X99730000Y-84459994D01*
X99680000Y-84439994D01*
X99640000Y-84399994D01*
X99640000Y-84339994D01*
X99640000Y-83929994D01*
X99640000Y-83869994D01*
X99670000Y-83819994D01*
X99730000Y-83819994D01*
X99790000Y-83819994D01*
X99830000Y-83859994D01*
G37*
X100010000Y-84659994D02*
X100060000Y-84699994D01*
X100100000Y-84729994D01*
X100140000Y-84699994D01*
X100200000Y-84669994D01*
X100260000Y-84669994D01*
X100320000Y-84679994D01*
X100370000Y-84699994D01*
X100420000Y-84729994D01*
X100460000Y-84779994D01*
X100490000Y-84829994D01*
X100500000Y-84889994D01*
X100510000Y-84949994D01*
X100500000Y-85009994D01*
X100480000Y-85059994D01*
X100450000Y-85109994D01*
X100410000Y-85159994D01*
X100360000Y-85189994D01*
X100310000Y-85209994D01*
X100250000Y-85219994D01*
X100190000Y-85209994D01*
X100130000Y-85189994D01*
X100100000Y-85149994D01*
X99980000Y-85009994D01*
X100000000Y-84959994D01*
X99995000Y-84929994D01*
X100190000Y-84929994D01*
X100200000Y-84989994D01*
X100250000Y-85019994D01*
X100300000Y-84999994D01*
X100310000Y-84939994D01*
X100290000Y-84879994D01*
X100220000Y-84879994D01*
X100190000Y-84929994D01*
X99995000Y-84929994D01*
X99990000Y-84899994D01*
X99960000Y-84849994D01*
X99900000Y-84839994D01*
X99850000Y-84869994D01*
X99830000Y-84929994D01*
X99830000Y-84989994D01*
X99880000Y-85029994D01*
X99930000Y-85039994D01*
X99980000Y-85009994D01*
X100090000Y-85149994D01*
X100060000Y-85189994D01*
X100000000Y-85229994D01*
X99950000Y-85239994D01*
X99880000Y-85239994D01*
X99820000Y-85229994D01*
X99770000Y-85209994D01*
X99730000Y-85169994D01*
X99690000Y-85119994D01*
X99660000Y-85069994D01*
X99640000Y-85019994D01*
X99640000Y-84959994D01*
X99640000Y-84899994D01*
X99650000Y-84839994D01*
X99680000Y-84789994D01*
X99710000Y-84739994D01*
X99750000Y-84699994D01*
X99800000Y-84659994D01*
X99860000Y-84649994D01*
X99920000Y-84639994D01*
X99950000Y-84639994D01*
X100010000Y-84659994D01*
G36*
X100010000Y-84659994D02*
G01*
X100060000Y-84699994D01*
X100100000Y-84729994D01*
X100140000Y-84699994D01*
X100200000Y-84669994D01*
X100260000Y-84669994D01*
X100320000Y-84679994D01*
X100370000Y-84699994D01*
X100420000Y-84729994D01*
X100460000Y-84779994D01*
X100490000Y-84829994D01*
X100500000Y-84889994D01*
X100510000Y-84949994D01*
X100500000Y-85009994D01*
X100480000Y-85059994D01*
X100450000Y-85109994D01*
X100410000Y-85159994D01*
X100360000Y-85189994D01*
X100310000Y-85209994D01*
X100250000Y-85219994D01*
X100190000Y-85209994D01*
X100130000Y-85189994D01*
X100100000Y-85149994D01*
X99980000Y-85009994D01*
X100000000Y-84959994D01*
X99995000Y-84929994D01*
X100190000Y-84929994D01*
X100200000Y-84989994D01*
X100250000Y-85019994D01*
X100300000Y-84999994D01*
X100310000Y-84939994D01*
X100290000Y-84879994D01*
X100220000Y-84879994D01*
X100190000Y-84929994D01*
X99995000Y-84929994D01*
X99990000Y-84899994D01*
X99960000Y-84849994D01*
X99900000Y-84839994D01*
X99850000Y-84869994D01*
X99830000Y-84929994D01*
X99830000Y-84989994D01*
X99880000Y-85029994D01*
X99930000Y-85039994D01*
X99980000Y-85009994D01*
X100090000Y-85149994D01*
X100060000Y-85189994D01*
X100000000Y-85229994D01*
X99950000Y-85239994D01*
X99880000Y-85239994D01*
X99820000Y-85229994D01*
X99770000Y-85209994D01*
X99730000Y-85169994D01*
X99690000Y-85119994D01*
X99660000Y-85069994D01*
X99640000Y-85019994D01*
X99640000Y-84959994D01*
X99640000Y-84899994D01*
X99650000Y-84839994D01*
X99680000Y-84789994D01*
X99710000Y-84739994D01*
X99750000Y-84699994D01*
X99800000Y-84659994D01*
X99860000Y-84649994D01*
X99920000Y-84639994D01*
X99950000Y-84639994D01*
X100010000Y-84659994D01*
G37*
D13*
%TO.C,R13*%
X97812742Y-81577494D02*
X98287258Y-81577494D01*
X97812742Y-82622494D02*
X98287258Y-82622494D01*
%TO.C,R8*%
X128515000Y-208327064D02*
X128515000Y-207872936D01*
X129985000Y-208327064D02*
X129985000Y-207872936D01*
%TO.C,U1*%
X105100000Y-211800000D02*
X105100000Y-210200000D01*
X106900000Y-210200000D02*
X106900000Y-212100000D01*
%TO.C,J2*%
X120990000Y-202627500D02*
X127110000Y-202627500D01*
X120990000Y-208847500D02*
X121910000Y-208847500D01*
X120990000Y-210447500D02*
X120990000Y-202627500D01*
X121750000Y-204887500D02*
X122750000Y-204887500D01*
X121750000Y-206487500D02*
X121750000Y-204887500D01*
X121910000Y-208847500D02*
X121910000Y-210447500D01*
X121910000Y-210447500D02*
X120990000Y-210447500D01*
X122190000Y-208847500D02*
X121910000Y-208847500D01*
X122190000Y-208847500D02*
X122190000Y-210062500D01*
X122250000Y-204887500D02*
X122250000Y-202627500D01*
X122750000Y-204887500D02*
X122750000Y-202627500D01*
X122750000Y-204887500D02*
X122750000Y-206487500D01*
X122750000Y-206487500D02*
X121750000Y-206487500D01*
X123550000Y-202627500D02*
X123550000Y-206987500D01*
X123550000Y-206987500D02*
X124550000Y-206987500D01*
X124550000Y-206987500D02*
X124550000Y-202627500D01*
X125350000Y-204887500D02*
X125350000Y-206487500D01*
X125350000Y-206487500D02*
X126350000Y-206487500D01*
X126190000Y-208847500D02*
X125910000Y-208847500D01*
X126190000Y-210447500D02*
X126190000Y-208847500D01*
X126350000Y-204887500D02*
X125350000Y-204887500D01*
X126350000Y-206487500D02*
X126350000Y-204887500D01*
X127110000Y-202627500D02*
X127110000Y-210447500D01*
X127110000Y-208847500D02*
X126190000Y-208847500D01*
X127110000Y-210447500D02*
X126190000Y-210447500D01*
%TO.C,C1*%
X116035000Y-218838748D02*
X116035000Y-219361252D01*
X114565000Y-218838748D02*
X114565000Y-219361252D01*
%TO.C,C15*%
X110659420Y-79839994D02*
X110940580Y-79839994D01*
X110659420Y-80859994D02*
X110940580Y-80859994D01*
%TO.C,R15*%
X113812742Y-84327494D02*
X114287258Y-84327494D01*
X113812742Y-85372494D02*
X114287258Y-85372494D01*
%TO.C,C8*%
X98190580Y-85609994D02*
X97909420Y-85609994D01*
X98190580Y-84589994D02*
X97909420Y-84589994D01*
%TO.C,C12*%
X98190580Y-84109994D02*
X97909420Y-84109994D01*
X98190580Y-83089994D02*
X97909420Y-83089994D01*
%TO.C,R5*%
X133165000Y-195027064D02*
X133165000Y-194572936D01*
X134635000Y-195027064D02*
X134635000Y-194572936D01*
%TO.C,*%
D16*
X117810000Y-77439994D02*
X117840000Y-77469994D01*
X117840000Y-78359994D01*
X117840000Y-78409994D01*
X117750000Y-78499994D01*
X117550000Y-78449994D01*
X117050000Y-78399994D01*
X116660000Y-78249994D01*
X116660000Y-77989994D01*
X116840000Y-77989994D01*
X116860000Y-78039994D01*
X116880000Y-78099994D01*
X116910000Y-78139994D01*
X116950000Y-78189994D01*
X117000000Y-78229994D01*
X117050000Y-78269994D01*
X117100000Y-78289994D01*
X117150000Y-78309994D01*
X117210000Y-78319994D01*
X117270000Y-78329994D01*
X117330000Y-78319994D01*
X117390000Y-78309994D01*
X117440000Y-78289994D01*
X117500000Y-78259994D01*
X117540000Y-78229994D01*
X117590000Y-78189994D01*
X117620000Y-78139994D01*
X117650000Y-78089994D01*
X117670000Y-78029994D01*
X117690000Y-77979994D01*
X117690000Y-77919994D01*
X117690000Y-77859994D01*
X117680000Y-77799994D01*
X117660000Y-77749994D01*
X117640000Y-77689994D01*
X117600000Y-77639994D01*
X117550000Y-77619994D01*
X117500000Y-77639994D01*
X117450000Y-77679994D01*
X117430000Y-77729994D01*
X117460000Y-77779994D01*
X117480000Y-77829994D01*
X117490000Y-77889994D01*
X117490000Y-77949994D01*
X117470000Y-78009994D01*
X117440000Y-78059994D01*
X117390000Y-78099994D01*
X117340000Y-78119994D01*
X117280000Y-78129994D01*
X117220000Y-78119994D01*
X117160000Y-78099994D01*
X117110000Y-78069994D01*
X117070000Y-78019994D01*
X117050000Y-77969994D01*
X117040000Y-77909994D01*
X117040000Y-77849994D01*
X117060000Y-77799994D01*
X117120000Y-77789994D01*
X117180000Y-77789994D01*
X117180000Y-77839994D01*
X117190000Y-77909994D01*
X117220000Y-77949994D01*
X117280000Y-77949994D01*
X117330000Y-77939994D01*
X117350000Y-77889994D01*
X117350000Y-77879994D01*
X117350000Y-77699994D01*
X117340000Y-77629994D01*
X117310000Y-77599994D01*
X117250000Y-77589994D01*
X117010000Y-77589994D01*
X116960000Y-77609994D01*
X116910000Y-77639994D01*
X116880000Y-77689994D01*
X116860000Y-77739994D01*
X116840000Y-77799994D01*
X116840000Y-77859994D01*
X116840000Y-77929994D01*
X116840000Y-77989994D01*
X116660000Y-77989994D01*
X116660000Y-77479994D01*
X116680000Y-77439994D01*
X117810000Y-77439994D01*
G36*
X117810000Y-77439994D02*
G01*
X117840000Y-77469994D01*
X117840000Y-78359994D01*
X117840000Y-78409994D01*
X117750000Y-78499994D01*
X117550000Y-78449994D01*
X117050000Y-78399994D01*
X116660000Y-78249994D01*
X116660000Y-77989994D01*
X116840000Y-77989994D01*
X116860000Y-78039994D01*
X116880000Y-78099994D01*
X116910000Y-78139994D01*
X116950000Y-78189994D01*
X117000000Y-78229994D01*
X117050000Y-78269994D01*
X117100000Y-78289994D01*
X117150000Y-78309994D01*
X117210000Y-78319994D01*
X117270000Y-78329994D01*
X117330000Y-78319994D01*
X117390000Y-78309994D01*
X117440000Y-78289994D01*
X117500000Y-78259994D01*
X117540000Y-78229994D01*
X117590000Y-78189994D01*
X117620000Y-78139994D01*
X117650000Y-78089994D01*
X117670000Y-78029994D01*
X117690000Y-77979994D01*
X117690000Y-77919994D01*
X117690000Y-77859994D01*
X117680000Y-77799994D01*
X117660000Y-77749994D01*
X117640000Y-77689994D01*
X117600000Y-77639994D01*
X117550000Y-77619994D01*
X117500000Y-77639994D01*
X117450000Y-77679994D01*
X117430000Y-77729994D01*
X117460000Y-77779994D01*
X117480000Y-77829994D01*
X117490000Y-77889994D01*
X117490000Y-77949994D01*
X117470000Y-78009994D01*
X117440000Y-78059994D01*
X117390000Y-78099994D01*
X117340000Y-78119994D01*
X117280000Y-78129994D01*
X117220000Y-78119994D01*
X117160000Y-78099994D01*
X117110000Y-78069994D01*
X117070000Y-78019994D01*
X117050000Y-77969994D01*
X117040000Y-77909994D01*
X117040000Y-77849994D01*
X117060000Y-77799994D01*
X117120000Y-77789994D01*
X117180000Y-77789994D01*
X117180000Y-77839994D01*
X117190000Y-77909994D01*
X117220000Y-77949994D01*
X117280000Y-77949994D01*
X117330000Y-77939994D01*
X117350000Y-77889994D01*
X117350000Y-77879994D01*
X117350000Y-77699994D01*
X117340000Y-77629994D01*
X117310000Y-77599994D01*
X117250000Y-77589994D01*
X117010000Y-77589994D01*
X116960000Y-77609994D01*
X116910000Y-77639994D01*
X116880000Y-77689994D01*
X116860000Y-77739994D01*
X116840000Y-77799994D01*
X116840000Y-77859994D01*
X116840000Y-77929994D01*
X116840000Y-77989994D01*
X116660000Y-77989994D01*
X116660000Y-77479994D01*
X116680000Y-77439994D01*
X117810000Y-77439994D01*
G37*
D13*
%TO.C,U2*%
X128640000Y-203500000D02*
X128640000Y-204300000D01*
X128640000Y-203500000D02*
X128640000Y-202700000D01*
X131760000Y-203500000D02*
X131760000Y-205300000D01*
X131760000Y-203500000D02*
X131760000Y-202700000D01*
%TO.C,R11*%
X128065000Y-213727064D02*
X128065000Y-213272936D01*
X129535000Y-213727064D02*
X129535000Y-213272936D01*
%TO.C,C2*%
X130265000Y-213761252D02*
X130265000Y-213238748D01*
X131735000Y-213761252D02*
X131735000Y-213238748D01*
%TO.C,R20*%
X114777500Y-97537252D02*
X114777500Y-97062736D01*
X115822500Y-97537252D02*
X115822500Y-97062736D01*
%TO.C,*%
D16*
X94970000Y-77339994D02*
X95030000Y-77359994D01*
X95070000Y-77379994D01*
X95100000Y-77419994D01*
X95100000Y-77459994D01*
X95080000Y-77499994D01*
X95040000Y-77529994D01*
X94990000Y-77549994D01*
X94910000Y-77559994D01*
X94820000Y-77559994D01*
X94740000Y-77549994D01*
X94690000Y-77529994D01*
X94650000Y-77499994D01*
X94640000Y-77459994D01*
X94640000Y-77439994D01*
X94650000Y-77399994D01*
X94680000Y-77369994D01*
X94730000Y-77349994D01*
X94800000Y-77329994D01*
X94890000Y-77329994D01*
X94970000Y-77339994D01*
G36*
X94970000Y-77339994D02*
G01*
X95030000Y-77359994D01*
X95070000Y-77379994D01*
X95100000Y-77419994D01*
X95100000Y-77459994D01*
X95080000Y-77499994D01*
X95040000Y-77529994D01*
X94990000Y-77549994D01*
X94910000Y-77559994D01*
X94820000Y-77559994D01*
X94740000Y-77549994D01*
X94690000Y-77529994D01*
X94650000Y-77499994D01*
X94640000Y-77459994D01*
X94640000Y-77439994D01*
X94650000Y-77399994D01*
X94680000Y-77369994D01*
X94730000Y-77349994D01*
X94800000Y-77329994D01*
X94890000Y-77329994D01*
X94970000Y-77339994D01*
G37*
X95440000Y-77399994D02*
X95440000Y-78399994D01*
X95440000Y-78449994D01*
X95250000Y-78599994D01*
X94650000Y-78699994D01*
X94350000Y-78549994D01*
X94350000Y-78509994D01*
X94440000Y-78509994D01*
X94470000Y-78559994D01*
X94520000Y-78589994D01*
X94580000Y-78579994D01*
X94630000Y-78559994D01*
X94680000Y-78519994D01*
X94720000Y-78469994D01*
X94810000Y-78319994D01*
X94840000Y-78269994D01*
X94880000Y-78229994D01*
X94930000Y-78189994D01*
X94990000Y-78179994D01*
X95040000Y-78199994D01*
X95070000Y-78249994D01*
X95080000Y-78309994D01*
X95050000Y-78359994D01*
X95000000Y-78379994D01*
X94940000Y-78389994D01*
X94890000Y-78409994D01*
X94870000Y-78459994D01*
X94880000Y-78539994D01*
X94910000Y-78579994D01*
X94960000Y-78589994D01*
X95020000Y-78579994D01*
X95080000Y-78569994D01*
X95130000Y-78549994D01*
X95180000Y-78509994D01*
X95220000Y-78469994D01*
X95250000Y-78419994D01*
X95270000Y-78369994D01*
X95280000Y-78299994D01*
X95280000Y-78239994D01*
X95270000Y-78179994D01*
X95240000Y-78129994D01*
X95210000Y-78079994D01*
X95170000Y-78039994D01*
X95120000Y-78009994D01*
X95060000Y-77989994D01*
X95000000Y-77979994D01*
X94940000Y-77979994D01*
X94890000Y-77989994D01*
X94830000Y-78009994D01*
X94780000Y-78049994D01*
X94740000Y-78089994D01*
X94700000Y-78139994D01*
X94670000Y-78189994D01*
X94650000Y-78239994D01*
X94640000Y-78209994D01*
X94640000Y-78089994D01*
X94630000Y-77999994D01*
X94600000Y-77949994D01*
X94550000Y-77939994D01*
X94480000Y-77949994D01*
X94440000Y-77979994D01*
X94440000Y-78039994D01*
X94440000Y-78449994D01*
X94440000Y-78509994D01*
X94350000Y-78509994D01*
X94350000Y-77509994D01*
X94440000Y-77509994D01*
X94460000Y-77569994D01*
X94490000Y-77619994D01*
X94520000Y-77669994D01*
X94570000Y-77699994D01*
X94620000Y-77719994D01*
X94680000Y-77739994D01*
X94730000Y-77749994D01*
X94790000Y-77759994D01*
X94850000Y-77759994D01*
X94920000Y-77759994D01*
X94980000Y-77759994D01*
X95030000Y-77749994D01*
X95090000Y-77729994D01*
X95150000Y-77699994D01*
X95190000Y-77679994D01*
X95240000Y-77649994D01*
X95260000Y-77589994D01*
X95290000Y-77539994D01*
X95300000Y-77479994D01*
X95300000Y-77419994D01*
X95290000Y-77359994D01*
X95270000Y-77309994D01*
X95230000Y-77259994D01*
X95190000Y-77219994D01*
X95140000Y-77189994D01*
X95090000Y-77169994D01*
X95030000Y-77149994D01*
X94970000Y-77139994D01*
X94910000Y-77129994D01*
X94850000Y-77129994D01*
X94780000Y-77129994D01*
X94720000Y-77139994D01*
X94660000Y-77159994D01*
X94610000Y-77179994D01*
X94570000Y-77199994D01*
X94520000Y-77239994D01*
X94480000Y-77279994D01*
X94460000Y-77329994D01*
X94440000Y-77389994D01*
X94440000Y-77449994D01*
X94440000Y-77509994D01*
X94350000Y-77509994D01*
X94350000Y-77349994D01*
X94600000Y-77099994D01*
X95150000Y-77099994D01*
X95440000Y-77399994D01*
G36*
X95440000Y-77399994D02*
G01*
X95440000Y-78399994D01*
X95440000Y-78449994D01*
X95250000Y-78599994D01*
X94650000Y-78699994D01*
X94350000Y-78549994D01*
X94350000Y-78509994D01*
X94440000Y-78509994D01*
X94470000Y-78559994D01*
X94520000Y-78589994D01*
X94580000Y-78579994D01*
X94630000Y-78559994D01*
X94680000Y-78519994D01*
X94720000Y-78469994D01*
X94810000Y-78319994D01*
X94840000Y-78269994D01*
X94880000Y-78229994D01*
X94930000Y-78189994D01*
X94990000Y-78179994D01*
X95040000Y-78199994D01*
X95070000Y-78249994D01*
X95080000Y-78309994D01*
X95050000Y-78359994D01*
X95000000Y-78379994D01*
X94940000Y-78389994D01*
X94890000Y-78409994D01*
X94870000Y-78459994D01*
X94880000Y-78539994D01*
X94910000Y-78579994D01*
X94960000Y-78589994D01*
X95020000Y-78579994D01*
X95080000Y-78569994D01*
X95130000Y-78549994D01*
X95180000Y-78509994D01*
X95220000Y-78469994D01*
X95250000Y-78419994D01*
X95270000Y-78369994D01*
X95280000Y-78299994D01*
X95280000Y-78239994D01*
X95270000Y-78179994D01*
X95240000Y-78129994D01*
X95210000Y-78079994D01*
X95170000Y-78039994D01*
X95120000Y-78009994D01*
X95060000Y-77989994D01*
X95000000Y-77979994D01*
X94940000Y-77979994D01*
X94890000Y-77989994D01*
X94830000Y-78009994D01*
X94780000Y-78049994D01*
X94740000Y-78089994D01*
X94700000Y-78139994D01*
X94670000Y-78189994D01*
X94650000Y-78239994D01*
X94640000Y-78209994D01*
X94640000Y-78089994D01*
X94630000Y-77999994D01*
X94600000Y-77949994D01*
X94550000Y-77939994D01*
X94480000Y-77949994D01*
X94440000Y-77979994D01*
X94440000Y-78039994D01*
X94440000Y-78449994D01*
X94440000Y-78509994D01*
X94350000Y-78509994D01*
X94350000Y-77509994D01*
X94440000Y-77509994D01*
X94460000Y-77569994D01*
X94490000Y-77619994D01*
X94520000Y-77669994D01*
X94570000Y-77699994D01*
X94620000Y-77719994D01*
X94680000Y-77739994D01*
X94730000Y-77749994D01*
X94790000Y-77759994D01*
X94850000Y-77759994D01*
X94920000Y-77759994D01*
X94980000Y-77759994D01*
X95030000Y-77749994D01*
X95090000Y-77729994D01*
X95150000Y-77699994D01*
X95190000Y-77679994D01*
X95240000Y-77649994D01*
X95260000Y-77589994D01*
X95290000Y-77539994D01*
X95300000Y-77479994D01*
X95300000Y-77419994D01*
X95290000Y-77359994D01*
X95270000Y-77309994D01*
X95230000Y-77259994D01*
X95190000Y-77219994D01*
X95140000Y-77189994D01*
X95090000Y-77169994D01*
X95030000Y-77149994D01*
X94970000Y-77139994D01*
X94910000Y-77129994D01*
X94850000Y-77129994D01*
X94780000Y-77129994D01*
X94720000Y-77139994D01*
X94660000Y-77159994D01*
X94610000Y-77179994D01*
X94570000Y-77199994D01*
X94520000Y-77239994D01*
X94480000Y-77279994D01*
X94460000Y-77329994D01*
X94440000Y-77389994D01*
X94440000Y-77449994D01*
X94440000Y-77509994D01*
X94350000Y-77509994D01*
X94350000Y-77349994D01*
X94600000Y-77099994D01*
X95150000Y-77099994D01*
X95440000Y-77399994D01*
G37*
D13*
%TO.C,C9*%
X104790000Y-81490574D02*
X104790000Y-81209414D01*
X105810000Y-81490574D02*
X105810000Y-81209414D01*
%TO.C,C18*%
X110659420Y-86089994D02*
X110940580Y-86089994D01*
X110659420Y-87109994D02*
X110940580Y-87109994D01*
%TO.C,U5*%
X110190000Y-95299994D02*
X110190000Y-89299994D01*
X115410000Y-92299994D02*
X115410000Y-89299994D01*
%TO.C,D2*%
X109315000Y-82614994D02*
X111600000Y-82614994D01*
X109315000Y-84084994D02*
X109315000Y-82614994D01*
X111600000Y-84084994D02*
X109315000Y-84084994D01*
%TO.C,*%
D16*
X95030000Y-99979994D02*
X95070000Y-100009994D01*
X95090000Y-100039994D01*
X95100000Y-100089994D01*
X95080000Y-100129994D01*
X95050000Y-100159994D01*
X94990000Y-100179994D01*
X94920000Y-100189994D01*
X94830000Y-100189994D01*
X94750000Y-100179994D01*
X94690000Y-100159994D01*
X94660000Y-100129994D01*
X94640000Y-100089994D01*
X94640000Y-100069994D01*
X94650000Y-100029994D01*
X94680000Y-99989994D01*
X94730000Y-99969994D01*
X94800000Y-99959994D01*
X94880000Y-99959994D01*
X94970000Y-99959994D01*
X95030000Y-99979994D01*
G36*
X95030000Y-99979994D02*
G01*
X95070000Y-100009994D01*
X95090000Y-100039994D01*
X95100000Y-100089994D01*
X95080000Y-100129994D01*
X95050000Y-100159994D01*
X94990000Y-100179994D01*
X94920000Y-100189994D01*
X94830000Y-100189994D01*
X94750000Y-100179994D01*
X94690000Y-100159994D01*
X94660000Y-100129994D01*
X94640000Y-100089994D01*
X94640000Y-100069994D01*
X94650000Y-100029994D01*
X94680000Y-99989994D01*
X94730000Y-99969994D01*
X94800000Y-99959994D01*
X94880000Y-99959994D01*
X94970000Y-99959994D01*
X95030000Y-99979994D01*
G37*
X95440000Y-99849994D02*
X95440000Y-100799994D01*
X95250000Y-100999994D01*
X94550000Y-100999994D01*
X94400000Y-100899994D01*
X94377600Y-100739994D01*
X94440000Y-100739994D01*
X94480000Y-100769994D01*
X94530000Y-100779994D01*
X94890000Y-100779994D01*
X94930000Y-100789994D01*
X94900000Y-100839994D01*
X94890000Y-100889994D01*
X94930000Y-100939994D01*
X94990000Y-100969994D01*
X95030000Y-100969994D01*
X95080000Y-100919994D01*
X95240000Y-100749994D01*
X95260000Y-100709994D01*
X95270000Y-100649994D01*
X95250000Y-100599994D01*
X95210000Y-100579994D01*
X94490000Y-100579994D01*
X94450000Y-100599994D01*
X94440000Y-100659994D01*
X94440000Y-100739994D01*
X94377600Y-100739994D01*
X94292200Y-100129994D01*
X94440000Y-100129994D01*
X94460000Y-100189994D01*
X94480000Y-100239994D01*
X94520000Y-100289994D01*
X94560000Y-100319994D01*
X94620000Y-100349994D01*
X94670000Y-100369994D01*
X94730000Y-100379994D01*
X94790000Y-100389994D01*
X94850000Y-100389994D01*
X94920000Y-100389994D01*
X94980000Y-100379994D01*
X95030000Y-100369994D01*
X95090000Y-100349994D01*
X95150000Y-100329994D01*
X95190000Y-100299994D01*
X95240000Y-100269994D01*
X95260000Y-100219994D01*
X95290000Y-100169994D01*
X95300000Y-100109994D01*
X95300000Y-100039994D01*
X95290000Y-99989994D01*
X95270000Y-99929994D01*
X95230000Y-99879994D01*
X95190000Y-99839994D01*
X95140000Y-99809994D01*
X95090000Y-99789994D01*
X95030000Y-99769994D01*
X94970000Y-99759994D01*
X94910000Y-99759994D01*
X94850000Y-99749994D01*
X94780000Y-99759994D01*
X94720000Y-99769994D01*
X94660000Y-99779994D01*
X94610000Y-99799994D01*
X94570000Y-99829994D01*
X94520000Y-99859994D01*
X94480000Y-99899994D01*
X94460000Y-99949994D01*
X94440000Y-100009994D01*
X94440000Y-100069994D01*
X94440000Y-100129994D01*
X94292200Y-100129994D01*
X94260000Y-99899994D01*
X94500000Y-99699994D01*
X95200000Y-99699994D01*
X95440000Y-99849994D01*
G36*
X95440000Y-99849994D02*
G01*
X95440000Y-100799994D01*
X95250000Y-100999994D01*
X94550000Y-100999994D01*
X94400000Y-100899994D01*
X94377600Y-100739994D01*
X94440000Y-100739994D01*
X94480000Y-100769994D01*
X94530000Y-100779994D01*
X94890000Y-100779994D01*
X94930000Y-100789994D01*
X94900000Y-100839994D01*
X94890000Y-100889994D01*
X94930000Y-100939994D01*
X94990000Y-100969994D01*
X95030000Y-100969994D01*
X95080000Y-100919994D01*
X95240000Y-100749994D01*
X95260000Y-100709994D01*
X95270000Y-100649994D01*
X95250000Y-100599994D01*
X95210000Y-100579994D01*
X94490000Y-100579994D01*
X94450000Y-100599994D01*
X94440000Y-100659994D01*
X94440000Y-100739994D01*
X94377600Y-100739994D01*
X94292200Y-100129994D01*
X94440000Y-100129994D01*
X94460000Y-100189994D01*
X94480000Y-100239994D01*
X94520000Y-100289994D01*
X94560000Y-100319994D01*
X94620000Y-100349994D01*
X94670000Y-100369994D01*
X94730000Y-100379994D01*
X94790000Y-100389994D01*
X94850000Y-100389994D01*
X94920000Y-100389994D01*
X94980000Y-100379994D01*
X95030000Y-100369994D01*
X95090000Y-100349994D01*
X95150000Y-100329994D01*
X95190000Y-100299994D01*
X95240000Y-100269994D01*
X95260000Y-100219994D01*
X95290000Y-100169994D01*
X95300000Y-100109994D01*
X95300000Y-100039994D01*
X95290000Y-99989994D01*
X95270000Y-99929994D01*
X95230000Y-99879994D01*
X95190000Y-99839994D01*
X95140000Y-99809994D01*
X95090000Y-99789994D01*
X95030000Y-99769994D01*
X94970000Y-99759994D01*
X94910000Y-99759994D01*
X94850000Y-99749994D01*
X94780000Y-99759994D01*
X94720000Y-99769994D01*
X94660000Y-99779994D01*
X94610000Y-99799994D01*
X94570000Y-99829994D01*
X94520000Y-99859994D01*
X94480000Y-99899994D01*
X94460000Y-99949994D01*
X94440000Y-100009994D01*
X94440000Y-100069994D01*
X94440000Y-100129994D01*
X94292200Y-100129994D01*
X94260000Y-99899994D01*
X94500000Y-99699994D01*
X95200000Y-99699994D01*
X95440000Y-99849994D01*
G37*
D13*
%TO.C,R1*%
X85265000Y-199027064D02*
X85265000Y-198572936D01*
X86735000Y-199027064D02*
X86735000Y-198572936D01*
%TO.C,C4*%
X132565000Y-201661252D02*
X132565000Y-201138748D01*
X134035000Y-201661252D02*
X134035000Y-201138748D01*
%TO.C,C10*%
X106290000Y-81490574D02*
X106290000Y-81209414D01*
X107310000Y-81490574D02*
X107310000Y-81209414D01*
%TO.C,C3*%
X134035000Y-205438748D02*
X134035000Y-205961252D01*
X132565000Y-205438748D02*
X132565000Y-205961252D01*
%TO.C,R6*%
X102427064Y-210435000D02*
X101972936Y-210435000D01*
X102427064Y-208965000D02*
X101972936Y-208965000D01*
%TO.C,R19*%
X113812742Y-87327494D02*
X114287258Y-87327494D01*
X113812742Y-88372494D02*
X114287258Y-88372494D01*
%TO.C,R2*%
X97265000Y-199027064D02*
X97265000Y-198572936D01*
X98735000Y-199027064D02*
X98735000Y-198572936D01*
%TO.C,C11*%
X107790000Y-81490574D02*
X107790000Y-81209414D01*
X108810000Y-81490574D02*
X108810000Y-81209414D01*
%TO.C,U3*%
X100900000Y-91349994D02*
X101550000Y-91349994D01*
X100900000Y-90699994D02*
X100900000Y-91349994D01*
X108200000Y-90699994D02*
X108200000Y-91637494D01*
X100900000Y-84699994D02*
X100900000Y-84049994D01*
X108200000Y-84699994D02*
X108200000Y-84049994D01*
X100900000Y-84049994D02*
X101550000Y-84049994D01*
X108200000Y-84049994D02*
X107550000Y-84049994D01*
%TO.C,R4*%
X121265000Y-199027064D02*
X121265000Y-198572936D01*
X122735000Y-199027064D02*
X122735000Y-198572936D01*
%TO.C,C7*%
X108160000Y-93259414D02*
X108160000Y-93540574D01*
X107140000Y-93259414D02*
X107140000Y-93540574D01*
%TO.C,C16*%
X97909420Y-91089994D02*
X98190580Y-91089994D01*
X97909420Y-92109994D02*
X98190580Y-92109994D01*
%TO.C,C14*%
X110659420Y-84339994D02*
X110940580Y-84339994D01*
X110659420Y-85359994D02*
X110940580Y-85359994D01*
%TO.C,C13*%
X110659420Y-87589994D02*
X110940580Y-87589994D01*
X110659420Y-88609994D02*
X110940580Y-88609994D01*
%TO.C,C5*%
X122338748Y-219265000D02*
X122861252Y-219265000D01*
X122338748Y-220735000D02*
X122861252Y-220735000D01*
%TO.C,Y1*%
X99450000Y-87449994D02*
X99450000Y-90749994D01*
X96650000Y-87449994D02*
X99450000Y-87449994D01*
%TO.C,R18*%
X113812742Y-85827494D02*
X114287258Y-85827494D01*
X113812742Y-86872494D02*
X114287258Y-86872494D01*
%TO.C,D1*%
X134800000Y-208440000D02*
X134800000Y-212450000D01*
X132800000Y-208440000D02*
X134800000Y-208440000D01*
X132800000Y-208440000D02*
X132800000Y-212450000D01*
%TO.C,SW1*%
X109000000Y-95699994D02*
X112300000Y-95699994D01*
X109000000Y-95999994D02*
X109000000Y-95699994D01*
X109000000Y-98199994D02*
X109000000Y-98499994D01*
X109000000Y-98499994D02*
X112300000Y-98499994D01*
X112300000Y-95699994D02*
X112300000Y-95999994D01*
X112300000Y-98499994D02*
X112300000Y-98199994D01*
%TO.C,C17*%
X98190580Y-87109994D02*
X97909420Y-87109994D01*
X98190580Y-86089994D02*
X97909420Y-86089994D01*
%TO.C,Q1*%
X124610000Y-213437500D02*
X124610000Y-212787500D01*
X124610000Y-213437500D02*
X124610000Y-214087500D01*
X121490000Y-213437500D02*
X121490000Y-211762500D01*
X121490000Y-213437500D02*
X121490000Y-214087500D01*
%TO.C,R17*%
X110562742Y-81327494D02*
X111037258Y-81327494D01*
X110562742Y-82372494D02*
X111037258Y-82372494D01*
%TD*%
%LPC*%
D17*
%TO.C,R14*%
X104000000Y-123237500D03*
X102000000Y-123237500D03*
%TD*%
D18*
%TO.C,Q2*%
X107105000Y-123237500D03*
X108055000Y-120962500D03*
X106155000Y-120962500D03*
%TD*%
D19*
%TO.C,J3*%
X89325000Y-127975000D03*
D20*
X91865000Y-127975000D03*
X94405000Y-127975000D03*
X96945000Y-127975000D03*
X99485000Y-127975000D03*
X102025000Y-127975000D03*
X104565000Y-127975000D03*
X107105000Y-127975000D03*
X109645000Y-127975000D03*
X112185000Y-127975000D03*
X114725000Y-127975000D03*
X117265000Y-127975000D03*
X119805000Y-127975000D03*
X122345000Y-127975000D03*
%TD*%
D21*
%TO.C,C6*%
X109150000Y-92624994D03*
X109150000Y-94174994D03*
%TD*%
D22*
%TO.C,R3*%
X110000000Y-199800000D03*
X110000000Y-197800000D03*
%TD*%
D23*
%TO.C,R10*%
X126600000Y-212500000D03*
X126600000Y-214500000D03*
%TD*%
D24*
%TO.C,R12*%
X113800000Y-98124994D03*
X113800000Y-96474994D03*
%TD*%
D18*
%TO.C,U4*%
X113100000Y-80712494D03*
X114050000Y-80712494D03*
X115000000Y-80712494D03*
X115000000Y-82987494D03*
X113100000Y-82987494D03*
%TD*%
D22*
%TO.C,R9*%
X128900000Y-219700000D03*
X128900000Y-217700000D03*
%TD*%
D25*
%TO.C,R7*%
X109000000Y-209700000D03*
X111000000Y-209700000D03*
%TD*%
D26*
%TO.C,F1*%
X113000000Y-214950000D03*
X113000000Y-218050000D03*
%TD*%
D27*
%TO.C,J7*%
X93550000Y-98099994D03*
D28*
X94300000Y-98099994D03*
D27*
X95050000Y-98099994D03*
D29*
X93550000Y-96099994D03*
D28*
X94300000Y-96099994D03*
D29*
X95050000Y-96099994D03*
X93550000Y-94099994D03*
D28*
X94300000Y-94099994D03*
D29*
X95050000Y-94099994D03*
X93550000Y-92099994D03*
D28*
X94300000Y-92099994D03*
D29*
X95050000Y-92099994D03*
X93550000Y-90099994D03*
D28*
X94300000Y-90099994D03*
D29*
X95050000Y-90099994D03*
X93550000Y-88099994D03*
D28*
X94300000Y-88099994D03*
D29*
X95050000Y-88099994D03*
X93550000Y-86099994D03*
D28*
X94300000Y-86099994D03*
D29*
X95050000Y-86099994D03*
X93550000Y-84099994D03*
D28*
X94300000Y-84099994D03*
D29*
X95050000Y-84099994D03*
X93550000Y-82099994D03*
D28*
X94300000Y-82099994D03*
D29*
X95050000Y-82099994D03*
X93550000Y-80099994D03*
D28*
X94300000Y-80099994D03*
D29*
X95050000Y-80099994D03*
%TD*%
D30*
%TO.C,R13*%
X97225000Y-82099994D03*
X98875000Y-82099994D03*
%TD*%
D22*
%TO.C,R8*%
X129250000Y-209100000D03*
X129250000Y-207100000D03*
%TD*%
D31*
%TO.C,U1*%
X106537500Y-211850000D03*
D32*
X106000000Y-211925000D03*
D31*
X105462500Y-211850000D03*
X105462500Y-210150000D03*
D32*
X106000000Y-210075000D03*
D31*
X106537500Y-210150000D03*
%TD*%
D33*
%TO.C,J2*%
X123050000Y-208987500D03*
D34*
X125050000Y-208987500D03*
%TD*%
D35*
%TO.C,C1*%
X115300000Y-218062500D03*
X115300000Y-220137500D03*
%TD*%
D36*
%TO.C,C15*%
X110025000Y-80349994D03*
X111575000Y-80349994D03*
%TD*%
D30*
%TO.C,R15*%
X113225000Y-84849994D03*
X114875000Y-84849994D03*
%TD*%
D37*
%TO.C,C8*%
X98825000Y-85099994D03*
X97275000Y-85099994D03*
%TD*%
%TO.C,C12*%
X98825000Y-83599994D03*
X97275000Y-83599994D03*
%TD*%
D22*
%TO.C,R5*%
X133900000Y-195800000D03*
X133900000Y-193800000D03*
%TD*%
D38*
%TO.C,U2*%
X131150000Y-204637500D03*
X130200000Y-204637500D03*
X129250000Y-204637500D03*
X129250000Y-202362500D03*
X131150000Y-202362500D03*
%TD*%
D22*
%TO.C,R11*%
X128800000Y-214500000D03*
X128800000Y-212500000D03*
%TD*%
D39*
%TO.C,C2*%
X131000000Y-214537500D03*
X131000000Y-212462500D03*
%TD*%
D24*
%TO.C,R20*%
X115300000Y-98124994D03*
X115300000Y-96474994D03*
%TD*%
D40*
%TO.C,C9*%
X105300000Y-82124994D03*
X105300000Y-80574994D03*
%TD*%
D36*
%TO.C,C18*%
X110025000Y-86599994D03*
X111575000Y-86599994D03*
%TD*%
D41*
%TO.C,U5*%
X114705000Y-94962494D03*
X113435000Y-94962494D03*
X112165000Y-94962494D03*
X110895000Y-94962494D03*
X110895000Y-89637494D03*
X112165000Y-89637494D03*
X113435000Y-89637494D03*
X114705000Y-89637494D03*
D42*
X112800000Y-92299994D03*
%TD*%
D43*
%TO.C,D2*%
X110012500Y-83349994D03*
X111587500Y-83349994D03*
%TD*%
D22*
%TO.C,R1*%
X86000000Y-199800000D03*
X86000000Y-197800000D03*
%TD*%
D39*
%TO.C,C4*%
X133300000Y-202437500D03*
X133300000Y-200362500D03*
%TD*%
D40*
%TO.C,C10*%
X106800000Y-82124994D03*
X106800000Y-80574994D03*
%TD*%
D27*
%TO.C,J6*%
X115050000Y-78099994D03*
D44*
X115050000Y-77349994D03*
D27*
X115050000Y-76599994D03*
D29*
X113050000Y-78099994D03*
D44*
X113050000Y-77349994D03*
D29*
X113050000Y-76599994D03*
X111050000Y-78099994D03*
D44*
X111050000Y-77349994D03*
D29*
X111050000Y-76599994D03*
X109050000Y-78099994D03*
D44*
X109050000Y-77349994D03*
D29*
X109050000Y-76599994D03*
X107050000Y-78099994D03*
D44*
X107050000Y-77349994D03*
D29*
X107050000Y-76599994D03*
X105050000Y-78099994D03*
D44*
X105050000Y-77349994D03*
D29*
X105050000Y-76599994D03*
X103050000Y-78099994D03*
D44*
X103050000Y-77349994D03*
D29*
X103050000Y-76599994D03*
X101050000Y-78099994D03*
D44*
X101050000Y-77349994D03*
D29*
X101050000Y-76599994D03*
X99050000Y-78099994D03*
D44*
X99050000Y-77349994D03*
D29*
X99050000Y-76599994D03*
X97050000Y-78099994D03*
D44*
X97050000Y-77349994D03*
D29*
X97050000Y-76599994D03*
%TD*%
D35*
%TO.C,C3*%
X133300000Y-204662500D03*
X133300000Y-206737500D03*
%TD*%
D45*
%TO.C,SW2*%
X133465000Y-106660000D03*
X133465000Y-107660000D03*
D46*
X133465000Y-108660000D03*
D47*
X134820000Y-104660000D03*
X134820000Y-110660000D03*
%TD*%
D17*
%TO.C,R6*%
X103200000Y-209700000D03*
X101200000Y-209700000D03*
%TD*%
D30*
%TO.C,R19*%
X113225000Y-87849994D03*
X114875000Y-87849994D03*
%TD*%
D22*
%TO.C,R2*%
X98000000Y-199800000D03*
X98000000Y-197800000D03*
%TD*%
D40*
%TO.C,C11*%
X108300000Y-82124994D03*
X108300000Y-80574994D03*
%TD*%
D27*
%TO.C,J5*%
X115050000Y-101599994D03*
D44*
X115050000Y-100849994D03*
D27*
X115050000Y-100099994D03*
D29*
X113050000Y-101599994D03*
D44*
X113050000Y-100849994D03*
D29*
X113050000Y-100099994D03*
X111050000Y-101599994D03*
D44*
X111050000Y-100849994D03*
D29*
X111050000Y-100099994D03*
X109050000Y-101599994D03*
D44*
X109050000Y-100849994D03*
D29*
X109050000Y-100099994D03*
X107050000Y-101599994D03*
D44*
X107050000Y-100849994D03*
D29*
X107050000Y-100099994D03*
X105050000Y-101599994D03*
D44*
X105050000Y-100849994D03*
D29*
X105050000Y-100099994D03*
X103050000Y-101599994D03*
D44*
X103050000Y-100849994D03*
D29*
X103050000Y-100099994D03*
X101050000Y-101599994D03*
D44*
X101050000Y-100849994D03*
D29*
X101050000Y-100099994D03*
X99050000Y-101599994D03*
D44*
X99050000Y-100849994D03*
D29*
X99050000Y-100099994D03*
X97050000Y-101599994D03*
D44*
X97050000Y-100849994D03*
D29*
X97050000Y-100099994D03*
%TD*%
D48*
%TO.C,J1*%
X108910000Y-216770000D03*
X103130000Y-216770000D03*
D49*
X109245000Y-214825000D03*
X108470000Y-214825000D03*
D50*
X107770000Y-214825000D03*
X107270000Y-214825000D03*
X106770000Y-214825000D03*
X106270000Y-214825000D03*
X105770000Y-214825000D03*
X105270000Y-214825000D03*
X104770000Y-214825000D03*
X104270000Y-214825000D03*
D49*
X103570000Y-214825000D03*
X102795000Y-214825000D03*
%TD*%
D51*
%TO.C,U3*%
X107150000Y-91137494D03*
X106750000Y-91137494D03*
X106350000Y-91137494D03*
X105950000Y-91137494D03*
X105550000Y-91137494D03*
X105150000Y-91137494D03*
X104750000Y-91137494D03*
X104350000Y-91137494D03*
X103950000Y-91137494D03*
X103550000Y-91137494D03*
X103150000Y-91137494D03*
X102750000Y-91137494D03*
X102350000Y-91137494D03*
X101950000Y-91137494D03*
D52*
X101112500Y-90299994D03*
X101112500Y-89899994D03*
X101112500Y-89499994D03*
X101112500Y-89099994D03*
X101112500Y-88699994D03*
X101112500Y-88299994D03*
X101112500Y-87899994D03*
X101112500Y-87499994D03*
X101112500Y-87099994D03*
X101112500Y-86699994D03*
X101112500Y-86299994D03*
X101112500Y-85899994D03*
X101112500Y-85499994D03*
X101112500Y-85099994D03*
D51*
X101950000Y-84262494D03*
X102350000Y-84262494D03*
X102750000Y-84262494D03*
X103150000Y-84262494D03*
X103550000Y-84262494D03*
X103950000Y-84262494D03*
X104350000Y-84262494D03*
X104750000Y-84262494D03*
X105150000Y-84262494D03*
X105550000Y-84262494D03*
X105950000Y-84262494D03*
X106350000Y-84262494D03*
X106750000Y-84262494D03*
X107150000Y-84262494D03*
D52*
X107987500Y-85099994D03*
X107987500Y-85499994D03*
X107987500Y-85899994D03*
X107987500Y-86299994D03*
X107987500Y-86699994D03*
X107987500Y-87099994D03*
X107987500Y-87499994D03*
X107987500Y-87899994D03*
X107987500Y-88299994D03*
X107987500Y-88699994D03*
X107987500Y-89099994D03*
X107987500Y-89499994D03*
X107987500Y-89899994D03*
X107987500Y-90299994D03*
D53*
X103350000Y-88899994D03*
X104150000Y-88899994D03*
X104950000Y-88899994D03*
X105750000Y-88899994D03*
X103350000Y-88099994D03*
X104150000Y-88099994D03*
X104950000Y-88099994D03*
X105750000Y-88099994D03*
X103350000Y-87299994D03*
X104150000Y-87299994D03*
X104950000Y-87299994D03*
X105750000Y-87299994D03*
X103350000Y-86499994D03*
X104150000Y-86499994D03*
X104950000Y-86499994D03*
X105750000Y-86499994D03*
%TD*%
D22*
%TO.C,R4*%
X122000000Y-199800000D03*
X122000000Y-197800000D03*
%TD*%
D21*
%TO.C,C7*%
X107650000Y-92624994D03*
X107650000Y-94174994D03*
%TD*%
D36*
%TO.C,C16*%
X97275000Y-91599994D03*
X98825000Y-91599994D03*
%TD*%
%TO.C,C14*%
X110025000Y-84849994D03*
X111575000Y-84849994D03*
%TD*%
%TO.C,C13*%
X110025000Y-88099994D03*
X111575000Y-88099994D03*
%TD*%
D54*
%TO.C,C5*%
X121562500Y-220000000D03*
X123637500Y-220000000D03*
%TD*%
D55*
%TO.C,Y1*%
X98750000Y-88224994D03*
X98750000Y-89974994D03*
X97350000Y-89974994D03*
X97350000Y-88224994D03*
%TD*%
D30*
%TO.C,R18*%
X113225000Y-86349994D03*
X114875000Y-86349994D03*
%TD*%
D27*
%TO.C,J4*%
X117050000Y-98099994D03*
D28*
X117800000Y-98099994D03*
D27*
X118550000Y-98099994D03*
D29*
X117050000Y-96099994D03*
D28*
X117800000Y-96099994D03*
D29*
X118550000Y-96099994D03*
X117050000Y-94099994D03*
D28*
X117800000Y-94099994D03*
D29*
X118550000Y-94099994D03*
X117050000Y-92099994D03*
D28*
X117800000Y-92099994D03*
D29*
X118550000Y-92099994D03*
X117050000Y-90099994D03*
D28*
X117800000Y-90099994D03*
D29*
X118550000Y-90099994D03*
X117050000Y-88099994D03*
D28*
X117800000Y-88099994D03*
D29*
X118550000Y-88099994D03*
X117050000Y-86099994D03*
D28*
X117800000Y-86099994D03*
D29*
X118550000Y-86099994D03*
X117050000Y-84099994D03*
D28*
X117800000Y-84099994D03*
D29*
X118550000Y-84099994D03*
X117050000Y-82099994D03*
D28*
X117800000Y-82099994D03*
D29*
X118550000Y-82099994D03*
X117050000Y-80099994D03*
D28*
X117800000Y-80099994D03*
D29*
X118550000Y-80099994D03*
%TD*%
D56*
%TO.C,D1*%
X133800000Y-209150000D03*
X133800000Y-212450000D03*
%TD*%
D57*
%TO.C,SW1*%
X108950000Y-97099994D03*
X112350000Y-97099994D03*
%TD*%
D37*
%TO.C,C17*%
X98825000Y-86599994D03*
X97275000Y-86599994D03*
%TD*%
D58*
%TO.C,Q1*%
X122100000Y-212500000D03*
X124000000Y-212500000D03*
X123050000Y-214375000D03*
%TD*%
D30*
%TO.C,R17*%
X109975000Y-81849994D03*
X111625000Y-81849994D03*
%TD*%
%LPD*%
M02*
